<svg xmlns="http://www.w3.org/2000/svg" xmlns:xlink="http://www.w3.org/1999/xlink" version="1.1" class="marks" width="420" height="364" viewBox="0 0 420 364"><rect width="420" height="364" fill="white"/><g fill="none" stroke-miterlimit="10" transform="translate(53,27)"><g class="mark-group role-frame root" role="graphics-object" aria-roledescription="group mark container"><g transform="translate(0,0)"><path class="background" aria-hidden="true" d="M0.5,0.5h300v300h-300Z" stroke="#ddd"/><g><g class="mark-group role-axis" aria-hidden="true"><g transform="translate(0.5,300.5)"><path class="background" aria-hidden="true" d="M0,0h0v0h0Z" pointer-events="none"/><g><g class="mark-rule role-axis-grid" pointer-events="none"><line transform="translate(0,-300)" x2="0" y2="300" stroke="#ddd" stroke-width="1" opacity="1"/><line transform="translate(38,-300)" x2="0" y2="300" stroke="#ddd" stroke-width="1" opacity="1"/><line transform="translate(75,-300)" x2="0" y2="300" stroke="#ddd" stroke-width="1" opacity="1"/><line transform="translate(113,-300)" x2="0" y2="300" stroke="#ddd" stroke-width="1" opacity="1"/><line transform="translate(150,-300)" x2="0" y2="300" stroke="#ddd" stroke-width="1" opacity="1"/><line transform="translate(188,-300)" x2="0" y2="300" stroke="#ddd" stroke-width="1" opacity="1"/><line transform="translate(225,-300)" x2="0" y2="300" stroke="#ddd" stroke-width="1" opacity="1"/><line transform="translate(263,-300)" x2="0" y2="300" stroke="#ddd" stroke-width="1" opacity="1"/><line transform="translate(300,-300)" x2="0" y2="300" stroke="#ddd" stroke-width="1" opacity="1"/></g></g><path class="foreground" aria-hidden="true" d="" pointer-events="none" display="none"/></g></g><g class="mark-group role-axis" aria-hidden="true"><g transform="translate(0.5,0.5)"><path class="background" aria-hidden="true" d="M0,0h0v0h0Z" pointer-events="none"/><g><g class="mark-rule role-axis-grid" pointer-events="none"><line transform="translate(0,300)" x2="300" y2="0" stroke="#ddd" stroke-width="1" opacity="1"/><line transform="translate(0,267)" x2="300" y2="0" stroke="#ddd" stroke-width="1" opacity="1"/><line transform="translate(0,233)" x2="300" y2="0" stroke="#ddd" stroke-width="1" opacity="1"/><line transform="translate(0,200)" x2="300" y2="0" stroke="#ddd" stroke-width="1" opacity="1"/><line transform="translate(0,167)" x2="300" y2="0" stroke="#ddd" stroke-width="1" opacity="1"/><line transform="translate(0,133)" x2="300" y2="0" stroke="#ddd" stroke-width="1" opacity="1"/><line transform="translate(0,100)" x2="300" y2="0" stroke="#ddd" stroke-width="1" opacity="1"/><line transform="translate(0,67)" x2="300" y2="0" stroke="#ddd" stroke-width="1" opacity="1"/><line transform="translate(0,33)" x2="300" y2="0" stroke="#ddd" stroke-width="1" opacity="1"/><line transform="translate(0,0)" x2="300" y2="0" stroke="#ddd" stroke-width="1" opacity="1"/></g></g><path class="foreground" aria-hidden="true" d="" pointer-events="none" display="none"/></g></g><g class="mark-group role-axis" role="graphics-symbol" aria-roledescription="axis" aria-label="X-axis titled 'Instagram Reels Hashtag to Words Ratio' for a linear scale with values from 0 to 8"><g transform="translate(0.5,300.5)"><path class="background" aria-hidden="true" d="M0,0h0v0h0Z" pointer-events="none"/><g><g class="mark-rule role-axis-tick" pointer-events="none"><line transform="translate(0,0)" x2="0" y2="5" stroke="#888" stroke-width="1" opacity="1"/><line transform="translate(38,0)" x2="0" y2="5" stroke="#888" stroke-width="1" opacity="1"/><line transform="translate(75,0)" x2="0" y2="5" stroke="#888" stroke-width="1" opacity="1"/><line transform="translate(113,0)" x2="0" y2="5" stroke="#888" stroke-width="1" opacity="1"/><line transform="translate(150,0)" x2="0" y2="5" stroke="#888" stroke-width="1" opacity="1"/><line transform="translate(188,0)" x2="0" y2="5" stroke="#888" stroke-width="1" opacity="1"/><line transform="translate(225,0)" x2="0" y2="5" stroke="#888" stroke-width="1" opacity="1"/><line transform="translate(263,0)" x2="0" y2="5" stroke="#888" stroke-width="1" opacity="1"/><line transform="translate(300,0)" x2="0" y2="5" stroke="#888" stroke-width="1" opacity="1"/></g><g class="mark-text role-axis-label" pointer-events="none"><text text-anchor="start" transform="translate(0,15)" font-family="sans-serif" font-size="10px" fill="#000" opacity="1">0</text><text text-anchor="middle" transform="translate(37.5,15)" font-family="sans-serif" font-size="10px" fill="#000" opacity="1">1</text><text text-anchor="middle" transform="translate(75,15)" font-family="sans-serif" font-size="10px" fill="#000" opacity="1">2</text><text text-anchor="middle" transform="translate(112.5,15)" font-family="sans-serif" font-size="10px" fill="#000" opacity="1">3</text><text text-anchor="middle" transform="translate(150,15)" font-family="sans-serif" font-size="10px" fill="#000" opacity="1">4</text><text text-anchor="middle" transform="translate(187.5,15)" font-family="sans-serif" font-size="10px" fill="#000" opacity="1">5</text><text text-anchor="middle" transform="translate(225,15)" font-family="sans-serif" font-size="10px" fill="#000" opacity="1">6</text><text text-anchor="middle" transform="translate(262.5,15)" font-family="sans-serif" font-size="10px" fill="#000" opacity="1">7</text><text text-anchor="end" transform="translate(300,15)" font-family="sans-serif" font-size="10px" fill="#000" opacity="1">8</text></g><g class="mark-rule role-axis-domain" pointer-events="none"><line transform="translate(0,0)" x2="300" y2="0" stroke="#888" stroke-width="1" opacity="1"/></g><g class="mark-text role-axis-title" pointer-events="none"><text text-anchor="middle" transform="translate(150,30)" font-family="sans-serif" font-size="11px" font-weight="bold" fill="#000" opacity="1">Instagram Reels Hashtag to Words Ratio</text></g></g><path class="foreground" aria-hidden="true" d="" pointer-events="none" display="none"/></g></g><g class="mark-group role-axis" role="graphics-symbol" aria-roledescription="axis" aria-label="Y-axis titled 'Views' for a linear scale with values from 0 to 9,000"><g transform="translate(0.5,0.5)"><path class="background" aria-hidden="true" d="M0,0h0v0h0Z" pointer-events="none"/><g><g class="mark-rule role-axis-tick" pointer-events="none"><line transform="translate(0,300)" x2="-5" y2="0" stroke="#888" stroke-width="1" opacity="1"/><line transform="translate(0,267)" x2="-5" y2="0" stroke="#888" stroke-width="1" opacity="1"/><line transform="translate(0,233)" x2="-5" y2="0" stroke="#888" stroke-width="1" opacity="1"/><line transform="translate(0,200)" x2="-5" y2="0" stroke="#888" stroke-width="1" opacity="1"/><line transform="translate(0,167)" x2="-5" y2="0" stroke="#888" stroke-width="1" opacity="1"/><line transform="translate(0,133)" x2="-5" y2="0" stroke="#888" stroke-width="1" opacity="1"/><line transform="translate(0,100)" x2="-5" y2="0" stroke="#888" stroke-width="1" opacity="1"/><line transform="translate(0,67)" x2="-5" y2="0" stroke="#888" stroke-width="1" opacity="1"/><line transform="translate(0,33)" x2="-5" y2="0" stroke="#888" stroke-width="1" opacity="1"/><line transform="translate(0,0)" x2="-5" y2="0" stroke="#888" stroke-width="1" opacity="1"/></g><g class="mark-text role-axis-label" pointer-events="none"><text text-anchor="end" transform="translate(-7,303)" font-family="sans-serif" font-size="10px" fill="#000" opacity="1">0</text><text text-anchor="end" transform="translate(-7,269.66666666666663)" font-family="sans-serif" font-size="10px" fill="#000" opacity="1">1,000</text><text text-anchor="end" transform="translate(-7,236.33333333333334)" font-family="sans-serif" font-size="10px" fill="#000" opacity="1">2,000</text><text text-anchor="end" transform="translate(-7,203.00000000000003)" font-family="sans-serif" font-size="10px" fill="#000" opacity="1">3,000</text><text text-anchor="end" transform="translate(-7,169.66666666666669)" font-family="sans-serif" font-size="10px" fill="#000" opacity="1">4,000</text><text text-anchor="end" transform="translate(-7,136.33333333333331)" font-family="sans-serif" font-size="10px" fill="#000" opacity="1">5,000</text><text text-anchor="end" transform="translate(-7,103.00000000000001)" font-family="sans-serif" font-size="10px" fill="#000" opacity="1">6,000</text><text text-anchor="end" transform="translate(-7,69.66666666666666)" font-family="sans-serif" font-size="10px" fill="#000" opacity="1">7,000</text><text text-anchor="end" transform="translate(-7,36.33333333333335)" font-family="sans-serif" font-size="10px" fill="#000" opacity="1">8,000</text><text text-anchor="end" transform="translate(-7,3)" font-family="sans-serif" font-size="10px" fill="#000" opacity="1">9,000</text></g><g class="mark-rule role-axis-domain" pointer-events="none"><line transform="translate(0,300)" x2="0" y2="-300" stroke="#888" stroke-width="1" opacity="1"/></g><g class="mark-text role-axis-title" pointer-events="none"><text text-anchor="middle" transform="translate(-36.0244140625,150) rotate(-90) translate(0,-2)" font-family="sans-serif" font-size="11px" font-weight="bold" fill="#000" opacity="1">Views</text></g></g><path class="foreground" aria-hidden="true" d="" pointer-events="none" display="none"/></g></g><g class="mark-symbol role-mark marks" clip-path="url(#clip11)" role="graphics-object" aria-roledescription="symbol mark container"><path aria-label="Instagram Reels Hashtag to Words Ratio: 1.57142857143; Views: 640; Likes: 298" role="graphics-symbol" aria-roledescription="circle" transform="translate(58.92857142857143,278.6666666666667)" d="M3.873,0A3.873,3.873,0,1,1,-3.873,0A3.873,3.873,0,1,1,3.873,0" fill="rgb(135, 7, 166)" stroke-width="2" opacity="0.7"/><path aria-label="Instagram Reels Hashtag to Words Ratio: 0.846153846154; Views: 402; Likes: 271" role="graphics-symbol" aria-roledescription="circle" transform="translate(31.73076923076923,286.6)" d="M3.873,0A3.873,3.873,0,1,1,-3.873,0A3.873,3.873,0,1,1,3.873,0" fill="rgb(126, 3, 168)" stroke-width="2" opacity="0.7"/><path aria-label="Instagram Reels Hashtag to Words Ratio: 4; Views: 143; Likes: 44" role="graphics-symbol" aria-roledescription="circle" transform="translate(150,295.23333333333335)" d="M3.873,0A3.873,3.873,0,1,1,-3.873,0A3.873,3.873,0,1,1,3.873,0" fill="rgb(35, 6, 144)" stroke-width="2" opacity="0.7"/><path aria-label="Instagram Reels Hashtag to Words Ratio: 0.48; Views: 558; Likes: 203" role="graphics-symbol" aria-roledescription="circle" transform="translate(18,281.4)" d="M3.873,0A3.873,3.873,0,1,1,-3.873,0A3.873,3.873,0,1,1,3.873,0" fill="rgb(100, 0, 167)" stroke-width="2" opacity="0.7"/><path aria-label="Instagram Reels Hashtag to Words Ratio: 8; Views: 721; Likes: 149" role="graphics-symbol" aria-roledescription="circle" transform="translate(300,275.96666666666664)" d="M3.873,0A3.873,3.873,0,1,1,-3.873,0A3.873,3.873,0,1,1,3.873,0" fill="rgb(80, 2, 162)" stroke-width="2" opacity="0.7"/><path aria-label="Instagram Reels Hashtag to Words Ratio: 6; Views: 334; Likes: 107" role="graphics-symbol" aria-roledescription="circle" transform="translate(225,288.8666666666667)" d="M3.873,0A3.873,3.873,0,1,1,-3.873,0A3.873,3.873,0,1,1,3.873,0" fill="rgb(63, 3, 156)" stroke-width="2" opacity="0.7"/><path aria-label="Instagram Reels Hashtag to Words Ratio: 5; Views: 855; Likes: 202" role="graphics-symbol" aria-roledescription="circle" transform="translate(187.5,271.5)" d="M3.873,0A3.873,3.873,0,1,1,-3.873,0A3.873,3.873,0,1,1,3.873,0" fill="rgb(99, 1, 167)" stroke-width="2" opacity="0.7"/><path aria-label="Instagram Reels Hashtag to Words Ratio: 2.83333333333; Views: 781; Likes: 229" role="graphics-symbol" aria-roledescription="circle" transform="translate(106.25,273.9666666666667)" d="M3.873,0A3.873,3.873,0,1,1,-3.873,0A3.873,3.873,0,1,1,3.873,0" fill="rgb(110, 0, 168)" stroke-width="2" opacity="0.7"/><path aria-label="Instagram Reels Hashtag to Words Ratio: 0.68; Views: 57; Likes: 15" role="graphics-symbol" aria-roledescription="circle" transform="translate(25.500000000000004,298.1)" d="M3.873,0A3.873,3.873,0,1,1,-3.873,0A3.873,3.873,0,1,1,3.873,0" fill="rgb(17, 8, 137)" stroke-width="2" opacity="0.7"/><path aria-label="Instagram Reels Hashtag to Words Ratio: 1.16666666667; Views: 139; Likes: 40" role="graphics-symbol" aria-roledescription="circle" transform="translate(43.75,295.3666666666667)" d="M3.873,0A3.873,3.873,0,1,1,-3.873,0A3.873,3.873,0,1,1,3.873,0" fill="rgb(32, 6, 143)" stroke-width="2" opacity="0.7"/><path aria-label="Instagram Reels Hashtag to Words Ratio: 1.5; Views: 66; Likes: 15" role="graphics-symbol" aria-roledescription="circle" transform="translate(56.25,297.8)" d="M3.873,0A3.873,3.873,0,1,1,-3.873,0A3.873,3.873,0,1,1,3.873,0" fill="rgb(17, 8, 137)" stroke-width="2" opacity="0.7"/><path aria-label="Instagram Reels Hashtag to Words Ratio: 4.66666666667; Views: 70; Likes: 24" role="graphics-symbol" aria-roledescription="circle" transform="translate(175,297.6666666666667)" d="M3.873,0A3.873,3.873,0,1,1,-3.873,0A3.873,3.873,0,1,1,3.873,0" fill="rgb(22, 7, 139)" stroke-width="2" opacity="0.7"/><path aria-label="Instagram Reels Hashtag to Words Ratio: 1.88888888889; Views: 65; Likes: 16" role="graphics-symbol" aria-roledescription="circle" transform="translate(70.83333333333333,297.8333333333333)" d="M3.873,0A3.873,3.873,0,1,1,-3.873,0A3.873,3.873,0,1,1,3.873,0" fill="rgb(17, 8, 137)" stroke-width="2" opacity="0.7"/><path aria-label="Instagram Reels Hashtag to Words Ratio: 1.46153846154; Views: 60; Likes: 21" role="graphics-symbol" aria-roledescription="circle" transform="translate(54.80769230769231,298)" d="M3.873,0A3.873,3.873,0,1,1,-3.873,0A3.873,3.873,0,1,1,3.873,0" fill="rgb(21, 7, 138)" stroke-width="2" opacity="0.7"/><path aria-label="Instagram Reels Hashtag to Words Ratio: 2.66666666667; Views: 48; Likes: 12" role="graphics-symbol" aria-roledescription="circle" transform="translate(100,298.40000000000003)" d="M3.873,0A3.873,3.873,0,1,1,-3.873,0A3.873,3.873,0,1,1,3.873,0" fill="rgb(15, 8, 136)" stroke-width="2" opacity="0.7"/><path aria-label="Instagram Reels Hashtag to Words Ratio: 1.85714285714; Views: 965; Likes: 178" role="graphics-symbol" aria-roledescription="circle" transform="translate(69.64285714285714,267.8333333333333)" d="M3.873,0A3.873,3.873,0,1,1,-3.873,0A3.873,3.873,0,1,1,3.873,0" fill="rgb(91, 1, 165)" stroke-width="2" opacity="0.7"/><path aria-label="Instagram Reels Hashtag to Words Ratio: 0.444444444444; Views: 338; Likes: 70" role="graphics-symbol" aria-roledescription="circle" transform="translate(16.666666666666664,288.73333333333335)" d="M3.873,0A3.873,3.873,0,1,1,-3.873,0A3.873,3.873,0,1,1,3.873,0" fill="rgb(47, 5, 149)" stroke-width="2" opacity="0.7"/><path aria-label="Instagram Reels Hashtag to Words Ratio: 1.375; Views: 8238; Likes: 1062" role="graphics-symbol" aria-roledescription="circle" transform="translate(51.5625,25.4)" d="M3.873,0A3.873,3.873,0,1,1,-3.873,0A3.873,3.873,0,1,1,3.873,0" fill="rgb(240, 249, 33)" stroke-width="2" opacity="0.7"/><path aria-label="Instagram Reels Hashtag to Words Ratio: 0.789473684211; Views: 45; Likes: 15" role="graphics-symbol" aria-roledescription="circle" transform="translate(29.605263157894736,298.5)" d="M3.873,0A3.873,3.873,0,1,1,-3.873,0A3.873,3.873,0,1,1,3.873,0" fill="rgb(17, 8, 137)" stroke-width="2" opacity="0.7"/><path aria-label="Instagram Reels Hashtag to Words Ratio: 1.5; Views: 829; Likes: 342" role="graphics-symbol" aria-roledescription="circle" transform="translate(56.25,272.3666666666667)" d="M3.873,0A3.873,3.873,0,1,1,-3.873,0A3.873,3.873,0,1,1,3.873,0" fill="rgb(150, 18, 161)" stroke-width="2" opacity="0.7"/><path aria-label="Instagram Reels Hashtag to Words Ratio: 0.545454545455; Views: 236; Likes: 54" role="graphics-symbol" aria-roledescription="circle" transform="translate(20.454545454545453,292.1333333333333)" d="M3.873,0A3.873,3.873,0,1,1,-3.873,0A3.873,3.873,0,1,1,3.873,0" fill="rgb(40, 6, 146)" stroke-width="2" opacity="0.7"/><path aria-label="Instagram Reels Hashtag to Words Ratio: 1.2; Views: 755; Likes: 272" role="graphics-symbol" aria-roledescription="circle" transform="translate(45,274.8333333333333)" d="M3.873,0A3.873,3.873,0,1,1,-3.873,0A3.873,3.873,0,1,1,3.873,0" fill="rgb(126, 3, 168)" stroke-width="2" opacity="0.7"/><path aria-label="Instagram Reels Hashtag to Words Ratio: 1.45454545455; Views: 193; Likes: 23" role="graphics-symbol" aria-roledescription="circle" transform="translate(54.54545454545455,293.56666666666666)" d="M3.873,0A3.873,3.873,0,1,1,-3.873,0A3.873,3.873,0,1,1,3.873,0" fill="rgb(22, 7, 139)" stroke-width="2" opacity="0.7"/><path aria-label="Instagram Reels Hashtag to Words Ratio: 3.6; Views: 33; Likes: 9" role="graphics-symbol" aria-roledescription="circle" transform="translate(135,298.9)" d="M3.873,0A3.873,3.873,0,1,1,-3.873,0A3.873,3.873,0,1,1,3.873,0" fill="rgb(13, 8, 135)" stroke-width="2" opacity="0.7"/><path aria-label="Instagram Reels Hashtag to Words Ratio: 2.75; Views: 118; Likes: 50" role="graphics-symbol" aria-roledescription="circle" transform="translate(103.125,296.06666666666666)" d="M3.873,0A3.873,3.873,0,1,1,-3.873,0A3.873,3.873,0,1,1,3.873,0" fill="rgb(38, 6, 145)" stroke-width="2" opacity="0.7"/><path aria-label="Instagram Reels Hashtag to Words Ratio: 4; Views: 244; Likes: 53" role="graphics-symbol" aria-roledescription="circle" transform="translate(150,291.8666666666667)" d="M3.873,0A3.873,3.873,0,1,1,-3.873,0A3.873,3.873,0,1,1,3.873,0" fill="rgb(39, 6, 146)" stroke-width="2" opacity="0.7"/><path aria-label="Instagram Reels Hashtag to Words Ratio: 1; Views: 834; Likes: 169" role="graphics-symbol" aria-roledescription="circle" transform="translate(37.5,272.2)" d="M3.873,0A3.873,3.873,0,1,1,-3.873,0A3.873,3.873,0,1,1,3.873,0" fill="rgb(87, 1, 164)" stroke-width="2" opacity="0.7"/><path aria-label="Instagram Reels Hashtag to Words Ratio: 1.36363636364; Views: 836; Likes: 222" role="graphics-symbol" aria-roledescription="circle" transform="translate(51.13636363636363,272.1333333333333)" d="M3.873,0A3.873,3.873,0,1,1,-3.873,0A3.873,3.873,0,1,1,3.873,0" fill="rgb(107, 0, 168)" stroke-width="2" opacity="0.7"/><path aria-label="Instagram Reels Hashtag to Words Ratio: 2.5; Views: 232; Likes: 47" role="graphics-symbol" aria-roledescription="circle" transform="translate(93.75,292.26666666666665)" d="M3.873,0A3.873,3.873,0,1,1,-3.873,0A3.873,3.873,0,1,1,3.873,0" fill="rgb(36, 6, 145)" stroke-width="2" opacity="0.7"/><path aria-label="Instagram Reels Hashtag to Words Ratio: 0.705882352941; Views: 287; Likes: 54" role="graphics-symbol" aria-roledescription="circle" transform="translate(26.47058823529412,290.43333333333334)" d="M3.873,0A3.873,3.873,0,1,1,-3.873,0A3.873,3.873,0,1,1,3.873,0" fill="rgb(40, 6, 146)" stroke-width="2" opacity="0.7"/><path aria-label="Instagram Reels Hashtag to Words Ratio: 1.125; Views: 48; Likes: 15" role="graphics-symbol" aria-roledescription="circle" transform="translate(42.1875,298.40000000000003)" d="M3.873,0A3.873,3.873,0,1,1,-3.873,0A3.873,3.873,0,1,1,3.873,0" fill="rgb(17, 8, 137)" stroke-width="2" opacity="0.7"/><path aria-label="Instagram Reels Hashtag to Words Ratio: 0.411764705882; Views: 365; Likes: 102" role="graphics-symbol" aria-roledescription="circle" transform="translate(15.441176470588234,287.8333333333333)" d="M3.873,0A3.873,3.873,0,1,1,-3.873,0A3.873,3.873,0,1,1,3.873,0" fill="rgb(61, 4, 155)" stroke-width="2" opacity="0.7"/><path aria-label="Instagram Reels Hashtag to Words Ratio: 3; Views: 48; Likes: 14" role="graphics-symbol" aria-roledescription="circle" transform="translate(112.5,298.40000000000003)" d="M3.873,0A3.873,3.873,0,1,1,-3.873,0A3.873,3.873,0,1,1,3.873,0" fill="rgb(16, 8, 136)" stroke-width="2" opacity="0.7"/><path aria-label="Instagram Reels Hashtag to Words Ratio: 0.3125; Views: 37; Likes: 12" role="graphics-symbol" aria-roledescription="circle" transform="translate(11.71875,298.7666666666667)" d="M3.873,0A3.873,3.873,0,1,1,-3.873,0A3.873,3.873,0,1,1,3.873,0" fill="rgb(15, 8, 136)" stroke-width="2" opacity="0.7"/><path aria-label="Instagram Reels Hashtag to Words Ratio: 1; Views: 469; Likes: 136" role="graphics-symbol" aria-roledescription="circle" transform="translate(37.5,284.3666666666667)" d="M3.873,0A3.873,3.873,0,1,1,-3.873,0A3.873,3.873,0,1,1,3.873,0" fill="rgb(75, 2, 160)" stroke-width="2" opacity="0.7"/></g><g class="mark-group role-legend" role="graphics-symbol" aria-roledescription="legend" aria-label="Gradient legend titled 'Likes' for fill color with values from 9 to 1,062"><g transform="translate(318,0)"><path class="background" aria-hidden="true" d="M0,0h44v216h-44Z" pointer-events="none"/><g><g class="mark-group role-legend-entry"><g transform="translate(0,16)"><path class="background" aria-hidden="true" d="M0,0h0v0h0Z" pointer-events="none"/><g><g class="mark-rect role-legend-gradient" pointer-events="none"><path d="M0,0h16v200h-16Z" fill="url(#gradient_4)" stroke="#ddd" stroke-width="0" opacity="0.7"/></g><g class="mark-text role-legend-label" pointer-events="none"><text text-anchor="start" transform="translate(18,166.7226970560304)" font-family="sans-serif" font-size="10px" fill="#000" opacity="1">200</text><text text-anchor="start" transform="translate(18,128.73599240265906)" font-family="sans-serif" font-size="10px" fill="#000" opacity="1">400</text><text text-anchor="start" transform="translate(18,90.74928774928775)" font-family="sans-serif" font-size="10px" fill="#000" opacity="1">600</text><text text-anchor="start" transform="translate(18,52.76258309591643)" font-family="sans-serif" font-size="10px" fill="#000" opacity="1">800</text><text text-anchor="start" transform="translate(18,14.775878442545107)" font-family="sans-serif" font-size="10px" fill="#000" opacity="1">1,000</text></g></g><path class="foreground" aria-hidden="true" d="" pointer-events="none" display="none"/></g></g><g class="mark-text role-legend-title" pointer-events="none"><text text-anchor="start" transform="translate(0,9)" font-family="sans-serif" font-size="11px" font-weight="bold" fill="#000" opacity="1">Likes</text></g></g><path class="foreground" aria-hidden="true" d="" pointer-events="none" display="none"/></g></g><g class="mark-group role-title"><g transform="translate(150,-22)"><path class="background" aria-hidden="true" d="M0,0h0v0h0Z" pointer-events="none"/><g><g class="mark-text role-title-text" role="graphics-symbol" aria-roledescription="title" aria-label="Title text 'Views against Hashtag to Words Ratio in Captions'" pointer-events="none"><text text-anchor="middle" transform="translate(0,10)" font-family="sans-serif" font-size="13px" font-weight="bold" fill="#000" opacity="1">Views against Hashtag to Words Ratio in Captions</text></g></g><path class="foreground" aria-hidden="true" d="" pointer-events="none" display="none"/></g></g></g><path class="foreground" aria-hidden="true" d="" display="none"/></g></g></g><defs><linearGradient id="gradient_4" x1="0" x2="0" y1="1" y2="0"><stop offset="0" stop-color="rgb(13, 8, 135)"/><stop offset="0.0389363722697056" stop-color="rgb(38, 6, 145)"/><stop offset="0.08641975308641975" stop-color="rgb(60, 4, 155)"/><stop offset="0.1339031339031339" stop-color="rgb(80, 2, 162)"/><stop offset="0.18138651471984804" stop-color="rgb(99, 1, 167)"/><stop offset="0.2288698955365622" stop-color="rgb(118, 1, 168)"/><stop offset="0.27635327635327633" stop-color="rgb(135, 7, 166)"/><stop offset="0.3238366571699905" stop-color="rgb(153, 20, 160)"/><stop offset="0.37132003798670465" stop-color="rgb(168, 34, 151)"/><stop offset="0.4188034188034188" stop-color="rgb(182, 48, 139)"/><stop offset="0.466286799620133" stop-color="rgb(195, 61, 128)"/><stop offset="0.5137701804368471" stop-color="rgb(206, 75, 118)"/><stop offset="0.5612535612535613" stop-color="rgb(217, 89, 106)"/><stop offset="0.6087369420702754" stop-color="rgb(227, 103, 96)"/><stop offset="0.6562203228869895" stop-color="rgb(235, 118, 86)"/><stop offset="0.7037037037037037" stop-color="rgb(242, 132, 75)"/><stop offset="0.7511870845204178" stop-color="rgb(248, 149, 64)"/><stop offset="0.798670465337132" stop-color="rgb(252, 166, 54)"/><stop offset="0.8461538461538461" stop-color="rgb(253, 184, 45)"/><stop offset="0.8936372269705603" stop-color="rgb(252, 203, 38)"/><stop offset="0.9411206077872745" stop-color="rgb(248, 223, 37)"/><stop offset="0.9886039886039886" stop-color="rgb(242, 244, 35)"/><stop offset="1" stop-color="rgb(240, 249, 33)"/></linearGradient><clipPath id="clip11"><rect x="0" y="0" width="300" height="300"/></clipPath></defs></svg>