<svg xmlns="http://www.w3.org/2000/svg" xmlns:xlink="http://www.w3.org/1999/xlink" version="1.1" class="marks" width="353" height="364" viewBox="0 0 353 364"><rect width="353" height="364" fill="white"/><g fill="none" stroke-miterlimit="10" transform="translate(47,27)"><g class="mark-group role-frame root" role="graphics-object" aria-roledescription="group mark container"><g transform="translate(0,0)"><path class="background" aria-hidden="true" d="M0.5,0.5h300v300h-300Z" stroke="#ddd"/><g><g class="mark-group role-axis" aria-hidden="true"><g transform="translate(0.5,300.5)"><path class="background" aria-hidden="true" d="M0,0h0v0h0Z" pointer-events="none"/><g><g class="mark-rule role-axis-grid" pointer-events="none"><line transform="translate(0,-300)" x2="0" y2="300" stroke="#ddd" stroke-width="1" opacity="1"/><line transform="translate(43,-300)" x2="0" y2="300" stroke="#ddd" stroke-width="1" opacity="1"/><line transform="translate(86,-300)" x2="0" y2="300" stroke="#ddd" stroke-width="1" opacity="1"/><line transform="translate(129,-300)" x2="0" y2="300" stroke="#ddd" stroke-width="1" opacity="1"/><line transform="translate(171,-300)" x2="0" y2="300" stroke="#ddd" stroke-width="1" opacity="1"/><line transform="translate(214,-300)" x2="0" y2="300" stroke="#ddd" stroke-width="1" opacity="1"/><line transform="translate(257,-300)" x2="0" y2="300" stroke="#ddd" stroke-width="1" opacity="1"/><line transform="translate(300,-300)" x2="0" y2="300" stroke="#ddd" stroke-width="1" opacity="1"/></g></g><path class="foreground" aria-hidden="true" d="" pointer-events="none" display="none"/></g></g><g class="mark-group role-axis" aria-hidden="true"><g transform="translate(0.5,0.5)"><path class="background" aria-hidden="true" d="M0,0h0v0h0Z" pointer-events="none"/><g><g class="mark-rule role-axis-grid" pointer-events="none"><line transform="translate(0,300)" x2="300" y2="0" stroke="#ddd" stroke-width="1" opacity="1"/><line transform="translate(0,263)" x2="300" y2="0" stroke="#ddd" stroke-width="1" opacity="1"/><line transform="translate(0,225)" x2="300" y2="0" stroke="#ddd" stroke-width="1" opacity="1"/><line transform="translate(0,188)" x2="300" y2="0" stroke="#ddd" stroke-width="1" opacity="1"/><line transform="translate(0,150)" x2="300" y2="0" stroke="#ddd" stroke-width="1" opacity="1"/><line transform="translate(0,113)" x2="300" y2="0" stroke="#ddd" stroke-width="1" opacity="1"/><line transform="translate(0,75)" x2="300" y2="0" stroke="#ddd" stroke-width="1" opacity="1"/><line transform="translate(0,37)" x2="300" y2="0" stroke="#ddd" stroke-width="1" opacity="1"/><line transform="translate(0,0)" x2="300" y2="0" stroke="#ddd" stroke-width="1" opacity="1"/></g></g><path class="foreground" aria-hidden="true" d="" pointer-events="none" display="none"/></g></g><g class="mark-group role-axis" role="graphics-symbol" aria-roledescription="axis" aria-label="X-axis titled 'Instagram Reels Likes Per View' for a linear scale with values from 0.0 to 0.7"><g transform="translate(0.5,300.5)"><path class="background" aria-hidden="true" d="M0,0h0v0h0Z" pointer-events="none"/><g><g class="mark-rule role-axis-tick" pointer-events="none"><line transform="translate(0,0)" x2="0" y2="5" stroke="#888" stroke-width="1" opacity="1"/><line transform="translate(43,0)" x2="0" y2="5" stroke="#888" stroke-width="1" opacity="1"/><line transform="translate(86,0)" x2="0" y2="5" stroke="#888" stroke-width="1" opacity="1"/><line transform="translate(129,0)" x2="0" y2="5" stroke="#888" stroke-width="1" opacity="1"/><line transform="translate(171,0)" x2="0" y2="5" stroke="#888" stroke-width="1" opacity="1"/><line transform="translate(214,0)" x2="0" y2="5" stroke="#888" stroke-width="1" opacity="1"/><line transform="translate(257,0)" x2="0" y2="5" stroke="#888" stroke-width="1" opacity="1"/><line transform="translate(300,0)" x2="0" y2="5" stroke="#888" stroke-width="1" opacity="1"/></g><g class="mark-text role-axis-label" pointer-events="none"><text text-anchor="start" transform="translate(0,15)" font-family="sans-serif" font-size="10px" fill="#000" opacity="1">0.0</text><text text-anchor="middle" transform="translate(42.85714285714286,15)" font-family="sans-serif" font-size="10px" fill="#000" opacity="1">0.1</text><text text-anchor="middle" transform="translate(85.71428571428572,15)" font-family="sans-serif" font-size="10px" fill="#000" opacity="1">0.2</text><text text-anchor="middle" transform="translate(128.57142857142858,15)" font-family="sans-serif" font-size="10px" fill="#000" opacity="1">0.3</text><text text-anchor="middle" transform="translate(171.42857142857144,15)" font-family="sans-serif" font-size="10px" fill="#000" opacity="1">0.4</text><text text-anchor="middle" transform="translate(214.28571428571428,15)" font-family="sans-serif" font-size="10px" fill="#000" opacity="1">0.5</text><text text-anchor="middle" transform="translate(257.14285714285717,15)" font-family="sans-serif" font-size="10px" fill="#000" opacity="1">0.6</text><text text-anchor="end" transform="translate(300,15)" font-family="sans-serif" font-size="10px" fill="#000" opacity="1">0.7</text></g><g class="mark-rule role-axis-domain" pointer-events="none"><line transform="translate(0,0)" x2="300" y2="0" stroke="#888" stroke-width="1" opacity="1"/></g><g class="mark-text role-axis-title" pointer-events="none"><text text-anchor="middle" transform="translate(150,30)" font-family="sans-serif" font-size="11px" font-weight="bold" fill="#000" opacity="1">Instagram Reels Likes Per View</text></g></g><path class="foreground" aria-hidden="true" d="" pointer-events="none" display="none"/></g></g><g class="mark-group role-axis" role="graphics-symbol" aria-roledescription="axis" aria-label="Y-axis titled 'Youtube Shorts Likes Per View' for a linear scale with values from 0.00 to 0.16"><g transform="translate(0.5,0.5)"><path class="background" aria-hidden="true" d="M0,0h0v0h0Z" pointer-events="none"/><g><g class="mark-rule role-axis-tick" pointer-events="none"><line transform="translate(0,300)" x2="-5" y2="0" stroke="#888" stroke-width="1" opacity="1"/><line transform="translate(0,263)" x2="-5" y2="0" stroke="#888" stroke-width="1" opacity="1"/><line transform="translate(0,225)" x2="-5" y2="0" stroke="#888" stroke-width="1" opacity="1"/><line transform="translate(0,188)" x2="-5" y2="0" stroke="#888" stroke-width="1" opacity="1"/><line transform="translate(0,150)" x2="-5" y2="0" stroke="#888" stroke-width="1" opacity="1"/><line transform="translate(0,113)" x2="-5" y2="0" stroke="#888" stroke-width="1" opacity="1"/><line transform="translate(0,75)" x2="-5" y2="0" stroke="#888" stroke-width="1" opacity="1"/><line transform="translate(0,37)" x2="-5" y2="0" stroke="#888" stroke-width="1" opacity="1"/><line transform="translate(0,0)" x2="-5" y2="0" stroke="#888" stroke-width="1" opacity="1"/></g><g class="mark-text role-axis-label" pointer-events="none"><text text-anchor="end" transform="translate(-7,303)" font-family="sans-serif" font-size="10px" fill="#000" opacity="1">0.00</text><text text-anchor="end" transform="translate(-7,265.5)" font-family="sans-serif" font-size="10px" fill="#000" opacity="1">0.02</text><text text-anchor="end" transform="translate(-7,228)" font-family="sans-serif" font-size="10px" fill="#000" opacity="1">0.04</text><text text-anchor="end" transform="translate(-7,190.5)" font-family="sans-serif" font-size="10px" fill="#000" opacity="1">0.06</text><text text-anchor="end" transform="translate(-7,153)" font-family="sans-serif" font-size="10px" fill="#000" opacity="1">0.08</text><text text-anchor="end" transform="translate(-7,115.5)" font-family="sans-serif" font-size="10px" fill="#000" opacity="1">0.10</text><text text-anchor="end" transform="translate(-7,78)" font-family="sans-serif" font-size="10px" fill="#000" opacity="1">0.12</text><text text-anchor="end" transform="translate(-7,40.499999999999964)" font-family="sans-serif" font-size="10px" fill="#000" opacity="1">0.14</text><text text-anchor="end" transform="translate(-7,3)" font-family="sans-serif" font-size="10px" fill="#000" opacity="1">0.16</text></g><g class="mark-rule role-axis-domain" pointer-events="none"><line transform="translate(0,300)" x2="0" y2="-300" stroke="#888" stroke-width="1" opacity="1"/></g><g class="mark-text role-axis-title" pointer-events="none"><text text-anchor="middle" transform="translate(-30.462890625,150) rotate(-90) translate(0,-2)" font-family="sans-serif" font-size="11px" font-weight="bold" fill="#000" opacity="1">Youtube Shorts Likes Per View</text></g></g><path class="foreground" aria-hidden="true" d="" pointer-events="none" display="none"/></g></g><g class="mark-symbol role-mark view_18_marks" clip-path="url(#clip6)" role="graphics-object" aria-roledescription="symbol mark container"><path aria-label="Instagram Reels Likes Per View: 0.465625; Youtube Shorts Likes Per View: 0.08" role="graphics-symbol" aria-roledescription="circle" transform="translate(199.55357142857144,150)" d="M3.873,0A3.873,3.873,0,1,1,-3.873,0A3.873,3.873,0,1,1,3.873,0" fill="#DAA520" stroke-width="2" opacity="0.7"/><path aria-label="Instagram Reels Likes Per View: 0.674129353234; Youtube Shorts Likes Per View: 0.0663716814159" role="graphics-symbol" aria-roledescription="circle" transform="translate(288.91257995735606,175.55309734513276)" d="M3.873,0A3.873,3.873,0,1,1,-3.873,0A3.873,3.873,0,1,1,3.873,0" fill="#DAA520" stroke-width="2" opacity="0.7"/><path aria-label="Instagram Reels Likes Per View: 0.307692307692; Youtube Shorts Likes Per View: 0.132352941176" role="graphics-symbol" aria-roledescription="circle" transform="translate(131.86813186813188,51.838235294117666)" d="M3.873,0A3.873,3.873,0,1,1,-3.873,0A3.873,3.873,0,1,1,3.873,0" fill="#DAA520" stroke-width="2" opacity="0.7"/><path aria-label="Instagram Reels Likes Per View: 0.363799283154; Youtube Shorts Likes Per View: 0.0816326530612" role="graphics-symbol" aria-roledescription="circle" transform="translate(155.91397849462365,146.93877551020412)" d="M3.873,0A3.873,3.873,0,1,1,-3.873,0A3.873,3.873,0,1,1,3.873,0" fill="#DAA520" stroke-width="2" opacity="0.7"/><path aria-label="Instagram Reels Likes Per View: 0.20665742025; Youtube Shorts Likes Per View: 0.106796116505" role="graphics-symbol" aria-roledescription="circle" transform="translate(88.56746582127997,99.75728155339809)" d="M3.873,0A3.873,3.873,0,1,1,-3.873,0A3.873,3.873,0,1,1,3.873,0" fill="#DAA520" stroke-width="2" opacity="0.7"/><path aria-label="Instagram Reels Likes Per View: 0.320359281437; Youtube Shorts Likes Per View: 0.0769230769231" role="graphics-symbol" aria-roledescription="circle" transform="translate(137.29683490162535,155.76923076923075)" d="M3.873,0A3.873,3.873,0,1,1,-3.873,0A3.873,3.873,0,1,1,3.873,0" fill="#DAA520" stroke-width="2" opacity="0.7"/><path aria-label="Instagram Reels Likes Per View: 0.236257309942; Youtube Shorts Likes Per View: 0.0365902694009" role="graphics-symbol" aria-roledescription="circle" transform="translate(101.25313283208021,231.3932448733414)" d="M3.873,0A3.873,3.873,0,1,1,-3.873,0A3.873,3.873,0,1,1,3.873,0" fill="#DAA520" stroke-width="2" opacity="0.7"/><path aria-label="Instagram Reels Likes Per View: 0.293213828425; Youtube Shorts Likes Per View: 0" role="graphics-symbol" aria-roledescription="circle" transform="translate(125.66306932504116,300)" d="M3.873,0A3.873,3.873,0,1,1,-3.873,0A3.873,3.873,0,1,1,3.873,0" fill="#DAA520" stroke-width="2" opacity="0.7"/><path aria-label="Instagram Reels Likes Per View: 0.263157894737; Youtube Shorts Likes Per View: 0.038829487901" role="graphics-symbol" aria-roledescription="circle" transform="translate(112.78195488721803,227.19471018570627)" d="M3.873,0A3.873,3.873,0,1,1,-3.873,0A3.873,3.873,0,1,1,3.873,0" fill="#DAA520" stroke-width="2" opacity="0.7"/><path aria-label="Instagram Reels Likes Per View: 0.287769784173; Youtube Shorts Likes Per View: 0.0345849802372" role="graphics-symbol" aria-roledescription="circle" transform="translate(123.32990750256937,235.153162055336)" d="M3.873,0A3.873,3.873,0,1,1,-3.873,0A3.873,3.873,0,1,1,3.873,0" fill="#DAA520" stroke-width="2" opacity="0.7"/><path aria-label="Instagram Reels Likes Per View: 0.227272727273; Youtube Shorts Likes Per View: 0.0581395348837" role="graphics-symbol" aria-roledescription="circle" transform="translate(97.40259740259741,190.98837209302326)" d="M3.873,0A3.873,3.873,0,1,1,-3.873,0A3.873,3.873,0,1,1,3.873,0" fill="#DAA520" stroke-width="2" opacity="0.7"/><path aria-label="Instagram Reels Likes Per View: 0.342857142857; Youtube Shorts Likes Per View: 0.0240673886883" role="graphics-symbol" aria-roledescription="circle" transform="translate(146.9387755102041,254.87364620938627)" d="M3.873,0A3.873,3.873,0,1,1,-3.873,0A3.873,3.873,0,1,1,3.873,0" fill="#DAA520" stroke-width="2" opacity="0.7"/><path aria-label="Instagram Reels Likes Per View: 0.246153846154; Youtube Shorts Likes Per View: 0.0377358490566" role="graphics-symbol" aria-roledescription="circle" transform="translate(105.4945054945055,229.24528301886795)" d="M3.873,0A3.873,3.873,0,1,1,-3.873,0A3.873,3.873,0,1,1,3.873,0" fill="#DAA520" stroke-width="2" opacity="0.7"/><path aria-label="Instagram Reels Likes Per View: 0.35; Youtube Shorts Likes Per View: 0.1" role="graphics-symbol" aria-roledescription="circle" transform="translate(150,112.5)" d="M3.873,0A3.873,3.873,0,1,1,-3.873,0A3.873,3.873,0,1,1,3.873,0" fill="#DAA520" stroke-width="2" opacity="0.7"/><path aria-label="Instagram Reels Likes Per View: 0.25; Youtube Shorts Likes Per View: 0.0238589211618" role="graphics-symbol" aria-roledescription="circle" transform="translate(107.14285714285714,255.26452282157675)" d="M3.873,0A3.873,3.873,0,1,1,-3.873,0A3.873,3.873,0,1,1,3.873,0" fill="#DAA520" stroke-width="2" opacity="0.7"/><path aria-label="Instagram Reels Likes Per View: 0.184455958549; Youtube Shorts Likes Per View: 0.0337941628264" role="graphics-symbol" aria-roledescription="circle" transform="translate(79.05255366395264,236.6359447004608)" d="M3.873,0A3.873,3.873,0,1,1,-3.873,0A3.873,3.873,0,1,1,3.873,0" fill="#DAA520" stroke-width="2" opacity="0.7"/><path aria-label="Instagram Reels Likes Per View: 0.207100591716; Youtube Shorts Likes Per View: 0.0283400809717" role="graphics-symbol" aria-roledescription="circle" transform="translate(88.75739644970415,246.86234817813767)" d="M3.873,0A3.873,3.873,0,1,1,-3.873,0A3.873,3.873,0,1,1,3.873,0" fill="#DAA520" stroke-width="2" opacity="0.7"/><path aria-label="Instagram Reels Likes Per View: 0.128914785142; Youtube Shorts Likes Per View: 0.0280373831776" role="graphics-symbol" aria-roledescription="circle" transform="translate(55.249193632296326,247.42990654205607)" d="M3.873,0A3.873,3.873,0,1,1,-3.873,0A3.873,3.873,0,1,1,3.873,0" fill="#DAA520" stroke-width="2" opacity="0.7"/><path aria-label="Instagram Reels Likes Per View: 0.333333333333; Youtube Shorts Likes Per View: 0.0425531914894" role="graphics-symbol" aria-roledescription="circle" transform="translate(142.85714285714286,220.2127659574468)" d="M3.873,0A3.873,3.873,0,1,1,-3.873,0A3.873,3.873,0,1,1,3.873,0" fill="#DAA520" stroke-width="2" opacity="0.7"/><path aria-label="Instagram Reels Likes Per View: 0.412545235223; Youtube Shorts Likes Per View: 0.05" role="graphics-symbol" aria-roledescription="circle" transform="translate(176.80510080992593,206.25)" d="M3.873,0A3.873,3.873,0,1,1,-3.873,0A3.873,3.873,0,1,1,3.873,0" fill="#DAA520" stroke-width="2" opacity="0.7"/><path aria-label="Instagram Reels Likes Per View: 0.228813559322; Youtube Shorts Likes Per View: 0" role="graphics-symbol" aria-roledescription="circle" transform="translate(98.06295399515739,300)" d="M3.873,0A3.873,3.873,0,1,1,-3.873,0A3.873,3.873,0,1,1,3.873,0" fill="#DAA520" stroke-width="2" opacity="0.7"/><path aria-label="Instagram Reels Likes Per View: 0.360264900662; Youtube Shorts Likes Per View: 0" role="graphics-symbol" aria-roledescription="circle" transform="translate(154.399243140965,300)" d="M3.873,0A3.873,3.873,0,1,1,-3.873,0A3.873,3.873,0,1,1,3.873,0" fill="#DAA520" stroke-width="2" opacity="0.7"/><path aria-label="Instagram Reels Likes Per View: 0.119170984456; Youtube Shorts Likes Per View: 0.0350066050198" role="graphics-symbol" aria-roledescription="circle" transform="translate(51.073279052553666,234.36261558784673)" d="M3.873,0A3.873,3.873,0,1,1,-3.873,0A3.873,3.873,0,1,1,3.873,0" fill="#DAA520" stroke-width="2" opacity="0.7"/><path aria-label="Instagram Reels Likes Per View: 0.272727272727; Youtube Shorts Likes Per View: 0.0263157894737" role="graphics-symbol" aria-roledescription="circle" transform="translate(116.88311688311688,250.6578947368421)" d="M3.873,0A3.873,3.873,0,1,1,-3.873,0A3.873,3.873,0,1,1,3.873,0" fill="#DAA520" stroke-width="2" opacity="0.7"/><path aria-label="Instagram Reels Likes Per View: 0.423728813559; Youtube Shorts Likes Per View: 0.0952380952381" role="graphics-symbol" aria-roledescription="circle" transform="translate(181.59806295399517,121.42857142857143)" d="M3.873,0A3.873,3.873,0,1,1,-3.873,0A3.873,3.873,0,1,1,3.873,0" fill="#DAA520" stroke-width="2" opacity="0.7"/><path aria-label="Instagram Reels Likes Per View: 0.217213114754; Youtube Shorts Likes Per View: 0.0546184738956" role="graphics-symbol" aria-roledescription="circle" transform="translate(93.09133489461358,197.59036144578312)" d="M3.873,0A3.873,3.873,0,1,1,-3.873,0A3.873,3.873,0,1,1,3.873,0" fill="#DAA520" stroke-width="2" opacity="0.7"/><path aria-label="Instagram Reels Likes Per View: 0.202637889688; Youtube Shorts Likes Per View: 0.157894736842" role="graphics-symbol" aria-roledescription="circle" transform="translate(86.84480986639261,3.947368421052644)" d="M3.873,0A3.873,3.873,0,1,1,-3.873,0A3.873,3.873,0,1,1,3.873,0" fill="#DAA520" stroke-width="2" opacity="0.7"/><path aria-label="Instagram Reels Likes Per View: 0.265550239234; Youtube Shorts Likes Per View: 0.0505050505051" role="graphics-symbol" aria-roledescription="circle" transform="translate(113.80724538619276,205.3030303030303)" d="M3.873,0A3.873,3.873,0,1,1,-3.873,0A3.873,3.873,0,1,1,3.873,0" fill="#DAA520" stroke-width="2" opacity="0.7"/><path aria-label="Instagram Reels Likes Per View: 0.202586206897; Youtube Shorts Likes Per View: 0.032967032967" role="graphics-symbol" aria-roledescription="circle" transform="translate(86.82266009852216,238.1868131868132)" d="M3.873,0A3.873,3.873,0,1,1,-3.873,0A3.873,3.873,0,1,1,3.873,0" fill="#DAA520" stroke-width="2" opacity="0.7"/><path aria-label="Instagram Reels Likes Per View: 0.188153310105; Youtube Shorts Likes Per View: 0.0769230769231" role="graphics-symbol" aria-roledescription="circle" transform="translate(80.63713290194127,155.76923076923075)" d="M3.873,0A3.873,3.873,0,1,1,-3.873,0A3.873,3.873,0,1,1,3.873,0" fill="#DAA520" stroke-width="2" opacity="0.7"/><path aria-label="Instagram Reels Likes Per View: 0.3125; Youtube Shorts Likes Per View: 0.0427872860636" role="graphics-symbol" aria-roledescription="circle" transform="translate(133.92857142857144,219.77383863080686)" d="M3.873,0A3.873,3.873,0,1,1,-3.873,0A3.873,3.873,0,1,1,3.873,0" fill="#DAA520" stroke-width="2" opacity="0.7"/><path aria-label="Instagram Reels Likes Per View: 0.279452054795; Youtube Shorts Likes Per View: 0.0513698630137" role="graphics-symbol" aria-roledescription="circle" transform="translate(119.76516634050881,203.68150684931507)" d="M3.873,0A3.873,3.873,0,1,1,-3.873,0A3.873,3.873,0,1,1,3.873,0" fill="#DAA520" stroke-width="2" opacity="0.7"/><path aria-label="Instagram Reels Likes Per View: 0.291666666667; Youtube Shorts Likes Per View: 0.0169625246548" role="graphics-symbol" aria-roledescription="circle" transform="translate(125.00000000000003,268.1952662721893)" d="M3.873,0A3.873,3.873,0,1,1,-3.873,0A3.873,3.873,0,1,1,3.873,0" fill="#DAA520" stroke-width="2" opacity="0.7"/><path aria-label="Instagram Reels Likes Per View: 0.324324324324; Youtube Shorts Likes Per View: 0.0364372469636" role="graphics-symbol" aria-roledescription="circle" transform="translate(138.99613899613902,231.68016194331986)" d="M3.873,0A3.873,3.873,0,1,1,-3.873,0A3.873,3.873,0,1,1,3.873,0" fill="#DAA520" stroke-width="2" opacity="0.7"/><path aria-label="Instagram Reels Likes Per View: 0.289978678038; Youtube Shorts Likes Per View: 0.0175438596491" role="graphics-symbol" aria-roledescription="circle" transform="translate(124.27657630216265,267.10526315789474)" d="M3.873,0A3.873,3.873,0,1,1,-3.873,0A3.873,3.873,0,1,1,3.873,0" fill="#DAA520" stroke-width="2" opacity="0.7"/></g><g class="mark-line role-mark layer_1_marks" clip-path="url(#clip7)" role="graphics-object" aria-roledescription="line mark container"><path aria-label="Instagram Reels Likes Per View: 0.119170984456; Youtube Shorts Likes Per View: 0.0419667821634" role="graphics-symbol" aria-roledescription="line mark" d="M51.073,221.312L288.913,167.368" stroke="#4c78a8" stroke-width="2"/></g><g class="mark-group role-title"><g transform="translate(150,-22)"><path class="background" aria-hidden="true" d="M0,0h0v0h0Z" pointer-events="none"/><g><g class="mark-text role-title-text" role="graphics-symbol" aria-roledescription="title" aria-label="Title text 'Likes Per View on Youtube against Instagram'" pointer-events="none"><text text-anchor="middle" transform="translate(0,10)" font-family="sans-serif" font-size="13px" font-weight="bold" fill="#000" opacity="1">Likes Per View on Youtube against Instagram</text></g></g><path class="foreground" aria-hidden="true" d="" pointer-events="none" display="none"/></g></g></g><path class="foreground" aria-hidden="true" d="" display="none"/></g></g></g><defs><clipPath id="clip6"><rect x="0" y="0" width="300" height="300"/></clipPath><clipPath id="clip7"><rect x="0" y="0" width="300" height="300"/></clipPath></defs></svg>