<svg xmlns="http://www.w3.org/2000/svg" xmlns:xlink="http://www.w3.org/1999/xlink" version="1.1" class="marks" width="410" height="364" viewBox="0 0 410 364"><rect width="410" height="364" fill="white"/><g fill="none" stroke-miterlimit="10" transform="translate(43,27)"><g class="mark-group role-frame root" role="graphics-object" aria-roledescription="group mark container"><g transform="translate(0,0)"><path class="background" aria-hidden="true" d="M0.5,0.5h300v300h-300Z" stroke="#ddd"/><g><g class="mark-group role-axis" aria-hidden="true"><g transform="translate(0.5,300.5)"><path class="background" aria-hidden="true" d="M0,0h0v0h0Z" pointer-events="none"/><g><g class="mark-rule role-axis-grid" pointer-events="none"><line transform="translate(0,-300)" x2="0" y2="300" stroke="#ddd" stroke-width="1" opacity="1"/><line transform="translate(30,-300)" x2="0" y2="300" stroke="#ddd" stroke-width="1" opacity="1"/><line transform="translate(60,-300)" x2="0" y2="300" stroke="#ddd" stroke-width="1" opacity="1"/><line transform="translate(90,-300)" x2="0" y2="300" stroke="#ddd" stroke-width="1" opacity="1"/><line transform="translate(120,-300)" x2="0" y2="300" stroke="#ddd" stroke-width="1" opacity="1"/><line transform="translate(150,-300)" x2="0" y2="300" stroke="#ddd" stroke-width="1" opacity="1"/><line transform="translate(180,-300)" x2="0" y2="300" stroke="#ddd" stroke-width="1" opacity="1"/><line transform="translate(210,-300)" x2="0" y2="300" stroke="#ddd" stroke-width="1" opacity="1"/><line transform="translate(240,-300)" x2="0" y2="300" stroke="#ddd" stroke-width="1" opacity="1"/><line transform="translate(270,-300)" x2="0" y2="300" stroke="#ddd" stroke-width="1" opacity="1"/><line transform="translate(300,-300)" x2="0" y2="300" stroke="#ddd" stroke-width="1" opacity="1"/></g></g><path class="foreground" aria-hidden="true" d="" pointer-events="none" display="none"/></g></g><g class="mark-group role-axis" aria-hidden="true"><g transform="translate(0.5,0.5)"><path class="background" aria-hidden="true" d="M0,0h0v0h0Z" pointer-events="none"/><g><g class="mark-rule role-axis-grid" pointer-events="none"><line transform="translate(0,300)" x2="300" y2="0" stroke="#ddd" stroke-width="1" opacity="1"/><line transform="translate(0,270)" x2="300" y2="0" stroke="#ddd" stroke-width="1" opacity="1"/><line transform="translate(0,240)" x2="300" y2="0" stroke="#ddd" stroke-width="1" opacity="1"/><line transform="translate(0,210)" x2="300" y2="0" stroke="#ddd" stroke-width="1" opacity="1"/><line transform="translate(0,180)" x2="300" y2="0" stroke="#ddd" stroke-width="1" opacity="1"/><line transform="translate(0,150)" x2="300" y2="0" stroke="#ddd" stroke-width="1" opacity="1"/><line transform="translate(0,120)" x2="300" y2="0" stroke="#ddd" stroke-width="1" opacity="1"/><line transform="translate(0,90)" x2="300" y2="0" stroke="#ddd" stroke-width="1" opacity="1"/><line transform="translate(0,60)" x2="300" y2="0" stroke="#ddd" stroke-width="1" opacity="1"/><line transform="translate(0,30)" x2="300" y2="0" stroke="#ddd" stroke-width="1" opacity="1"/><line transform="translate(0,0)" x2="300" y2="0" stroke="#ddd" stroke-width="1" opacity="1"/></g></g><path class="foreground" aria-hidden="true" d="" pointer-events="none" display="none"/></g></g><g class="mark-group role-axis" role="graphics-symbol" aria-roledescription="axis" aria-label="X-axis titled 'Instagram Reels Hashtag to Words Ratio' for a linear scale with values from 0.0 to 1.0"><g transform="translate(0.5,300.5)"><path class="background" aria-hidden="true" d="M0,0h0v0h0Z" pointer-events="none"/><g><g class="mark-rule role-axis-tick" pointer-events="none"><line transform="translate(0,0)" x2="0" y2="5" stroke="#888" stroke-width="1" opacity="1"/><line transform="translate(30,0)" x2="0" y2="5" stroke="#888" stroke-width="1" opacity="1"/><line transform="translate(60,0)" x2="0" y2="5" stroke="#888" stroke-width="1" opacity="1"/><line transform="translate(90,0)" x2="0" y2="5" stroke="#888" stroke-width="1" opacity="1"/><line transform="translate(120,0)" x2="0" y2="5" stroke="#888" stroke-width="1" opacity="1"/><line transform="translate(150,0)" x2="0" y2="5" stroke="#888" stroke-width="1" opacity="1"/><line transform="translate(180,0)" x2="0" y2="5" stroke="#888" stroke-width="1" opacity="1"/><line transform="translate(210,0)" x2="0" y2="5" stroke="#888" stroke-width="1" opacity="1"/><line transform="translate(240,0)" x2="0" y2="5" stroke="#888" stroke-width="1" opacity="1"/><line transform="translate(270,0)" x2="0" y2="5" stroke="#888" stroke-width="1" opacity="1"/><line transform="translate(300,0)" x2="0" y2="5" stroke="#888" stroke-width="1" opacity="1"/></g><g class="mark-text role-axis-label" pointer-events="none"><text text-anchor="start" transform="translate(0,15)" font-family="sans-serif" font-size="10px" fill="#000" opacity="1">0.0</text><text text-anchor="middle" transform="translate(30,15)" font-family="sans-serif" font-size="10px" fill="#000" opacity="1">0.1</text><text text-anchor="middle" transform="translate(60,15)" font-family="sans-serif" font-size="10px" fill="#000" opacity="1">0.2</text><text text-anchor="middle" transform="translate(90,15)" font-family="sans-serif" font-size="10px" fill="#000" opacity="1">0.3</text><text text-anchor="middle" transform="translate(120,15)" font-family="sans-serif" font-size="10px" fill="#000" opacity="1">0.4</text><text text-anchor="middle" transform="translate(150,15)" font-family="sans-serif" font-size="10px" fill="#000" opacity="1">0.5</text><text text-anchor="middle" transform="translate(180,15)" font-family="sans-serif" font-size="10px" fill="#000" opacity="1">0.6</text><text text-anchor="middle" transform="translate(210,15)" font-family="sans-serif" font-size="10px" fill="#000" opacity="1">0.7</text><text text-anchor="middle" transform="translate(240,15)" font-family="sans-serif" font-size="10px" fill="#000" opacity="1">0.8</text><text text-anchor="middle" transform="translate(270,15)" font-family="sans-serif" font-size="10px" fill="#000" opacity="1">0.9</text><text text-anchor="end" transform="translate(300,15)" font-family="sans-serif" font-size="10px" fill="#000" opacity="1">1.0</text></g><g class="mark-rule role-axis-domain" pointer-events="none"><line transform="translate(0,0)" x2="300" y2="0" stroke="#888" stroke-width="1" opacity="1"/></g><g class="mark-text role-axis-title" pointer-events="none"><text text-anchor="middle" transform="translate(150,30)" font-family="sans-serif" font-size="11px" font-weight="bold" fill="#000" opacity="1">Instagram Reels Hashtag to Words Ratio</text></g></g><path class="foreground" aria-hidden="true" d="" pointer-events="none" display="none"/></g></g><g class="mark-group role-axis" role="graphics-symbol" aria-roledescription="axis" aria-label="Y-axis titled 'Views' for a linear scale with values from 0.0 to 1.0"><g transform="translate(0.5,0.5)"><path class="background" aria-hidden="true" d="M0,0h0v0h0Z" pointer-events="none"/><g><g class="mark-rule role-axis-tick" pointer-events="none"><line transform="translate(0,300)" x2="-5" y2="0" stroke="#888" stroke-width="1" opacity="1"/><line transform="translate(0,270)" x2="-5" y2="0" stroke="#888" stroke-width="1" opacity="1"/><line transform="translate(0,240)" x2="-5" y2="0" stroke="#888" stroke-width="1" opacity="1"/><line transform="translate(0,210)" x2="-5" y2="0" stroke="#888" stroke-width="1" opacity="1"/><line transform="translate(0,180)" x2="-5" y2="0" stroke="#888" stroke-width="1" opacity="1"/><line transform="translate(0,150)" x2="-5" y2="0" stroke="#888" stroke-width="1" opacity="1"/><line transform="translate(0,120)" x2="-5" y2="0" stroke="#888" stroke-width="1" opacity="1"/><line transform="translate(0,90)" x2="-5" y2="0" stroke="#888" stroke-width="1" opacity="1"/><line transform="translate(0,60)" x2="-5" y2="0" stroke="#888" stroke-width="1" opacity="1"/><line transform="translate(0,30)" x2="-5" y2="0" stroke="#888" stroke-width="1" opacity="1"/><line transform="translate(0,0)" x2="-5" y2="0" stroke="#888" stroke-width="1" opacity="1"/></g><g class="mark-text role-axis-label" pointer-events="none"><text text-anchor="end" transform="translate(-7,303)" font-family="sans-serif" font-size="10px" fill="#000" opacity="1">0.0</text><text text-anchor="end" transform="translate(-7,273)" font-family="sans-serif" font-size="10px" fill="#000" opacity="1">0.1</text><text text-anchor="end" transform="translate(-7,243)" font-family="sans-serif" font-size="10px" fill="#000" opacity="1">0.2</text><text text-anchor="end" transform="translate(-7,213)" font-family="sans-serif" font-size="10px" fill="#000" opacity="1">0.3</text><text text-anchor="end" transform="translate(-7,183)" font-family="sans-serif" font-size="10px" fill="#000" opacity="1">0.4</text><text text-anchor="end" transform="translate(-7,153)" font-family="sans-serif" font-size="10px" fill="#000" opacity="1">0.5</text><text text-anchor="end" transform="translate(-7,123)" font-family="sans-serif" font-size="10px" fill="#000" opacity="1">0.6</text><text text-anchor="end" transform="translate(-7,93.00000000000001)" font-family="sans-serif" font-size="10px" fill="#000" opacity="1">0.7</text><text text-anchor="end" transform="translate(-7,62.999999999999986)" font-family="sans-serif" font-size="10px" fill="#000" opacity="1">0.8</text><text text-anchor="end" transform="translate(-7,32.99999999999999)" font-family="sans-serif" font-size="10px" fill="#000" opacity="1">0.9</text><text text-anchor="end" transform="translate(-7,3)" font-family="sans-serif" font-size="10px" fill="#000" opacity="1">1.0</text></g><g class="mark-rule role-axis-domain" pointer-events="none"><line transform="translate(0,300)" x2="0" y2="-300" stroke="#888" stroke-width="1" opacity="1"/></g><g class="mark-text role-axis-title" pointer-events="none"><text text-anchor="middle" transform="translate(-24.9013671875,150) rotate(-90) translate(0,-2)" font-family="sans-serif" font-size="11px" font-weight="bold" fill="#000" opacity="1">Views</text></g></g><path class="foreground" aria-hidden="true" d="" pointer-events="none" display="none"/></g></g><g class="mark-symbol role-mark marks" clip-path="url(#clip10)" role="graphics-object" aria-roledescription="symbol mark container"><path aria-label="Instagram Reels Hashtag to Words Ratio: 0.163763066202; Views: 0.0739792809263; Likes: 298" role="graphics-symbol" aria-roledescription="circle" transform="translate(49.128919860627185,277.80621572212067)" d="M3.873,0A3.873,3.873,0,1,1,-3.873,0A3.873,3.873,0,1,1,3.873,0" fill="rgb(135, 7, 166)" stroke-width="2" opacity="0.7"/><path aria-label="Instagram Reels Hashtag to Words Ratio: 0.0694183864916; Views: 0.0449725776965; Likes: 271" role="graphics-symbol" aria-roledescription="circle" transform="translate(20.82551594746717,286.50822669104207)" d="M3.873,0A3.873,3.873,0,1,1,-3.873,0A3.873,3.873,0,1,1,3.873,0" fill="rgb(126, 3, 168)" stroke-width="2" opacity="0.7"/><path aria-label="Instagram Reels Hashtag to Words Ratio: 0.479674796748; Views: 0.0134064594759; Likes: 44" role="graphics-symbol" aria-roledescription="circle" transform="translate(143.90243902439025,295.9780621572212)" d="M3.873,0A3.873,3.873,0,1,1,-3.873,0A3.873,3.873,0,1,1,3.873,0" fill="rgb(35, 6, 144)" stroke-width="2" opacity="0.7"/><path aria-label="Instagram Reels Hashtag to Words Ratio: 0.0217886178862; Views: 0.0639853747715; Likes: 203" role="graphics-symbol" aria-roledescription="circle" transform="translate(6.536585365853659,280.80438756855574)" d="M3.873,0A3.873,3.873,0,1,1,-3.873,0A3.873,3.873,0,1,1,3.873,0" fill="rgb(100, 0, 167)" stroke-width="2" opacity="0.7"/><path aria-label="Instagram Reels Hashtag to Words Ratio: 1; Views: 0.0838513101767; Likes: 149" role="graphics-symbol" aria-roledescription="circle" transform="translate(300,274.84460694698356)" d="M3.873,0A3.873,3.873,0,1,1,-3.873,0A3.873,3.873,0,1,1,3.873,0" fill="rgb(80, 2, 162)" stroke-width="2" opacity="0.7"/><path aria-label="Instagram Reels Hashtag to Words Ratio: 0.739837398374; Views: 0.0366849482023; Likes: 107" role="graphics-symbol" aria-roledescription="circle" transform="translate(221.95121951219514,288.99451553930527)" d="M3.873,0A3.873,3.873,0,1,1,-3.873,0A3.873,3.873,0,1,1,3.873,0" fill="rgb(63, 3, 156)" stroke-width="2" opacity="0.7"/><path aria-label="Instagram Reels Hashtag to Words Ratio: 0.609756097561; Views: 0.100182815356; Likes: 202" role="graphics-symbol" aria-roledescription="circle" transform="translate(182.92682926829272,269.945155393053)" d="M3.873,0A3.873,3.873,0,1,1,-3.873,0A3.873,3.873,0,1,1,3.873,0" fill="rgb(99, 1, 167)" stroke-width="2" opacity="0.7"/><path aria-label="Instagram Reels Hashtag to Words Ratio: 0.327913279133; Views: 0.0911639244363; Likes: 229" role="graphics-symbol" aria-roledescription="circle" transform="translate(98.37398373983741,272.65082266910423)" d="M3.873,0A3.873,3.873,0,1,1,-3.873,0A3.873,3.873,0,1,1,3.873,0" fill="rgb(110, 0, 168)" stroke-width="2" opacity="0.7"/><path aria-label="Instagram Reels Hashtag to Words Ratio: 0.0478048780488; Views: 0.00292504570384; Likes: 15" role="graphics-symbol" aria-roledescription="circle" transform="translate(14.341463414634148,299.1224862888483)" d="M3.873,0A3.873,3.873,0,1,1,-3.873,0A3.873,3.873,0,1,1,3.873,0" fill="rgb(17, 8, 137)" stroke-width="2" opacity="0.7"/><path aria-label="Instagram Reels Hashtag to Words Ratio: 0.111111111111; Views: 0.0129189518586; Likes: 40" role="graphics-symbol" aria-roledescription="circle" transform="translate(33.33333333333334,296.12431444241315)" d="M3.873,0A3.873,3.873,0,1,1,-3.873,0A3.873,3.873,0,1,1,3.873,0" fill="rgb(32, 6, 143)" stroke-width="2" opacity="0.7"/><path aria-label="Instagram Reels Hashtag to Words Ratio: 0.154471544715; Views: 0.00402193784278; Likes: 15" role="graphics-symbol" aria-roledescription="circle" transform="translate(46.34146341463415,298.79341864716633)" d="M3.873,0A3.873,3.873,0,1,1,-3.873,0A3.873,3.873,0,1,1,3.873,0" fill="rgb(17, 8, 137)" stroke-width="2" opacity="0.7"/><path aria-label="Instagram Reels Hashtag to Words Ratio: 0.566395663957; Views: 0.00450944546009; Likes: 24" role="graphics-symbol" aria-roledescription="circle" transform="translate(169.9186991869919,298.64716636197437)" d="M3.873,0A3.873,3.873,0,1,1,-3.873,0A3.873,3.873,0,1,1,3.873,0" fill="rgb(22, 7, 139)" stroke-width="2" opacity="0.7"/><path aria-label="Instagram Reels Hashtag to Words Ratio: 0.205058717254; Views: 0.00390006093845; Likes: 16" role="graphics-symbol" aria-roledescription="circle" transform="translate(61.51761517615177,298.82998171846435)" d="M3.873,0A3.873,3.873,0,1,1,-3.873,0A3.873,3.873,0,1,1,3.873,0" fill="rgb(17, 8, 137)" stroke-width="2" opacity="0.7"/><path aria-label="Instagram Reels Hashtag to Words Ratio: 0.149468417761; Views: 0.00329067641682; Likes: 21" role="graphics-symbol" aria-roledescription="circle" transform="translate(44.84052532833021,299.0127970749543)" d="M3.873,0A3.873,3.873,0,1,1,-3.873,0A3.873,3.873,0,1,1,3.873,0" fill="rgb(21, 7, 138)" stroke-width="2" opacity="0.7"/><path aria-label="Instagram Reels Hashtag to Words Ratio: 0.306233062331; Views: 0.0018281535649; Likes: 12" role="graphics-symbol" aria-roledescription="circle" transform="translate(91.869918699187,299.45155393053017)" d="M3.873,0A3.873,3.873,0,1,1,-3.873,0A3.873,3.873,0,1,1,3.873,0" fill="rgb(15, 8, 136)" stroke-width="2" opacity="0.7"/><path aria-label="Instagram Reels Hashtag to Words Ratio: 0.200929152149; Views: 0.113589274832; Likes: 178" role="graphics-symbol" aria-roledescription="circle" transform="translate(60.27874564459932,265.9232175502742)" d="M3.873,0A3.873,3.873,0,1,1,-3.873,0A3.873,3.873,0,1,1,3.873,0" fill="rgb(91, 1, 165)" stroke-width="2" opacity="0.7"/><path aria-label="Instagram Reels Hashtag to Words Ratio: 0.0171635049684; Views: 0.0371724558196; Likes: 70" role="graphics-symbol" aria-roledescription="circle" transform="translate(5.149051490514904,288.84826325411336)" d="M3.873,0A3.873,3.873,0,1,1,-3.873,0A3.873,3.873,0,1,1,3.873,0" fill="rgb(47, 5, 149)" stroke-width="2" opacity="0.7"/><path aria-label="Instagram Reels Hashtag to Words Ratio: 0.138211382114; Views: 1; Likes: 1062" role="graphics-symbol" aria-roledescription="circle" transform="translate(41.46341463414635,0)" d="M3.873,0A3.873,3.873,0,1,1,-3.873,0A3.873,3.873,0,1,1,3.873,0" fill="rgb(240, 249, 33)" stroke-width="2" opacity="0.7"/><path aria-label="Instagram Reels Hashtag to Words Ratio: 0.0620453572957; Views: 0.00146252285192; Likes: 15" role="graphics-symbol" aria-roledescription="circle" transform="translate(18.613607188703465,299.5612431444241)" d="M3.873,0A3.873,3.873,0,1,1,-3.873,0A3.873,3.873,0,1,1,3.873,0" fill="rgb(17, 8, 137)" stroke-width="2" opacity="0.7"/><path aria-label="Instagram Reels Hashtag to Words Ratio: 0.154471544715; Views: 0.097014015844; Likes: 342" role="graphics-symbol" aria-roledescription="circle" transform="translate(46.34146341463415,270.89579524680073)" d="M3.873,0A3.873,3.873,0,1,1,-3.873,0A3.873,3.873,0,1,1,3.873,0" fill="rgb(150, 18, 161)" stroke-width="2" opacity="0.7"/><path aria-label="Instagram Reels Hashtag to Words Ratio: 0.030303030303; Views: 0.0247410115783; Likes: 54" role="graphics-symbol" aria-roledescription="circle" transform="translate(9.09090909090909,292.57769652650825)" d="M3.873,0A3.873,3.873,0,1,1,-3.873,0A3.873,3.873,0,1,1,3.873,0" fill="rgb(40, 6, 146)" stroke-width="2" opacity="0.7"/><path aria-label="Instagram Reels Hashtag to Words Ratio: 0.115447154472; Views: 0.0879951249238; Likes: 272" role="graphics-symbol" aria-roledescription="circle" transform="translate(34.63414634146341,273.60146252285193)" d="M3.873,0A3.873,3.873,0,1,1,-3.873,0A3.873,3.873,0,1,1,3.873,0" fill="rgb(126, 3, 168)" stroke-width="2" opacity="0.7"/><path aria-label="Instagram Reels Hashtag to Words Ratio: 0.148558758315; Views: 0.0195003046923; Likes: 23" role="graphics-symbol" aria-roledescription="circle" transform="translate(44.56762749445677,294.14990859232176)" d="M3.873,0A3.873,3.873,0,1,1,-3.873,0A3.873,3.873,0,1,1,3.873,0" fill="rgb(22, 7, 139)" stroke-width="2" opacity="0.7"/><path aria-label="Instagram Reels Hashtag to Words Ratio: 0.427642276423; Views: 0; Likes: 9" role="graphics-symbol" aria-roledescription="circle" transform="translate(128.2926829268293,300)" d="M3.873,0A3.873,3.873,0,1,1,-3.873,0A3.873,3.873,0,1,1,3.873,0" fill="rgb(13, 8, 135)" stroke-width="2" opacity="0.7"/><path aria-label="Instagram Reels Hashtag to Words Ratio: 0.317073170732; Views: 0.0103595368678; Likes: 50" role="graphics-symbol" aria-roledescription="circle" transform="translate(95.12195121951221,296.89213893967093)" d="M3.873,0A3.873,3.873,0,1,1,-3.873,0A3.873,3.873,0,1,1,3.873,0" fill="rgb(38, 6, 145)" stroke-width="2" opacity="0.7"/><path aria-label="Instagram Reels Hashtag to Words Ratio: 0.479674796748; Views: 0.0257160268129; Likes: 53" role="graphics-symbol" aria-roledescription="circle" transform="translate(143.90243902439025,292.2851919561243)" d="M3.873,0A3.873,3.873,0,1,1,-3.873,0A3.873,3.873,0,1,1,3.873,0" fill="rgb(39, 6, 146)" stroke-width="2" opacity="0.7"/><path aria-label="Instagram Reels Hashtag to Words Ratio: 0.0894308943089; Views: 0.0976234003656; Likes: 169" role="graphics-symbol" aria-roledescription="circle" transform="translate(26.829268292682933,270.7129798903108)" d="M3.873,0A3.873,3.873,0,1,1,-3.873,0A3.873,3.873,0,1,1,3.873,0" fill="rgb(87, 1, 164)" stroke-width="2" opacity="0.7"/><path aria-label="Instagram Reels Hashtag to Words Ratio: 0.136733185514; Views: 0.0978671541743; Likes: 222" role="graphics-symbol" aria-roledescription="circle" transform="translate(41.019955654102,270.6398537477148)" d="M3.873,0A3.873,3.873,0,1,1,-3.873,0A3.873,3.873,0,1,1,3.873,0" fill="rgb(107, 0, 168)" stroke-width="2" opacity="0.7"/><path aria-label="Instagram Reels Hashtag to Words Ratio: 0.284552845528; Views: 0.024253503961; Likes: 47" role="graphics-symbol" aria-roledescription="circle" transform="translate(85.3658536585366,292.7239488117002)" d="M3.873,0A3.873,3.873,0,1,1,-3.873,0A3.873,3.873,0,1,1,3.873,0" fill="rgb(36, 6, 145)" stroke-width="2" opacity="0.7"/><path aria-label="Instagram Reels Hashtag to Words Ratio: 0.0511716881875; Views: 0.030956733699; Likes: 54" role="graphics-symbol" aria-roledescription="circle" transform="translate(15.351506456241037,290.7129798903108)" d="M3.873,0A3.873,3.873,0,1,1,-3.873,0A3.873,3.873,0,1,1,3.873,0" fill="rgb(40, 6, 146)" stroke-width="2" opacity="0.7"/><path aria-label="Instagram Reels Hashtag to Words Ratio: 0.105691056911; Views: 0.0018281535649; Likes: 15" role="graphics-symbol" aria-roledescription="circle" transform="translate(31.70731707317074,299.45155393053017)" d="M3.873,0A3.873,3.873,0,1,1,-3.873,0A3.873,3.873,0,1,1,3.873,0" fill="rgb(17, 8, 137)" stroke-width="2" opacity="0.7"/><path aria-label="Instagram Reels Hashtag to Words Ratio: 0.012912482066; Views: 0.0404631322364; Likes: 102" role="graphics-symbol" aria-roledescription="circle" transform="translate(3.873744619799138,287.86106032906764)" d="M3.873,0A3.873,3.873,0,1,1,-3.873,0A3.873,3.873,0,1,1,3.873,0" fill="rgb(61, 4, 155)" stroke-width="2" opacity="0.7"/><path aria-label="Instagram Reels Hashtag to Words Ratio: 0.349593495935; Views: 0.0018281535649; Likes: 14" role="graphics-symbol" aria-roledescription="circle" transform="translate(104.8780487804878,299.45155393053017)" d="M3.873,0A3.873,3.873,0,1,1,-3.873,0A3.873,3.873,0,1,1,3.873,0" fill="rgb(16, 8, 136)" stroke-width="2" opacity="0.7"/><path aria-label="Instagram Reels Hashtag to Words Ratio: 0; Views: 0.000487507617307; Likes: 12" role="graphics-symbol" aria-roledescription="circle" transform="translate(0,299.85374771480804)" d="M3.873,0A3.873,3.873,0,1,1,-3.873,0A3.873,3.873,0,1,1,3.873,0" fill="rgb(15, 8, 136)" stroke-width="2" opacity="0.7"/><path aria-label="Instagram Reels Hashtag to Words Ratio: 0.0894308943089; Views: 0.0531383302864; Likes: 136" role="graphics-symbol" aria-roledescription="circle" transform="translate(26.829268292682933,284.0585009140768)" d="M3.873,0A3.873,3.873,0,1,1,-3.873,0A3.873,3.873,0,1,1,3.873,0" fill="rgb(75, 2, 160)" stroke-width="2" opacity="0.7"/></g><g class="mark-group role-legend" role="graphics-symbol" aria-roledescription="legend" aria-label="Gradient legend titled 'Likes' for fill color with values from 9 to 1,062"><g transform="translate(318,0)"><path class="background" aria-hidden="true" d="M0,0h44v216h-44Z" pointer-events="none"/><g><g class="mark-group role-legend-entry"><g transform="translate(0,16)"><path class="background" aria-hidden="true" d="M0,0h0v0h0Z" pointer-events="none"/><g><g class="mark-rect role-legend-gradient" pointer-events="none"><path d="M0,0h16v200h-16Z" fill="url(#gradient_3)" stroke="#ddd" stroke-width="0" opacity="0.7"/></g><g class="mark-text role-legend-label" pointer-events="none"><text text-anchor="start" transform="translate(18,166.7226970560304)" font-family="sans-serif" font-size="10px" fill="#000" opacity="1">200</text><text text-anchor="start" transform="translate(18,128.73599240265906)" font-family="sans-serif" font-size="10px" fill="#000" opacity="1">400</text><text text-anchor="start" transform="translate(18,90.74928774928775)" font-family="sans-serif" font-size="10px" fill="#000" opacity="1">600</text><text text-anchor="start" transform="translate(18,52.76258309591643)" font-family="sans-serif" font-size="10px" fill="#000" opacity="1">800</text><text text-anchor="start" transform="translate(18,14.775878442545107)" font-family="sans-serif" font-size="10px" fill="#000" opacity="1">1,000</text></g></g><path class="foreground" aria-hidden="true" d="" pointer-events="none" display="none"/></g></g><g class="mark-text role-legend-title" pointer-events="none"><text text-anchor="start" transform="translate(0,9)" font-family="sans-serif" font-size="11px" font-weight="bold" fill="#000" opacity="1">Likes</text></g></g><path class="foreground" aria-hidden="true" d="" pointer-events="none" display="none"/></g></g><g class="mark-group role-title"><g transform="translate(150,-22)"><path class="background" aria-hidden="true" d="M0,0h0v0h0Z" pointer-events="none"/><g><g class="mark-text role-title-text" role="graphics-symbol" aria-roledescription="title" aria-label="Title text 'Views against Hashtag to Words Ratio in Captions (Scaled II)'" pointer-events="none"><text text-anchor="middle" transform="translate(0,10)" font-family="sans-serif" font-size="13px" font-weight="bold" fill="#000" opacity="1">Views against Hashtag to Words Ratio in Captions (Scaled II)</text></g></g><path class="foreground" aria-hidden="true" d="" pointer-events="none" display="none"/></g></g></g><path class="foreground" aria-hidden="true" d="" display="none"/></g></g></g><defs><linearGradient id="gradient_3" x1="0" x2="0" y1="1" y2="0"><stop offset="0" stop-color="rgb(13, 8, 135)"/><stop offset="0.0389363722697056" stop-color="rgb(38, 6, 145)"/><stop offset="0.08641975308641975" stop-color="rgb(60, 4, 155)"/><stop offset="0.1339031339031339" stop-color="rgb(80, 2, 162)"/><stop offset="0.18138651471984804" stop-color="rgb(99, 1, 167)"/><stop offset="0.2288698955365622" stop-color="rgb(118, 1, 168)"/><stop offset="0.27635327635327633" stop-color="rgb(135, 7, 166)"/><stop offset="0.3238366571699905" stop-color="rgb(153, 20, 160)"/><stop offset="0.37132003798670465" stop-color="rgb(168, 34, 151)"/><stop offset="0.4188034188034188" stop-color="rgb(182, 48, 139)"/><stop offset="0.466286799620133" stop-color="rgb(195, 61, 128)"/><stop offset="0.5137701804368471" stop-color="rgb(206, 75, 118)"/><stop offset="0.5612535612535613" stop-color="rgb(217, 89, 106)"/><stop offset="0.6087369420702754" stop-color="rgb(227, 103, 96)"/><stop offset="0.6562203228869895" stop-color="rgb(235, 118, 86)"/><stop offset="0.7037037037037037" stop-color="rgb(242, 132, 75)"/><stop offset="0.7511870845204178" stop-color="rgb(248, 149, 64)"/><stop offset="0.798670465337132" stop-color="rgb(252, 166, 54)"/><stop offset="0.8461538461538461" stop-color="rgb(253, 184, 45)"/><stop offset="0.8936372269705603" stop-color="rgb(252, 203, 38)"/><stop offset="0.9411206077872745" stop-color="rgb(248, 223, 37)"/><stop offset="0.9886039886039886" stop-color="rgb(242, 244, 35)"/><stop offset="1" stop-color="rgb(240, 249, 33)"/></linearGradient><clipPath id="clip10"><rect x="0" y="0" width="300" height="300"/></clipPath></defs></svg>