<svg xmlns="http://www.w3.org/2000/svg" xmlns:xlink="http://www.w3.org/1999/xlink" version="1.1" class="marks" width="399" height="364" viewBox="0 0 399 364"><rect width="399" height="364" fill="white"/><g fill="none" stroke-miterlimit="10" transform="translate(41,27)"><g class="mark-group role-frame root" role="graphics-object" aria-roledescription="group mark container"><g transform="translate(0,0)"><path class="background" aria-hidden="true" d="M0.5,0.5h300v300h-300Z" stroke="#ddd"/><g><g class="mark-group role-axis" aria-hidden="true"><g transform="translate(0.5,300.5)"><path class="background" aria-hidden="true" d="M0,0h0v0h0Z" pointer-events="none"/><g><g class="mark-rule role-axis-grid" pointer-events="none"><line transform="translate(0,-300)" x2="0" y2="300" stroke="#ddd" stroke-width="1" opacity="1"/><line transform="translate(30,-300)" x2="0" y2="300" stroke="#ddd" stroke-width="1" opacity="1"/><line transform="translate(60,-300)" x2="0" y2="300" stroke="#ddd" stroke-width="1" opacity="1"/><line transform="translate(90,-300)" x2="0" y2="300" stroke="#ddd" stroke-width="1" opacity="1"/><line transform="translate(120,-300)" x2="0" y2="300" stroke="#ddd" stroke-width="1" opacity="1"/><line transform="translate(150,-300)" x2="0" y2="300" stroke="#ddd" stroke-width="1" opacity="1"/><line transform="translate(180,-300)" x2="0" y2="300" stroke="#ddd" stroke-width="1" opacity="1"/><line transform="translate(210,-300)" x2="0" y2="300" stroke="#ddd" stroke-width="1" opacity="1"/><line transform="translate(240,-300)" x2="0" y2="300" stroke="#ddd" stroke-width="1" opacity="1"/><line transform="translate(270,-300)" x2="0" y2="300" stroke="#ddd" stroke-width="1" opacity="1"/><line transform="translate(300,-300)" x2="0" y2="300" stroke="#ddd" stroke-width="1" opacity="1"/></g></g><path class="foreground" aria-hidden="true" d="" pointer-events="none" display="none"/></g></g><g class="mark-group role-axis" aria-hidden="true"><g transform="translate(0.5,0.5)"><path class="background" aria-hidden="true" d="M0,0h0v0h0Z" pointer-events="none"/><g><g class="mark-rule role-axis-grid" pointer-events="none"><line transform="translate(0,300)" x2="300" y2="0" stroke="#ddd" stroke-width="1" opacity="1"/><line transform="translate(0,270)" x2="300" y2="0" stroke="#ddd" stroke-width="1" opacity="1"/><line transform="translate(0,240)" x2="300" y2="0" stroke="#ddd" stroke-width="1" opacity="1"/><line transform="translate(0,210)" x2="300" y2="0" stroke="#ddd" stroke-width="1" opacity="1"/><line transform="translate(0,180)" x2="300" y2="0" stroke="#ddd" stroke-width="1" opacity="1"/><line transform="translate(0,150)" x2="300" y2="0" stroke="#ddd" stroke-width="1" opacity="1"/><line transform="translate(0,120)" x2="300" y2="0" stroke="#ddd" stroke-width="1" opacity="1"/><line transform="translate(0,90)" x2="300" y2="0" stroke="#ddd" stroke-width="1" opacity="1"/><line transform="translate(0,60)" x2="300" y2="0" stroke="#ddd" stroke-width="1" opacity="1"/><line transform="translate(0,30)" x2="300" y2="0" stroke="#ddd" stroke-width="1" opacity="1"/><line transform="translate(0,0)" x2="300" y2="0" stroke="#ddd" stroke-width="1" opacity="1"/></g></g><path class="foreground" aria-hidden="true" d="" pointer-events="none" display="none"/></g></g><g class="mark-group role-axis" role="graphics-symbol" aria-roledescription="axis" aria-label="X-axis titled 'Youtube Shorts Hashtag to Words Ratio' for a linear scale with values from 0.0 to 1.0"><g transform="translate(0.5,300.5)"><path class="background" aria-hidden="true" d="M0,0h0v0h0Z" pointer-events="none"/><g><g class="mark-rule role-axis-tick" pointer-events="none"><line transform="translate(0,0)" x2="0" y2="5" stroke="#888" stroke-width="1" opacity="1"/><line transform="translate(30,0)" x2="0" y2="5" stroke="#888" stroke-width="1" opacity="1"/><line transform="translate(60,0)" x2="0" y2="5" stroke="#888" stroke-width="1" opacity="1"/><line transform="translate(90,0)" x2="0" y2="5" stroke="#888" stroke-width="1" opacity="1"/><line transform="translate(120,0)" x2="0" y2="5" stroke="#888" stroke-width="1" opacity="1"/><line transform="translate(150,0)" x2="0" y2="5" stroke="#888" stroke-width="1" opacity="1"/><line transform="translate(180,0)" x2="0" y2="5" stroke="#888" stroke-width="1" opacity="1"/><line transform="translate(210,0)" x2="0" y2="5" stroke="#888" stroke-width="1" opacity="1"/><line transform="translate(240,0)" x2="0" y2="5" stroke="#888" stroke-width="1" opacity="1"/><line transform="translate(270,0)" x2="0" y2="5" stroke="#888" stroke-width="1" opacity="1"/><line transform="translate(300,0)" x2="0" y2="5" stroke="#888" stroke-width="1" opacity="1"/></g><g class="mark-text role-axis-label" pointer-events="none"><text text-anchor="start" transform="translate(0,15)" font-family="sans-serif" font-size="10px" fill="#000" opacity="1">0.0</text><text text-anchor="middle" transform="translate(30,15)" font-family="sans-serif" font-size="10px" fill="#000" opacity="1">0.1</text><text text-anchor="middle" transform="translate(60,15)" font-family="sans-serif" font-size="10px" fill="#000" opacity="1">0.2</text><text text-anchor="middle" transform="translate(90,15)" font-family="sans-serif" font-size="10px" fill="#000" opacity="1">0.3</text><text text-anchor="middle" transform="translate(120,15)" font-family="sans-serif" font-size="10px" fill="#000" opacity="1">0.4</text><text text-anchor="middle" transform="translate(150,15)" font-family="sans-serif" font-size="10px" fill="#000" opacity="1">0.5</text><text text-anchor="middle" transform="translate(180,15)" font-family="sans-serif" font-size="10px" fill="#000" opacity="1">0.6</text><text text-anchor="middle" transform="translate(210,15)" font-family="sans-serif" font-size="10px" fill="#000" opacity="1">0.7</text><text text-anchor="middle" transform="translate(240,15)" font-family="sans-serif" font-size="10px" fill="#000" opacity="1">0.8</text><text text-anchor="middle" transform="translate(270,15)" font-family="sans-serif" font-size="10px" fill="#000" opacity="1">0.9</text><text text-anchor="end" transform="translate(300,15)" font-family="sans-serif" font-size="10px" fill="#000" opacity="1">1.0</text></g><g class="mark-rule role-axis-domain" pointer-events="none"><line transform="translate(0,0)" x2="300" y2="0" stroke="#888" stroke-width="1" opacity="1"/></g><g class="mark-text role-axis-title" pointer-events="none"><text text-anchor="middle" transform="translate(150,30)" font-family="sans-serif" font-size="11px" font-weight="bold" fill="#000" opacity="1">Youtube Shorts Hashtag to Words Ratio</text></g></g><path class="foreground" aria-hidden="true" d="" pointer-events="none" display="none"/></g></g><g class="mark-group role-axis" role="graphics-symbol" aria-roledescription="axis" aria-label="Y-axis titled 'Views' for a linear scale with values from 0.0 to 1.0"><g transform="translate(0.5,0.5)"><path class="background" aria-hidden="true" d="M0,0h0v0h0Z" pointer-events="none"/><g><g class="mark-rule role-axis-tick" pointer-events="none"><line transform="translate(0,300)" x2="-5" y2="0" stroke="#888" stroke-width="1" opacity="1"/><line transform="translate(0,270)" x2="-5" y2="0" stroke="#888" stroke-width="1" opacity="1"/><line transform="translate(0,240)" x2="-5" y2="0" stroke="#888" stroke-width="1" opacity="1"/><line transform="translate(0,210)" x2="-5" y2="0" stroke="#888" stroke-width="1" opacity="1"/><line transform="translate(0,180)" x2="-5" y2="0" stroke="#888" stroke-width="1" opacity="1"/><line transform="translate(0,150)" x2="-5" y2="0" stroke="#888" stroke-width="1" opacity="1"/><line transform="translate(0,120)" x2="-5" y2="0" stroke="#888" stroke-width="1" opacity="1"/><line transform="translate(0,90)" x2="-5" y2="0" stroke="#888" stroke-width="1" opacity="1"/><line transform="translate(0,60)" x2="-5" y2="0" stroke="#888" stroke-width="1" opacity="1"/><line transform="translate(0,30)" x2="-5" y2="0" stroke="#888" stroke-width="1" opacity="1"/><line transform="translate(0,0)" x2="-5" y2="0" stroke="#888" stroke-width="1" opacity="1"/></g><g class="mark-text role-axis-label" pointer-events="none"><text text-anchor="end" transform="translate(-7,303)" font-family="sans-serif" font-size="10px" fill="#000" opacity="1">0.0</text><text text-anchor="end" transform="translate(-7,273)" font-family="sans-serif" font-size="10px" fill="#000" opacity="1">0.1</text><text text-anchor="end" transform="translate(-7,243)" font-family="sans-serif" font-size="10px" fill="#000" opacity="1">0.2</text><text text-anchor="end" transform="translate(-7,213)" font-family="sans-serif" font-size="10px" fill="#000" opacity="1">0.3</text><text text-anchor="end" transform="translate(-7,183)" font-family="sans-serif" font-size="10px" fill="#000" opacity="1">0.4</text><text text-anchor="end" transform="translate(-7,153)" font-family="sans-serif" font-size="10px" fill="#000" opacity="1">0.5</text><text text-anchor="end" transform="translate(-7,123)" font-family="sans-serif" font-size="10px" fill="#000" opacity="1">0.6</text><text text-anchor="end" transform="translate(-7,93.00000000000001)" font-family="sans-serif" font-size="10px" fill="#000" opacity="1">0.7</text><text text-anchor="end" transform="translate(-7,62.999999999999986)" font-family="sans-serif" font-size="10px" fill="#000" opacity="1">0.8</text><text text-anchor="end" transform="translate(-7,32.99999999999999)" font-family="sans-serif" font-size="10px" fill="#000" opacity="1">0.9</text><text text-anchor="end" transform="translate(-7,3)" font-family="sans-serif" font-size="10px" fill="#000" opacity="1">1.0</text></g><g class="mark-rule role-axis-domain" pointer-events="none"><line transform="translate(0,300)" x2="0" y2="-300" stroke="#888" stroke-width="1" opacity="1"/></g><g class="mark-text role-axis-title" pointer-events="none"><text text-anchor="middle" transform="translate(-24.9013671875,150) rotate(-90) translate(0,-2)" font-family="sans-serif" font-size="11px" font-weight="bold" fill="#000" opacity="1">Views</text></g></g><path class="foreground" aria-hidden="true" d="" pointer-events="none" display="none"/></g></g><g class="mark-symbol role-mark marks" clip-path="url(#clip1)" role="graphics-object" aria-roledescription="symbol mark container"><path aria-label="Youtube Shorts Hashtag to Words Ratio: 0.365384615385; Views: 0.0225309800976; Likes: 10" role="graphics-symbol" aria-roledescription="circle" transform="translate(109.61538461538461,293.2407059707097)" d="M3.873,0A3.873,3.873,0,1,1,-3.873,0A3.873,3.873,0,1,1,3.873,0" fill="rgb(165, 33, 47)" stroke-width="2" opacity="0.7"/><path aria-label="Youtube Shorts Hashtag to Words Ratio: 0.294871794872; Views: 0.0414945550131; Likes: 15" role="graphics-symbol" aria-roledescription="circle" transform="translate(88.46153846153847,287.5516334960571)" d="M3.873,0A3.873,3.873,0,1,1,-3.873,0A3.873,3.873,0,1,1,3.873,0" fill="rgb(177, 43, 52)" stroke-width="2" opacity="0.7"/><path aria-label="Youtube Shorts Hashtag to Words Ratio: 0.418269230769; Views: 0.0245963199399; Likes: 18" role="graphics-symbol" aria-roledescription="circle" transform="translate(125.48076923076921,292.62110401802477)" d="M3.873,0A3.873,3.873,0,1,1,-3.873,0A3.873,3.873,0,1,1,3.873,0" fill="rgb(184, 49, 55)" stroke-width="2" opacity="0.7"/><path aria-label="Youtube Shorts Hashtag to Words Ratio: 0.259615384615; Views: 0.357867067217; Likes: 156" role="graphics-symbol" aria-roledescription="circle" transform="translate(77.88461538461537,192.63987983477278)" d="M3.873,0A3.873,3.873,0,1,1,-3.873,0A3.873,3.873,0,1,1,3.873,0" fill="rgb(169, 169, 169)" stroke-width="2" opacity="0.7"/><path aria-label="Youtube Shorts Hashtag to Words Ratio: 0.471153846154; Views: 0.0184003004131; Likes: 11" role="graphics-symbol" aria-roledescription="circle" transform="translate(141.34615384615384,294.4799098760796)" d="M3.873,0A3.873,3.873,0,1,1,-3.873,0A3.873,3.873,0,1,1,3.873,0" fill="rgb(167, 35, 48)" stroke-width="2" opacity="0.7"/><path aria-label="Youtube Shorts Hashtag to Words Ratio: 0.294871794872; Views: 0.00394292151709; Likes: 2" role="graphics-symbol" aria-roledescription="circle" transform="translate(88.46153846153847,298.8171235448742)" d="M3.873,0A3.873,3.873,0,1,1,-3.873,0A3.873,3.873,0,1,1,3.873,0" fill="rgb(145, 17, 39)" stroke-width="2" opacity="0.7"/><path aria-label="Youtube Shorts Hashtag to Words Ratio: 0.0782967032967; Views: 0.466015771686; Likes: 91" role="graphics-symbol" aria-roledescription="circle" transform="translate(23.489010989010996,160.1952684941795)" d="M3.873,0A3.873,3.873,0,1,1,-3.873,0A3.873,3.873,0,1,1,3.873,0" fill="rgb(251, 230, 218)" stroke-width="2" opacity="0.7"/><path aria-label="Youtube Shorts Hashtag to Words Ratio: 1; Views: 0.00413067968457; Likes: 0" role="graphics-symbol" aria-roledescription="circle" transform="translate(300,298.7607960946301)" d="M3.873,0A3.873,3.873,0,1,1,-3.873,0A3.873,3.873,0,1,1,3.873,0" fill="rgb(140, 13, 37)" stroke-width="2" opacity="0.7"/><path aria-label="Youtube Shorts Hashtag to Words Ratio: 0.294871794872; Views: 1; Likes: 207" role="graphics-symbol" aria-roledescription="circle" transform="translate(88.46153846153847,0)" d="M3.873,0A3.873,3.873,0,1,1,-3.873,0A3.873,3.873,0,1,1,3.873,0" fill="rgb(52, 52, 52)" stroke-width="2" opacity="0.7"/><path aria-label="Youtube Shorts Hashtag to Words Ratio: 0.0782967032967; Views: 0.189072474653; Likes: 35" role="graphics-symbol" aria-roledescription="circle" transform="translate(23.489010989010996,243.27825760420578)" d="M3.873,0A3.873,3.873,0,1,1,-3.873,0A3.873,3.873,0,1,1,3.873,0" fill="rgb(213, 97, 83)" stroke-width="2" opacity="0.7"/><path aria-label="Youtube Shorts Hashtag to Words Ratio: 0.418269230769; Views: 0.0152084115659; Likes: 5" role="graphics-symbol" aria-roledescription="circle" transform="translate(125.48076923076921,295.43747653022905)" d="M3.873,0A3.873,3.873,0,1,1,-3.873,0A3.873,3.873,0,1,1,3.873,0" fill="rgb(152, 23, 42)" stroke-width="2" opacity="0.7"/><path aria-label="Youtube Shorts Hashtag to Words Ratio: 0.111538461538; Views: 0.155088246339; Likes: 20" role="graphics-symbol" aria-roledescription="circle" transform="translate(33.46153846153847,253.47352609838526)" d="M3.873,0A3.873,3.873,0,1,1,-3.873,0A3.873,3.873,0,1,1,3.873,0" fill="rgb(189, 53, 57)" stroke-width="2" opacity="0.7"/><path aria-label="Youtube Shorts Hashtag to Words Ratio: 0.418269230769; Views: 0.0488171235449; Likes: 10" role="graphics-symbol" aria-roledescription="circle" transform="translate(125.48076923076921,285.35486293653776)" d="M3.873,0A3.873,3.873,0,1,1,-3.873,0A3.873,3.873,0,1,1,3.873,0" fill="rgb(165, 33, 47)" stroke-width="2" opacity="0.7"/><path aria-label="Youtube Shorts Hashtag to Words Ratio: 0.0480769230769; Views: 0.000938790837401; Likes: 1" role="graphics-symbol" aria-roledescription="circle" transform="translate(14.423076923076923,299.71836274877955)" d="M3.873,0A3.873,3.873,0,1,1,-3.873,0A3.873,3.873,0,1,1,3.873,0" fill="rgb(142, 15, 38)" stroke-width="2" opacity="0.7"/><path aria-label="Youtube Shorts Hashtag to Words Ratio: 0.471153846154; Views: 0.361058956065; Likes: 46" role="graphics-symbol" aria-roledescription="circle" transform="translate(141.34615384615384,191.6823131806234)" d="M3.873,0A3.873,3.873,0,1,1,-3.873,0A3.873,3.873,0,1,1,3.873,0" fill="rgb(228, 129, 105)" stroke-width="2" opacity="0.7"/><path aria-label="Youtube Shorts Hashtag to Words Ratio: 0.0903846153846; Views: 0.121291776192; Likes: 22" role="graphics-symbol" aria-roledescription="circle" transform="translate(27.11538461538462,263.61246714232067)" d="M3.873,0A3.873,3.873,0,1,1,-3.873,0A3.873,3.873,0,1,1,3.873,0" fill="rgb(193, 58, 60)" stroke-width="2" opacity="0.7"/><path aria-label="Youtube Shorts Hashtag to Words Ratio: 0.0692307692308; Views: 0.0454374765302; Likes: 7" role="graphics-symbol" aria-roledescription="circle" transform="translate(20.76923076923077,286.36875704093126)" d="M3.873,0A3.873,3.873,0,1,1,-3.873,0A3.873,3.873,0,1,1,3.873,0" fill="rgb(157, 27, 44)" stroke-width="2" opacity="0.7"/><path aria-label="Youtube Shorts Hashtag to Words Ratio: 0.418269230769; Views: 0.0593315809238; Likes: 9" role="graphics-symbol" aria-roledescription="circle" transform="translate(125.48076923076921,282.2005257228689)" d="M3.873,0A3.873,3.873,0,1,1,-3.873,0A3.873,3.873,0,1,1,3.873,0" fill="rgb(162, 31, 46)" stroke-width="2" opacity="0.7"/><path aria-label="Youtube Shorts Hashtag to Words Ratio: 0.788461538462; Views: 0.00788584303417; Likes: 2" role="graphics-symbol" aria-roledescription="circle" transform="translate(236.53846153846152,297.63424708974844)" d="M3.873,0A3.873,3.873,0,1,1,-3.873,0A3.873,3.873,0,1,1,3.873,0" fill="rgb(145, 17, 39)" stroke-width="2" opacity="0.7"/><path aria-label="Youtube Shorts Hashtag to Words Ratio: 0; Views: 0.0028163725122; Likes: 1" role="graphics-symbol" aria-roledescription="circle" transform="translate(0,299.1550882463387)" d="M3.873,0A3.873,3.873,0,1,1,-3.873,0A3.873,3.873,0,1,1,3.873,0" fill="rgb(142, 15, 38)" stroke-width="2" opacity="0.7"/><path aria-label="Youtube Shorts Hashtag to Words Ratio: 0.153846153846; Views: 0.00450619601953; Likes: 0" role="graphics-symbol" aria-roledescription="circle" transform="translate(46.15384615384615,298.64814119414194)" d="M3.873,0A3.873,3.873,0,1,1,-3.873,0A3.873,3.873,0,1,1,3.873,0" fill="rgb(140, 13, 37)" stroke-width="2" opacity="0.7"/><path aria-label="Youtube Shorts Hashtag to Words Ratio: 0.0833333333333; Views: 0; Likes: 0" role="graphics-symbol" aria-roledescription="circle" transform="translate(25.000000000000004,300)" d="M3.873,0A3.873,3.873,0,1,1,-3.873,0A3.873,3.873,0,1,1,3.873,0" fill="rgb(140, 13, 37)" stroke-width="2" opacity="0.7"/><path aria-label="Youtube Shorts Hashtag to Words Ratio: 0.100961538462; Views: 0.567592940293; Likes: 106" role="graphics-symbol" aria-roledescription="circle" transform="translate(30.28846153846154,129.72211791212916)" d="M3.873,0A3.873,3.873,0,1,1,-3.873,0A3.873,3.873,0,1,1,3.873,0" fill="rgb(247, 242, 239)" stroke-width="2" opacity="0.7"/><path aria-label="Youtube Shorts Hashtag to Words Ratio: 0.259615384615; Views: 0.00619601952685; Likes: 1" role="graphics-symbol" aria-roledescription="circle" transform="translate(77.88461538461537,298.14119414194516)" d="M3.873,0A3.873,3.873,0,1,1,-3.873,0A3.873,3.873,0,1,1,3.873,0" fill="rgb(142, 15, 38)" stroke-width="2" opacity="0.7"/><path aria-label="Youtube Shorts Hashtag to Words Ratio: 0.294871794872; Views: 0.00300413067968; Likes: 2" role="graphics-symbol" aria-roledescription="circle" transform="translate(88.46153846153847,299.09876079609467)" d="M3.873,0A3.873,3.873,0,1,1,-3.873,0A3.873,3.873,0,1,1,3.873,0" fill="rgb(145, 17, 39)" stroke-width="2" opacity="0.7"/><path aria-label="Youtube Shorts Hashtag to Words Ratio: 0.0480769230769; Views: 0.466579046189; Likes: 136" role="graphics-symbol" aria-roledescription="circle" transform="translate(14.423076923076923,160.02628614344727)" d="M3.873,0A3.873,3.873,0,1,1,-3.873,0A3.873,3.873,0,1,1,3.873,0" fill="rgb(207, 207, 207)" stroke-width="2" opacity="0.7"/><path aria-label="Youtube Shorts Hashtag to Words Ratio: 0.00576923076923; Views: 0.00262861434472; Likes: 3" role="graphics-symbol" aria-roledescription="circle" transform="translate(1.7307692307692308,299.21141569658283)" d="M3.873,0A3.873,3.873,0,1,1,-3.873,0A3.873,3.873,0,1,1,3.873,0" fill="rgb(147, 19, 40)" stroke-width="2" opacity="0.7"/><path aria-label="Youtube Shorts Hashtag to Words Ratio: 0.0348557692308; Views: 0.0176492677431; Likes: 5" role="graphics-symbol" aria-roledescription="circle" transform="translate(10.456730769230772,294.70521967705594)" d="M3.873,0A3.873,3.873,0,1,1,-3.873,0A3.873,3.873,0,1,1,3.873,0" fill="rgb(152, 23, 42)" stroke-width="2" opacity="0.7"/><path aria-label="Youtube Shorts Hashtag to Words Ratio: 0.471153846154; Views: 0.0161472024033; Likes: 3" role="graphics-symbol" aria-roledescription="circle" transform="translate(141.34615384615384,295.1558392790086)" d="M3.873,0A3.873,3.873,0,1,1,-3.873,0A3.873,3.873,0,1,1,3.873,0" fill="rgb(147, 19, 40)" stroke-width="2" opacity="0.7"/><path aria-label="Youtube Shorts Hashtag to Words Ratio: 0.00961538461538; Views: 0.00150206533984; Likes: 1" role="graphics-symbol" aria-roledescription="circle" transform="translate(2.8846153846153846,299.54938039804733)" d="M3.873,0A3.873,3.873,0,1,1,-3.873,0A3.873,3.873,0,1,1,3.873,0" fill="rgb(142, 15, 38)" stroke-width="2" opacity="0.7"/><path aria-label="Youtube Shorts Hashtag to Words Ratio: 0.0480769230769; Views: 0.152647390161; Likes: 35" role="graphics-symbol" aria-roledescription="circle" transform="translate(14.423076923076923,254.2057829515584)" d="M3.873,0A3.873,3.873,0,1,1,-3.873,0A3.873,3.873,0,1,1,3.873,0" fill="rgb(213, 97, 83)" stroke-width="2" opacity="0.7"/><path aria-label="Youtube Shorts Hashtag to Words Ratio: 0.0480769230769; Views: 0.0538865940668; Likes: 15" role="graphics-symbol" aria-roledescription="circle" transform="translate(14.423076923076923,283.8340217799474)" d="M3.873,0A3.873,3.873,0,1,1,-3.873,0A3.873,3.873,0,1,1,3.873,0" fill="rgb(177, 43, 52)" stroke-width="2" opacity="0.7"/><path aria-label="Youtube Shorts Hashtag to Words Ratio: 0.259615384615; Views: 0.475028163725; Likes: 43" role="graphics-symbol" aria-roledescription="circle" transform="translate(77.88461538461537,157.4915508824634)" d="M3.873,0A3.873,3.873,0,1,1,-3.873,0A3.873,3.873,0,1,1,3.873,0" fill="rgb(225, 120, 98)" stroke-width="2" opacity="0.7"/><path aria-label="Youtube Shorts Hashtag to Words Ratio: 0.0245726495726; Views: 0.138190011265; Likes: 27" role="graphics-symbol" aria-roledescription="circle" transform="translate(7.371794871794872,258.542996620353)" d="M3.873,0A3.873,3.873,0,1,1,-3.873,0A3.873,3.873,0,1,1,3.873,0" fill="rgb(201, 73, 69)" stroke-width="2" opacity="0.7"/><path aria-label="Youtube Shorts Hashtag to Words Ratio: 0.0657051282051; Views: 0.106083364626; Likes: 10" role="graphics-symbol" aria-roledescription="circle" transform="translate(19.711538461538467,268.1749906120916)" d="M3.873,0A3.873,3.873,0,1,1,-3.873,0A3.873,3.873,0,1,1,3.873,0" fill="rgb(165, 33, 47)" stroke-width="2" opacity="0.7"/></g><g class="mark-group role-legend" role="graphics-symbol" aria-roledescription="legend" aria-label="Gradient legend titled 'Likes' for fill color with values from 0 to 207"><g transform="translate(318,0)"><path class="background" aria-hidden="true" d="M0,0h35v216h-35Z" pointer-events="none"/><g><g class="mark-group role-legend-entry"><g transform="translate(0,16)"><path class="background" aria-hidden="true" d="M0,0h0v0h0Z" pointer-events="none"/><g><g class="mark-rect role-legend-gradient" pointer-events="none"><path d="M0,0h16v200h-16Z" fill="url(#gradient_0)" stroke="#ddd" stroke-width="0" opacity="0.7"/></g><g class="mark-text role-legend-label" pointer-events="none"><text text-anchor="start" transform="translate(18,198)" font-family="sans-serif" font-size="10px" fill="#000" opacity="1">0</text><text text-anchor="start" transform="translate(18,154.69082125603865)" font-family="sans-serif" font-size="10px" fill="#000" opacity="1">50</text><text text-anchor="start" transform="translate(18,106.3816425120773)" font-family="sans-serif" font-size="10px" fill="#000" opacity="1">100</text><text text-anchor="start" transform="translate(18,58.072463768115945)" font-family="sans-serif" font-size="10px" fill="#000" opacity="1">150</text><text text-anchor="start" transform="translate(18,9.763285024154598)" font-family="sans-serif" font-size="10px" fill="#000" opacity="1">200</text></g></g><path class="foreground" aria-hidden="true" d="" pointer-events="none" display="none"/></g></g><g class="mark-text role-legend-title" pointer-events="none"><text text-anchor="start" transform="translate(0,9)" font-family="sans-serif" font-size="11px" font-weight="bold" fill="#000" opacity="1">Likes</text></g></g><path class="foreground" aria-hidden="true" d="" pointer-events="none" display="none"/></g></g><g class="mark-group role-title"><g transform="translate(150,-22)"><path class="background" aria-hidden="true" d="M0,0h0v0h0Z" pointer-events="none"/><g><g class="mark-text role-title-text" role="graphics-symbol" aria-roledescription="title" aria-label="Title text 'Views against Hashtag to Words Ratio in Titles (Scaled II)'" pointer-events="none"><text text-anchor="middle" transform="translate(0,10)" font-family="sans-serif" font-size="13px" font-weight="bold" fill="#000" opacity="1">Views against Hashtag to Words Ratio in Titles (Scaled II)</text></g></g><path class="foreground" aria-hidden="true" d="" pointer-events="none" display="none"/></g></g></g><path class="foreground" aria-hidden="true" d="" display="none"/></g></g></g><defs><linearGradient id="gradient_0" x1="0" x2="0" y1="1" y2="0"><stop offset="0" stop-color="rgb(140, 13, 37)"/><stop offset="0.04830917874396135" stop-color="rgb(165, 33, 47)"/><stop offset="0.0966183574879227" stop-color="rgb(189, 53, 57)"/><stop offset="0.14492753623188406" stop-color="rgb(205, 82, 74)"/><stop offset="0.1932367149758454" stop-color="rgb(221, 112, 92)"/><stop offset="0.24154589371980675" stop-color="rgb(232, 140, 115)"/><stop offset="0.2898550724637681" stop-color="rgb(242, 168, 140)"/><stop offset="0.33816425120772947" stop-color="rgb(247, 192, 167)"/><stop offset="0.3864734299516908" stop-color="rgb(251, 214, 195)"/><stop offset="0.43478260869565216" stop-color="rgb(251, 228, 216)"/><stop offset="0.4830917874396135" stop-color="rgb(250, 240, 235)"/><stop offset="0.5314009661835749" stop-color="rgb(242, 238, 236)"/><stop offset="0.5797101449275363" stop-color="rgb(231, 230, 229)"/><stop offset="0.6280193236714976" stop-color="rgb(216, 216, 216)"/><stop offset="0.6763285024154589" stop-color="rgb(200, 200, 200)"/><stop offset="0.7246376811594203" stop-color="rgb(182, 182, 182)"/><stop offset="0.7729468599033816" stop-color="rgb(161, 161, 161)"/><stop offset="0.821256038647343" stop-color="rgb(139, 139, 139)"/><stop offset="0.8695652173913043" stop-color="rgb(115, 115, 115)"/><stop offset="0.9178743961352657" stop-color="rgb(91, 91, 91)"/><stop offset="0.966183574879227" stop-color="rgb(68, 68, 68)"/><stop offset="1" stop-color="rgb(52, 52, 52)"/></linearGradient><clipPath id="clip1"><rect x="0" y="0" width="300" height="300"/></clipPath></defs></svg>