<svg xmlns="http://www.w3.org/2000/svg" xmlns:xlink="http://www.w3.org/1999/xlink" version="1.1" class="marks" width="391" height="359" viewBox="0 0 391 359"><rect width="391" height="359" fill="white"/><g fill="none" stroke-miterlimit="10" transform="translate(33,22)"><g class="mark-group role-frame root" role="graphics-object" aria-roledescription="group mark container"><g transform="translate(0,0)"><path class="background" aria-hidden="true" d="M0.5,0.5h300v300h-300Z" stroke="#ddd"/><g><g class="mark-group role-axis" aria-hidden="true"><g transform="translate(0.5,300.5)"><path class="background" aria-hidden="true" d="M0,0h0v0h0Z" pointer-events="none"/><g><g class="mark-rule role-axis-grid" pointer-events="none"><line transform="translate(0,-300)" x2="0" y2="300" stroke="#ddd" stroke-width="1" opacity="1"/><line transform="translate(38,-300)" x2="0" y2="300" stroke="#ddd" stroke-width="1" opacity="1"/><line transform="translate(75,-300)" x2="0" y2="300" stroke="#ddd" stroke-width="1" opacity="1"/><line transform="translate(113,-300)" x2="0" y2="300" stroke="#ddd" stroke-width="1" opacity="1"/><line transform="translate(150,-300)" x2="0" y2="300" stroke="#ddd" stroke-width="1" opacity="1"/><line transform="translate(188,-300)" x2="0" y2="300" stroke="#ddd" stroke-width="1" opacity="1"/><line transform="translate(225,-300)" x2="0" y2="300" stroke="#ddd" stroke-width="1" opacity="1"/><line transform="translate(263,-300)" x2="0" y2="300" stroke="#ddd" stroke-width="1" opacity="1"/><line transform="translate(300,-300)" x2="0" y2="300" stroke="#ddd" stroke-width="1" opacity="1"/></g></g><path class="foreground" aria-hidden="true" d="" pointer-events="none" display="none"/></g></g><g class="mark-group role-axis" aria-hidden="true"><g transform="translate(0.5,0.5)"><path class="background" aria-hidden="true" d="M0,0h0v0h0Z" pointer-events="none"/><g><g class="mark-rule role-axis-grid" pointer-events="none"><line transform="translate(0,279)" x2="300" y2="0" stroke="#ddd" stroke-width="1" opacity="1"/><line transform="translate(0,236)" x2="300" y2="0" stroke="#ddd" stroke-width="1" opacity="1"/><line transform="translate(0,193)" x2="300" y2="0" stroke="#ddd" stroke-width="1" opacity="1"/><line transform="translate(0,150)" x2="300" y2="0" stroke="#ddd" stroke-width="1" opacity="1"/><line transform="translate(0,107)" x2="300" y2="0" stroke="#ddd" stroke-width="1" opacity="1"/><line transform="translate(0,64)" x2="300" y2="0" stroke="#ddd" stroke-width="1" opacity="1"/><line transform="translate(0,21)" x2="300" y2="0" stroke="#ddd" stroke-width="1" opacity="1"/></g></g><path class="foreground" aria-hidden="true" d="" pointer-events="none" display="none"/></g></g><g class="mark-group role-axis" role="graphics-symbol" aria-roledescription="axis" aria-label="X-axis titled 'Youtube Shorts Hashtag to Words Ratio' for a linear scale with values from −1 to 3"><g transform="translate(0.5,300.5)"><path class="background" aria-hidden="true" d="M0,0h0v0h0Z" pointer-events="none"/><g><g class="mark-rule role-axis-tick" pointer-events="none"><line transform="translate(0,0)" x2="0" y2="5" stroke="#888" stroke-width="1" opacity="1"/><line transform="translate(38,0)" x2="0" y2="5" stroke="#888" stroke-width="1" opacity="1"/><line transform="translate(75,0)" x2="0" y2="5" stroke="#888" stroke-width="1" opacity="1"/><line transform="translate(113,0)" x2="0" y2="5" stroke="#888" stroke-width="1" opacity="1"/><line transform="translate(150,0)" x2="0" y2="5" stroke="#888" stroke-width="1" opacity="1"/><line transform="translate(188,0)" x2="0" y2="5" stroke="#888" stroke-width="1" opacity="1"/><line transform="translate(225,0)" x2="0" y2="5" stroke="#888" stroke-width="1" opacity="1"/><line transform="translate(263,0)" x2="0" y2="5" stroke="#888" stroke-width="1" opacity="1"/><line transform="translate(300,0)" x2="0" y2="5" stroke="#888" stroke-width="1" opacity="1"/></g><g class="mark-text role-axis-label" pointer-events="none"><text text-anchor="start" transform="translate(0,15)" font-family="sans-serif" font-size="10px" fill="#000" opacity="1">−1.0</text><text text-anchor="middle" transform="translate(37.5,15)" font-family="sans-serif" font-size="10px" fill="#000" opacity="1">−0.5</text><text text-anchor="middle" transform="translate(75,15)" font-family="sans-serif" font-size="10px" fill="#000" opacity="1">0.0</text><text text-anchor="middle" transform="translate(112.5,15)" font-family="sans-serif" font-size="10px" fill="#000" opacity="1">0.5</text><text text-anchor="middle" transform="translate(150,15)" font-family="sans-serif" font-size="10px" fill="#000" opacity="1">1.0</text><text text-anchor="middle" transform="translate(187.5,15)" font-family="sans-serif" font-size="10px" fill="#000" opacity="1">1.5</text><text text-anchor="middle" transform="translate(225,15)" font-family="sans-serif" font-size="10px" fill="#000" opacity="1">2.0</text><text text-anchor="middle" transform="translate(262.5,15)" font-family="sans-serif" font-size="10px" fill="#000" opacity="1">2.5</text><text text-anchor="end" transform="translate(300,15)" font-family="sans-serif" font-size="10px" fill="#000" opacity="1">3.0</text></g><g class="mark-rule role-axis-domain" pointer-events="none"><line transform="translate(0,0)" x2="300" y2="0" stroke="#888" stroke-width="1" opacity="1"/></g><g class="mark-text role-axis-title" pointer-events="none"><text text-anchor="middle" transform="translate(150,30)" font-family="sans-serif" font-size="11px" font-weight="bold" fill="#000" opacity="1">Youtube Shorts Hashtag to Words Ratio</text></g></g><path class="foreground" aria-hidden="true" d="" pointer-events="none" display="none"/></g></g><g class="mark-group role-axis" role="graphics-symbol" aria-roledescription="axis" aria-label="Y-axis titled 'Views' for a linear scale with values from −1 to 7"><g transform="translate(0.5,0.5)"><path class="background" aria-hidden="true" d="M0,0h0v0h0Z" pointer-events="none"/><g><g class="mark-rule role-axis-tick" pointer-events="none"><line transform="translate(0,279)" x2="-5" y2="0" stroke="#888" stroke-width="1" opacity="1"/><line transform="translate(0,236)" x2="-5" y2="0" stroke="#888" stroke-width="1" opacity="1"/><line transform="translate(0,193)" x2="-5" y2="0" stroke="#888" stroke-width="1" opacity="1"/><line transform="translate(0,150)" x2="-5" y2="0" stroke="#888" stroke-width="1" opacity="1"/><line transform="translate(0,107)" x2="-5" y2="0" stroke="#888" stroke-width="1" opacity="1"/><line transform="translate(0,64)" x2="-5" y2="0" stroke="#888" stroke-width="1" opacity="1"/><line transform="translate(0,21)" x2="-5" y2="0" stroke="#888" stroke-width="1" opacity="1"/></g><g class="mark-text role-axis-label" pointer-events="none"><text text-anchor="end" transform="translate(-7,281.57142857142856)" font-family="sans-serif" font-size="10px" fill="#000" opacity="1">0</text><text text-anchor="end" transform="translate(-7,238.71428571428572)" font-family="sans-serif" font-size="10px" fill="#000" opacity="1">1</text><text text-anchor="end" transform="translate(-7,195.85714285714283)" font-family="sans-serif" font-size="10px" fill="#000" opacity="1">2</text><text text-anchor="end" transform="translate(-7,153)" font-family="sans-serif" font-size="10px" fill="#000" opacity="1">3</text><text text-anchor="end" transform="translate(-7,110.14285714285712)" font-family="sans-serif" font-size="10px" fill="#000" opacity="1">4</text><text text-anchor="end" transform="translate(-7,67.28571428571429)" font-family="sans-serif" font-size="10px" fill="#000" opacity="1">5</text><text text-anchor="end" transform="translate(-7,24.42857142857142)" font-family="sans-serif" font-size="10px" fill="#000" opacity="1">6</text></g><g class="mark-rule role-axis-domain" pointer-events="none"><line transform="translate(0,300)" x2="0" y2="-300" stroke="#888" stroke-width="1" opacity="1"/></g><g class="mark-text role-axis-title" pointer-events="none"><text text-anchor="middle" transform="translate(-16.5615234375,150) rotate(-90) translate(0,-2)" font-family="sans-serif" font-size="11px" font-weight="bold" fill="#000" opacity="1">Views</text></g></g><path class="foreground" aria-hidden="true" d="" pointer-events="none" display="none"/></g></g><g class="mark-symbol role-mark view_20_marks" clip-path="url(#clip2)" role="graphics-object" aria-roledescription="symbol mark container"><path aria-label="Youtube Shorts Hashtag to Words Ratio: 0.631578947368; Views: −0.127686472819; Likes: 10" role="graphics-symbol" aria-roledescription="circle" transform="translate(122.36842105263159,284.0437059779664)" d="M3.873,0A3.873,3.873,0,1,1,-3.873,0A3.873,3.873,0,1,1,3.873,0" fill="rgb(165, 33, 47)" stroke-width="2" opacity="0.7"/><path aria-label="Youtube Shorts Hashtag to Words Ratio: 0.421052631579; Views: 0; Likes: 15" role="graphics-symbol" aria-roledescription="circle" transform="translate(106.57894736842105,278.57142857142856)" d="M3.873,0A3.873,3.873,0,1,1,-3.873,0A3.873,3.873,0,1,1,3.873,0" fill="rgb(177, 43, 52)" stroke-width="2" opacity="0.7"/><path aria-label="Youtube Shorts Hashtag to Words Ratio: 0.789473684211; Views: −0.113780025284; Likes: 18" role="graphics-symbol" aria-roledescription="circle" transform="translate(134.21052631578948,283.4477153693336)" d="M3.873,0A3.873,3.873,0,1,1,-3.873,0A3.873,3.873,0,1,1,3.873,0" fill="rgb(184, 49, 55)" stroke-width="2" opacity="0.7"/><path aria-label="Youtube Shorts Hashtag to Words Ratio: 0.315789473684; Views: 2.13021491783; Likes: 156" role="graphics-symbol" aria-roledescription="circle" transform="translate(98.6842105263158,187.2765035217627)" d="M3.873,0A3.873,3.873,0,1,1,-3.873,0A3.873,3.873,0,1,1,3.873,0" fill="rgb(169, 169, 169)" stroke-width="2" opacity="0.7"/><path aria-label="Youtube Shorts Hashtag to Words Ratio: 0.947368421053; Views: −0.155499367889; Likes: 11" role="graphics-symbol" aria-roledescription="circle" transform="translate(146.05263157894737,285.23568719523206)" d="M3.873,0A3.873,3.873,0,1,1,-3.873,0A3.873,3.873,0,1,1,3.873,0" fill="rgb(167, 35, 48)" stroke-width="2" opacity="0.7"/><path aria-label="Youtube Shorts Hashtag to Words Ratio: 0.421052631579; Views: −0.252844500632; Likes: 2" role="graphics-symbol" aria-roledescription="circle" transform="translate(106.57894736842105,289.4076214556619)" d="M3.873,0A3.873,3.873,0,1,1,-3.873,0A3.873,3.873,0,1,1,3.873,0" fill="rgb(145, 17, 39)" stroke-width="2" opacity="0.7"/><path aria-label="Youtube Shorts Hashtag to Words Ratio: −0.225563909774; Views: 2.85840707965; Likes: 91" role="graphics-symbol" aria-roledescription="circle" transform="translate(58.0827067669173,156.06826801517067)" d="M3.873,0A3.873,3.873,0,1,1,-3.873,0A3.873,3.873,0,1,1,3.873,0" fill="rgb(251, 230, 218)" stroke-width="2" opacity="0.7"/><path aria-label="Youtube Shorts Hashtag to Words Ratio: 2.52631578947; Views: −0.251580278129; Likes: 0" role="graphics-symbol" aria-roledescription="circle" transform="translate(264.47368421052636,289.35344049124075)" d="M3.873,0A3.873,3.873,0,1,1,-3.873,0A3.873,3.873,0,1,1,3.873,0" fill="rgb(140, 13, 37)" stroke-width="2" opacity="0.7"/><path aria-label="Youtube Shorts Hashtag to Words Ratio: 0.421052631579; Views: 6.45385587863; Likes: 207" role="graphics-symbol" aria-roledescription="circle" transform="translate(106.57894736842105,1.9776052013725787)" d="M3.873,0A3.873,3.873,0,1,1,-3.873,0A3.873,3.873,0,1,1,3.873,0" fill="rgb(52, 52, 52)" stroke-width="2" opacity="0.7"/><path aria-label="Youtube Shorts Hashtag to Words Ratio: −0.225563909774; Views: 0.993678887484; Likes: 35" role="graphics-symbol" aria-roledescription="circle" transform="translate(58.0827067669173,235.98519053639154)" d="M3.873,0A3.873,3.873,0,1,1,-3.873,0A3.873,3.873,0,1,1,3.873,0" fill="rgb(213, 97, 83)" stroke-width="2" opacity="0.7"/><path aria-label="Youtube Shorts Hashtag to Words Ratio: 0.789473684211; Views: −0.176991150442; Likes: 5" role="graphics-symbol" aria-roledescription="circle" transform="translate(134.21052631578948,286.1567635903919)" d="M3.873,0A3.873,3.873,0,1,1,-3.873,0A3.873,3.873,0,1,1,3.873,0" fill="rgb(152, 23, 42)" stroke-width="2" opacity="0.7"/><path aria-label="Youtube Shorts Hashtag to Words Ratio: −0.126315789474; Views: 0.764854614412; Likes: 20" role="graphics-symbol" aria-roledescription="circle" transform="translate(65.52631578947368,245.79194509662275)" d="M3.873,0A3.873,3.873,0,1,1,-3.873,0A3.873,3.873,0,1,1,3.873,0" fill="rgb(189, 53, 57)" stroke-width="2" opacity="0.7"/><path aria-label="Youtube Shorts Hashtag to Words Ratio: 0.789473684211; Views: 0.0493046776233; Likes: 10" role="graphics-symbol" aria-roledescription="circle" transform="translate(134.21052631578948,276.45837095900305)" d="M3.873,0A3.873,3.873,0,1,1,-3.873,0A3.873,3.873,0,1,1,3.873,0" fill="rgb(165, 33, 47)" stroke-width="2" opacity="0.7"/><path aria-label="Youtube Shorts Hashtag to Words Ratio: −0.315789473684; Views: −0.273072060683; Likes: 1" role="graphics-symbol" aria-roledescription="circle" transform="translate(51.315789473684205,290.2745168864006)" d="M3.873,0A3.873,3.873,0,1,1,-3.873,0A3.873,3.873,0,1,1,3.873,0" fill="rgb(142, 15, 38)" stroke-width="2" opacity="0.7"/><path aria-label="Youtube Shorts Hashtag to Words Ratio: 0.947368421053; Views: 2.15170670038; Likes: 46" role="graphics-symbol" aria-roledescription="circle" transform="translate(146.05263157894737,186.35542712660285)" d="M3.873,0A3.873,3.873,0,1,1,-3.873,0A3.873,3.873,0,1,1,3.873,0" fill="rgb(228, 129, 105)" stroke-width="2" opacity="0.7"/><path aria-label="Youtube Shorts Hashtag to Words Ratio: −0.189473684211; Views: 0.537294563843; Likes: 22" role="graphics-symbol" aria-roledescription="circle" transform="translate(60.78947368421052,255.54451869243275)" d="M3.873,0A3.873,3.873,0,1,1,-3.873,0A3.873,3.873,0,1,1,3.873,0" fill="rgb(193, 58, 60)" stroke-width="2" opacity="0.7"/><path aria-label="Youtube Shorts Hashtag to Words Ratio: −0.252631578947; Views: 0.0265486725664; Likes: 7" role="graphics-symbol" aria-roledescription="circle" transform="translate(56.05263157894737,277.43362831858406)" d="M3.873,0A3.873,3.873,0,1,1,-3.873,0A3.873,3.873,0,1,1,3.873,0" fill="rgb(157, 27, 44)" stroke-width="2" opacity="0.7"/><path aria-label="Youtube Shorts Hashtag to Words Ratio: 0.789473684211; Views: 0.1201011378; Likes: 9" role="graphics-symbol" aria-roledescription="circle" transform="translate(134.21052631578948,273.42423695141775)" d="M3.873,0A3.873,3.873,0,1,1,-3.873,0A3.873,3.873,0,1,1,3.873,0" fill="rgb(162, 31, 46)" stroke-width="2" opacity="0.7"/><path aria-label="Youtube Shorts Hashtag to Words Ratio: 1.89473684211; Views: −0.226295828066; Likes: 2" role="graphics-symbol" aria-roledescription="circle" transform="translate(217.10526315789474,288.2698212028174)" d="M3.873,0A3.873,3.873,0,1,1,-3.873,0A3.873,3.873,0,1,1,3.873,0" fill="rgb(145, 17, 39)" stroke-width="2" opacity="0.7"/><path aria-label="Youtube Shorts Hashtag to Words Ratio: −0.459330143541; Views: −0.260429835651; Likes: 1" role="graphics-symbol" aria-roledescription="circle" transform="translate(40.55023923444976,289.73270724218895)" d="M3.873,0A3.873,3.873,0,1,1,-3.873,0A3.873,3.873,0,1,1,3.873,0" fill="rgb(142, 15, 38)" stroke-width="2" opacity="0.7"/><path aria-label="Youtube Shorts Hashtag to Words Ratio: 0; Views: −0.249051833123; Likes: 0" role="graphics-symbol" aria-roledescription="circle" transform="translate(75,289.2450785623984)" d="M3.873,0A3.873,3.873,0,1,1,-3.873,0A3.873,3.873,0,1,1,3.873,0" fill="rgb(140, 13, 37)" stroke-width="2" opacity="0.7"/><path aria-label="Youtube Shorts Hashtag to Words Ratio: −0.210526315789; Views: −0.279393173198; Likes: 0" role="graphics-symbol" aria-roledescription="circle" transform="translate(59.21052631578947,290.5454217085064)" d="M3.873,0A3.873,3.873,0,1,1,-3.873,0A3.873,3.873,0,1,1,3.873,0" fill="rgb(140, 13, 37)" stroke-width="2" opacity="0.7"/><path aria-label="Youtube Shorts Hashtag to Words Ratio: −0.157894736842; Views: 3.54235145386; Likes: 106" role="graphics-symbol" aria-roledescription="circle" transform="translate(63.1578947368421,126.75636626331948)" d="M3.873,0A3.873,3.873,0,1,1,-3.873,0A3.873,3.873,0,1,1,3.873,0" fill="rgb(247, 242, 239)" stroke-width="2" opacity="0.7"/><path aria-label="Youtube Shorts Hashtag to Words Ratio: 0.315789473684; Views: −0.237673830594; Likes: 1" role="graphics-symbol" aria-roledescription="circle" transform="translate(98.6842105263158,288.75744988260794)" d="M3.873,0A3.873,3.873,0,1,1,-3.873,0A3.873,3.873,0,1,1,3.873,0" fill="rgb(142, 15, 38)" stroke-width="2" opacity="0.7"/><path aria-label="Youtube Shorts Hashtag to Words Ratio: 0.421052631579; Views: −0.259165613148; Likes: 2" role="graphics-symbol" aria-roledescription="circle" transform="translate(106.57894736842105,289.67852627776773)" d="M3.873,0A3.873,3.873,0,1,1,-3.873,0A3.873,3.873,0,1,1,3.873,0" fill="rgb(145, 17, 39)" stroke-width="2" opacity="0.7"/><path aria-label="Youtube Shorts Hashtag to Words Ratio: −0.315789473684; Views: 2.86219974716; Likes: 136" role="graphics-symbol" aria-roledescription="circle" transform="translate(51.315789473684205,155.90572512190718)" d="M3.873,0A3.873,3.873,0,1,1,-3.873,0A3.873,3.873,0,1,1,3.873,0" fill="rgb(207, 207, 207)" stroke-width="2" opacity="0.7"/><path aria-label="Youtube Shorts Hashtag to Words Ratio: −0.442105263158; Views: −0.261694058154; Likes: 3" role="graphics-symbol" aria-roledescription="circle" transform="translate(41.84210526315789,289.7868882066101)" d="M3.873,0A3.873,3.873,0,1,1,-3.873,0A3.873,3.873,0,1,1,3.873,0" fill="rgb(147, 19, 40)" stroke-width="2" opacity="0.7"/><path aria-label="Youtube Shorts Hashtag to Words Ratio: −0.355263157895; Views: −0.160556257901; Likes: 5" role="graphics-symbol" aria-roledescription="circle" transform="translate(48.35526315789474,285.4524110529168)" d="M3.873,0A3.873,3.873,0,1,1,-3.873,0A3.873,3.873,0,1,1,3.873,0" fill="rgb(152, 23, 42)" stroke-width="2" opacity="0.7"/><path aria-label="Youtube Shorts Hashtag to Words Ratio: 0.947368421053; Views: −0.170670037927; Likes: 3" role="graphics-symbol" aria-roledescription="circle" transform="translate(146.05263157894737,285.8858587682861)" d="M3.873,0A3.873,3.873,0,1,1,-3.873,0A3.873,3.873,0,1,1,3.873,0" fill="rgb(147, 19, 40)" stroke-width="2" opacity="0.7"/><path aria-label="Youtube Shorts Hashtag to Words Ratio: −0.430622009569; Views: −0.269279393173; Likes: 1" role="graphics-symbol" aria-roledescription="circle" transform="translate(42.70334928229665,290.1119739931371)" d="M3.873,0A3.873,3.873,0,1,1,-3.873,0A3.873,3.873,0,1,1,3.873,0" fill="rgb(142, 15, 38)" stroke-width="2" opacity="0.7"/><path aria-label="Youtube Shorts Hashtag to Words Ratio: −0.315789473684; Views: 0.748419721871; Likes: 35" role="graphics-symbol" aria-roledescription="circle" transform="translate(51.315789473684205,246.4962976340979)" d="M3.873,0A3.873,3.873,0,1,1,-3.873,0A3.873,3.873,0,1,1,3.873,0" fill="rgb(213, 97, 83)" stroke-width="2" opacity="0.7"/><path aria-label="Youtube Shorts Hashtag to Words Ratio: −0.315789473684; Views: 0.0834386852086; Likes: 15" role="graphics-symbol" aria-roledescription="circle" transform="translate(51.315789473684205,274.99548491963156)" d="M3.873,0A3.873,3.873,0,1,1,-3.873,0A3.873,3.873,0,1,1,3.873,0" fill="rgb(177, 43, 52)" stroke-width="2" opacity="0.7"/><path aria-label="Youtube Shorts Hashtag to Words Ratio: 0.315789473684; Views: 2.9190897598; Likes: 43" role="graphics-symbol" aria-roledescription="circle" transform="translate(98.6842105263158,153.46758172295466)" d="M3.873,0A3.873,3.873,0,1,1,-3.873,0A3.873,3.873,0,1,1,3.873,0" fill="rgb(225, 120, 98)" stroke-width="2" opacity="0.7"/><path aria-label="Youtube Shorts Hashtag to Words Ratio: −0.385964912281; Views: 0.651074589128; Likes: 27" role="graphics-symbol" aria-roledescription="circle" transform="translate(46.05263157894736,250.66823189452774)" d="M3.873,0A3.873,3.873,0,1,1,-3.873,0A3.873,3.873,0,1,1,3.873,0" fill="rgb(201, 73, 69)" stroke-width="2" opacity="0.7"/><path aria-label="Youtube Shorts Hashtag to Words Ratio: −0.263157894737; Views: 0.434892541087; Likes: 10" role="graphics-symbol" aria-roledescription="circle" transform="translate(55.26315789473685,259.93317681054725)" d="M3.873,0A3.873,3.873,0,1,1,-3.873,0A3.873,3.873,0,1,1,3.873,0" fill="rgb(165, 33, 47)" stroke-width="2" opacity="0.7"/></g><g class="mark-symbol role-mark layer_1_marks" clip-path="url(#clip3)" role="graphics-symbol" aria-roledescription="symbol mark container"/><g class="mark-group role-legend" role="graphics-symbol" aria-roledescription="legend" aria-label="Gradient legend titled 'Likes' for fill color with values from 0 to 207"><g transform="translate(318,0)"><path class="background" aria-hidden="true" d="M0,0h35v216h-35Z" pointer-events="none"/><g><g class="mark-group role-legend-entry"><g transform="translate(0,16)"><path class="background" aria-hidden="true" d="M0,0h0v0h0Z" pointer-events="none"/><g><g class="mark-rect role-legend-gradient" pointer-events="none"><path d="M0,0h16v200h-16Z" fill="url(#gradient_1)" stroke="#ddd" stroke-width="0" opacity="0.7"/></g><g class="mark-text role-legend-label" pointer-events="none"><text text-anchor="start" transform="translate(18,198)" font-family="sans-serif" font-size="10px" fill="#000" opacity="1">0</text><text text-anchor="start" transform="translate(18,154.69082125603865)" font-family="sans-serif" font-size="10px" fill="#000" opacity="1">50</text><text text-anchor="start" transform="translate(18,106.3816425120773)" font-family="sans-serif" font-size="10px" fill="#000" opacity="1">100</text><text text-anchor="start" transform="translate(18,58.072463768115945)" font-family="sans-serif" font-size="10px" fill="#000" opacity="1">150</text><text text-anchor="start" transform="translate(18,9.763285024154598)" font-family="sans-serif" font-size="10px" fill="#000" opacity="1">200</text></g></g><path class="foreground" aria-hidden="true" d="" pointer-events="none" display="none"/></g></g><g class="mark-text role-legend-title" pointer-events="none"><text text-anchor="start" transform="translate(0,9)" font-family="sans-serif" font-size="11px" font-weight="bold" fill="#000" opacity="1">Likes</text></g></g><path class="foreground" aria-hidden="true" d="" pointer-events="none" display="none"/></g></g><g class="mark-group role-title"><g transform="translate(150,-17)"><path class="background" aria-hidden="true" d="M0,0h0v0h0Z" pointer-events="none"/><g><g class="mark-text role-title-text" role="graphics-symbol" aria-roledescription="title" aria-label="Title text 'Views against Hashtag to Words Ratio in Titles (Scaled)'" pointer-events="none"><text text-anchor="middle" transform="translate(0,10)" font-family="sans-serif" font-size="13px" font-weight="bold" fill="#000" opacity="1">Views against Hashtag to Words Ratio in Titles (Scaled)</text></g></g><path class="foreground" aria-hidden="true" d="" pointer-events="none" display="none"/></g></g></g><path class="foreground" aria-hidden="true" d="" display="none"/></g></g></g><defs><linearGradient id="gradient_1" x1="0" x2="0" y1="1" y2="0"><stop offset="0" stop-color="rgb(140, 13, 37)"/><stop offset="0.04830917874396135" stop-color="rgb(165, 33, 47)"/><stop offset="0.0966183574879227" stop-color="rgb(189, 53, 57)"/><stop offset="0.14492753623188406" stop-color="rgb(205, 82, 74)"/><stop offset="0.1932367149758454" stop-color="rgb(221, 112, 92)"/><stop offset="0.24154589371980675" stop-color="rgb(232, 140, 115)"/><stop offset="0.2898550724637681" stop-color="rgb(242, 168, 140)"/><stop offset="0.33816425120772947" stop-color="rgb(247, 192, 167)"/><stop offset="0.3864734299516908" stop-color="rgb(251, 214, 195)"/><stop offset="0.43478260869565216" stop-color="rgb(251, 228, 216)"/><stop offset="0.4830917874396135" stop-color="rgb(250, 240, 235)"/><stop offset="0.5314009661835749" stop-color="rgb(242, 238, 236)"/><stop offset="0.5797101449275363" stop-color="rgb(231, 230, 229)"/><stop offset="0.6280193236714976" stop-color="rgb(216, 216, 216)"/><stop offset="0.6763285024154589" stop-color="rgb(200, 200, 200)"/><stop offset="0.7246376811594203" stop-color="rgb(182, 182, 182)"/><stop offset="0.7729468599033816" stop-color="rgb(161, 161, 161)"/><stop offset="0.821256038647343" stop-color="rgb(139, 139, 139)"/><stop offset="0.8695652173913043" stop-color="rgb(115, 115, 115)"/><stop offset="0.9178743961352657" stop-color="rgb(91, 91, 91)"/><stop offset="0.966183574879227" stop-color="rgb(68, 68, 68)"/><stop offset="1" stop-color="rgb(52, 52, 52)"/></linearGradient><clipPath id="clip2"><rect x="0" y="0" width="300" height="300"/></clipPath><clipPath id="clip3"><rect x="0" y="0" width="300" height="300"/></clipPath></defs></svg>