<svg xmlns="http://www.w3.org/2000/svg" xmlns:xlink="http://www.w3.org/1999/xlink" version="1.1" class="marks" width="406" height="359" viewBox="0 0 406 359"><rect width="406" height="359" fill="white"/><g fill="none" stroke-miterlimit="10" transform="translate(39,22)"><g class="mark-group role-frame root" role="graphics-object" aria-roledescription="group mark container"><g transform="translate(0,0)"><path class="background" aria-hidden="true" d="M0.5,0.5h300v300h-300Z" stroke="#ddd"/><g><g class="mark-group role-axis" aria-hidden="true"><g transform="translate(0.5,300.5)"><path class="background" aria-hidden="true" d="M0,0h0v0h0Z" pointer-events="none"/><g><g class="mark-rule role-axis-grid" pointer-events="none"><line transform="translate(0,-300)" x2="0" y2="300" stroke="#ddd" stroke-width="1" opacity="1"/><line transform="translate(33,-300)" x2="0" y2="300" stroke="#ddd" stroke-width="1" opacity="1"/><line transform="translate(67,-300)" x2="0" y2="300" stroke="#ddd" stroke-width="1" opacity="1"/><line transform="translate(100,-300)" x2="0" y2="300" stroke="#ddd" stroke-width="1" opacity="1"/><line transform="translate(133,-300)" x2="0" y2="300" stroke="#ddd" stroke-width="1" opacity="1"/><line transform="translate(167,-300)" x2="0" y2="300" stroke="#ddd" stroke-width="1" opacity="1"/><line transform="translate(200,-300)" x2="0" y2="300" stroke="#ddd" stroke-width="1" opacity="1"/><line transform="translate(233,-300)" x2="0" y2="300" stroke="#ddd" stroke-width="1" opacity="1"/><line transform="translate(267,-300)" x2="0" y2="300" stroke="#ddd" stroke-width="1" opacity="1"/><line transform="translate(300,-300)" x2="0" y2="300" stroke="#ddd" stroke-width="1" opacity="1"/></g></g><path class="foreground" aria-hidden="true" d="" pointer-events="none" display="none"/></g></g><g class="mark-group role-axis" aria-hidden="true"><g transform="translate(0.5,0.5)"><path class="background" aria-hidden="true" d="M0,0h0v0h0Z" pointer-events="none"/><g><g class="mark-rule role-axis-grid" pointer-events="none"><line transform="translate(0,279)" x2="300" y2="0" stroke="#ddd" stroke-width="1" opacity="1"/><line transform="translate(0,236)" x2="300" y2="0" stroke="#ddd" stroke-width="1" opacity="1"/><line transform="translate(0,193)" x2="300" y2="0" stroke="#ddd" stroke-width="1" opacity="1"/><line transform="translate(0,150)" x2="300" y2="0" stroke="#ddd" stroke-width="1" opacity="1"/><line transform="translate(0,107)" x2="300" y2="0" stroke="#ddd" stroke-width="1" opacity="1"/><line transform="translate(0,64)" x2="300" y2="0" stroke="#ddd" stroke-width="1" opacity="1"/><line transform="translate(0,21)" x2="300" y2="0" stroke="#ddd" stroke-width="1" opacity="1"/></g></g><path class="foreground" aria-hidden="true" d="" pointer-events="none" display="none"/></g></g><g class="mark-group role-axis" role="graphics-symbol" aria-roledescription="axis" aria-label="X-axis titled 'Instagram Reels Hashtag to Words Ratio' for a linear scale with values from −1 to 4"><g transform="translate(0.5,300.5)"><path class="background" aria-hidden="true" d="M0,0h0v0h0Z" pointer-events="none"/><g><g class="mark-rule role-axis-tick" pointer-events="none"><line transform="translate(0,0)" x2="0" y2="5" stroke="#888" stroke-width="1" opacity="1"/><line transform="translate(33,0)" x2="0" y2="5" stroke="#888" stroke-width="1" opacity="1"/><line transform="translate(67,0)" x2="0" y2="5" stroke="#888" stroke-width="1" opacity="1"/><line transform="translate(100,0)" x2="0" y2="5" stroke="#888" stroke-width="1" opacity="1"/><line transform="translate(133,0)" x2="0" y2="5" stroke="#888" stroke-width="1" opacity="1"/><line transform="translate(167,0)" x2="0" y2="5" stroke="#888" stroke-width="1" opacity="1"/><line transform="translate(200,0)" x2="0" y2="5" stroke="#888" stroke-width="1" opacity="1"/><line transform="translate(233,0)" x2="0" y2="5" stroke="#888" stroke-width="1" opacity="1"/><line transform="translate(267,0)" x2="0" y2="5" stroke="#888" stroke-width="1" opacity="1"/><line transform="translate(300,0)" x2="0" y2="5" stroke="#888" stroke-width="1" opacity="1"/></g><g class="mark-text role-axis-label" pointer-events="none"><text text-anchor="start" transform="translate(0,15)" font-family="sans-serif" font-size="10px" fill="#000" opacity="1">−1.0</text><text text-anchor="middle" transform="translate(33.33333333333333,15)" font-family="sans-serif" font-size="10px" fill="#000" opacity="1">−0.5</text><text text-anchor="middle" transform="translate(66.66666666666666,15)" font-family="sans-serif" font-size="10px" fill="#000" opacity="1">0.0</text><text text-anchor="middle" transform="translate(100,15)" font-family="sans-serif" font-size="10px" fill="#000" opacity="1">0.5</text><text text-anchor="middle" transform="translate(133.33333333333331,15)" font-family="sans-serif" font-size="10px" fill="#000" opacity="1">1.0</text><text text-anchor="middle" transform="translate(166.66666666666669,15)" font-family="sans-serif" font-size="10px" fill="#000" opacity="1">1.5</text><text text-anchor="middle" transform="translate(200,15)" font-family="sans-serif" font-size="10px" fill="#000" opacity="1">2.0</text><text text-anchor="middle" transform="translate(233.33333333333334,15)" font-family="sans-serif" font-size="10px" fill="#000" opacity="1">2.5</text><text text-anchor="middle" transform="translate(266.66666666666663,15)" font-family="sans-serif" font-size="10px" fill="#000" opacity="1">3.0</text><text text-anchor="end" transform="translate(300,15)" font-family="sans-serif" font-size="10px" fill="#000" opacity="1">3.5</text></g><g class="mark-rule role-axis-domain" pointer-events="none"><line transform="translate(0,0)" x2="300" y2="0" stroke="#888" stroke-width="1" opacity="1"/></g><g class="mark-text role-axis-title" pointer-events="none"><text text-anchor="middle" transform="translate(150,30)" font-family="sans-serif" font-size="11px" font-weight="bold" fill="#000" opacity="1">Instagram Reels Hashtag to Words Ratio</text></g></g><path class="foreground" aria-hidden="true" d="" pointer-events="none" display="none"/></g></g><g class="mark-group role-axis" role="graphics-symbol" aria-roledescription="axis" aria-label="Y-axis titled 'Views' for a linear scale with values from −1 to 13"><g transform="translate(0.5,0.5)"><path class="background" aria-hidden="true" d="M0,0h0v0h0Z" pointer-events="none"/><g><g class="mark-rule role-axis-tick" pointer-events="none"><line transform="translate(0,279)" x2="-5" y2="0" stroke="#888" stroke-width="1" opacity="1"/><line transform="translate(0,236)" x2="-5" y2="0" stroke="#888" stroke-width="1" opacity="1"/><line transform="translate(0,193)" x2="-5" y2="0" stroke="#888" stroke-width="1" opacity="1"/><line transform="translate(0,150)" x2="-5" y2="0" stroke="#888" stroke-width="1" opacity="1"/><line transform="translate(0,107)" x2="-5" y2="0" stroke="#888" stroke-width="1" opacity="1"/><line transform="translate(0,64)" x2="-5" y2="0" stroke="#888" stroke-width="1" opacity="1"/><line transform="translate(0,21)" x2="-5" y2="0" stroke="#888" stroke-width="1" opacity="1"/></g><g class="mark-text role-axis-label" pointer-events="none"><text text-anchor="end" transform="translate(-7,281.57142857142856)" font-family="sans-serif" font-size="10px" fill="#000" opacity="1">0</text><text text-anchor="end" transform="translate(-7,238.71428571428572)" font-family="sans-serif" font-size="10px" fill="#000" opacity="1">2</text><text text-anchor="end" transform="translate(-7,195.85714285714283)" font-family="sans-serif" font-size="10px" fill="#000" opacity="1">4</text><text text-anchor="end" transform="translate(-7,153)" font-family="sans-serif" font-size="10px" fill="#000" opacity="1">6</text><text text-anchor="end" transform="translate(-7,110.14285714285712)" font-family="sans-serif" font-size="10px" fill="#000" opacity="1">8</text><text text-anchor="end" transform="translate(-7,67.28571428571429)" font-family="sans-serif" font-size="10px" fill="#000" opacity="1">10</text><text text-anchor="end" transform="translate(-7,24.42857142857142)" font-family="sans-serif" font-size="10px" fill="#000" opacity="1">12</text></g><g class="mark-rule role-axis-domain" pointer-events="none"><line transform="translate(0,300)" x2="0" y2="-300" stroke="#888" stroke-width="1" opacity="1"/></g><g class="mark-text role-axis-title" pointer-events="none"><text text-anchor="middle" transform="translate(-22.123046875,150) rotate(-90) translate(0,-2)" font-family="sans-serif" font-size="11px" font-weight="bold" fill="#000" opacity="1">Views</text></g></g><path class="foreground" aria-hidden="true" d="" pointer-events="none" display="none"/></g></g><g class="mark-symbol role-mark view_17_marks" clip-path="url(#clip8)" role="graphics-object" aria-roledescription="symbol mark container"><path aria-label="Instagram Reels Hashtag to Words Ratio: 0.0588091154129; Views: 0.643902439024; Likes: 298" role="graphics-symbol" aria-roledescription="circle" transform="translate(70.58727436085927,264.77351916376307)" d="M3.873,0A3.873,3.873,0,1,1,-3.873,0A3.873,3.873,0,1,1,3.873,0" fill="rgb(135, 7, 166)" stroke-width="2" opacity="0.7"/><path aria-label="Instagram Reels Hashtag to Words Ratio: −0.329331046312; Views: 0.256910569106; Likes: 271" role="graphics-symbol" aria-roledescription="circle" transform="translate(44.71126357918811,273.06620209059236)" d="M3.873,0A3.873,3.873,0,1,1,-3.873,0A3.873,3.873,0,1,1,3.873,0" fill="rgb(126, 3, 168)" stroke-width="2" opacity="0.7"/><path aria-label="Instagram Reels Hashtag to Words Ratio: 1.35849056604; Views: −0.164227642276; Likes: 44" role="graphics-symbol" aria-roledescription="circle" transform="translate(157.2327044025157,282.0905923344948)" d="M3.873,0A3.873,3.873,0,1,1,-3.873,0A3.873,3.873,0,1,1,3.873,0" fill="rgb(35, 6, 144)" stroke-width="2" opacity="0.7"/><path aria-label="Instagram Reels Hashtag to Words Ratio: −0.525283018868; Views: 0.510569105691; Likes: 203" role="graphics-symbol" aria-roledescription="circle" transform="translate(31.647798742138374,267.6306620209059)" d="M3.873,0A3.873,3.873,0,1,1,-3.873,0A3.873,3.873,0,1,1,3.873,0" fill="rgb(100, 0, 167)" stroke-width="2" opacity="0.7"/><path aria-label="Instagram Reels Hashtag to Words Ratio: 3.49914236707; Views: 0.775609756098; Likes: 149" role="graphics-symbol" aria-roledescription="circle" transform="translate(299.9428244711263,261.9512195121951)" d="M3.873,0A3.873,3.873,0,1,1,-3.873,0A3.873,3.873,0,1,1,3.873,0" fill="rgb(80, 2, 162)" stroke-width="2" opacity="0.7"/><path aria-label="Instagram Reels Hashtag to Words Ratio: 2.42881646655; Views: 0.146341463415; Likes: 107" role="graphics-symbol" aria-roledescription="circle" transform="translate(228.58776443682103,275.4355400696864)" d="M3.873,0A3.873,3.873,0,1,1,-3.873,0A3.873,3.873,0,1,1,3.873,0" fill="rgb(63, 3, 156)" stroke-width="2" opacity="0.7"/><path aria-label="Instagram Reels Hashtag to Words Ratio: 1.8936535163; Views: 0.993495934959; Likes: 202" role="graphics-symbol" aria-roledescription="circle" transform="translate(192.91023441966834,257.2822299651568)" d="M3.873,0A3.873,3.873,0,1,1,-3.873,0A3.873,3.873,0,1,1,3.873,0" fill="rgb(99, 1, 167)" stroke-width="2" opacity="0.7"/><path aria-label="Instagram Reels Hashtag to Words Ratio: 0.734133790738; Views: 0.873170731707; Likes: 229" role="graphics-symbol" aria-roledescription="circle" transform="translate(115.60891938250428,259.86062717770034)" d="M3.873,0A3.873,3.873,0,1,1,-3.873,0A3.873,3.873,0,1,1,3.873,0" fill="rgb(110, 0, 168)" stroke-width="2" opacity="0.7"/><path aria-label="Instagram Reels Hashtag to Words Ratio: −0.418250428816; Views: −0.30406504065; Likes: 15" role="graphics-symbol" aria-roledescription="circle" transform="translate(38.783304745568906,285.08710801393727)" d="M3.873,0A3.873,3.873,0,1,1,-3.873,0A3.873,3.873,0,1,1,3.873,0" fill="rgb(17, 8, 137)" stroke-width="2" opacity="0.7"/><path aria-label="Instagram Reels Hashtag to Words Ratio: −0.157804459691; Views: −0.170731707317; Likes: 40" role="graphics-symbol" aria-roledescription="circle" transform="translate(56.14636935391653,282.22996515679444)" d="M3.873,0A3.873,3.873,0,1,1,-3.873,0A3.873,3.873,0,1,1,3.873,0" fill="rgb(32, 6, 143)" stroke-width="2" opacity="0.7"/><path aria-label="Instagram Reels Hashtag to Words Ratio: 0.0205831903945; Views: −0.289430894309; Likes: 15" role="graphics-symbol" aria-roledescription="circle" transform="translate(68.0388793596341,284.77351916376307)" d="M3.873,0A3.873,3.873,0,1,1,-3.873,0A3.873,3.873,0,1,1,3.873,0" fill="rgb(17, 8, 137)" stroke-width="2" opacity="0.7"/><path aria-label="Instagram Reels Hashtag to Words Ratio: 1.71526586621; Views: −0.282926829268; Likes: 24" role="graphics-symbol" aria-roledescription="circle" transform="translate(181.01772441395082,284.6341463414634)" d="M3.873,0A3.873,3.873,0,1,1,-3.873,0A3.873,3.873,0,1,1,3.873,0" fill="rgb(22, 7, 139)" stroke-width="2" opacity="0.7"/><path aria-label="Instagram Reels Hashtag to Words Ratio: 0.228702115495; Views: −0.291056910569; Likes: 16" role="graphics-symbol" aria-roledescription="circle" transform="translate(81.91347436630456,284.80836236933794)" d="M3.873,0A3.873,3.873,0,1,1,-3.873,0A3.873,3.873,0,1,1,3.873,0" fill="rgb(17, 8, 137)" stroke-width="2" opacity="0.7"/><path aria-label="Instagram Reels Hashtag to Words Ratio: 0; Views: −0.29918699187; Likes: 21" role="graphics-symbol" aria-roledescription="circle" transform="translate(66.66666666666666,284.98257839721254)" d="M3.873,0A3.873,3.873,0,1,1,-3.873,0A3.873,3.873,0,1,1,3.873,0" fill="rgb(21, 7, 138)" stroke-width="2" opacity="0.7"/><path aria-label="Instagram Reels Hashtag to Words Ratio: 0.644939965695; Views: −0.318699186992; Likes: 12" role="graphics-symbol" aria-roledescription="circle" transform="translate(109.6626643796455,285.40069686411147)" d="M3.873,0A3.873,3.873,0,1,1,-3.873,0A3.873,3.873,0,1,1,3.873,0" fill="rgb(15, 8, 136)" stroke-width="2" opacity="0.7"/><path aria-label="Instagram Reels Hashtag to Words Ratio: 0.211712815486; Views: 1.17235772358; Likes: 178" role="graphics-symbol" aria-roledescription="circle" transform="translate(80.78085436576004,253.44947735191639)" d="M3.873,0A3.873,3.873,0,1,1,-3.873,0A3.873,3.873,0,1,1,3.873,0" fill="rgb(91, 1, 165)" stroke-width="2" opacity="0.7"/><path aria-label="Instagram Reels Hashtag to Words Ratio: −0.544311034877; Views: 0.152845528455; Likes: 70" role="graphics-symbol" aria-roledescription="circle" transform="translate(30.379264341528494,275.2961672473868)" d="M3.873,0A3.873,3.873,0,1,1,-3.873,0A3.873,3.873,0,1,1,3.873,0" fill="rgb(47, 5, 149)" stroke-width="2" opacity="0.7"/><path aria-label="Instagram Reels Hashtag to Words Ratio: −0.0463121783877; Views: 12.9983739837; Likes: 1062" role="graphics-symbol" aria-roledescription="circle" transform="translate(63.579188107490005,0.03484320557491927)" d="M3.873,0A3.873,3.873,0,1,1,-3.873,0A3.873,3.873,0,1,1,3.873,0" fill="rgb(240, 249, 33)" stroke-width="2" opacity="0.7"/><path aria-label="Instagram Reels Hashtag to Words Ratio: −0.359664168999; Views: −0.323577235772; Likes: 15" role="graphics-symbol" aria-roledescription="circle" transform="translate(42.689055400078246,285.50522648083626)" d="M3.873,0A3.873,3.873,0,1,1,-3.873,0A3.873,3.873,0,1,1,3.873,0" fill="rgb(17, 8, 137)" stroke-width="2" opacity="0.7"/><path aria-label="Instagram Reels Hashtag to Words Ratio: 0.0205831903945; Views: 0.951219512195; Likes: 342" role="graphics-symbol" aria-roledescription="circle" transform="translate(68.0388793596341,258.18815331010455)" d="M3.873,0A3.873,3.873,0,1,1,-3.873,0A3.873,3.873,0,1,1,3.873,0" fill="rgb(150, 18, 161)" stroke-width="2" opacity="0.7"/><path aria-label="Instagram Reels Hashtag to Words Ratio: −0.490254171215; Views: −0.0130081300813; Likes: 54" role="graphics-symbol" aria-roledescription="circle" transform="translate(33.983055252351996,278.8501742160279)" d="M3.873,0A3.873,3.873,0,1,1,-3.873,0A3.873,3.873,0,1,1,3.873,0" fill="rgb(40, 6, 146)" stroke-width="2" opacity="0.7"/><path aria-label="Instagram Reels Hashtag to Words Ratio: −0.139965694683; Views: 0.830894308943; Likes: 272" role="graphics-symbol" aria-roledescription="circle" transform="translate(57.335620354488285,260.7665505226481)" d="M3.873,0A3.873,3.873,0,1,1,-3.873,0A3.873,3.873,0,1,1,3.873,0" fill="rgb(126, 3, 168)" stroke-width="2" opacity="0.7"/><path aria-label="Instagram Reels Hashtag to Words Ratio: −0.00374239825355; Views: −0.0829268292683; Likes: 23" role="graphics-symbol" aria-roledescription="circle" transform="translate(66.41717344976351,280.34843205574913)" d="M3.873,0A3.873,3.873,0,1,1,-3.873,0A3.873,3.873,0,1,1,3.873,0" fill="rgb(22, 7, 139)" stroke-width="2" opacity="0.7"/><path aria-label="Instagram Reels Hashtag to Words Ratio: 1.14442538593; Views: −0.343089430894; Likes: 9" role="graphics-symbol" aria-roledescription="circle" transform="translate(142.96169239565467,285.9233449477352)" d="M3.873,0A3.873,3.873,0,1,1,-3.873,0A3.873,3.873,0,1,1,3.873,0" fill="rgb(13, 8, 135)" stroke-width="2" opacity="0.7"/><path aria-label="Instagram Reels Hashtag to Words Ratio: 0.689536878216; Views: −0.20487804878; Likes: 50" role="graphics-symbol" aria-roledescription="circle" transform="translate(112.63579188107488,282.9616724738676)" d="M3.873,0A3.873,3.873,0,1,1,-3.873,0A3.873,3.873,0,1,1,3.873,0" fill="rgb(38, 6, 145)" stroke-width="2" opacity="0.7"/><path aria-label="Instagram Reels Hashtag to Words Ratio: 1.35849056604; Views: 0; Likes: 53" role="graphics-symbol" aria-roledescription="circle" transform="translate(157.2327044025157,278.57142857142856)" d="M3.873,0A3.873,3.873,0,1,1,-3.873,0A3.873,3.873,0,1,1,3.873,0" fill="rgb(39, 6, 146)" stroke-width="2" opacity="0.7"/><path aria-label="Instagram Reels Hashtag to Words Ratio: −0.246998284734; Views: 0.959349593496; Likes: 169" role="graphics-symbol" aria-roledescription="circle" transform="translate(50.200114351057756,258.01393728222996)" d="M3.873,0A3.873,3.873,0,1,1,-3.873,0A3.873,3.873,0,1,1,3.873,0" fill="rgb(87, 1, 164)" stroke-width="2" opacity="0.7"/><path aria-label="Instagram Reels Hashtag to Words Ratio: −0.0523935755497; Views: 0.962601626016; Likes: 222" role="graphics-symbol" aria-roledescription="circle" transform="translate(63.17376163002235,257.94425087108016)" d="M3.873,0A3.873,3.873,0,1,1,-3.873,0A3.873,3.873,0,1,1,3.873,0" fill="rgb(107, 0, 168)" stroke-width="2" opacity="0.7"/><path aria-label="Instagram Reels Hashtag to Words Ratio: 0.555746140652; Views: −0.019512195122; Likes: 47" role="graphics-symbol" aria-roledescription="circle" transform="translate(103.71640937678673,278.9895470383275)" d="M3.873,0A3.873,3.873,0,1,1,-3.873,0A3.873,3.873,0,1,1,3.873,0" fill="rgb(36, 6, 145)" stroke-width="2" opacity="0.7"/><path aria-label="Instagram Reels Hashtag to Words Ratio: −0.404399152457; Views: 0.069918699187; Likes: 54" role="graphics-symbol" aria-roledescription="circle" transform="translate(39.70672316954227,277.0731707317073)" d="M3.873,0A3.873,3.873,0,1,1,-3.873,0A3.873,3.873,0,1,1,3.873,0" fill="rgb(40, 6, 146)" stroke-width="2" opacity="0.7"/><path aria-label="Instagram Reels Hashtag to Words Ratio: −0.180102915952; Views: −0.318699186992; Likes: 15" role="graphics-symbol" aria-roledescription="circle" transform="translate(54.65980560320183,285.40069686411147)" d="M3.873,0A3.873,3.873,0,1,1,-3.873,0A3.873,3.873,0,1,1,3.873,0" fill="rgb(17, 8, 137)" stroke-width="2" opacity="0.7"/><path aria-label="Instagram Reels Hashtag to Words Ratio: −0.56180002018; Views: 0.19674796748; Likes: 102" role="graphics-symbol" aria-roledescription="circle" transform="translate(29.21333198802678,274.35540069686414)" d="M3.873,0A3.873,3.873,0,1,1,-3.873,0A3.873,3.873,0,1,1,3.873,0" fill="rgb(61, 4, 155)" stroke-width="2" opacity="0.7"/><path aria-label="Instagram Reels Hashtag to Words Ratio: 0.82332761578; Views: −0.318699186992; Likes: 14" role="graphics-symbol" aria-roledescription="circle" transform="translate(121.55517438536305,285.40069686411147)" d="M3.873,0A3.873,3.873,0,1,1,-3.873,0A3.873,3.873,0,1,1,3.873,0" fill="rgb(16, 8, 136)" stroke-width="2" opacity="0.7"/><path aria-label="Instagram Reels Hashtag to Words Ratio: −0.614922813036; Views: −0.336585365854; Likes: 12" role="graphics-symbol" aria-roledescription="circle" transform="translate(25.6718124642653,285.7839721254355)" d="M3.873,0A3.873,3.873,0,1,1,-3.873,0A3.873,3.873,0,1,1,3.873,0" fill="rgb(15, 8, 136)" stroke-width="2" opacity="0.7"/><path aria-label="Instagram Reels Hashtag to Words Ratio: −0.246998284734; Views: 0.365853658537; Likes: 136" role="graphics-symbol" aria-roledescription="circle" transform="translate(50.200114351057756,270.7317073170732)" d="M3.873,0A3.873,3.873,0,1,1,-3.873,0A3.873,3.873,0,1,1,3.873,0" fill="rgb(75, 2, 160)" stroke-width="2" opacity="0.7"/></g><g class="mark-symbol role-mark layer_1_marks" clip-path="url(#clip9)" role="graphics-symbol" aria-roledescription="symbol mark container"/><g class="mark-group role-legend" role="graphics-symbol" aria-roledescription="legend" aria-label="Gradient legend titled 'Likes' for fill color with values from 9 to 1,062"><g transform="translate(318,0)"><path class="background" aria-hidden="true" d="M0,0h44v216h-44Z" pointer-events="none"/><g><g class="mark-group role-legend-entry"><g transform="translate(0,16)"><path class="background" aria-hidden="true" d="M0,0h0v0h0Z" pointer-events="none"/><g><g class="mark-rect role-legend-gradient" pointer-events="none"><path d="M0,0h16v200h-16Z" fill="url(#gradient_2)" stroke="#ddd" stroke-width="0" opacity="0.7"/></g><g class="mark-text role-legend-label" pointer-events="none"><text text-anchor="start" transform="translate(18,166.7226970560304)" font-family="sans-serif" font-size="10px" fill="#000" opacity="1">200</text><text text-anchor="start" transform="translate(18,128.73599240265906)" font-family="sans-serif" font-size="10px" fill="#000" opacity="1">400</text><text text-anchor="start" transform="translate(18,90.74928774928775)" font-family="sans-serif" font-size="10px" fill="#000" opacity="1">600</text><text text-anchor="start" transform="translate(18,52.76258309591643)" font-family="sans-serif" font-size="10px" fill="#000" opacity="1">800</text><text text-anchor="start" transform="translate(18,14.775878442545107)" font-family="sans-serif" font-size="10px" fill="#000" opacity="1">1,000</text></g></g><path class="foreground" aria-hidden="true" d="" pointer-events="none" display="none"/></g></g><g class="mark-text role-legend-title" pointer-events="none"><text text-anchor="start" transform="translate(0,9)" font-family="sans-serif" font-size="11px" font-weight="bold" fill="#000" opacity="1">Likes</text></g></g><path class="foreground" aria-hidden="true" d="" pointer-events="none" display="none"/></g></g><g class="mark-group role-title"><g transform="translate(150,-17)"><path class="background" aria-hidden="true" d="M0,0h0v0h0Z" pointer-events="none"/><g><g class="mark-text role-title-text" role="graphics-symbol" aria-roledescription="title" aria-label="Title text 'Views against Hashtag to Words Ratio in Captions (Scaled)'" pointer-events="none"><text text-anchor="middle" transform="translate(0,10)" font-family="sans-serif" font-size="13px" font-weight="bold" fill="#000" opacity="1">Views against Hashtag to Words Ratio in Captions (Scaled)</text></g></g><path class="foreground" aria-hidden="true" d="" pointer-events="none" display="none"/></g></g></g><path class="foreground" aria-hidden="true" d="" display="none"/></g></g></g><defs><linearGradient id="gradient_2" x1="0" x2="0" y1="1" y2="0"><stop offset="0" stop-color="rgb(13, 8, 135)"/><stop offset="0.0389363722697056" stop-color="rgb(38, 6, 145)"/><stop offset="0.08641975308641975" stop-color="rgb(60, 4, 155)"/><stop offset="0.1339031339031339" stop-color="rgb(80, 2, 162)"/><stop offset="0.18138651471984804" stop-color="rgb(99, 1, 167)"/><stop offset="0.2288698955365622" stop-color="rgb(118, 1, 168)"/><stop offset="0.27635327635327633" stop-color="rgb(135, 7, 166)"/><stop offset="0.3238366571699905" stop-color="rgb(153, 20, 160)"/><stop offset="0.37132003798670465" stop-color="rgb(168, 34, 151)"/><stop offset="0.4188034188034188" stop-color="rgb(182, 48, 139)"/><stop offset="0.466286799620133" stop-color="rgb(195, 61, 128)"/><stop offset="0.5137701804368471" stop-color="rgb(206, 75, 118)"/><stop offset="0.5612535612535613" stop-color="rgb(217, 89, 106)"/><stop offset="0.6087369420702754" stop-color="rgb(227, 103, 96)"/><stop offset="0.6562203228869895" stop-color="rgb(235, 118, 86)"/><stop offset="0.7037037037037037" stop-color="rgb(242, 132, 75)"/><stop offset="0.7511870845204178" stop-color="rgb(248, 149, 64)"/><stop offset="0.798670465337132" stop-color="rgb(252, 166, 54)"/><stop offset="0.8461538461538461" stop-color="rgb(253, 184, 45)"/><stop offset="0.8936372269705603" stop-color="rgb(252, 203, 38)"/><stop offset="0.9411206077872745" stop-color="rgb(248, 223, 37)"/><stop offset="0.9886039886039886" stop-color="rgb(242, 244, 35)"/><stop offset="1" stop-color="rgb(240, 249, 33)"/></linearGradient><clipPath id="clip8"><rect x="0" y="0" width="300" height="300"/></clipPath><clipPath id="clip9"><rect x="0" y="0" width="300" height="300"/></clipPath></defs></svg>