<svg xmlns="http://www.w3.org/2000/svg" xmlns:xlink="http://www.w3.org/1999/xlink" version="1.1" class="marks" width="763" height="460" viewBox="0 0 763 460"><rect width="763" height="460" fill="white"/><g fill="none" stroke-miterlimit="10" transform="translate(58,27)"><g class="mark-group role-frame root" role="graphics-object" aria-roledescription="group mark container"><g transform="translate(0,0)"><path class="background" aria-hidden="true" d="M0.5,0.5h700v300h-700Z" stroke="#ddd"/><g><g class="mark-group role-axis" aria-hidden="true"><g transform="translate(0.5,0.5)"><path class="background" aria-hidden="true" d="M0,0h0v0h0Z" pointer-events="none"/><g><g class="mark-rule role-axis-grid" pointer-events="none"><line transform="translate(0,300)" x2="700" y2="0" stroke="#ddd" stroke-width="1" opacity="1"/><line transform="translate(0,257)" x2="700" y2="0" stroke="#ddd" stroke-width="1" opacity="1"/><line transform="translate(0,214)" x2="700" y2="0" stroke="#ddd" stroke-width="1" opacity="1"/><line transform="translate(0,171)" x2="700" y2="0" stroke="#ddd" stroke-width="1" opacity="1"/><line transform="translate(0,129)" x2="700" y2="0" stroke="#ddd" stroke-width="1" opacity="1"/><line transform="translate(0,86)" x2="700" y2="0" stroke="#ddd" stroke-width="1" opacity="1"/><line transform="translate(0,43)" x2="700" y2="0" stroke="#ddd" stroke-width="1" opacity="1"/><line transform="translate(0,0)" x2="700" y2="0" stroke="#ddd" stroke-width="1" opacity="1"/></g></g><path class="foreground" aria-hidden="true" d="" pointer-events="none" display="none"/></g></g><g class="mark-group role-axis" role="graphics-symbol" aria-roledescription="axis" aria-label="X-axis titled 'IG Reels IDs' for a discrete scale with 35 values: 3175357351040869000, 3178172144344783400, 3183943439313452500, 3186318734754358000, 3186758949793156000, ending with 3251400616176208400"><g transform="translate(0.5,300.5)"><path class="background" aria-hidden="true" d="M0,0h0v0h0Z" pointer-events="none"/><g><g class="mark-rule role-axis-tick" pointer-events="none"><line transform="translate(10,0)" x2="0" y2="5" stroke="#888" stroke-width="1" opacity="1"/><line transform="translate(30,0)" x2="0" y2="5" stroke="#888" stroke-width="1" opacity="1"/><line transform="translate(50,0)" x2="0" y2="5" stroke="#888" stroke-width="1" opacity="1"/><line transform="translate(70,0)" x2="0" y2="5" stroke="#888" stroke-width="1" opacity="1"/><line transform="translate(90,0)" x2="0" y2="5" stroke="#888" stroke-width="1" opacity="1"/><line transform="translate(110,0)" x2="0" y2="5" stroke="#888" stroke-width="1" opacity="1"/><line transform="translate(130,0)" x2="0" y2="5" stroke="#888" stroke-width="1" opacity="1"/><line transform="translate(150,0)" x2="0" y2="5" stroke="#888" stroke-width="1" opacity="1"/><line transform="translate(170,0)" x2="0" y2="5" stroke="#888" stroke-width="1" opacity="1"/><line transform="translate(190,0)" x2="0" y2="5" stroke="#888" stroke-width="1" opacity="1"/><line transform="translate(210,0)" x2="0" y2="5" stroke="#888" stroke-width="1" opacity="1"/><line transform="translate(230,0)" x2="0" y2="5" stroke="#888" stroke-width="1" opacity="1"/><line transform="translate(250,0)" x2="0" y2="5" stroke="#888" stroke-width="1" opacity="1"/><line transform="translate(270,0)" x2="0" y2="5" stroke="#888" stroke-width="1" opacity="1"/><line transform="translate(290,0)" x2="0" y2="5" stroke="#888" stroke-width="1" opacity="1"/><line transform="translate(310,0)" x2="0" y2="5" stroke="#888" stroke-width="1" opacity="1"/><line transform="translate(330,0)" x2="0" y2="5" stroke="#888" stroke-width="1" opacity="1"/><line transform="translate(350,0)" x2="0" y2="5" stroke="#888" stroke-width="1" opacity="1"/><line transform="translate(370,0)" x2="0" y2="5" stroke="#888" stroke-width="1" opacity="1"/><line transform="translate(390,0)" x2="0" y2="5" stroke="#888" stroke-width="1" opacity="1"/><line transform="translate(410,0)" x2="0" y2="5" stroke="#888" stroke-width="1" opacity="1"/><line transform="translate(430,0)" x2="0" y2="5" stroke="#888" stroke-width="1" opacity="1"/><line transform="translate(450,0)" x2="0" y2="5" stroke="#888" stroke-width="1" opacity="1"/><line transform="translate(470,0)" x2="0" y2="5" stroke="#888" stroke-width="1" opacity="1"/><line transform="translate(490,0)" x2="0" y2="5" stroke="#888" stroke-width="1" opacity="1"/><line transform="translate(510,0)" x2="0" y2="5" stroke="#888" stroke-width="1" opacity="1"/><line transform="translate(530,0)" x2="0" y2="5" stroke="#888" stroke-width="1" opacity="1"/><line transform="translate(550,0)" x2="0" y2="5" stroke="#888" stroke-width="1" opacity="1"/><line transform="translate(570,0)" x2="0" y2="5" stroke="#888" stroke-width="1" opacity="1"/><line transform="translate(590,0)" x2="0" y2="5" stroke="#888" stroke-width="1" opacity="1"/><line transform="translate(610,0)" x2="0" y2="5" stroke="#888" stroke-width="1" opacity="1"/><line transform="translate(630,0)" x2="0" y2="5" stroke="#888" stroke-width="1" opacity="1"/><line transform="translate(650,0)" x2="0" y2="5" stroke="#888" stroke-width="1" opacity="1"/><line transform="translate(670,0)" x2="0" y2="5" stroke="#888" stroke-width="1" opacity="1"/><line transform="translate(690,0)" x2="0" y2="5" stroke="#888" stroke-width="1" opacity="1"/></g><g class="mark-text role-axis-label" pointer-events="none"><text text-anchor="end" transform="translate(9.5,7) rotate(270) translate(0,3)" font-family="sans-serif" font-size="10px" fill="#000" opacity="1">3175357351040869000</text><text text-anchor="end" transform="translate(29.5,7) rotate(270) translate(0,3)" font-family="sans-serif" font-size="10px" fill="#000" opacity="1">3178172144344783400</text><text text-anchor="end" transform="translate(49.5,7) rotate(270) translate(0,3)" font-family="sans-serif" font-size="10px" fill="#000" opacity="1">3183943439313452500</text><text text-anchor="end" transform="translate(69.5,7) rotate(270) translate(0,3)" font-family="sans-serif" font-size="10px" fill="#000" opacity="1">3186318734754358000</text><text text-anchor="end" transform="translate(89.5,7) rotate(270) translate(0,3)" font-family="sans-serif" font-size="10px" fill="#000" opacity="1">3186758949793156000</text><text text-anchor="end" transform="translate(109.5,7) rotate(270) translate(0,3)" font-family="sans-serif" font-size="10px" fill="#000" opacity="1">3191960977448343000</text><text text-anchor="end" transform="translate(129.5,7) rotate(270) translate(0,3)" font-family="sans-serif" font-size="10px" fill="#000" opacity="1">3192121698723074000</text><text text-anchor="end" transform="translate(149.5,7) rotate(270) translate(0,3)" font-family="sans-serif" font-size="10px" fill="#000" opacity="1">3193335494372471000</text><text text-anchor="end" transform="translate(169.5,7) rotate(270) translate(0,3)" font-family="sans-serif" font-size="10px" fill="#000" opacity="1">3193969600776919000</text><text text-anchor="end" transform="translate(189.5,7) rotate(270) translate(0,3)" font-family="sans-serif" font-size="10px" fill="#000" opacity="1">3197861652878411300</text><text text-anchor="end" transform="translate(209.5,7) rotate(270) translate(0,3)" font-family="sans-serif" font-size="10px" fill="#000" opacity="1">3198707689713923000</text><text text-anchor="end" transform="translate(229.5,7) rotate(270) translate(0,3)" font-family="sans-serif" font-size="10px" fill="#000" opacity="1">3199828862237432300</text><text text-anchor="end" transform="translate(249.5,7) rotate(270) translate(0,3)" font-family="sans-serif" font-size="10px" fill="#000" opacity="1">3201952798693844500</text><text text-anchor="end" transform="translate(269.5,7) rotate(270) translate(0,3)" font-family="sans-serif" font-size="10px" fill="#000" opacity="1">3202167148666103000</text><text text-anchor="end" transform="translate(289.5,7) rotate(270) translate(0,3)" font-family="sans-serif" font-size="10px" fill="#000" opacity="1">3202254061750890500</text><text text-anchor="end" transform="translate(309.5,7) rotate(270) translate(0,3)" font-family="sans-serif" font-size="10px" fill="#000" opacity="1">3202728243781537300</text><text text-anchor="end" transform="translate(329.5,7) rotate(270) translate(0,3)" font-family="sans-serif" font-size="10px" fill="#000" opacity="1">3202878276619343000</text><text text-anchor="end" transform="translate(349.5,7) rotate(270) translate(0,3)" font-family="sans-serif" font-size="10px" fill="#000" opacity="1">3204268613778562000</text><text text-anchor="end" transform="translate(369.5,7) rotate(270) translate(0,3)" font-family="sans-serif" font-size="10px" fill="#000" opacity="1">3204808996254374400</text><text text-anchor="end" transform="translate(389.5,7) rotate(270) translate(0,3)" font-family="sans-serif" font-size="10px" fill="#000" opacity="1">3205335176539682000</text><text text-anchor="end" transform="translate(409.5,7) rotate(270) translate(0,3)" font-family="sans-serif" font-size="10px" fill="#000" opacity="1">3206125515592441300</text><text text-anchor="end" transform="translate(429.5,7) rotate(270) translate(0,3)" font-family="sans-serif" font-size="10px" fill="#000" opacity="1">3206906934376000500</text><text text-anchor="end" transform="translate(449.5,7) rotate(270) translate(0,3)" font-family="sans-serif" font-size="10px" fill="#000" opacity="1">3207594573580133400</text><text text-anchor="end" transform="translate(469.5,7) rotate(270) translate(0,3)" font-family="sans-serif" font-size="10px" fill="#000" opacity="1">3208629001185957400</text><text text-anchor="end" transform="translate(489.5,7) rotate(270) translate(0,3)" font-family="sans-serif" font-size="10px" fill="#000" opacity="1">3209327711146499000</text><text text-anchor="end" transform="translate(509.5,7) rotate(270) translate(0,3)" font-family="sans-serif" font-size="10px" fill="#000" opacity="1">3212200196867306500</text><text text-anchor="end" transform="translate(529.5,7) rotate(270) translate(0,3)" font-family="sans-serif" font-size="10px" fill="#000" opacity="1">3213697358737505000</text><text text-anchor="end" transform="translate(549.5,7) rotate(270) translate(0,3)" font-family="sans-serif" font-size="10px" fill="#000" opacity="1">3214445506036675000</text><text text-anchor="end" transform="translate(569.5,7) rotate(270) translate(0,3)" font-family="sans-serif" font-size="10px" fill="#000" opacity="1">3216418502804699600</text><text text-anchor="end" transform="translate(589.5,7) rotate(270) translate(0,3)" font-family="sans-serif" font-size="10px" fill="#000" opacity="1">3225261206271448000</text><text text-anchor="end" transform="translate(609.5,7) rotate(270) translate(0,3)" font-family="sans-serif" font-size="10px" fill="#000" opacity="1">3235439322444900400</text><text text-anchor="end" transform="translate(629.5,7) rotate(270) translate(0,3)" font-family="sans-serif" font-size="10px" fill="#000" opacity="1">3245433812400459300</text><text text-anchor="end" transform="translate(649.5,7) rotate(270) translate(0,3)" font-family="sans-serif" font-size="10px" fill="#000" opacity="1">3248584906928383500</text><text text-anchor="end" transform="translate(669.5,7) rotate(270) translate(0,3)" font-family="sans-serif" font-size="10px" fill="#000" opacity="1">3249215918196717600</text><text text-anchor="end" transform="translate(689.5,7) rotate(270) translate(0,3)" font-family="sans-serif" font-size="10px" fill="#000" opacity="1">3251400616176208400</text></g><g class="mark-rule role-axis-domain" pointer-events="none"><line transform="translate(0,0)" x2="700" y2="0" stroke="#888" stroke-width="1" opacity="1"/></g><g class="mark-text role-axis-title" pointer-events="none"><text text-anchor="middle" transform="translate(350,125.6689453125)" font-family="sans-serif" font-size="11px" font-weight="bold" fill="#000" opacity="1">IG Reels IDs</text></g></g><path class="foreground" aria-hidden="true" d="" pointer-events="none" display="none"/></g></g><g class="mark-group role-axis" role="graphics-symbol" aria-roledescription="axis" aria-label="Y-axis titled 'Views Difference' for a linear scale with values from −6,000 to 8,000"><g transform="translate(0.5,0.5)"><path class="background" aria-hidden="true" d="M0,0h0v0h0Z" pointer-events="none"/><g><g class="mark-rule role-axis-tick" pointer-events="none"><line transform="translate(0,300)" x2="-5" y2="0" stroke="#888" stroke-width="1" opacity="1"/><line transform="translate(0,257)" x2="-5" y2="0" stroke="#888" stroke-width="1" opacity="1"/><line transform="translate(0,214)" x2="-5" y2="0" stroke="#888" stroke-width="1" opacity="1"/><line transform="translate(0,171)" x2="-5" y2="0" stroke="#888" stroke-width="1" opacity="1"/><line transform="translate(0,129)" x2="-5" y2="0" stroke="#888" stroke-width="1" opacity="1"/><line transform="translate(0,86)" x2="-5" y2="0" stroke="#888" stroke-width="1" opacity="1"/><line transform="translate(0,43)" x2="-5" y2="0" stroke="#888" stroke-width="1" opacity="1"/><line transform="translate(0,0)" x2="-5" y2="0" stroke="#888" stroke-width="1" opacity="1"/></g><g class="mark-text role-axis-label" pointer-events="none"><text text-anchor="end" transform="translate(-7,303)" font-family="sans-serif" font-size="10px" fill="#000" opacity="1">−6,000</text><text text-anchor="end" transform="translate(-7,260.14285714285717)" font-family="sans-serif" font-size="10px" fill="#000" opacity="1">−4,000</text><text text-anchor="end" transform="translate(-7,217.28571428571428)" font-family="sans-serif" font-size="10px" fill="#000" opacity="1">−2,000</text><text text-anchor="end" transform="translate(-7,174.42857142857142)" font-family="sans-serif" font-size="10px" fill="#000" opacity="1">0</text><text text-anchor="end" transform="translate(-7,131.57142857142858)" font-family="sans-serif" font-size="10px" fill="#000" opacity="1">2,000</text><text text-anchor="end" transform="translate(-7,88.71428571428571)" font-family="sans-serif" font-size="10px" fill="#000" opacity="1">4,000</text><text text-anchor="end" transform="translate(-7,45.85714285714287)" font-family="sans-serif" font-size="10px" fill="#000" opacity="1">6,000</text><text text-anchor="end" transform="translate(-7,3)" font-family="sans-serif" font-size="10px" fill="#000" opacity="1">8,000</text></g><g class="mark-rule role-axis-domain" pointer-events="none"><line transform="translate(0,300)" x2="0" y2="-300" stroke="#888" stroke-width="1" opacity="1"/></g><g class="mark-text role-axis-title" pointer-events="none"><text text-anchor="middle" transform="translate(-41.8642578125,150) rotate(-90) translate(0,-2)" font-family="sans-serif" font-size="11px" font-weight="bold" fill="#000" opacity="1">Views Difference</text></g></g><path class="foreground" aria-hidden="true" d="" pointer-events="none" display="none"/></g></g><g class="mark-rect role-mark marks" role="graphics-object" aria-roledescription="rect mark container"><path aria-label="IG Reels IDs: 3251400616176208400; Views Difference: 515" role="graphics-symbol" aria-roledescription="bar" d="M681,160.39285714285717h18v11.03571428571425h-18Z" fill="#FFB6C1"/><path aria-label="IG Reels IDs: 3249215918196717600; Views Difference: 176" role="graphics-symbol" aria-roledescription="bar" d="M661,167.65714285714284h18v3.7714285714285722h-18Z" fill="#FFB6C1"/><path aria-label="IG Reels IDs: 3248584906928383500; Views Difference: 7" role="graphics-symbol" aria-roledescription="bar" d="M641,171.27857142857144h18v0.14999999999997726h-18Z" fill="#FFB6C1"/><path aria-label="IG Reels IDs: 3245433812400459300; Views Difference: −1353" role="graphics-symbol" aria-roledescription="bar" d="M621,171.42857142857142h18v28.99285714285719h-18Z" fill="#FFB6C1"/><path aria-label="IG Reels IDs: 3235439322444900400; Views Difference: 618" role="graphics-symbol" aria-roledescription="bar" d="M601,158.1857142857143h18v13.242857142857105h-18Z" fill="#FFB6C1"/><path aria-label="IG Reels IDs: 3225261206271448000; Views Difference: 308" role="graphics-symbol" aria-roledescription="bar" d="M581,164.82857142857142h18v6.599999999999994h-18Z" fill="#FFB6C1"/><path aria-label="IG Reels IDs: 3202254061750890500; Views Difference: −1632" role="graphics-symbol" aria-roledescription="bar" d="M281,171.42857142857142h18v34.97142857142856h-18Z" fill="#FFB6C1"/><path aria-label="IG Reels IDs: 3202167148666103000; Views Difference: 754" role="graphics-symbol" aria-roledescription="bar" d="M261,155.27142857142857h18v16.157142857142844h-18Z" fill="#FFB6C1"/><path aria-label="IG Reels IDs: 3216418502804699600; Views Difference: −5274" role="graphics-symbol" aria-roledescription="bar" d="M561,171.42857142857142h18v113.01428571428576h-18Z" fill="#FFB6C1"/><path aria-label="IG Reels IDs: 3214445506036675000; Views Difference: −873" role="graphics-symbol" aria-roledescription="bar" d="M541,171.42857142857142h18v18.707142857142856h-18Z" fill="#FFB6C1"/><path aria-label="IG Reels IDs: 3213697358737505000; Views Difference: −20" role="graphics-symbol" aria-roledescription="bar" d="M521,171.42857142857142h18v0.4285714285714448h-18Z" fill="#FFB6C1"/><path aria-label="IG Reels IDs: 3212200196867306500; Views Difference: −761" role="graphics-symbol" aria-roledescription="bar" d="M501,171.42857142857142h18v16.30714285714288h-18Z" fill="#FFB6C1"/><path aria-label="IG Reels IDs: 3209327711146499000; Views Difference: −200" role="graphics-symbol" aria-roledescription="bar" d="M481,171.42857142857142h18v4.285714285714278h-18Z" fill="#FFB6C1"/><path aria-label="IG Reels IDs: 3208629001185957400; Views Difference: 50" role="graphics-symbol" aria-roledescription="bar" d="M461,170.35714285714286h18v1.0714285714285552h-18Z" fill="#FFB6C1"/><path aria-label="IG Reels IDs: 3207594573580133400; Views Difference: −1880" role="graphics-symbol" aria-roledescription="bar" d="M441,171.42857142857142h18v40.285714285714306h-18Z" fill="#FFB6C1"/><path aria-label="IG Reels IDs: 3206906934376000500; Views Difference: 314" role="graphics-symbol" aria-roledescription="bar" d="M421,164.7h18v6.728571428571428h-18Z" fill="#FFB6C1"/><path aria-label="IG Reels IDs: 3206125515592441300; Views Difference: 91" role="graphics-symbol" aria-roledescription="bar" d="M401,169.47857142857143h18v1.9499999999999886h-18Z" fill="#FFB6C1"/><path aria-label="IG Reels IDs: 3205335176539682000; Views Difference: 7917" role="graphics-symbol" aria-roledescription="bar" d="M381,1.7785714285714183h18v169.65h-18Z" fill="#FFB6C1"/><path aria-label="IG Reels IDs: 3204808996254374400; Views Difference: −2" role="graphics-symbol" aria-roledescription="bar" d="M361,171.42857142857142h18v0.0428571428571729h-18Z" fill="#FFB6C1"/><path aria-label="IG Reels IDs: 3204268613778562000; Views Difference: 809" role="graphics-symbol" aria-roledescription="bar" d="M341,154.09285714285713h18v17.33571428571429h-18Z" fill="#FFB6C1"/><path aria-label="IG Reels IDs: 3202878276619343000; Views Difference: 207" role="graphics-symbol" aria-roledescription="bar" d="M321,166.99285714285716h18v4.435714285714255h-18Z" fill="#FFB6C1"/><path aria-label="IG Reels IDs: 3202728243781537300; Views Difference: 750" role="graphics-symbol" aria-roledescription="bar" d="M301,155.35714285714283h18v16.071428571428584h-18Z" fill="#FFB6C1"/><path aria-label="IG Reels IDs: 3201952798693844500; Views Difference: −2835" role="graphics-symbol" aria-roledescription="bar" d="M241,171.42857142857142h18v60.75h-18Z" fill="#FFB6C1"/><path aria-label="IG Reels IDs: 3199828862237432300; Views Difference: −5" role="graphics-symbol" aria-roledescription="bar" d="M221,171.42857142857142h18v0.10714285714288962h-18Z" fill="#FFB6C1"/><path aria-label="IG Reels IDs: 3198707689713923000; Views Difference: 97" role="graphics-symbol" aria-roledescription="bar" d="M201,169.35h18v2.078571428571422h-18Z" fill="#FFB6C1"/><path aria-label="IG Reels IDs: 3197861652878411300; Views Difference: −2246" role="graphics-symbol" aria-roledescription="bar" d="M181,171.42857142857142h18v48.12857142857143h-18Z" fill="#FFB6C1"/><path aria-label="IG Reels IDs: 3193969600776919000; Views Difference: 815" role="graphics-symbol" aria-roledescription="bar" d="M161,153.96428571428572h18v17.464285714285694h-18Z" fill="#FFB6C1"/><path aria-label="IG Reels IDs: 3193335494372471000; Views Difference: 737" role="graphics-symbol" aria-roledescription="bar" d="M141,155.6357142857143h18v15.792857142857116h-18Z" fill="#FFB6C1"/><path aria-label="IG Reels IDs: 3192121698723074000; Views Difference: 141" role="graphics-symbol" aria-roledescription="bar" d="M121,168.40714285714287h18v3.021428571428544h-18Z" fill="#FFB6C1"/><path aria-label="IG Reels IDs: 3191960977448343000; Views Difference: 274" role="graphics-symbol" aria-roledescription="bar" d="M101,165.55714285714285h18v5.871428571428567h-18Z" fill="#FFB6C1"/><path aria-label="IG Reels IDs: 3186758949793156000; Views Difference: −770" role="graphics-symbol" aria-roledescription="bar" d="M81,171.42857142857142h18v16.50000000000003h-18Z" fill="#FFB6C1"/><path aria-label="IG Reels IDs: 3186318734754358000; Views Difference: 73" role="graphics-symbol" aria-roledescription="bar" d="M61,169.86428571428573h18v1.5642857142856883h-18Z" fill="#FFB6C1"/><path aria-label="IG Reels IDs: 3183943439313452500; Views Difference: −2487" role="graphics-symbol" aria-roledescription="bar" d="M41,171.42857142857142h18v53.29285714285717h-18Z" fill="#FFB6C1"/><path aria-label="IG Reels IDs: 3178172144344783400; Views Difference: −704" role="graphics-symbol" aria-roledescription="bar" d="M21,171.42857142857142h18v15.085714285714289h-18Z" fill="#FFB6C1"/><path aria-label="IG Reels IDs: 3175357351040869000; Views Difference: −101" role="graphics-symbol" aria-roledescription="bar" d="M1,171.42857142857142h18v2.164285714285711h-18Z" fill="#FFB6C1"/></g><g class="mark-group role-title"><g transform="translate(350,-22)"><path class="background" aria-hidden="true" d="M0,0h0v0h0Z" pointer-events="none"/><g><g class="mark-text role-title-text" role="graphics-symbol" aria-roledescription="title" aria-label="Title text 'Difference in Views between Youtube and Instagram'" pointer-events="none"><text text-anchor="middle" transform="translate(0,10)" font-family="sans-serif" font-size="13px" font-weight="bold" fill="#000" opacity="1">Difference in Views between Youtube and Instagram</text></g></g><path class="foreground" aria-hidden="true" d="" pointer-events="none" display="none"/></g></g></g><path class="foreground" aria-hidden="true" d="" display="none"/></g></g></g></svg>