<svg xmlns="http://www.w3.org/2000/svg" xmlns:xlink="http://www.w3.org/1999/xlink" version="1.1" class="marks" width="405" height="364" viewBox="0 0 405 364"><rect width="405" height="364" fill="white"/><g fill="none" stroke-miterlimit="10" transform="translate(47,27)"><g class="mark-group role-frame root" role="graphics-object" aria-roledescription="group mark container"><g transform="translate(0,0)"><path class="background" aria-hidden="true" d="M0.5,0.5h300v300h-300Z" stroke="#ddd"/><g><g class="mark-group role-axis" aria-hidden="true"><g transform="translate(0.5,300.5)"><path class="background" aria-hidden="true" d="M0,0h0v0h0Z" pointer-events="none"/><g><g class="mark-rule role-axis-grid" pointer-events="none"><line transform="translate(0,-300)" x2="0" y2="300" stroke="#ddd" stroke-width="1" opacity="1"/><line transform="translate(30,-300)" x2="0" y2="300" stroke="#ddd" stroke-width="1" opacity="1"/><line transform="translate(60,-300)" x2="0" y2="300" stroke="#ddd" stroke-width="1" opacity="1"/><line transform="translate(90,-300)" x2="0" y2="300" stroke="#ddd" stroke-width="1" opacity="1"/><line transform="translate(120,-300)" x2="0" y2="300" stroke="#ddd" stroke-width="1" opacity="1"/><line transform="translate(150,-300)" x2="0" y2="300" stroke="#ddd" stroke-width="1" opacity="1"/><line transform="translate(180,-300)" x2="0" y2="300" stroke="#ddd" stroke-width="1" opacity="1"/><line transform="translate(210,-300)" x2="0" y2="300" stroke="#ddd" stroke-width="1" opacity="1"/><line transform="translate(240,-300)" x2="0" y2="300" stroke="#ddd" stroke-width="1" opacity="1"/><line transform="translate(270,-300)" x2="0" y2="300" stroke="#ddd" stroke-width="1" opacity="1"/><line transform="translate(300,-300)" x2="0" y2="300" stroke="#ddd" stroke-width="1" opacity="1"/></g></g><path class="foreground" aria-hidden="true" d="" pointer-events="none" display="none"/></g></g><g class="mark-group role-axis" aria-hidden="true"><g transform="translate(0.5,0.5)"><path class="background" aria-hidden="true" d="M0,0h0v0h0Z" pointer-events="none"/><g><g class="mark-rule role-axis-grid" pointer-events="none"><line transform="translate(0,300)" x2="300" y2="0" stroke="#ddd" stroke-width="1" opacity="1"/><line transform="translate(0,267)" x2="300" y2="0" stroke="#ddd" stroke-width="1" opacity="1"/><line transform="translate(0,233)" x2="300" y2="0" stroke="#ddd" stroke-width="1" opacity="1"/><line transform="translate(0,200)" x2="300" y2="0" stroke="#ddd" stroke-width="1" opacity="1"/><line transform="translate(0,167)" x2="300" y2="0" stroke="#ddd" stroke-width="1" opacity="1"/><line transform="translate(0,133)" x2="300" y2="0" stroke="#ddd" stroke-width="1" opacity="1"/><line transform="translate(0,100)" x2="300" y2="0" stroke="#ddd" stroke-width="1" opacity="1"/><line transform="translate(0,67)" x2="300" y2="0" stroke="#ddd" stroke-width="1" opacity="1"/><line transform="translate(0,33)" x2="300" y2="0" stroke="#ddd" stroke-width="1" opacity="1"/><line transform="translate(0,0)" x2="300" y2="0" stroke="#ddd" stroke-width="1" opacity="1"/></g></g><path class="foreground" aria-hidden="true" d="" pointer-events="none" display="none"/></g></g><g class="mark-group role-axis" role="graphics-symbol" aria-roledescription="axis" aria-label="X-axis titled 'Instagram Reels Hashtag to Words Ratio' for a linear scale with values from −1 to 4"><g transform="translate(0.5,300.5)"><path class="background" aria-hidden="true" d="M0,0h0v0h0Z" pointer-events="none"/><g><g class="mark-rule role-axis-tick" pointer-events="none"><line transform="translate(0,0)" x2="0" y2="5" stroke="#888" stroke-width="1" opacity="1"/><line transform="translate(30,0)" x2="0" y2="5" stroke="#888" stroke-width="1" opacity="1"/><line transform="translate(60,0)" x2="0" y2="5" stroke="#888" stroke-width="1" opacity="1"/><line transform="translate(90,0)" x2="0" y2="5" stroke="#888" stroke-width="1" opacity="1"/><line transform="translate(120,0)" x2="0" y2="5" stroke="#888" stroke-width="1" opacity="1"/><line transform="translate(150,0)" x2="0" y2="5" stroke="#888" stroke-width="1" opacity="1"/><line transform="translate(180,0)" x2="0" y2="5" stroke="#888" stroke-width="1" opacity="1"/><line transform="translate(210,0)" x2="0" y2="5" stroke="#888" stroke-width="1" opacity="1"/><line transform="translate(240,0)" x2="0" y2="5" stroke="#888" stroke-width="1" opacity="1"/><line transform="translate(270,0)" x2="0" y2="5" stroke="#888" stroke-width="1" opacity="1"/><line transform="translate(300,0)" x2="0" y2="5" stroke="#888" stroke-width="1" opacity="1"/></g><g class="mark-text role-axis-label" pointer-events="none"><text text-anchor="start" transform="translate(0,15)" font-family="sans-serif" font-size="10px" fill="#000" opacity="1">−1.0</text><text text-anchor="middle" transform="translate(30,15)" font-family="sans-serif" font-size="10px" fill="#000" opacity="1">−0.5</text><text text-anchor="middle" transform="translate(60,15)" font-family="sans-serif" font-size="10px" fill="#000" opacity="1">0.0</text><text text-anchor="middle" transform="translate(90,15)" font-family="sans-serif" font-size="10px" fill="#000" opacity="1">0.5</text><text text-anchor="middle" transform="translate(120,15)" font-family="sans-serif" font-size="10px" fill="#000" opacity="1">1.0</text><text text-anchor="middle" transform="translate(150,15)" font-family="sans-serif" font-size="10px" fill="#000" opacity="1">1.5</text><text text-anchor="middle" transform="translate(180,15)" font-family="sans-serif" font-size="10px" fill="#000" opacity="1">2.0</text><text text-anchor="middle" transform="translate(210,15)" font-family="sans-serif" font-size="10px" fill="#000" opacity="1">2.5</text><text text-anchor="middle" transform="translate(240,15)" font-family="sans-serif" font-size="10px" fill="#000" opacity="1">3.0</text><text text-anchor="middle" transform="translate(270,15)" font-family="sans-serif" font-size="10px" fill="#000" opacity="1">3.5</text><text text-anchor="end" transform="translate(300,15)" font-family="sans-serif" font-size="10px" fill="#000" opacity="1">4.0</text></g><g class="mark-rule role-axis-domain" pointer-events="none"><line transform="translate(0,0)" x2="300" y2="0" stroke="#888" stroke-width="1" opacity="1"/></g><g class="mark-text role-axis-title" pointer-events="none"><text text-anchor="middle" transform="translate(150,30)" font-family="sans-serif" font-size="11px" font-weight="bold" fill="#000" opacity="1">Instagram Reels Hashtag to Words Ratio</text></g></g><path class="foreground" aria-hidden="true" d="" pointer-events="none" display="none"/></g></g><g class="mark-group role-axis" role="graphics-symbol" aria-roledescription="axis" aria-label="Y-axis titled 'Views' for a linear scale with values from −0.4 to 1.4"><g transform="translate(0.5,0.5)"><path class="background" aria-hidden="true" d="M0,0h0v0h0Z" pointer-events="none"/><g><g class="mark-rule role-axis-tick" pointer-events="none"><line transform="translate(0,300)" x2="-5" y2="0" stroke="#888" stroke-width="1" opacity="1"/><line transform="translate(0,267)" x2="-5" y2="0" stroke="#888" stroke-width="1" opacity="1"/><line transform="translate(0,233)" x2="-5" y2="0" stroke="#888" stroke-width="1" opacity="1"/><line transform="translate(0,200)" x2="-5" y2="0" stroke="#888" stroke-width="1" opacity="1"/><line transform="translate(0,167)" x2="-5" y2="0" stroke="#888" stroke-width="1" opacity="1"/><line transform="translate(0,133)" x2="-5" y2="0" stroke="#888" stroke-width="1" opacity="1"/><line transform="translate(0,100)" x2="-5" y2="0" stroke="#888" stroke-width="1" opacity="1"/><line transform="translate(0,67)" x2="-5" y2="0" stroke="#888" stroke-width="1" opacity="1"/><line transform="translate(0,33)" x2="-5" y2="0" stroke="#888" stroke-width="1" opacity="1"/><line transform="translate(0,0)" x2="-5" y2="0" stroke="#888" stroke-width="1" opacity="1"/></g><g class="mark-text role-axis-label" pointer-events="none"><text text-anchor="end" transform="translate(-7,303)" font-family="sans-serif" font-size="10px" fill="#000" opacity="1">−0.4</text><text text-anchor="end" transform="translate(-7,269.66666666666663)" font-family="sans-serif" font-size="10px" fill="#000" opacity="1">−0.2</text><text text-anchor="end" transform="translate(-7,236.33333333333331)" font-family="sans-serif" font-size="10px" fill="#000" opacity="1">0.0</text><text text-anchor="end" transform="translate(-7,202.99999999999994)" font-family="sans-serif" font-size="10px" fill="#000" opacity="1">0.2</text><text text-anchor="end" transform="translate(-7,169.66666666666663)" font-family="sans-serif" font-size="10px" fill="#000" opacity="1">0.4</text><text text-anchor="end" transform="translate(-7,136.33333333333331)" font-family="sans-serif" font-size="10px" fill="#000" opacity="1">0.6</text><text text-anchor="end" transform="translate(-7,102.99999999999994)" font-family="sans-serif" font-size="10px" fill="#000" opacity="1">0.8</text><text text-anchor="end" transform="translate(-7,69.66666666666666)" font-family="sans-serif" font-size="10px" fill="#000" opacity="1">1.0</text><text text-anchor="end" transform="translate(-7,36.33333333333328)" font-family="sans-serif" font-size="10px" fill="#000" opacity="1">1.2</text><text text-anchor="end" transform="translate(-7,3)" font-family="sans-serif" font-size="10px" fill="#000" opacity="1">1.4</text></g><g class="mark-rule role-axis-domain" pointer-events="none"><line transform="translate(0,300)" x2="0" y2="-300" stroke="#888" stroke-width="1" opacity="1"/></g><g class="mark-text role-axis-title" pointer-events="none"><text text-anchor="middle" transform="translate(-30.7412109375,150) rotate(-90) translate(0,-2)" font-family="sans-serif" font-size="11px" font-weight="bold" fill="#000" opacity="1">Views</text></g></g><path class="foreground" aria-hidden="true" d="" pointer-events="none" display="none"/></g></g><g class="mark-symbol role-mark view_37_marks" clip-path="url(#clip1)" role="graphics-object" aria-roledescription="symbol mark container"><path aria-label="Instagram Reels Hashtag to Words Ratio: 0.0500189465707; Views: 0.721695985566; Likes: 298" role="graphics-symbol" aria-roledescription="circle" transform="translate(63.00113679424024,113.05066907231995)" d="M3.873,0A3.873,3.873,0,1,1,-3.873,0A3.873,3.873,0,1,1,3.873,0" fill="rgb(254, 193, 41)" stroke-width="2" opacity="0.7"/><path aria-label="Instagram Reels Hashtag to Words Ratio: −0.350132625995; Views: 0.292286874154; Likes: 271" role="graphics-symbol" aria-roledescription="circle" transform="translate(38.99204244031829,184.6188543076229)" d="M3.873,0A3.873,3.873,0,1,1,-3.873,0A3.873,3.873,0,1,1,3.873,0" fill="rgb(251, 161, 57)" stroke-width="2" opacity="0.7"/><path aria-label="Instagram Reels Hashtag to Words Ratio: 1.3899204244; Views: −0.1750112765; Likes: 44" role="graphics-symbol" aria-roledescription="circle" transform="translate(143.395225464191,262.50187941662904)" d="M3.873,0A3.873,3.873,0,1,1,-3.873,0A3.873,3.873,0,1,1,3.873,0" fill="rgb(68, 3, 158)" stroke-width="2" opacity="0.7"/><path aria-label="Instagram Reels Hashtag to Words Ratio: −0.552148541114; Views: 0.573748308525; Likes: 203" role="graphics-symbol" aria-roledescription="circle" transform="translate(26.871087533156494,137.7086152458277)" d="M3.873,0A3.873,3.873,0,1,1,-3.873,0A3.873,3.873,0,1,1,3.873,0" fill="rgb(221, 95, 102)" stroke-width="2" opacity="0.7"/><path aria-label="Instagram Reels Hashtag to Words Ratio: 3.59681697613; Views: 0.867839422643; Likes: 149" role="graphics-symbol" aria-roledescription="circle" transform="translate(275.80901856763927,88.69342955946475)" d="M3.873,0A3.873,3.873,0,1,1,-3.873,0A3.873,3.873,0,1,1,3.873,0" fill="rgb(183, 48, 139)" stroke-width="2" opacity="0.7"/><path aria-label="Instagram Reels Hashtag to Words Ratio: 2.49336870027; Views: 0.169598556608; Likes: 107" role="graphics-symbol" aria-roledescription="circle" transform="translate(209.6021220159151,205.06690723199517)" d="M3.873,0A3.873,3.873,0,1,1,-3.873,0A3.873,3.873,0,1,1,3.873,0" fill="rgb(142, 12, 165)" stroke-width="2" opacity="0.7"/><path aria-label="Instagram Reels Hashtag to Words Ratio: 1.94164456233; Views: 0.976093820478; Likes: 229" role="graphics-symbol" aria-roledescription="circle" transform="translate(176.49867374005305,70.65102992031271)" d="M3.873,0A3.873,3.873,0,1,1,-3.873,0A3.873,3.873,0,1,1,3.873,0" fill="rgb(236, 119, 84)" stroke-width="2" opacity="0.7"/><path aria-label="Instagram Reels Hashtag to Words Ratio: 0.746242263484; Views: −0.330175913396; Likes: 15" role="graphics-symbol" aria-roledescription="circle" transform="translate(104.77453580901859,288.36265223274694)" d="M3.873,0A3.873,3.873,0,1,1,-3.873,0A3.873,3.873,0,1,1,3.873,0" fill="rgb(25, 7, 140)" stroke-width="2" opacity="0.7"/><path aria-label="Instagram Reels Hashtag to Words Ratio: −0.441803713528; Views: −0.182228236355; Likes: 40" role="graphics-symbol" aria-roledescription="circle" transform="translate(33.49177718832892,263.7047060592392)" d="M3.873,0A3.873,3.873,0,1,1,-3.873,0A3.873,3.873,0,1,1,3.873,0" fill="rgb(63, 3, 156)" stroke-width="2" opacity="0.7"/><path aria-label="Instagram Reels Hashtag to Words Ratio: −0.173297966401; Views: −0.313937753721; Likes: 15" role="graphics-symbol" aria-roledescription="circle" transform="translate(49.602122015915114,285.65629228687413)" d="M3.873,0A3.873,3.873,0,1,1,-3.873,0A3.873,3.873,0,1,1,3.873,0" fill="rgb(25, 7, 140)" stroke-width="2" opacity="0.7"/><path aria-label="Instagram Reels Hashtag to Words Ratio: 0.0106100795756; Views: −0.306720793866; Likes: 24" role="graphics-symbol" aria-roledescription="circle" transform="translate(60.636604774535805,284.45346564426404)" d="M3.873,0A3.873,3.873,0,1,1,-3.873,0A3.873,3.873,0,1,1,3.873,0" fill="rgb(41, 6, 146)" stroke-width="2" opacity="0.7"/><path aria-label="Instagram Reels Hashtag to Words Ratio: 1.75773651636; Views: −0.315741993685; Likes: 16" role="graphics-symbol" aria-roledescription="circle" transform="translate(165.46419098143238,285.9569989475267)" d="M3.873,0A3.873,3.873,0,1,1,-3.873,0A3.873,3.873,0,1,1,3.873,0" fill="rgb(27, 7, 141)" stroke-width="2" opacity="0.7"/><path aria-label="Instagram Reels Hashtag to Words Ratio: 0.225169466549; Views: −0.324763193505; Likes: 21" role="graphics-symbol" aria-roledescription="circle" transform="translate(73.51016799292661,287.46053225078936)" d="M3.873,0A3.873,3.873,0,1,1,-3.873,0A3.873,3.873,0,1,1,3.873,0" fill="rgb(36, 6, 145)" stroke-width="2" opacity="0.7"/><path aria-label="Instagram Reels Hashtag to Words Ratio: −0.0106100795756; Views: −0.346414073072; Likes: 12" role="graphics-symbol" aria-roledescription="circle" transform="translate(59.36339522546418,291.06901217861974)" d="M3.873,0A3.873,3.873,0,1,1,-3.873,0A3.873,3.873,0,1,1,3.873,0" fill="rgb(19, 7, 137)" stroke-width="2" opacity="0.7"/><path aria-label="Instagram Reels Hashtag to Words Ratio: 0.654288240495; Views: 1.30807397384; Likes: 178" role="graphics-symbol" aria-roledescription="circle" transform="translate(99.25729442970822,15.321004360246516)" d="M3.873,0A3.873,3.873,0,1,1,-3.873,0A3.873,3.873,0,1,1,3.873,0" fill="rgb(205, 73, 119)" stroke-width="2" opacity="0.7"/><path aria-label="Instagram Reels Hashtag to Words Ratio: 0.207654414551; Views: 0.176815516464; Likes: 70" role="graphics-symbol" aria-roledescription="circle" transform="translate(72.45926487305798,203.86408058938505)" d="M3.873,0A3.873,3.873,0,1,1,-3.873,0A3.873,3.873,0,1,1,3.873,0" fill="rgb(99, 1, 167)" stroke-width="2" opacity="0.7"/><path aria-label="Instagram Reels Hashtag to Words Ratio: −0.381404439481; Views: 1.06269733875; Likes: 15" role="graphics-symbol" aria-roledescription="circle" transform="translate(37.115733631160126,56.21711020899108)" d="M3.873,0A3.873,3.873,0,1,1,-3.873,0A3.873,3.873,0,1,1,3.873,0" fill="rgb(25, 7, 140)" stroke-width="2" opacity="0.7"/><path aria-label="Instagram Reels Hashtag to Words Ratio: 0.0106100795756; Views: −0.00721695985566; Likes: 342" role="graphics-symbol" aria-roledescription="circle" transform="translate(60.636604774535805,234.53615997594343)" d="M3.873,0A3.873,3.873,0,1,1,-3.873,0A3.873,3.873,0,1,1,3.873,0" fill="rgb(240, 249, 33)" stroke-width="2" opacity="0.7"/><path aria-label="Instagram Reels Hashtag to Words Ratio: −0.516035688449; Views: 0.929183581416; Likes: 54" role="graphics-symbol" aria-roledescription="circle" transform="translate(29.0378586930311,78.46940309727857)" d="M3.873,0A3.873,3.873,0,1,1,-3.873,0A3.873,3.873,0,1,1,3.873,0" fill="rgb(81, 2, 162)" stroke-width="2" opacity="0.7"/><path aria-label="Instagram Reels Hashtag to Words Ratio: −0.154907161804; Views: 1.10960757781; Likes: 272" role="graphics-symbol" aria-roledescription="circle" transform="translate(50.705570291777185,48.398737032025196)" d="M3.873,0A3.873,3.873,0,1,1,-3.873,0A3.873,3.873,0,1,1,3.873,0" fill="rgb(251, 162, 56)" stroke-width="2" opacity="0.7"/><path aria-label="Instagram Reels Hashtag to Words Ratio: −0.0144682903304; Views: −0.084799278304; Likes: 202" role="graphics-symbol" aria-roledescription="circle" transform="translate(59.13190258017843,247.4665463840024)" d="M3.873,0A3.873,3.873,0,1,1,-3.873,0A3.873,3.873,0,1,1,3.873,0" fill="rgb(221, 94, 102)" stroke-width="2" opacity="0.7"/><path aria-label="Instagram Reels Hashtag to Words Ratio: 1.16923076923; Views: −0.37347767253; Likes: 23" role="graphics-symbol" aria-roledescription="circle" transform="translate(130.15384615384616,295.5796120884077)" d="M3.873,0A3.873,3.873,0,1,1,-3.873,0A3.873,3.873,0,1,1,3.873,0" fill="rgb(39, 6, 146)" stroke-width="2" opacity="0.7"/><path aria-label="Instagram Reels Hashtag to Words Ratio: 0.700265251989; Views: −0.220117275598; Likes: 9" role="graphics-symbol" aria-roledescription="circle" transform="translate(102.0159151193634,270.01954593294244)" d="M3.873,0A3.873,3.873,0,1,1,-3.873,0A3.873,3.873,0,1,1,3.873,0" fill="rgb(13, 8, 135)" stroke-width="2" opacity="0.7"/><path aria-label="Instagram Reels Hashtag to Words Ratio: 1.3899204244; Views: 0.00721695985566; Likes: 50" role="graphics-symbol" aria-roledescription="circle" transform="translate(143.395225464191,232.1305066907232)" d="M3.873,0A3.873,3.873,0,1,1,-3.873,0A3.873,3.873,0,1,1,3.873,0" fill="rgb(76, 2, 160)" stroke-width="2" opacity="0.7"/><path aria-label="Instagram Reels Hashtag to Words Ratio: −0.26525198939; Views: 1.07171853857; Likes: 53" role="graphics-symbol" aria-roledescription="circle" transform="translate(44.08488063660477,54.71357690572848)" d="M3.873,0A3.873,3.873,0,1,1,-3.873,0A3.873,3.873,0,1,1,3.873,0" fill="rgb(79, 2, 162)" stroke-width="2" opacity="0.7"/><path aria-label="Instagram Reels Hashtag to Words Ratio: −0.0646250301423; Views: 1.07532701849; Likes: 169" role="graphics-symbol" aria-roledescription="circle" transform="translate(56.1224981914637,54.11216358442336)" d="M3.873,0A3.873,3.873,0,1,1,-3.873,0A3.873,3.873,0,1,1,3.873,0" fill="rgb(198, 65, 125)" stroke-width="2" opacity="0.7"/><path aria-label="Instagram Reels Hashtag to Words Ratio: 0.562334217507; Views: −0.0144339197113; Likes: 222" role="graphics-symbol" aria-roledescription="circle" transform="translate(93.74005305039788,235.73898661855358)" d="M3.873,0A3.873,3.873,0,1,1,-3.873,0A3.873,3.873,0,1,1,3.873,0" fill="rgb(232, 112, 89)" stroke-width="2" opacity="0.7"/><path aria-label="Instagram Reels Hashtag to Words Ratio: −0.427523794664; Views: 0.084799278304; Likes: 47" role="graphics-symbol" aria-roledescription="circle" transform="translate(34.34857232017475,219.20012028266427)" d="M3.873,0A3.873,3.873,0,1,1,-3.873,0A3.873,3.873,0,1,1,3.873,0" fill="rgb(72, 3, 159)" stroke-width="2" opacity="0.7"/><path aria-label="Instagram Reels Hashtag to Words Ratio: −0.196286472149; Views: −0.346414073072; Likes: 54" role="graphics-symbol" aria-roledescription="circle" transform="translate(48.222811671087534,291.06901217861974)" d="M3.873,0A3.873,3.873,0,1,1,-3.873,0A3.873,3.873,0,1,1,3.873,0" fill="rgb(81, 2, 162)" stroke-width="2" opacity="0.7"/><path aria-label="Instagram Reels Hashtag to Words Ratio: −0.589795599938; Views: 0.225529995489; Likes: 15" role="graphics-symbol" aria-roledescription="circle" transform="translate(24.612264003744723,195.74500075176664)" d="M3.873,0A3.873,3.873,0,1,1,-3.873,0A3.873,3.873,0,1,1,3.873,0" fill="rgb(25, 7, 140)" stroke-width="2" opacity="0.7"/><path aria-label="Instagram Reels Hashtag to Words Ratio: 0.838196286472; Views: −0.346414073072; Likes: 102" role="graphics-symbol" aria-roledescription="circle" transform="translate(110.29177718832891,291.06901217861974)" d="M3.873,0A3.873,3.873,0,1,1,-3.873,0A3.873,3.873,0,1,1,3.873,0" fill="rgb(137, 8, 166)" stroke-width="2" opacity="0.7"/><path aria-label="Instagram Reels Hashtag to Words Ratio: −0.644562334218; Views: −0.366260712675; Likes: 14" role="graphics-symbol" aria-roledescription="circle" transform="translate(21.3262599469496,294.3767854457976)" d="M3.873,0A3.873,3.873,0,1,1,-3.873,0A3.873,3.873,0,1,1,3.873,0" fill="rgb(23, 7, 139)" stroke-width="2" opacity="0.7"/><path aria-label="Instagram Reels Hashtag to Words Ratio: −0.26525198939; Views: 0.413170951737; Likes: 12" role="graphics-symbol" aria-roledescription="circle" transform="translate(44.08488063660477,164.47150804390316)" d="M3.873,0A3.873,3.873,0,1,1,-3.873,0A3.873,3.873,0,1,1,3.873,0" fill="rgb(19, 7, 137)" stroke-width="2" opacity="0.7"/></g><g class="mark-symbol role-mark layer_1_marks" clip-path="url(#clip2)" role="graphics-symbol" aria-roledescription="symbol mark container"/><g class="mark-group role-legend" role="graphics-symbol" aria-roledescription="legend" aria-label="Gradient legend titled 'Likes' for fill color with values from 9 to 342"><g transform="translate(318,0)"><path class="background" aria-hidden="true" d="M0,0h35v216h-35Z" pointer-events="none"/><g><g class="mark-group role-legend-entry"><g transform="translate(0,16)"><path class="background" aria-hidden="true" d="M0,0h0v0h0Z" pointer-events="none"/><g><g class="mark-rect role-legend-gradient" pointer-events="none"><path d="M0,0h16v200h-16Z" fill="url(#gradient_0)" stroke="#ddd" stroke-width="0" opacity="0.7"/></g><g class="mark-text role-legend-label" pointer-events="none"><text text-anchor="start" transform="translate(18,148.34534534534535)" font-family="sans-serif" font-size="10px" fill="#000" opacity="1">100</text><text text-anchor="start" transform="translate(18,88.2852852852853)" font-family="sans-serif" font-size="10px" fill="#000" opacity="1">200</text><text text-anchor="start" transform="translate(18,28.225225225225234)" font-family="sans-serif" font-size="10px" fill="#000" opacity="1">300</text></g></g><path class="foreground" aria-hidden="true" d="" pointer-events="none" display="none"/></g></g><g class="mark-text role-legend-title" pointer-events="none"><text text-anchor="start" transform="translate(0,9)" font-family="sans-serif" font-size="11px" font-weight="bold" fill="#000" opacity="1">Likes</text></g></g><path class="foreground" aria-hidden="true" d="" pointer-events="none" display="none"/></g></g><g class="mark-group role-title"><g transform="translate(150,-22)"><path class="background" aria-hidden="true" d="M0,0h0v0h0Z" pointer-events="none"/><g><g class="mark-text role-title-text" role="graphics-symbol" aria-roledescription="title" aria-label="Title text 'Views against Hashtag to Words Ratio in Captions (Scaled)'" pointer-events="none"><text text-anchor="middle" transform="translate(0,10)" font-family="sans-serif" font-size="13px" font-weight="bold" fill="#000" opacity="1">Views against Hashtag to Words Ratio in Captions (Scaled)</text></g></g><path class="foreground" aria-hidden="true" d="" pointer-events="none" display="none"/></g></g></g><path class="foreground" aria-hidden="true" d="" display="none"/></g></g></g><defs><linearGradient id="gradient_0" x1="0" x2="0" y1="1" y2="0"><stop offset="0" stop-color="rgb(13, 8, 135)"/><stop offset="0.03303303303303303" stop-color="rgb(35, 6, 144)"/><stop offset="0.09309309309309309" stop-color="rgb(63, 3, 156)"/><stop offset="0.15315315315315314" stop-color="rgb(88, 1, 164)"/><stop offset="0.2132132132132132" stop-color="rgb(112, 0, 168)"/><stop offset="0.2732732732732733" stop-color="rgb(134, 7, 166)"/><stop offset="0.3333333333333333" stop-color="rgb(156, 23, 158)"/><stop offset="0.3933933933933934" stop-color="rgb(175, 40, 146)"/><stop offset="0.45345345345345345" stop-color="rgb(191, 57, 131)"/><stop offset="0.5135135135135135" stop-color="rgb(206, 75, 118)"/><stop offset="0.5735735735735735" stop-color="rgb(219, 92, 104)"/><stop offset="0.6336336336336337" stop-color="rgb(231, 110, 91)"/><stop offset="0.6936936936936937" stop-color="rgb(241, 129, 77)"/><stop offset="0.7537537537537538" stop-color="rgb(248, 150, 64)"/><stop offset="0.8138138138138138" stop-color="rgb(252, 171, 51)"/><stop offset="0.8738738738738738" stop-color="rgb(254, 195, 40)"/><stop offset="0.933933933933934" stop-color="rgb(249, 220, 36)"/><stop offset="0.993993993993994" stop-color="rgb(241, 246, 34)"/><stop offset="1" stop-color="rgb(240, 249, 33)"/></linearGradient><clipPath id="clip1"><rect x="0" y="0" width="300" height="300"/></clipPath><clipPath id="clip2"><rect x="0" y="0" width="300" height="300"/></clipPath></defs></svg>