<svg xmlns="http://www.w3.org/2000/svg" xmlns:xlink="http://www.w3.org/1999/xlink" version="1.1" class="marks" width="409" height="364" viewBox="0 0 409 364"><rect width="409" height="364" fill="white"/><g fill="none" stroke-miterlimit="10" transform="translate(53,27)"><g class="mark-group role-frame root" role="graphics-object" aria-roledescription="group mark container"><g transform="translate(0,0)"><path class="background" aria-hidden="true" d="M0.5,0.5h300v300h-300Z" stroke="#ddd"/><g><g class="mark-group role-axis" aria-hidden="true"><g transform="translate(0.5,300.5)"><path class="background" aria-hidden="true" d="M0,0h0v0h0Z" pointer-events="none"/><g><g class="mark-rule role-axis-grid" pointer-events="none"><line transform="translate(0,-300)" x2="0" y2="300" stroke="#ddd" stroke-width="1" opacity="1"/><line transform="translate(30,-300)" x2="0" y2="300" stroke="#ddd" stroke-width="1" opacity="1"/><line transform="translate(60,-300)" x2="0" y2="300" stroke="#ddd" stroke-width="1" opacity="1"/><line transform="translate(90,-300)" x2="0" y2="300" stroke="#ddd" stroke-width="1" opacity="1"/><line transform="translate(120,-300)" x2="0" y2="300" stroke="#ddd" stroke-width="1" opacity="1"/><line transform="translate(150,-300)" x2="0" y2="300" stroke="#ddd" stroke-width="1" opacity="1"/><line transform="translate(180,-300)" x2="0" y2="300" stroke="#ddd" stroke-width="1" opacity="1"/><line transform="translate(210,-300)" x2="0" y2="300" stroke="#ddd" stroke-width="1" opacity="1"/><line transform="translate(240,-300)" x2="0" y2="300" stroke="#ddd" stroke-width="1" opacity="1"/><line transform="translate(270,-300)" x2="0" y2="300" stroke="#ddd" stroke-width="1" opacity="1"/><line transform="translate(300,-300)" x2="0" y2="300" stroke="#ddd" stroke-width="1" opacity="1"/></g></g><path class="foreground" aria-hidden="true" d="" pointer-events="none" display="none"/></g></g><g class="mark-group role-axis" aria-hidden="true"><g transform="translate(0.5,0.5)"><path class="background" aria-hidden="true" d="M0,0h0v0h0Z" pointer-events="none"/><g><g class="mark-rule role-axis-grid" pointer-events="none"><line transform="translate(0,300)" x2="300" y2="0" stroke="#ddd" stroke-width="1" opacity="1"/><line transform="translate(0,273)" x2="300" y2="0" stroke="#ddd" stroke-width="1" opacity="1"/><line transform="translate(0,245)" x2="300" y2="0" stroke="#ddd" stroke-width="1" opacity="1"/><line transform="translate(0,218)" x2="300" y2="0" stroke="#ddd" stroke-width="1" opacity="1"/><line transform="translate(0,191)" x2="300" y2="0" stroke="#ddd" stroke-width="1" opacity="1"/><line transform="translate(0,164)" x2="300" y2="0" stroke="#ddd" stroke-width="1" opacity="1"/><line transform="translate(0,136)" x2="300" y2="0" stroke="#ddd" stroke-width="1" opacity="1"/><line transform="translate(0,109)" x2="300" y2="0" stroke="#ddd" stroke-width="1" opacity="1"/><line transform="translate(0,82)" x2="300" y2="0" stroke="#ddd" stroke-width="1" opacity="1"/><line transform="translate(0,55)" x2="300" y2="0" stroke="#ddd" stroke-width="1" opacity="1"/><line transform="translate(0,27)" x2="300" y2="0" stroke="#ddd" stroke-width="1" opacity="1"/><line transform="translate(0,0)" x2="300" y2="0" stroke="#ddd" stroke-width="1" opacity="1"/></g></g><path class="foreground" aria-hidden="true" d="" pointer-events="none" display="none"/></g></g><g class="mark-group role-axis" role="graphics-symbol" aria-roledescription="axis" aria-label="X-axis titled 'Youtube Shorts Hashtag to Words Ratio' for a linear scale with values from 0 to 10"><g transform="translate(0.5,300.5)"><path class="background" aria-hidden="true" d="M0,0h0v0h0Z" pointer-events="none"/><g><g class="mark-rule role-axis-tick" pointer-events="none"><line transform="translate(0,0)" x2="0" y2="5" stroke="#888" stroke-width="1" opacity="1"/><line transform="translate(30,0)" x2="0" y2="5" stroke="#888" stroke-width="1" opacity="1"/><line transform="translate(60,0)" x2="0" y2="5" stroke="#888" stroke-width="1" opacity="1"/><line transform="translate(90,0)" x2="0" y2="5" stroke="#888" stroke-width="1" opacity="1"/><line transform="translate(120,0)" x2="0" y2="5" stroke="#888" stroke-width="1" opacity="1"/><line transform="translate(150,0)" x2="0" y2="5" stroke="#888" stroke-width="1" opacity="1"/><line transform="translate(180,0)" x2="0" y2="5" stroke="#888" stroke-width="1" opacity="1"/><line transform="translate(210,0)" x2="0" y2="5" stroke="#888" stroke-width="1" opacity="1"/><line transform="translate(240,0)" x2="0" y2="5" stroke="#888" stroke-width="1" opacity="1"/><line transform="translate(270,0)" x2="0" y2="5" stroke="#888" stroke-width="1" opacity="1"/><line transform="translate(300,0)" x2="0" y2="5" stroke="#888" stroke-width="1" opacity="1"/></g><g class="mark-text role-axis-label" pointer-events="none"><text text-anchor="start" transform="translate(0,15)" font-family="sans-serif" font-size="10px" fill="#000" opacity="1">0</text><text text-anchor="middle" transform="translate(30,15)" font-family="sans-serif" font-size="10px" fill="#000" opacity="1">1</text><text text-anchor="middle" transform="translate(60,15)" font-family="sans-serif" font-size="10px" fill="#000" opacity="1">2</text><text text-anchor="middle" transform="translate(90,15)" font-family="sans-serif" font-size="10px" fill="#000" opacity="1">3</text><text text-anchor="middle" transform="translate(120,15)" font-family="sans-serif" font-size="10px" fill="#000" opacity="1">4</text><text text-anchor="middle" transform="translate(150,15)" font-family="sans-serif" font-size="10px" fill="#000" opacity="1">5</text><text text-anchor="middle" transform="translate(180,15)" font-family="sans-serif" font-size="10px" fill="#000" opacity="1">6</text><text text-anchor="middle" transform="translate(210,15)" font-family="sans-serif" font-size="10px" fill="#000" opacity="1">7</text><text text-anchor="middle" transform="translate(240,15)" font-family="sans-serif" font-size="10px" fill="#000" opacity="1">8</text><text text-anchor="middle" transform="translate(270,15)" font-family="sans-serif" font-size="10px" fill="#000" opacity="1">9</text><text text-anchor="end" transform="translate(300,15)" font-family="sans-serif" font-size="10px" fill="#000" opacity="1">10</text></g><g class="mark-rule role-axis-domain" pointer-events="none"><line transform="translate(0,0)" x2="300" y2="0" stroke="#888" stroke-width="1" opacity="1"/></g><g class="mark-text role-axis-title" pointer-events="none"><text text-anchor="middle" transform="translate(150,30)" font-family="sans-serif" font-size="11px" font-weight="bold" fill="#000" opacity="1">Youtube Shorts Hashtag to Words Ratio</text></g></g><path class="foreground" aria-hidden="true" d="" pointer-events="none" display="none"/></g></g><g class="mark-group role-axis" role="graphics-symbol" aria-roledescription="axis" aria-label="Y-axis titled 'Views' for a linear scale with values from 0 to 5,500"><g transform="translate(0.5,0.5)"><path class="background" aria-hidden="true" d="M0,0h0v0h0Z" pointer-events="none"/><g><g class="mark-rule role-axis-tick" pointer-events="none"><line transform="translate(0,300)" x2="-5" y2="0" stroke="#888" stroke-width="1" opacity="1"/><line transform="translate(0,273)" x2="-5" y2="0" stroke="#888" stroke-width="1" opacity="1"/><line transform="translate(0,245)" x2="-5" y2="0" stroke="#888" stroke-width="1" opacity="1"/><line transform="translate(0,218)" x2="-5" y2="0" stroke="#888" stroke-width="1" opacity="1"/><line transform="translate(0,191)" x2="-5" y2="0" stroke="#888" stroke-width="1" opacity="1"/><line transform="translate(0,164)" x2="-5" y2="0" stroke="#888" stroke-width="1" opacity="1"/><line transform="translate(0,136)" x2="-5" y2="0" stroke="#888" stroke-width="1" opacity="1"/><line transform="translate(0,109)" x2="-5" y2="0" stroke="#888" stroke-width="1" opacity="1"/><line transform="translate(0,82)" x2="-5" y2="0" stroke="#888" stroke-width="1" opacity="1"/><line transform="translate(0,55)" x2="-5" y2="0" stroke="#888" stroke-width="1" opacity="1"/><line transform="translate(0,27)" x2="-5" y2="0" stroke="#888" stroke-width="1" opacity="1"/><line transform="translate(0,0)" x2="-5" y2="0" stroke="#888" stroke-width="1" opacity="1"/></g><g class="mark-text role-axis-label" pointer-events="none"><text text-anchor="end" transform="translate(-7,303)" font-family="sans-serif" font-size="10px" fill="#000" opacity="1">0</text><text text-anchor="end" transform="translate(-7,275.7272727272727)" font-family="sans-serif" font-size="10px" fill="#000" opacity="1">500</text><text text-anchor="end" transform="translate(-7,248.45454545454544)" font-family="sans-serif" font-size="10px" fill="#000" opacity="1">1,000</text><text text-anchor="end" transform="translate(-7,221.1818181818182)" font-family="sans-serif" font-size="10px" fill="#000" opacity="1">1,500</text><text text-anchor="end" transform="translate(-7,193.9090909090909)" font-family="sans-serif" font-size="10px" fill="#000" opacity="1">2,000</text><text text-anchor="end" transform="translate(-7,166.63636363636363)" font-family="sans-serif" font-size="10px" fill="#000" opacity="1">2,500</text><text text-anchor="end" transform="translate(-7,139.36363636363637)" font-family="sans-serif" font-size="10px" fill="#000" opacity="1">3,000</text><text text-anchor="end" transform="translate(-7,112.0909090909091)" font-family="sans-serif" font-size="10px" fill="#000" opacity="1">3,500</text><text text-anchor="end" transform="translate(-7,84.81818181818181)" font-family="sans-serif" font-size="10px" fill="#000" opacity="1">4,000</text><text text-anchor="end" transform="translate(-7,57.54545454545453)" font-family="sans-serif" font-size="10px" fill="#000" opacity="1">4,500</text><text text-anchor="end" transform="translate(-7,30.27272727272728)" font-family="sans-serif" font-size="10px" fill="#000" opacity="1">5,000</text><text text-anchor="end" transform="translate(-7,3)" font-family="sans-serif" font-size="10px" fill="#000" opacity="1">5,500</text></g><g class="mark-rule role-axis-domain" pointer-events="none"><line transform="translate(0,300)" x2="0" y2="-300" stroke="#888" stroke-width="1" opacity="1"/></g><g class="mark-text role-axis-title" pointer-events="none"><text text-anchor="middle" transform="translate(-36.0244140625,150) rotate(-90) translate(0,-2)" font-family="sans-serif" font-size="11px" font-weight="bold" fill="#000" opacity="1">Views</text></g></g><path class="foreground" aria-hidden="true" d="" pointer-events="none" display="none"/></g></g><g class="mark-symbol role-mark view_19_marks" clip-path="url(#clip4)" role="graphics-object" aria-roledescription="symbol mark container"><path aria-label="Youtube Shorts Hashtag to Words Ratio: 4; Views: 125; Likes: 10" role="graphics-symbol" aria-roledescription="circle" transform="translate(120,293.1818181818182)" d="M3.873,0A3.873,3.873,0,1,1,-3.873,0A3.873,3.873,0,1,1,3.873,0" fill="rgb(165, 33, 47)" stroke-width="2" opacity="0.7"/><path aria-label="Youtube Shorts Hashtag to Words Ratio: 3.33333333333; Views: 226; Likes: 15" role="graphics-symbol" aria-roledescription="circle" transform="translate(100.00000000000001,287.6727272727273)" d="M3.873,0A3.873,3.873,0,1,1,-3.873,0A3.873,3.873,0,1,1,3.873,0" fill="rgb(177, 43, 52)" stroke-width="2" opacity="0.7"/><path aria-label="Youtube Shorts Hashtag to Words Ratio: 4.5; Views: 136; Likes: 18" role="graphics-symbol" aria-roledescription="circle" transform="translate(135,292.58181818181816)" d="M3.873,0A3.873,3.873,0,1,1,-3.873,0A3.873,3.873,0,1,1,3.873,0" fill="rgb(184, 49, 55)" stroke-width="2" opacity="0.7"/><path aria-label="Youtube Shorts Hashtag to Words Ratio: 3; Views: 1911; Likes: 156" role="graphics-symbol" aria-roledescription="circle" transform="translate(90,195.76363636363635)" d="M3.873,0A3.873,3.873,0,1,1,-3.873,0A3.873,3.873,0,1,1,3.873,0" fill="rgb(169, 169, 169)" stroke-width="2" opacity="0.7"/><path aria-label="Youtube Shorts Hashtag to Words Ratio: 5; Views: 103; Likes: 11" role="graphics-symbol" aria-roledescription="circle" transform="translate(150,294.3818181818182)" d="M3.873,0A3.873,3.873,0,1,1,-3.873,0A3.873,3.873,0,1,1,3.873,0" fill="rgb(167, 35, 48)" stroke-width="2" opacity="0.7"/><path aria-label="Youtube Shorts Hashtag to Words Ratio: 3.33333333333; Views: 26; Likes: 2" role="graphics-symbol" aria-roledescription="circle" transform="translate(100.00000000000001,298.5818181818182)" d="M3.873,0A3.873,3.873,0,1,1,-3.873,0A3.873,3.873,0,1,1,3.873,0" fill="rgb(145, 17, 39)" stroke-width="2" opacity="0.7"/><path aria-label="Youtube Shorts Hashtag to Words Ratio: 1.28571428571; Views: 2487; Likes: 91" role="graphics-symbol" aria-roledescription="circle" transform="translate(38.57142857142858,164.34545454545452)" d="M3.873,0A3.873,3.873,0,1,1,-3.873,0A3.873,3.873,0,1,1,3.873,0" fill="rgb(251, 230, 218)" stroke-width="2" opacity="0.7"/><path aria-label="Youtube Shorts Hashtag to Words Ratio: 10; Views: 27; Likes: 0" role="graphics-symbol" aria-roledescription="circle" transform="translate(300,298.52727272727276)" d="M3.873,0A3.873,3.873,0,1,1,-3.873,0A3.873,3.873,0,1,1,3.873,0" fill="rgb(140, 13, 37)" stroke-width="2" opacity="0.7"/><path aria-label="Youtube Shorts Hashtag to Words Ratio: 3.33333333333; Views: 5331; Likes: 207" role="graphics-symbol" aria-roledescription="circle" transform="translate(100.00000000000001,9.218181818181815)" d="M3.873,0A3.873,3.873,0,1,1,-3.873,0A3.873,3.873,0,1,1,3.873,0" fill="rgb(52, 52, 52)" stroke-width="2" opacity="0.7"/><path aria-label="Youtube Shorts Hashtag to Words Ratio: 1.28571428571; Views: 1012; Likes: 35" role="graphics-symbol" aria-roledescription="circle" transform="translate(38.57142857142858,244.8)" d="M3.873,0A3.873,3.873,0,1,1,-3.873,0A3.873,3.873,0,1,1,3.873,0" fill="rgb(213, 97, 83)" stroke-width="2" opacity="0.7"/><path aria-label="Youtube Shorts Hashtag to Words Ratio: 4.5; Views: 86; Likes: 5" role="graphics-symbol" aria-roledescription="circle" transform="translate(135,295.3090909090909)" d="M3.873,0A3.873,3.873,0,1,1,-3.873,0A3.873,3.873,0,1,1,3.873,0" fill="rgb(152, 23, 42)" stroke-width="2" opacity="0.7"/><path aria-label="Youtube Shorts Hashtag to Words Ratio: 1.6; Views: 831; Likes: 20" role="graphics-symbol" aria-roledescription="circle" transform="translate(48,254.6727272727273)" d="M3.873,0A3.873,3.873,0,1,1,-3.873,0A3.873,3.873,0,1,1,3.873,0" fill="rgb(189, 53, 57)" stroke-width="2" opacity="0.7"/><path aria-label="Youtube Shorts Hashtag to Words Ratio: 4.5; Views: 265; Likes: 10" role="graphics-symbol" aria-roledescription="circle" transform="translate(135,285.54545454545456)" d="M3.873,0A3.873,3.873,0,1,1,-3.873,0A3.873,3.873,0,1,1,3.873,0" fill="rgb(165, 33, 47)" stroke-width="2" opacity="0.7"/><path aria-label="Youtube Shorts Hashtag to Words Ratio: 1; Views: 10; Likes: 1" role="graphics-symbol" aria-roledescription="circle" transform="translate(30,299.45454545454544)" d="M3.873,0A3.873,3.873,0,1,1,-3.873,0A3.873,3.873,0,1,1,3.873,0" fill="rgb(142, 15, 38)" stroke-width="2" opacity="0.7"/><path aria-label="Youtube Shorts Hashtag to Words Ratio: 5; Views: 1928; Likes: 46" role="graphics-symbol" aria-roledescription="circle" transform="translate(150,194.83636363636364)" d="M3.873,0A3.873,3.873,0,1,1,-3.873,0A3.873,3.873,0,1,1,3.873,0" fill="rgb(228, 129, 105)" stroke-width="2" opacity="0.7"/><path aria-label="Youtube Shorts Hashtag to Words Ratio: 1.4; Views: 651; Likes: 22" role="graphics-symbol" aria-roledescription="circle" transform="translate(41.99999999999999,264.4909090909091)" d="M3.873,0A3.873,3.873,0,1,1,-3.873,0A3.873,3.873,0,1,1,3.873,0" fill="rgb(193, 58, 60)" stroke-width="2" opacity="0.7"/><path aria-label="Youtube Shorts Hashtag to Words Ratio: 1.2; Views: 247; Likes: 7" role="graphics-symbol" aria-roledescription="circle" transform="translate(36,286.5272727272727)" d="M3.873,0A3.873,3.873,0,1,1,-3.873,0A3.873,3.873,0,1,1,3.873,0" fill="rgb(157, 27, 44)" stroke-width="2" opacity="0.7"/><path aria-label="Youtube Shorts Hashtag to Words Ratio: 4.5; Views: 321; Likes: 9" role="graphics-symbol" aria-roledescription="circle" transform="translate(135,282.4909090909091)" d="M3.873,0A3.873,3.873,0,1,1,-3.873,0A3.873,3.873,0,1,1,3.873,0" fill="rgb(162, 31, 46)" stroke-width="2" opacity="0.7"/><path aria-label="Youtube Shorts Hashtag to Words Ratio: 8; Views: 47; Likes: 2" role="graphics-symbol" aria-roledescription="circle" transform="translate(240,297.43636363636364)" d="M3.873,0A3.873,3.873,0,1,1,-3.873,0A3.873,3.873,0,1,1,3.873,0" fill="rgb(145, 17, 39)" stroke-width="2" opacity="0.7"/><path aria-label="Youtube Shorts Hashtag to Words Ratio: 0.545454545455; Views: 20; Likes: 1" role="graphics-symbol" aria-roledescription="circle" transform="translate(16.363636363636363,298.9090909090909)" d="M3.873,0A3.873,3.873,0,1,1,-3.873,0A3.873,3.873,0,1,1,3.873,0" fill="rgb(142, 15, 38)" stroke-width="2" opacity="0.7"/><path aria-label="Youtube Shorts Hashtag to Words Ratio: 2; Views: 29; Likes: 0" role="graphics-symbol" aria-roledescription="circle" transform="translate(60,298.4181818181818)" d="M3.873,0A3.873,3.873,0,1,1,-3.873,0A3.873,3.873,0,1,1,3.873,0" fill="rgb(140, 13, 37)" stroke-width="2" opacity="0.7"/><path aria-label="Youtube Shorts Hashtag to Words Ratio: 1.33333333333; Views: 5; Likes: 0" role="graphics-symbol" aria-roledescription="circle" transform="translate(40,299.72727272727275)" d="M3.873,0A3.873,3.873,0,1,1,-3.873,0A3.873,3.873,0,1,1,3.873,0" fill="rgb(140, 13, 37)" stroke-width="2" opacity="0.7"/><path aria-label="Youtube Shorts Hashtag to Words Ratio: 1.5; Views: 3028; Likes: 106" role="graphics-symbol" aria-roledescription="circle" transform="translate(45,134.83636363636364)" d="M3.873,0A3.873,3.873,0,1,1,-3.873,0A3.873,3.873,0,1,1,3.873,0" fill="rgb(247, 242, 239)" stroke-width="2" opacity="0.7"/><path aria-label="Youtube Shorts Hashtag to Words Ratio: 3; Views: 38; Likes: 1" role="graphics-symbol" aria-roledescription="circle" transform="translate(90,297.92727272727274)" d="M3.873,0A3.873,3.873,0,1,1,-3.873,0A3.873,3.873,0,1,1,3.873,0" fill="rgb(142, 15, 38)" stroke-width="2" opacity="0.7"/><path aria-label="Youtube Shorts Hashtag to Words Ratio: 3.33333333333; Views: 21; Likes: 2" role="graphics-symbol" aria-roledescription="circle" transform="translate(100.00000000000001,298.8545454545455)" d="M3.873,0A3.873,3.873,0,1,1,-3.873,0A3.873,3.873,0,1,1,3.873,0" fill="rgb(145, 17, 39)" stroke-width="2" opacity="0.7"/><path aria-label="Youtube Shorts Hashtag to Words Ratio: 1; Views: 2490; Likes: 136" role="graphics-symbol" aria-roledescription="circle" transform="translate(30,164.18181818181822)" d="M3.873,0A3.873,3.873,0,1,1,-3.873,0A3.873,3.873,0,1,1,3.873,0" fill="rgb(207, 207, 207)" stroke-width="2" opacity="0.7"/><path aria-label="Youtube Shorts Hashtag to Words Ratio: 0.6; Views: 19; Likes: 3" role="graphics-symbol" aria-roledescription="circle" transform="translate(18,298.96363636363634)" d="M3.873,0A3.873,3.873,0,1,1,-3.873,0A3.873,3.873,0,1,1,3.873,0" fill="rgb(147, 19, 40)" stroke-width="2" opacity="0.7"/><path aria-label="Youtube Shorts Hashtag to Words Ratio: 0.875; Views: 99; Likes: 5" role="graphics-symbol" aria-roledescription="circle" transform="translate(26.25,294.6)" d="M3.873,0A3.873,3.873,0,1,1,-3.873,0A3.873,3.873,0,1,1,3.873,0" fill="rgb(152, 23, 42)" stroke-width="2" opacity="0.7"/><path aria-label="Youtube Shorts Hashtag to Words Ratio: 5; Views: 91; Likes: 3" role="graphics-symbol" aria-roledescription="circle" transform="translate(150,295.03636363636366)" d="M3.873,0A3.873,3.873,0,1,1,-3.873,0A3.873,3.873,0,1,1,3.873,0" fill="rgb(147, 19, 40)" stroke-width="2" opacity="0.7"/><path aria-label="Youtube Shorts Hashtag to Words Ratio: 0.636363636364; Views: 13; Likes: 1" role="graphics-symbol" aria-roledescription="circle" transform="translate(19.09090909090909,299.2909090909091)" d="M3.873,0A3.873,3.873,0,1,1,-3.873,0A3.873,3.873,0,1,1,3.873,0" fill="rgb(142, 15, 38)" stroke-width="2" opacity="0.7"/><path aria-label="Youtube Shorts Hashtag to Words Ratio: 1; Views: 818; Likes: 35" role="graphics-symbol" aria-roledescription="circle" transform="translate(30,255.38181818181818)" d="M3.873,0A3.873,3.873,0,1,1,-3.873,0A3.873,3.873,0,1,1,3.873,0" fill="rgb(213, 97, 83)" stroke-width="2" opacity="0.7"/><path aria-label="Youtube Shorts Hashtag to Words Ratio: 1; Views: 292; Likes: 15" role="graphics-symbol" aria-roledescription="circle" transform="translate(30,284.07272727272726)" d="M3.873,0A3.873,3.873,0,1,1,-3.873,0A3.873,3.873,0,1,1,3.873,0" fill="rgb(177, 43, 52)" stroke-width="2" opacity="0.7"/><path aria-label="Youtube Shorts Hashtag to Words Ratio: 3; Views: 2535; Likes: 43" role="graphics-symbol" aria-roledescription="circle" transform="translate(90,161.72727272727272)" d="M3.873,0A3.873,3.873,0,1,1,-3.873,0A3.873,3.873,0,1,1,3.873,0" fill="rgb(225, 120, 98)" stroke-width="2" opacity="0.7"/><path aria-label="Youtube Shorts Hashtag to Words Ratio: 0.777777777778; Views: 741; Likes: 27" role="graphics-symbol" aria-roledescription="circle" transform="translate(23.333333333333332,259.58181818181816)" d="M3.873,0A3.873,3.873,0,1,1,-3.873,0A3.873,3.873,0,1,1,3.873,0" fill="rgb(201, 73, 69)" stroke-width="2" opacity="0.7"/><path aria-label="Youtube Shorts Hashtag to Words Ratio: 1.16666666667; Views: 570; Likes: 10" role="graphics-symbol" aria-roledescription="circle" transform="translate(35,268.90909090909093)" d="M3.873,0A3.873,3.873,0,1,1,-3.873,0A3.873,3.873,0,1,1,3.873,0" fill="rgb(165, 33, 47)" stroke-width="2" opacity="0.7"/></g><g class="mark-group role-scope layer_1_pathgroup" role="graphics-object" aria-roledescription="group mark container"><g transform="translate(0,0)"><path class="background" aria-hidden="true" d="M0,0h300v300h-300Z"/><g><g class="mark-line role-mark layer_1_marks" clip-path="url(#clip5)" role="graphics-object" aria-roledescription="line mark container"><path aria-label="Youtube Shorts Hashtag to Words Ratio: 0.545454545455; Views: 897.979395087; Likes: NaN" role="graphics-symbol" aria-roledescription="line mark" d="M16.364,251.019L300,282.904" stroke-width="2"/></g></g><path class="foreground" aria-hidden="true" d="" display="none"/></g></g><g class="mark-group role-legend" role="graphics-symbol" aria-roledescription="legend" aria-label="Symbol legend titled 'Likes' for fill color and stroke color with values from 0 to 207"><g transform="translate(318,0)"><path class="background" aria-hidden="true" d="M0,0h33v93h-33Z" pointer-events="none"/><g><g class="mark-group role-legend-entry"><g transform="translate(0,16)"><path class="background" aria-hidden="true" d="M0,0h0v0h0Z" pointer-events="none"/><g><g class="mark-group role-scope" role="graphics-object" aria-roledescription="group mark container"><g transform="translate(0,0)"><path class="background" aria-hidden="true" d="M0,0h32.6845703125v12.5h-32.6845703125Z" pointer-events="none" opacity="1"/><g><g class="mark-symbol role-legend-symbol" pointer-events="none"><path transform="translate(6,6)" d="M5,0A5,5,0,1,1,-5,0A5,5,0,1,1,5,0" fill="rgb(140, 13, 37)" stroke="rgb(140, 13, 37)" stroke-width="1.5" opacity="1"/></g><g class="mark-text role-legend-label" pointer-events="none"><text text-anchor="start" transform="translate(16,9)" font-family="sans-serif" font-size="10px" fill="#000" opacity="1">0</text></g></g><path class="foreground" aria-hidden="true" d="" pointer-events="none" display="none"/></g><g transform="translate(0,16)"><path class="background" aria-hidden="true" d="M0,0h32.6845703125v12.5h-32.6845703125Z" pointer-events="none" opacity="1"/><g><g class="mark-symbol role-legend-symbol" pointer-events="none"><path transform="translate(6,6)" d="M5,0A5,5,0,1,1,-5,0A5,5,0,1,1,5,0" fill="rgb(232, 140, 115)" stroke="rgb(232, 140, 115)" stroke-width="1.5" opacity="1"/></g><g class="mark-text role-legend-label" pointer-events="none"><text text-anchor="start" transform="translate(16,9)" font-family="sans-serif" font-size="10px" fill="#000" opacity="1">50</text></g></g><path class="foreground" aria-hidden="true" d="" pointer-events="none" display="none"/></g><g transform="translate(0,32)"><path class="background" aria-hidden="true" d="M0,0h32.6845703125v12.5h-32.6845703125Z" pointer-events="none" opacity="1"/><g><g class="mark-symbol role-legend-symbol" pointer-events="none"><path transform="translate(6,6)" d="M5,0A5,5,0,1,1,-5,0A5,5,0,1,1,5,0" fill="rgb(250, 240, 235)" stroke="rgb(250, 240, 235)" stroke-width="1.5" opacity="1"/></g><g class="mark-text role-legend-label" pointer-events="none"><text text-anchor="start" transform="translate(16,9)" font-family="sans-serif" font-size="10px" fill="#000" opacity="1">100</text></g></g><path class="foreground" aria-hidden="true" d="" pointer-events="none" display="none"/></g><g transform="translate(0,48)"><path class="background" aria-hidden="true" d="M0,0h32.6845703125v12.5h-32.6845703125Z" pointer-events="none" opacity="1"/><g><g class="mark-symbol role-legend-symbol" pointer-events="none"><path transform="translate(6,6)" d="M5,0A5,5,0,1,1,-5,0A5,5,0,1,1,5,0" fill="rgb(182, 182, 182)" stroke="rgb(182, 182, 182)" stroke-width="1.5" opacity="1"/></g><g class="mark-text role-legend-label" pointer-events="none"><text text-anchor="start" transform="translate(16,9)" font-family="sans-serif" font-size="10px" fill="#000" opacity="1">150</text></g></g><path class="foreground" aria-hidden="true" d="" pointer-events="none" display="none"/></g><g transform="translate(0,64)"><path class="background" aria-hidden="true" d="M0,0h32.6845703125v12.5h-32.6845703125Z" pointer-events="none" opacity="1"/><g><g class="mark-symbol role-legend-symbol" pointer-events="none"><path transform="translate(6,6)" d="M5,0A5,5,0,1,1,-5,0A5,5,0,1,1,5,0" fill="rgb(68, 68, 68)" stroke="rgb(68, 68, 68)" stroke-width="1.5" opacity="1"/></g><g class="mark-text role-legend-label" pointer-events="none"><text text-anchor="start" transform="translate(16,9)" font-family="sans-serif" font-size="10px" fill="#000" opacity="1">200</text></g></g><path class="foreground" aria-hidden="true" d="" pointer-events="none" display="none"/></g></g></g><path class="foreground" aria-hidden="true" d="" pointer-events="none" display="none"/></g></g><g class="mark-text role-legend-title" pointer-events="none"><text text-anchor="start" transform="translate(0,9)" font-family="sans-serif" font-size="11px" font-weight="bold" fill="#000" opacity="1">Likes</text></g></g><path class="foreground" aria-hidden="true" d="" pointer-events="none" display="none"/></g></g><g class="mark-group role-title"><g transform="translate(150,-22)"><path class="background" aria-hidden="true" d="M0,0h0v0h0Z" pointer-events="none"/><g><g class="mark-text role-title-text" role="graphics-symbol" aria-roledescription="title" aria-label="Title text 'Views against Hashtag to Words Ratio in Titles'" pointer-events="none"><text text-anchor="middle" transform="translate(0,10)" font-family="sans-serif" font-size="13px" font-weight="bold" fill="#000" opacity="1">Views against Hashtag to Words Ratio in Titles</text></g></g><path class="foreground" aria-hidden="true" d="" pointer-events="none" display="none"/></g></g></g><path class="foreground" aria-hidden="true" d="" display="none"/></g></g></g><defs><clipPath id="clip4"><rect x="0" y="0" width="300" height="300"/></clipPath><clipPath id="clip5"><rect x="0" y="0" width="300" height="300"/></clipPath></defs></svg>