<svg xmlns="http://www.w3.org/2000/svg" xmlns:xlink="http://www.w3.org/1999/xlink" version="1.1" class="marks" width="352" height="364" viewBox="0 0 352 364"><rect width="352" height="364" fill="white"/><g fill="none" stroke-miterlimit="10" transform="translate(39,27)"><g class="mark-group role-frame root" role="graphics-object" aria-roledescription="group mark container"><g transform="translate(0,0)"><path class="background" aria-hidden="true" d="M0.5,0.5h300v300h-300Z" stroke="#ddd"/><g><g class="mark-group role-axis" aria-hidden="true"><g transform="translate(0.5,300.5)"><path class="background" aria-hidden="true" d="M0,0h0v0h0Z" pointer-events="none"/><g><g class="mark-rule role-axis-grid" pointer-events="none"><line transform="translate(23,-300)" x2="0" y2="300" stroke="#ddd" stroke-width="1" opacity="1"/><line transform="translate(69,-300)" x2="0" y2="300" stroke="#ddd" stroke-width="1" opacity="1"/><line transform="translate(115,-300)" x2="0" y2="300" stroke="#ddd" stroke-width="1" opacity="1"/><line transform="translate(162,-300)" x2="0" y2="300" stroke="#ddd" stroke-width="1" opacity="1"/><line transform="translate(208,-300)" x2="0" y2="300" stroke="#ddd" stroke-width="1" opacity="1"/><line transform="translate(254,-300)" x2="0" y2="300" stroke="#ddd" stroke-width="1" opacity="1"/><line transform="translate(300,-300)" x2="0" y2="300" stroke="#ddd" stroke-width="1" opacity="1"/></g></g><path class="foreground" aria-hidden="true" d="" pointer-events="none" display="none"/></g></g><g class="mark-group role-axis" aria-hidden="true"><g transform="translate(0.5,0.5)"><path class="background" aria-hidden="true" d="M0,0h0v0h0Z" pointer-events="none"/><g><g class="mark-rule role-axis-grid" pointer-events="none"><line transform="translate(0,300)" x2="300" y2="0" stroke="#ddd" stroke-width="1" opacity="1"/><line transform="translate(0,263)" x2="300" y2="0" stroke="#ddd" stroke-width="1" opacity="1"/><line transform="translate(0,225)" x2="300" y2="0" stroke="#ddd" stroke-width="1" opacity="1"/><line transform="translate(0,188)" x2="300" y2="0" stroke="#ddd" stroke-width="1" opacity="1"/><line transform="translate(0,150)" x2="300" y2="0" stroke="#ddd" stroke-width="1" opacity="1"/><line transform="translate(0,113)" x2="300" y2="0" stroke="#ddd" stroke-width="1" opacity="1"/><line transform="translate(0,75)" x2="300" y2="0" stroke="#ddd" stroke-width="1" opacity="1"/><line transform="translate(0,38)" x2="300" y2="0" stroke="#ddd" stroke-width="1" opacity="1"/><line transform="translate(0,0)" x2="300" y2="0" stroke="#ddd" stroke-width="1" opacity="1"/></g></g><path class="foreground" aria-hidden="true" d="" pointer-events="none" display="none"/></g></g><g class="mark-group role-axis" role="graphics-symbol" aria-roledescription="axis" aria-label="X-axis titled 'Instagram Reels Like Count' for a linear scale with values from −1 to 6"><g transform="translate(0.5,300.5)"><path class="background" aria-hidden="true" d="M0,0h0v0h0Z" pointer-events="none"/><g><g class="mark-rule role-axis-tick" pointer-events="none"><line transform="translate(23,0)" x2="0" y2="5" stroke="#888" stroke-width="1" opacity="1"/><line transform="translate(69,0)" x2="0" y2="5" stroke="#888" stroke-width="1" opacity="1"/><line transform="translate(115,0)" x2="0" y2="5" stroke="#888" stroke-width="1" opacity="1"/><line transform="translate(162,0)" x2="0" y2="5" stroke="#888" stroke-width="1" opacity="1"/><line transform="translate(208,0)" x2="0" y2="5" stroke="#888" stroke-width="1" opacity="1"/><line transform="translate(254,0)" x2="0" y2="5" stroke="#888" stroke-width="1" opacity="1"/><line transform="translate(300,0)" x2="0" y2="5" stroke="#888" stroke-width="1" opacity="1"/></g><g class="mark-text role-axis-label" pointer-events="none"><text text-anchor="middle" transform="translate(23.076923076923077,15)" font-family="sans-serif" font-size="10px" fill="#000" opacity="1">0</text><text text-anchor="middle" transform="translate(69.23076923076924,15)" font-family="sans-serif" font-size="10px" fill="#000" opacity="1">1</text><text text-anchor="middle" transform="translate(115.38461538461539,15)" font-family="sans-serif" font-size="10px" fill="#000" opacity="1">2</text><text text-anchor="middle" transform="translate(161.53846153846152,15)" font-family="sans-serif" font-size="10px" fill="#000" opacity="1">3</text><text text-anchor="middle" transform="translate(207.69230769230768,15)" font-family="sans-serif" font-size="10px" fill="#000" opacity="1">4</text><text text-anchor="middle" transform="translate(253.84615384615384,15)" font-family="sans-serif" font-size="10px" fill="#000" opacity="1">5</text><text text-anchor="end" transform="translate(300,15)" font-family="sans-serif" font-size="10px" fill="#000" opacity="1">6</text></g><g class="mark-rule role-axis-domain" pointer-events="none"><line transform="translate(0,0)" x2="300" y2="0" stroke="#888" stroke-width="1" opacity="1"/></g><g class="mark-text role-axis-title" pointer-events="none"><text text-anchor="middle" transform="translate(150,30)" font-family="sans-serif" font-size="11px" font-weight="bold" fill="#000" opacity="1">Instagram Reels Like Count</text></g></g><path class="foreground" aria-hidden="true" d="" pointer-events="none" display="none"/></g></g><g class="mark-group role-axis" role="graphics-symbol" aria-roledescription="axis" aria-label="Y-axis titled 'Youtube Shorts Like Count' for a linear scale with values from −1 to 7"><g transform="translate(0.5,0.5)"><path class="background" aria-hidden="true" d="M0,0h0v0h0Z" pointer-events="none"/><g><g class="mark-rule role-axis-tick" pointer-events="none"><line transform="translate(0,300)" x2="-5" y2="0" stroke="#888" stroke-width="1" opacity="1"/><line transform="translate(0,263)" x2="-5" y2="0" stroke="#888" stroke-width="1" opacity="1"/><line transform="translate(0,225)" x2="-5" y2="0" stroke="#888" stroke-width="1" opacity="1"/><line transform="translate(0,188)" x2="-5" y2="0" stroke="#888" stroke-width="1" opacity="1"/><line transform="translate(0,150)" x2="-5" y2="0" stroke="#888" stroke-width="1" opacity="1"/><line transform="translate(0,113)" x2="-5" y2="0" stroke="#888" stroke-width="1" opacity="1"/><line transform="translate(0,75)" x2="-5" y2="0" stroke="#888" stroke-width="1" opacity="1"/><line transform="translate(0,38)" x2="-5" y2="0" stroke="#888" stroke-width="1" opacity="1"/><line transform="translate(0,0)" x2="-5" y2="0" stroke="#888" stroke-width="1" opacity="1"/></g><g class="mark-text role-axis-label" pointer-events="none"><text text-anchor="end" transform="translate(-7,303)" font-family="sans-serif" font-size="10px" fill="#000" opacity="1">−1</text><text text-anchor="end" transform="translate(-7,265.5)" font-family="sans-serif" font-size="10px" fill="#000" opacity="1">0</text><text text-anchor="end" transform="translate(-7,228)" font-family="sans-serif" font-size="10px" fill="#000" opacity="1">1</text><text text-anchor="end" transform="translate(-7,190.5)" font-family="sans-serif" font-size="10px" fill="#000" opacity="1">2</text><text text-anchor="end" transform="translate(-7,153)" font-family="sans-serif" font-size="10px" fill="#000" opacity="1">3</text><text text-anchor="end" transform="translate(-7,115.5)" font-family="sans-serif" font-size="10px" fill="#000" opacity="1">4</text><text text-anchor="end" transform="translate(-7,78)" font-family="sans-serif" font-size="10px" fill="#000" opacity="1">5</text><text text-anchor="end" transform="translate(-7,40.5)" font-family="sans-serif" font-size="10px" fill="#000" opacity="1">6</text><text text-anchor="end" transform="translate(-7,3)" font-family="sans-serif" font-size="10px" fill="#000" opacity="1">7</text></g><g class="mark-rule role-axis-domain" pointer-events="none"><line transform="translate(0,300)" x2="0" y2="-300" stroke="#888" stroke-width="1" opacity="1"/></g><g class="mark-text role-axis-title" pointer-events="none"><text text-anchor="middle" transform="translate(-22.4013671875,150) rotate(-90) translate(0,-2)" font-family="sans-serif" font-size="11px" font-weight="bold" fill="#000" opacity="1">Youtube Shorts Like Count</text></g></g><path class="foreground" aria-hidden="true" d="" pointer-events="none" display="none"/></g></g><g class="mark-symbol role-mark marks" clip-path="url(#clip15)" role="graphics-object" aria-roledescription="symbol mark container"><path aria-label="Instagram Reels Like Count: 1.42274052478; Youtube Shorts Like Count: 0" role="graphics-symbol" aria-roledescription="circle" transform="translate(88.74187037452344,262.5)" d="M3.873,0A3.873,3.873,0,1,1,-3.873,0A3.873,3.873,0,1,1,3.873,0" fill="#93C572" stroke-width="2" opacity="0.7"/><path aria-label="Instagram Reels Like Count: 1.26530612245; Youtube Shorts Like Count: 0.172413793103" role="graphics-symbol" aria-roledescription="circle" transform="translate(81.4756671899529,256.0344827586207)" d="M3.873,0A3.873,3.873,0,1,1,-3.873,0A3.873,3.873,0,1,1,3.873,0" fill="#93C572" stroke-width="2" opacity="0.7"/><path aria-label="Instagram Reels Like Count: −0.0583090379009; Youtube Shorts Like Count: 0.275862068966" role="graphics-symbol" aria-roledescription="circle" transform="translate(20.385736712267327,252.15517241379308)" d="M3.873,0A3.873,3.873,0,1,1,-3.873,0A3.873,3.873,0,1,1,3.873,0" fill="#93C572" stroke-width="2" opacity="0.7"/><path aria-label="Instagram Reels Like Count: 0.868804664723; Youtube Shorts Like Count: 5.03448275862" role="graphics-symbol" aria-roledescription="circle" transform="translate(63.17559991029378,73.70689655172414)" d="M3.873,0A3.873,3.873,0,1,1,-3.873,0A3.873,3.873,0,1,1,3.873,0" fill="#93C572" stroke-width="2" opacity="0.7"/><path aria-label="Instagram Reels Like Count: 0.553935860058; Youtube Shorts Like Count: 0.0344827586207" role="graphics-symbol" aria-roledescription="circle" transform="translate(48.643193541152726,261.2068965517241)" d="M3.873,0A3.873,3.873,0,1,1,-3.873,0A3.873,3.873,0,1,1,3.873,0" fill="#93C572" stroke-width="2" opacity="0.7"/><path aria-label="Instagram Reels Like Count: 0.309037900875; Youtube Shorts Like Count: −0.275862068966" role="graphics-symbol" aria-roledescription="circle" transform="translate(37.34021080959857,272.84482758620686)" d="M3.873,0A3.873,3.873,0,1,1,-3.873,0A3.873,3.873,0,1,1,3.873,0" fill="#93C572" stroke-width="2" opacity="0.7"/><path aria-label="Instagram Reels Like Count: 0.862973760933; Youtube Shorts Like Count: 2.79310344828" role="graphics-symbol" aria-roledescription="circle" transform="translate(62.90648127382821,157.75862068965517)" d="M3.873,0A3.873,3.873,0,1,1,-3.873,0A3.873,3.873,0,1,1,3.873,0" fill="#93C572" stroke-width="2" opacity="0.7"/><path aria-label="Instagram Reels Like Count: 1.02040816327; Youtube Shorts Like Count: −0.344827586207" role="graphics-symbol" aria-roledescription="circle" transform="translate(70.17268445839875,275.4310344827586)" d="M3.873,0A3.873,3.873,0,1,1,-3.873,0A3.873,3.873,0,1,1,3.873,0" fill="#93C572" stroke-width="2" opacity="0.7"/><path aria-label="Instagram Reels Like Count: −0.227405247813; Youtube Shorts Like Count: 6.79310344828" role="graphics-symbol" aria-roledescription="circle" transform="translate(12.581296254765642,7.758620689655171)" d="M3.873,0A3.873,3.873,0,1,1,-3.873,0A3.873,3.873,0,1,1,3.873,0" fill="#93C572" stroke-width="2" opacity="0.7"/><path aria-label="Instagram Reels Like Count: −0.0816326530612; Youtube Shorts Like Count: 0.862068965517" role="graphics-symbol" aria-roledescription="circle" transform="translate(19.309262166405023,230.17241379310346)" d="M3.873,0A3.873,3.873,0,1,1,-3.873,0A3.873,3.873,0,1,1,3.873,0" fill="#93C572" stroke-width="2" opacity="0.7"/><path aria-label="Instagram Reels Like Count: −0.227405247813; Youtube Shorts Like Count: −0.172413793103" role="graphics-symbol" aria-roledescription="circle" transform="translate(12.581296254765642,268.9655172413793)" d="M3.873,0A3.873,3.873,0,1,1,-3.873,0A3.873,3.873,0,1,1,3.873,0" fill="#93C572" stroke-width="2" opacity="0.7"/><path aria-label="Instagram Reels Like Count: −0.174927113703; Youtube Shorts Like Count: 0.344827586207" role="graphics-symbol" aria-roledescription="circle" transform="translate(15.003363982955818,249.56896551724137)" d="M3.873,0A3.873,3.873,0,1,1,-3.873,0A3.873,3.873,0,1,1,3.873,0" fill="#93C572" stroke-width="2" opacity="0.7"/><path aria-label="Instagram Reels Like Count: −0.221574344023; Youtube Shorts Like Count: 0" role="graphics-symbol" aria-roledescription="circle" transform="translate(12.850414891231217,262.5)" d="M3.873,0A3.873,3.873,0,1,1,-3.873,0A3.873,3.873,0,1,1,3.873,0" fill="#93C572" stroke-width="2" opacity="0.7"/><path aria-label="Instagram Reels Like Count: −0.192419825073; Youtube Shorts Like Count: −0.310344827586" role="graphics-symbol" aria-roledescription="circle" transform="translate(14.196008073559094,274.13793103448273)" d="M3.873,0A3.873,3.873,0,1,1,-3.873,0A3.873,3.873,0,1,1,3.873,0" fill="#93C572" stroke-width="2" opacity="0.7"/><path aria-label="Instagram Reels Like Count: −0.244897959184; Youtube Shorts Like Count: 1.24137931034" role="graphics-symbol" aria-roledescription="circle" transform="translate(11.773940345368917,215.94827586206898)" d="M3.873,0A3.873,3.873,0,1,1,-3.873,0A3.873,3.873,0,1,1,3.873,0" fill="#93C572" stroke-width="2" opacity="0.7"/><path aria-label="Instagram Reels Like Count: 0.723032069971; Youtube Shorts Like Count: 0.413793103448" role="graphics-symbol" aria-roledescription="circle" transform="translate(56.44763399865441,246.98275862068965)" d="M3.873,0A3.873,3.873,0,1,1,-3.873,0A3.873,3.873,0,1,1,3.873,0" fill="#93C572" stroke-width="2" opacity="0.7"/><path aria-label="Instagram Reels Like Count: 0.0932944606414; Youtube Shorts Like Count: −0.103448275862" role="graphics-symbol" aria-roledescription="circle" transform="translate(27.382821260372282,266.3793103448276)" d="M3.873,0A3.873,3.873,0,1,1,-3.873,0A3.873,3.873,0,1,1,3.873,0" fill="#93C572" stroke-width="2" opacity="0.7"/><path aria-label="Instagram Reels Like Count: 5.87755102041; Youtube Shorts Like Count: −0.0344827586207" role="graphics-symbol" aria-roledescription="circle" transform="translate(294.3485086342229,263.7931034482759)" d="M3.873,0A3.873,3.873,0,1,1,-3.873,0A3.873,3.873,0,1,1,3.873,0" fill="#93C572" stroke-width="2" opacity="0.7"/><path aria-label="Instagram Reels Like Count: −0.227405247813; Youtube Shorts Like Count: −0.275862068966" role="graphics-symbol" aria-roledescription="circle" transform="translate(12.581296254765642,272.84482758620686)" d="M3.873,0A3.873,3.873,0,1,1,-3.873,0A3.873,3.873,0,1,1,3.873,0" fill="#93C572" stroke-width="2" opacity="0.7"/><path aria-label="Instagram Reels Like Count: 1.67930029155; Youtube Shorts Like Count: −0.310344827586" role="graphics-symbol" aria-roledescription="circle" transform="translate(100.58309037900874,274.13793103448273)" d="M3.873,0A3.873,3.873,0,1,1,-3.873,0A3.873,3.873,0,1,1,3.873,0" fill="#93C572" stroke-width="2" opacity="0.7"/><path aria-label="Instagram Reels Like Count: 0; Youtube Shorts Like Count: −0.344827586207" role="graphics-symbol" aria-roledescription="circle" transform="translate(23.076923076923077,275.4310344827586)" d="M3.873,0A3.873,3.873,0,1,1,-3.873,0A3.873,3.873,0,1,1,3.873,0" fill="#93C572" stroke-width="2" opacity="0.7"/><path aria-label="Instagram Reels Like Count: 1.27113702624; Youtube Shorts Like Count: −0.344827586207" role="graphics-symbol" aria-roledescription="circle" transform="translate(81.7447858264185,275.4310344827586)" d="M3.873,0A3.873,3.873,0,1,1,-3.873,0A3.873,3.873,0,1,1,3.873,0" fill="#93C572" stroke-width="2" opacity="0.7"/><path aria-label="Instagram Reels Like Count: −0.180758017493; Youtube Shorts Like Count: 3.31034482759" role="graphics-symbol" aria-roledescription="circle" transform="translate(14.734245346490246,138.36206896551727)" d="M3.873,0A3.873,3.873,0,1,1,-3.873,0A3.873,3.873,0,1,1,3.873,0" fill="#93C572" stroke-width="2" opacity="0.7"/><path aria-label="Instagram Reels Like Count: −0.262390670554; Youtube Shorts Like Count: −0.310344827586" role="graphics-symbol" aria-roledescription="circle" transform="translate(10.966584435972193,274.13793103448273)" d="M3.873,0A3.873,3.873,0,1,1,-3.873,0A3.873,3.873,0,1,1,3.873,0" fill="#93C572" stroke-width="2" opacity="0.7"/><path aria-label="Instagram Reels Like Count: −0.0233236151603; Youtube Shorts Like Count: −0.275862068966" role="graphics-symbol" aria-roledescription="circle" transform="translate(22.000448531060776,272.84482758620686)" d="M3.873,0A3.873,3.873,0,1,1,-3.873,0A3.873,3.873,0,1,1,3.873,0" fill="#93C572" stroke-width="2" opacity="0.7"/><path aria-label="Instagram Reels Like Count: −0.00583090379009; Youtube Shorts Like Count: 4.34482758621" role="graphics-symbol" aria-roledescription="circle" transform="translate(22.807804440457506,99.56896551724137)" d="M3.873,0A3.873,3.873,0,1,1,-3.873,0A3.873,3.873,0,1,1,3.873,0" fill="#93C572" stroke-width="2" opacity="0.7"/><path aria-label="Instagram Reels Like Count: 0.67055393586; Youtube Shorts Like Count: −0.241379310345" role="graphics-symbol" aria-roledescription="circle" transform="translate(54.02556627046423,271.55172413793105)" d="M3.873,0A3.873,3.873,0,1,1,-3.873,0A3.873,3.873,0,1,1,3.873,0" fill="#93C572" stroke-width="2" opacity="0.7"/><path aria-label="Instagram Reels Like Count: 0.979591836735; Youtube Shorts Like Count: −0.172413793103" role="graphics-symbol" aria-roledescription="circle" transform="translate(68.28885400313972,268.9655172413793)" d="M3.873,0A3.873,3.873,0,1,1,-3.873,0A3.873,3.873,0,1,1,3.873,0" fill="#93C572" stroke-width="2" opacity="0.7"/><path aria-label="Instagram Reels Like Count: −0.0408163265306; Youtube Shorts Like Count: −0.241379310345" role="graphics-symbol" aria-roledescription="circle" transform="translate(21.19309262166405,271.55172413793105)" d="M3.873,0A3.873,3.873,0,1,1,-3.873,0A3.873,3.873,0,1,1,3.873,0" fill="#93C572" stroke-width="2" opacity="0.7"/><path aria-label="Instagram Reels Like Count: 0; Youtube Shorts Like Count: −0.310344827586" role="graphics-symbol" aria-roledescription="circle" transform="translate(23.076923076923077,274.13793103448273)" d="M3.873,0A3.873,3.873,0,1,1,-3.873,0A3.873,3.873,0,1,1,3.873,0" fill="#93C572" stroke-width="2" opacity="0.7"/><path aria-label="Instagram Reels Like Count: −0.227405247813; Youtube Shorts Like Count: 0.862068965517" role="graphics-symbol" aria-roledescription="circle" transform="translate(12.581296254765642,230.17241379310346)" d="M3.873,0A3.873,3.873,0,1,1,-3.873,0A3.873,3.873,0,1,1,3.873,0" fill="#93C572" stroke-width="2" opacity="0.7"/><path aria-label="Instagram Reels Like Count: 0.279883381924; Youtube Shorts Like Count: 0.172413793103" role="graphics-symbol" aria-roledescription="circle" transform="translate(35.99461762727069,256.0344827586207)" d="M3.873,0A3.873,3.873,0,1,1,-3.873,0A3.873,3.873,0,1,1,3.873,0" fill="#93C572" stroke-width="2" opacity="0.7"/><path aria-label="Instagram Reels Like Count: −0.233236151603; Youtube Shorts Like Count: 1.13793103448" role="graphics-symbol" aria-roledescription="circle" transform="translate(12.312177618300067,219.82758620689654)" d="M3.873,0A3.873,3.873,0,1,1,-3.873,0A3.873,3.873,0,1,1,3.873,0" fill="#93C572" stroke-width="2" opacity="0.7"/><path aria-label="Instagram Reels Like Count: −0.244897959184; Youtube Shorts Like Count: 0.586206896552" role="graphics-symbol" aria-roledescription="circle" transform="translate(11.773940345368917,240.51724137931035)" d="M3.873,0A3.873,3.873,0,1,1,-3.873,0A3.873,3.873,0,1,1,3.873,0" fill="#93C572" stroke-width="2" opacity="0.7"/><path aria-label="Instagram Reels Like Count: 0.478134110787; Youtube Shorts Like Count: 0" role="graphics-symbol" aria-roledescription="circle" transform="translate(45.144651267100244,262.5)" d="M3.873,0A3.873,3.873,0,1,1,-3.873,0A3.873,3.873,0,1,1,3.873,0" fill="#93C572" stroke-width="2" opacity="0.7"/></g><g class="mark-group role-title"><g transform="translate(150,-22)"><path class="background" aria-hidden="true" d="M0,0h0v0h0Z" pointer-events="none"/><g><g class="mark-text role-title-text" role="graphics-symbol" aria-roledescription="title" aria-label="Title text 'Like counts on Youtube against Instagram (Scaled)'" pointer-events="none"><text text-anchor="middle" transform="translate(0,10)" font-family="sans-serif" font-size="13px" font-weight="bold" fill="#000" opacity="1">Like counts on Youtube against Instagram (Scaled)</text></g></g><path class="foreground" aria-hidden="true" d="" pointer-events="none" display="none"/></g></g></g><path class="foreground" aria-hidden="true" d="" display="none"/></g></g></g><defs><clipPath id="clip15"><rect x="0" y="0" width="300" height="300"/></clipPath></defs></svg>