<svg xmlns="http://www.w3.org/2000/svg" xmlns:xlink="http://www.w3.org/1999/xlink" version="1.1" class="marks" width="360" height="364" viewBox="0 0 360 364"><rect width="360" height="364" fill="white"/><g fill="none" stroke-miterlimit="10" transform="translate(41,27)"><g class="mark-group role-frame root" role="graphics-object" aria-roledescription="group mark container"><g transform="translate(0,0)"><path class="background" aria-hidden="true" d="M0.5,0.5h300v300h-300Z" stroke="#ddd"/><g><g class="mark-group role-axis" aria-hidden="true"><g transform="translate(0.5,300.5)"><path class="background" aria-hidden="true" d="M0,0h0v0h0Z" pointer-events="none"/><g><g class="mark-rule role-axis-grid" pointer-events="none"><line transform="translate(0,-300)" x2="0" y2="300" stroke="#ddd" stroke-width="1" opacity="1"/><line transform="translate(30,-300)" x2="0" y2="300" stroke="#ddd" stroke-width="1" opacity="1"/><line transform="translate(60,-300)" x2="0" y2="300" stroke="#ddd" stroke-width="1" opacity="1"/><line transform="translate(90,-300)" x2="0" y2="300" stroke="#ddd" stroke-width="1" opacity="1"/><line transform="translate(120,-300)" x2="0" y2="300" stroke="#ddd" stroke-width="1" opacity="1"/><line transform="translate(150,-300)" x2="0" y2="300" stroke="#ddd" stroke-width="1" opacity="1"/><line transform="translate(180,-300)" x2="0" y2="300" stroke="#ddd" stroke-width="1" opacity="1"/><line transform="translate(210,-300)" x2="0" y2="300" stroke="#ddd" stroke-width="1" opacity="1"/><line transform="translate(240,-300)" x2="0" y2="300" stroke="#ddd" stroke-width="1" opacity="1"/><line transform="translate(270,-300)" x2="0" y2="300" stroke="#ddd" stroke-width="1" opacity="1"/><line transform="translate(300,-300)" x2="0" y2="300" stroke="#ddd" stroke-width="1" opacity="1"/></g></g><path class="foreground" aria-hidden="true" d="" pointer-events="none" display="none"/></g></g><g class="mark-group role-axis" aria-hidden="true"><g transform="translate(0.5,0.5)"><path class="background" aria-hidden="true" d="M0,0h0v0h0Z" pointer-events="none"/><g><g class="mark-rule role-axis-grid" pointer-events="none"><line transform="translate(0,300)" x2="300" y2="0" stroke="#ddd" stroke-width="1" opacity="1"/><line transform="translate(0,270)" x2="300" y2="0" stroke="#ddd" stroke-width="1" opacity="1"/><line transform="translate(0,240)" x2="300" y2="0" stroke="#ddd" stroke-width="1" opacity="1"/><line transform="translate(0,210)" x2="300" y2="0" stroke="#ddd" stroke-width="1" opacity="1"/><line transform="translate(0,180)" x2="300" y2="0" stroke="#ddd" stroke-width="1" opacity="1"/><line transform="translate(0,150)" x2="300" y2="0" stroke="#ddd" stroke-width="1" opacity="1"/><line transform="translate(0,120)" x2="300" y2="0" stroke="#ddd" stroke-width="1" opacity="1"/><line transform="translate(0,90)" x2="300" y2="0" stroke="#ddd" stroke-width="1" opacity="1"/><line transform="translate(0,60)" x2="300" y2="0" stroke="#ddd" stroke-width="1" opacity="1"/><line transform="translate(0,30)" x2="300" y2="0" stroke="#ddd" stroke-width="1" opacity="1"/><line transform="translate(0,0)" x2="300" y2="0" stroke="#ddd" stroke-width="1" opacity="1"/></g></g><path class="foreground" aria-hidden="true" d="" pointer-events="none" display="none"/></g></g><g class="mark-group role-axis" role="graphics-symbol" aria-roledescription="axis" aria-label="X-axis titled 'Instagram Reels Like Count' for a linear scale with values from 0.0 to 1.0"><g transform="translate(0.5,300.5)"><path class="background" aria-hidden="true" d="M0,0h0v0h0Z" pointer-events="none"/><g><g class="mark-rule role-axis-tick" pointer-events="none"><line transform="translate(0,0)" x2="0" y2="5" stroke="#888" stroke-width="1" opacity="1"/><line transform="translate(30,0)" x2="0" y2="5" stroke="#888" stroke-width="1" opacity="1"/><line transform="translate(60,0)" x2="0" y2="5" stroke="#888" stroke-width="1" opacity="1"/><line transform="translate(90,0)" x2="0" y2="5" stroke="#888" stroke-width="1" opacity="1"/><line transform="translate(120,0)" x2="0" y2="5" stroke="#888" stroke-width="1" opacity="1"/><line transform="translate(150,0)" x2="0" y2="5" stroke="#888" stroke-width="1" opacity="1"/><line transform="translate(180,0)" x2="0" y2="5" stroke="#888" stroke-width="1" opacity="1"/><line transform="translate(210,0)" x2="0" y2="5" stroke="#888" stroke-width="1" opacity="1"/><line transform="translate(240,0)" x2="0" y2="5" stroke="#888" stroke-width="1" opacity="1"/><line transform="translate(270,0)" x2="0" y2="5" stroke="#888" stroke-width="1" opacity="1"/><line transform="translate(300,0)" x2="0" y2="5" stroke="#888" stroke-width="1" opacity="1"/></g><g class="mark-text role-axis-label" pointer-events="none"><text text-anchor="start" transform="translate(0,15)" font-family="sans-serif" font-size="10px" fill="#000" opacity="1">0.0</text><text text-anchor="middle" transform="translate(30,15)" font-family="sans-serif" font-size="10px" fill="#000" opacity="1">0.1</text><text text-anchor="middle" transform="translate(60,15)" font-family="sans-serif" font-size="10px" fill="#000" opacity="1">0.2</text><text text-anchor="middle" transform="translate(90,15)" font-family="sans-serif" font-size="10px" fill="#000" opacity="1">0.3</text><text text-anchor="middle" transform="translate(120,15)" font-family="sans-serif" font-size="10px" fill="#000" opacity="1">0.4</text><text text-anchor="middle" transform="translate(150,15)" font-family="sans-serif" font-size="10px" fill="#000" opacity="1">0.5</text><text text-anchor="middle" transform="translate(180,15)" font-family="sans-serif" font-size="10px" fill="#000" opacity="1">0.6</text><text text-anchor="middle" transform="translate(210,15)" font-family="sans-serif" font-size="10px" fill="#000" opacity="1">0.7</text><text text-anchor="middle" transform="translate(240,15)" font-family="sans-serif" font-size="10px" fill="#000" opacity="1">0.8</text><text text-anchor="middle" transform="translate(270,15)" font-family="sans-serif" font-size="10px" fill="#000" opacity="1">0.9</text><text text-anchor="end" transform="translate(300,15)" font-family="sans-serif" font-size="10px" fill="#000" opacity="1">1.0</text></g><g class="mark-rule role-axis-domain" pointer-events="none"><line transform="translate(0,0)" x2="300" y2="0" stroke="#888" stroke-width="1" opacity="1"/></g><g class="mark-text role-axis-title" pointer-events="none"><text text-anchor="middle" transform="translate(150,30)" font-family="sans-serif" font-size="11px" font-weight="bold" fill="#000" opacity="1">Instagram Reels Like Count</text></g></g><path class="foreground" aria-hidden="true" d="" pointer-events="none" display="none"/></g></g><g class="mark-group role-axis" role="graphics-symbol" aria-roledescription="axis" aria-label="Y-axis titled 'Youtube Shorts Like Count' for a linear scale with values from 0.0 to 1.0"><g transform="translate(0.5,0.5)"><path class="background" aria-hidden="true" d="M0,0h0v0h0Z" pointer-events="none"/><g><g class="mark-rule role-axis-tick" pointer-events="none"><line transform="translate(0,300)" x2="-5" y2="0" stroke="#888" stroke-width="1" opacity="1"/><line transform="translate(0,270)" x2="-5" y2="0" stroke="#888" stroke-width="1" opacity="1"/><line transform="translate(0,240)" x2="-5" y2="0" stroke="#888" stroke-width="1" opacity="1"/><line transform="translate(0,210)" x2="-5" y2="0" stroke="#888" stroke-width="1" opacity="1"/><line transform="translate(0,180)" x2="-5" y2="0" stroke="#888" stroke-width="1" opacity="1"/><line transform="translate(0,150)" x2="-5" y2="0" stroke="#888" stroke-width="1" opacity="1"/><line transform="translate(0,120)" x2="-5" y2="0" stroke="#888" stroke-width="1" opacity="1"/><line transform="translate(0,90)" x2="-5" y2="0" stroke="#888" stroke-width="1" opacity="1"/><line transform="translate(0,60)" x2="-5" y2="0" stroke="#888" stroke-width="1" opacity="1"/><line transform="translate(0,30)" x2="-5" y2="0" stroke="#888" stroke-width="1" opacity="1"/><line transform="translate(0,0)" x2="-5" y2="0" stroke="#888" stroke-width="1" opacity="1"/></g><g class="mark-text role-axis-label" pointer-events="none"><text text-anchor="end" transform="translate(-7,303)" font-family="sans-serif" font-size="10px" fill="#000" opacity="1">0.0</text><text text-anchor="end" transform="translate(-7,273)" font-family="sans-serif" font-size="10px" fill="#000" opacity="1">0.1</text><text text-anchor="end" transform="translate(-7,243)" font-family="sans-serif" font-size="10px" fill="#000" opacity="1">0.2</text><text text-anchor="end" transform="translate(-7,213)" font-family="sans-serif" font-size="10px" fill="#000" opacity="1">0.3</text><text text-anchor="end" transform="translate(-7,183)" font-family="sans-serif" font-size="10px" fill="#000" opacity="1">0.4</text><text text-anchor="end" transform="translate(-7,153)" font-family="sans-serif" font-size="10px" fill="#000" opacity="1">0.5</text><text text-anchor="end" transform="translate(-7,123)" font-family="sans-serif" font-size="10px" fill="#000" opacity="1">0.6</text><text text-anchor="end" transform="translate(-7,93.00000000000001)" font-family="sans-serif" font-size="10px" fill="#000" opacity="1">0.7</text><text text-anchor="end" transform="translate(-7,62.999999999999986)" font-family="sans-serif" font-size="10px" fill="#000" opacity="1">0.8</text><text text-anchor="end" transform="translate(-7,32.99999999999999)" font-family="sans-serif" font-size="10px" fill="#000" opacity="1">0.9</text><text text-anchor="end" transform="translate(-7,3)" font-family="sans-serif" font-size="10px" fill="#000" opacity="1">1.0</text></g><g class="mark-rule role-axis-domain" pointer-events="none"><line transform="translate(0,300)" x2="0" y2="-300" stroke="#888" stroke-width="1" opacity="1"/></g><g class="mark-text role-axis-title" pointer-events="none"><text text-anchor="middle" transform="translate(-24.9013671875,150) rotate(-90) translate(0,-2)" font-family="sans-serif" font-size="11px" font-weight="bold" fill="#000" opacity="1">Youtube Shorts Like Count</text></g></g><path class="foreground" aria-hidden="true" d="" pointer-events="none" display="none"/></g></g><g class="mark-symbol role-mark marks" clip-path="url(#clip12)" role="graphics-object" aria-roledescription="symbol mark container"><path aria-label="Instagram Reels Like Count: 0.274453941121; Youtube Shorts Like Count: 0.048309178744" role="graphics-symbol" aria-roledescription="circle" transform="translate(82.33618233618233,285.5072463768116)" d="M3.873,0A3.873,3.873,0,1,1,-3.873,0A3.873,3.873,0,1,1,3.873,0" fill="#32CD32" stroke-width="2" opacity="0.7"/><path aria-label="Instagram Reels Like Count: 0.24881291548; Youtube Shorts Like Count: 0.0724637681159" role="graphics-symbol" aria-roledescription="circle" transform="translate(74.64387464387464,278.2608695652174)" d="M3.873,0A3.873,3.873,0,1,1,-3.873,0A3.873,3.873,0,1,1,3.873,0" fill="#32CD32" stroke-width="2" opacity="0.7"/><path aria-label="Instagram Reels Like Count: 0.0332383665717; Youtube Shorts Like Count: 0.0869565217391" role="graphics-symbol" aria-roledescription="circle" transform="translate(9.97150997150997,273.9130434782609)" d="M3.873,0A3.873,3.873,0,1,1,-3.873,0A3.873,3.873,0,1,1,3.873,0" fill="#32CD32" stroke-width="2" opacity="0.7"/><path aria-label="Instagram Reels Like Count: 0.184235517569; Youtube Shorts Like Count: 0.753623188406" role="graphics-symbol" aria-roledescription="circle" transform="translate(55.270655270655276,73.91304347826086)" d="M3.873,0A3.873,3.873,0,1,1,-3.873,0A3.873,3.873,0,1,1,3.873,0" fill="#32CD32" stroke-width="2" opacity="0.7"/><path aria-label="Instagram Reels Like Count: 0.132953466287; Youtube Shorts Like Count: 0.0531400966184" role="graphics-symbol" aria-roledescription="circle" transform="translate(39.88603988603989,284.05797101449275)" d="M3.873,0A3.873,3.873,0,1,1,-3.873,0A3.873,3.873,0,1,1,3.873,0" fill="#32CD32" stroke-width="2" opacity="0.7"/><path aria-label="Instagram Reels Like Count: 0.0930674264008; Youtube Shorts Like Count: 0.00966183574879" role="graphics-symbol" aria-roledescription="circle" transform="translate(27.920227920227923,297.1014492753623)" d="M3.873,0A3.873,3.873,0,1,1,-3.873,0A3.873,3.873,0,1,1,3.873,0" fill="#32CD32" stroke-width="2" opacity="0.7"/><path aria-label="Instagram Reels Like Count: 0.183285849953; Youtube Shorts Like Count: 0.43961352657" role="graphics-symbol" aria-roledescription="circle" transform="translate(54.98575498575499,168.11594202898553)" d="M3.873,0A3.873,3.873,0,1,1,-3.873,0A3.873,3.873,0,1,1,3.873,0" fill="#32CD32" stroke-width="2" opacity="0.7"/><path aria-label="Instagram Reels Like Count: 0.208926875594; Youtube Shorts Like Count: 0" role="graphics-symbol" aria-roledescription="circle" transform="translate(62.67806267806269,300)" d="M3.873,0A3.873,3.873,0,1,1,-3.873,0A3.873,3.873,0,1,1,3.873,0" fill="#32CD32" stroke-width="2" opacity="0.7"/><path aria-label="Instagram Reels Like Count: 0.00569800569801; Youtube Shorts Like Count: 1" role="graphics-symbol" aria-roledescription="circle" transform="translate(1.7094017094017093,0)" d="M3.873,0A3.873,3.873,0,1,1,-3.873,0A3.873,3.873,0,1,1,3.873,0" fill="#32CD32" stroke-width="2" opacity="0.7"/><path aria-label="Instagram Reels Like Count: 0.0294396961064; Youtube Shorts Like Count: 0.169082125604" role="graphics-symbol" aria-roledescription="circle" transform="translate(8.831908831908834,249.2753623188406)" d="M3.873,0A3.873,3.873,0,1,1,-3.873,0A3.873,3.873,0,1,1,3.873,0" fill="#32CD32" stroke-width="2" opacity="0.7"/><path aria-label="Instagram Reels Like Count: 0.00569800569801; Youtube Shorts Like Count: 0.024154589372" role="graphics-symbol" aria-roledescription="circle" transform="translate(1.7094017094017093,292.7536231884058)" d="M3.873,0A3.873,3.873,0,1,1,-3.873,0A3.873,3.873,0,1,1,3.873,0" fill="#32CD32" stroke-width="2" opacity="0.7"/><path aria-label="Instagram Reels Like Count: 0.014245014245; Youtube Shorts Like Count: 0.0966183574879" role="graphics-symbol" aria-roledescription="circle" transform="translate(4.273504273504273,271.0144927536232)" d="M3.873,0A3.873,3.873,0,1,1,-3.873,0A3.873,3.873,0,1,1,3.873,0" fill="#32CD32" stroke-width="2" opacity="0.7"/><path aria-label="Instagram Reels Like Count: 0.00664767331434; Youtube Shorts Like Count: 0.048309178744" role="graphics-symbol" aria-roledescription="circle" transform="translate(1.9943019943019942,285.5072463768116)" d="M3.873,0A3.873,3.873,0,1,1,-3.873,0A3.873,3.873,0,1,1,3.873,0" fill="#32CD32" stroke-width="2" opacity="0.7"/><path aria-label="Instagram Reels Like Count: 0.011396011396; Youtube Shorts Like Count: 0.0048309178744" role="graphics-symbol" aria-roledescription="circle" transform="translate(3.4188034188034186,298.5507246376811)" d="M3.873,0A3.873,3.873,0,1,1,-3.873,0A3.873,3.873,0,1,1,3.873,0" fill="#32CD32" stroke-width="2" opacity="0.7"/><path aria-label="Instagram Reels Like Count: 0.002849002849; Youtube Shorts Like Count: 0.222222222222" role="graphics-symbol" aria-roledescription="circle" transform="translate(0.8547008547008547,233.33333333333334)" d="M3.873,0A3.873,3.873,0,1,1,-3.873,0A3.873,3.873,0,1,1,3.873,0" fill="#32CD32" stroke-width="2" opacity="0.7"/><path aria-label="Instagram Reels Like Count: 0.16049382716; Youtube Shorts Like Count: 0.106280193237" role="graphics-symbol" aria-roledescription="circle" transform="translate(48.14814814814815,268.1159420289855)" d="M3.873,0A3.873,3.873,0,1,1,-3.873,0A3.873,3.873,0,1,1,3.873,0" fill="#32CD32" stroke-width="2" opacity="0.7"/><path aria-label="Instagram Reels Like Count: 0.0579297245964; Youtube Shorts Like Count: 0.0338164251208" role="graphics-symbol" aria-roledescription="circle" transform="translate(17.378917378917382,289.8550724637681)" d="M3.873,0A3.873,3.873,0,1,1,-3.873,0A3.873,3.873,0,1,1,3.873,0" fill="#32CD32" stroke-width="2" opacity="0.7"/><path aria-label="Instagram Reels Like Count: 1; Youtube Shorts Like Count: 0.0434782608696" role="graphics-symbol" aria-roledescription="circle" transform="translate(300,286.95652173913044)" d="M3.873,0A3.873,3.873,0,1,1,-3.873,0A3.873,3.873,0,1,1,3.873,0" fill="#32CD32" stroke-width="2" opacity="0.7"/><path aria-label="Instagram Reels Like Count: 0.00569800569801; Youtube Shorts Like Count: 0.00966183574879" role="graphics-symbol" aria-roledescription="circle" transform="translate(1.7094017094017093,297.1014492753623)" d="M3.873,0A3.873,3.873,0,1,1,-3.873,0A3.873,3.873,0,1,1,3.873,0" fill="#32CD32" stroke-width="2" opacity="0.7"/><path aria-label="Instagram Reels Like Count: 0.316239316239; Youtube Shorts Like Count: 0.0048309178744" role="graphics-symbol" aria-roledescription="circle" transform="translate(94.87179487179486,298.5507246376811)" d="M3.873,0A3.873,3.873,0,1,1,-3.873,0A3.873,3.873,0,1,1,3.873,0" fill="#32CD32" stroke-width="2" opacity="0.7"/><path aria-label="Instagram Reels Like Count: 0.042735042735; Youtube Shorts Like Count: 0" role="graphics-symbol" aria-roledescription="circle" transform="translate(12.820512820512821,300)" d="M3.873,0A3.873,3.873,0,1,1,-3.873,0A3.873,3.873,0,1,1,3.873,0" fill="#32CD32" stroke-width="2" opacity="0.7"/><path aria-label="Instagram Reels Like Count: 0.249762583096; Youtube Shorts Like Count: 0" role="graphics-symbol" aria-roledescription="circle" transform="translate(74.92877492877494,300)" d="M3.873,0A3.873,3.873,0,1,1,-3.873,0A3.873,3.873,0,1,1,3.873,0" fill="#32CD32" stroke-width="2" opacity="0.7"/><path aria-label="Instagram Reels Like Count: 0.0132953466287; Youtube Shorts Like Count: 0.512077294686" role="graphics-symbol" aria-roledescription="circle" transform="translate(3.9886039886039883,146.3768115942029)" d="M3.873,0A3.873,3.873,0,1,1,-3.873,0A3.873,3.873,0,1,1,3.873,0" fill="#32CD32" stroke-width="2" opacity="0.7"/><path aria-label="Instagram Reels Like Count: 0; Youtube Shorts Like Count: 0.0048309178744" role="graphics-symbol" aria-roledescription="circle" transform="translate(0,298.5507246376811)" d="M3.873,0A3.873,3.873,0,1,1,-3.873,0A3.873,3.873,0,1,1,3.873,0" fill="#32CD32" stroke-width="2" opacity="0.7"/><path aria-label="Instagram Reels Like Count: 0.0389363722697; Youtube Shorts Like Count: 0.00966183574879" role="graphics-symbol" aria-roledescription="circle" transform="translate(11.68091168091168,297.1014492753623)" d="M3.873,0A3.873,3.873,0,1,1,-3.873,0A3.873,3.873,0,1,1,3.873,0" fill="#32CD32" stroke-width="2" opacity="0.7"/><path aria-label="Instagram Reels Like Count: 0.0417853751187; Youtube Shorts Like Count: 0.657004830918" role="graphics-symbol" aria-roledescription="circle" transform="translate(12.535612535612538,102.8985507246377)" d="M3.873,0A3.873,3.873,0,1,1,-3.873,0A3.873,3.873,0,1,1,3.873,0" fill="#32CD32" stroke-width="2" opacity="0.7"/><path aria-label="Instagram Reels Like Count: 0.151946818613; Youtube Shorts Like Count: 0.0144927536232" role="graphics-symbol" aria-roledescription="circle" transform="translate(45.58404558404559,295.6521739130435)" d="M3.873,0A3.873,3.873,0,1,1,-3.873,0A3.873,3.873,0,1,1,3.873,0" fill="#32CD32" stroke-width="2" opacity="0.7"/><path aria-label="Instagram Reels Like Count: 0.202279202279; Youtube Shorts Like Count: 0.024154589372" role="graphics-symbol" aria-roledescription="circle" transform="translate(60.68376068376069,292.7536231884058)" d="M3.873,0A3.873,3.873,0,1,1,-3.873,0A3.873,3.873,0,1,1,3.873,0" fill="#32CD32" stroke-width="2" opacity="0.7"/><path aria-label="Instagram Reels Like Count: 0.0360873694207; Youtube Shorts Like Count: 0.0144927536232" role="graphics-symbol" aria-roledescription="circle" transform="translate(10.826210826210827,295.6521739130435)" d="M3.873,0A3.873,3.873,0,1,1,-3.873,0A3.873,3.873,0,1,1,3.873,0" fill="#32CD32" stroke-width="2" opacity="0.7"/><path aria-label="Instagram Reels Like Count: 0.042735042735; Youtube Shorts Like Count: 0.0048309178744" role="graphics-symbol" aria-roledescription="circle" transform="translate(12.820512820512821,298.5507246376811)" d="M3.873,0A3.873,3.873,0,1,1,-3.873,0A3.873,3.873,0,1,1,3.873,0" fill="#32CD32" stroke-width="2" opacity="0.7"/><path aria-label="Instagram Reels Like Count: 0.00569800569801; Youtube Shorts Like Count: 0.169082125604" role="graphics-symbol" aria-roledescription="circle" transform="translate(1.7094017094017093,249.2753623188406)" d="M3.873,0A3.873,3.873,0,1,1,-3.873,0A3.873,3.873,0,1,1,3.873,0" fill="#32CD32" stroke-width="2" opacity="0.7"/><path aria-label="Instagram Reels Like Count: 0.0883190883191; Youtube Shorts Like Count: 0.0724637681159" role="graphics-symbol" aria-roledescription="circle" transform="translate(26.495726495726498,278.2608695652174)" d="M3.873,0A3.873,3.873,0,1,1,-3.873,0A3.873,3.873,0,1,1,3.873,0" fill="#32CD32" stroke-width="2" opacity="0.7"/><path aria-label="Instagram Reels Like Count: 0.00474833808167; Youtube Shorts Like Count: 0.207729468599" role="graphics-symbol" aria-roledescription="circle" transform="translate(1.4245014245014243,237.68115942028984)" d="M3.873,0A3.873,3.873,0,1,1,-3.873,0A3.873,3.873,0,1,1,3.873,0" fill="#32CD32" stroke-width="2" opacity="0.7"/><path aria-label="Instagram Reels Like Count: 0.002849002849; Youtube Shorts Like Count: 0.130434782609" role="graphics-symbol" aria-roledescription="circle" transform="translate(0.8547008547008547,260.8695652173913)" d="M3.873,0A3.873,3.873,0,1,1,-3.873,0A3.873,3.873,0,1,1,3.873,0" fill="#32CD32" stroke-width="2" opacity="0.7"/><path aria-label="Instagram Reels Like Count: 0.120607787274; Youtube Shorts Like Count: 0.048309178744" role="graphics-symbol" aria-roledescription="circle" transform="translate(36.182336182336186,285.5072463768116)" d="M3.873,0A3.873,3.873,0,1,1,-3.873,0A3.873,3.873,0,1,1,3.873,0" fill="#32CD32" stroke-width="2" opacity="0.7"/></g><g class="mark-group role-title"><g transform="translate(150,-22)"><path class="background" aria-hidden="true" d="M0,0h0v0h0Z" pointer-events="none"/><g><g class="mark-text role-title-text" role="graphics-symbol" aria-roledescription="title" aria-label="Title text 'Like counts on Youtube against Instagram (Scaled II)'" pointer-events="none"><text text-anchor="middle" transform="translate(0,10)" font-family="sans-serif" font-size="13px" font-weight="bold" fill="#000" opacity="1">Like counts on Youtube against Instagram (Scaled II)</text></g></g><path class="foreground" aria-hidden="true" d="" pointer-events="none" display="none"/></g></g></g><path class="foreground" aria-hidden="true" d="" display="none"/></g></g></g><defs><clipPath id="clip12"><rect x="0" y="0" width="300" height="300"/></clipPath></defs></svg>