<svg xmlns="http://www.w3.org/2000/svg" xmlns:xlink="http://www.w3.org/1999/xlink" version="1.1" class="marks" width="338" height="359" viewBox="0 0 338 359"><rect width="338" height="359" fill="white"/><g fill="none" stroke-miterlimit="10" transform="translate(33,22)"><g class="mark-group role-frame root" role="graphics-object" aria-roledescription="group mark container"><g transform="translate(0,0)"><path class="background" aria-hidden="true" d="M0.5,0.5h300v300h-300Z" stroke="#ddd"/><g><g class="mark-group role-axis" aria-hidden="true"><g transform="translate(0.5,300.5)"><path class="background" aria-hidden="true" d="M0,0h0v0h0Z" pointer-events="none"/><g><g class="mark-rule role-axis-grid" pointer-events="none"><line transform="translate(21,-300)" x2="0" y2="300" stroke="#ddd" stroke-width="1" opacity="1"/><line transform="translate(64,-300)" x2="0" y2="300" stroke="#ddd" stroke-width="1" opacity="1"/><line transform="translate(107,-300)" x2="0" y2="300" stroke="#ddd" stroke-width="1" opacity="1"/><line transform="translate(150,-300)" x2="0" y2="300" stroke="#ddd" stroke-width="1" opacity="1"/><line transform="translate(193,-300)" x2="0" y2="300" stroke="#ddd" stroke-width="1" opacity="1"/><line transform="translate(236,-300)" x2="0" y2="300" stroke="#ddd" stroke-width="1" opacity="1"/><line transform="translate(279,-300)" x2="0" y2="300" stroke="#ddd" stroke-width="1" opacity="1"/></g></g><path class="foreground" aria-hidden="true" d="" pointer-events="none" display="none"/></g></g><g class="mark-group role-axis" aria-hidden="true"><g transform="translate(0.5,0.5)"><path class="background" aria-hidden="true" d="M0,0h0v0h0Z" pointer-events="none"/><g><g class="mark-rule role-axis-grid" pointer-events="none"><line transform="translate(0,279)" x2="300" y2="0" stroke="#ddd" stroke-width="1" opacity="1"/><line transform="translate(0,236)" x2="300" y2="0" stroke="#ddd" stroke-width="1" opacity="1"/><line transform="translate(0,193)" x2="300" y2="0" stroke="#ddd" stroke-width="1" opacity="1"/><line transform="translate(0,150)" x2="300" y2="0" stroke="#ddd" stroke-width="1" opacity="1"/><line transform="translate(0,107)" x2="300" y2="0" stroke="#ddd" stroke-width="1" opacity="1"/><line transform="translate(0,64)" x2="300" y2="0" stroke="#ddd" stroke-width="1" opacity="1"/><line transform="translate(0,21)" x2="300" y2="0" stroke="#ddd" stroke-width="1" opacity="1"/></g></g><path class="foreground" aria-hidden="true" d="" pointer-events="none" display="none"/></g></g><g class="mark-group role-axis" role="graphics-symbol" aria-roledescription="axis" aria-label="X-axis titled 'Instagram Reels View Count' for a linear scale with values from −1 to 13"><g transform="translate(0.5,300.5)"><path class="background" aria-hidden="true" d="M0,0h0v0h0Z" pointer-events="none"/><g><g class="mark-rule role-axis-tick" pointer-events="none"><line transform="translate(21,0)" x2="0" y2="5" stroke="#888" stroke-width="1" opacity="1"/><line transform="translate(64,0)" x2="0" y2="5" stroke="#888" stroke-width="1" opacity="1"/><line transform="translate(107,0)" x2="0" y2="5" stroke="#888" stroke-width="1" opacity="1"/><line transform="translate(150,0)" x2="0" y2="5" stroke="#888" stroke-width="1" opacity="1"/><line transform="translate(193,0)" x2="0" y2="5" stroke="#888" stroke-width="1" opacity="1"/><line transform="translate(236,0)" x2="0" y2="5" stroke="#888" stroke-width="1" opacity="1"/><line transform="translate(279,0)" x2="0" y2="5" stroke="#888" stroke-width="1" opacity="1"/></g><g class="mark-text role-axis-label" pointer-events="none"><text text-anchor="middle" transform="translate(21.428571428571427,15)" font-family="sans-serif" font-size="10px" fill="#000" opacity="1">0</text><text text-anchor="middle" transform="translate(64.28571428571428,15)" font-family="sans-serif" font-size="10px" fill="#000" opacity="1">2</text><text text-anchor="middle" transform="translate(107.14285714285714,15)" font-family="sans-serif" font-size="10px" fill="#000" opacity="1">4</text><text text-anchor="middle" transform="translate(150,15)" font-family="sans-serif" font-size="10px" fill="#000" opacity="1">6</text><text text-anchor="middle" transform="translate(192.85714285714286,15)" font-family="sans-serif" font-size="10px" fill="#000" opacity="1">8</text><text text-anchor="middle" transform="translate(235.71428571428572,15)" font-family="sans-serif" font-size="10px" fill="#000" opacity="1">10</text><text text-anchor="middle" transform="translate(278.57142857142856,15)" font-family="sans-serif" font-size="10px" fill="#000" opacity="1">12</text></g><g class="mark-rule role-axis-domain" pointer-events="none"><line transform="translate(0,0)" x2="300" y2="0" stroke="#888" stroke-width="1" opacity="1"/></g><g class="mark-text role-axis-title" pointer-events="none"><text text-anchor="middle" transform="translate(150,30)" font-family="sans-serif" font-size="11px" font-weight="bold" fill="#000" opacity="1">Instagram Reels View Count</text></g></g><path class="foreground" aria-hidden="true" d="" pointer-events="none" display="none"/></g></g><g class="mark-group role-axis" role="graphics-symbol" aria-roledescription="axis" aria-label="Y-axis titled 'Youtube Shorts View Count' for a linear scale with values from −1 to 7"><g transform="translate(0.5,0.5)"><path class="background" aria-hidden="true" d="M0,0h0v0h0Z" pointer-events="none"/><g><g class="mark-rule role-axis-tick" pointer-events="none"><line transform="translate(0,279)" x2="-5" y2="0" stroke="#888" stroke-width="1" opacity="1"/><line transform="translate(0,236)" x2="-5" y2="0" stroke="#888" stroke-width="1" opacity="1"/><line transform="translate(0,193)" x2="-5" y2="0" stroke="#888" stroke-width="1" opacity="1"/><line transform="translate(0,150)" x2="-5" y2="0" stroke="#888" stroke-width="1" opacity="1"/><line transform="translate(0,107)" x2="-5" y2="0" stroke="#888" stroke-width="1" opacity="1"/><line transform="translate(0,64)" x2="-5" y2="0" stroke="#888" stroke-width="1" opacity="1"/><line transform="translate(0,21)" x2="-5" y2="0" stroke="#888" stroke-width="1" opacity="1"/></g><g class="mark-text role-axis-label" pointer-events="none"><text text-anchor="end" transform="translate(-7,281.57142857142856)" font-family="sans-serif" font-size="10px" fill="#000" opacity="1">0</text><text text-anchor="end" transform="translate(-7,238.71428571428572)" font-family="sans-serif" font-size="10px" fill="#000" opacity="1">1</text><text text-anchor="end" transform="translate(-7,195.85714285714283)" font-family="sans-serif" font-size="10px" fill="#000" opacity="1">2</text><text text-anchor="end" transform="translate(-7,153)" font-family="sans-serif" font-size="10px" fill="#000" opacity="1">3</text><text text-anchor="end" transform="translate(-7,110.14285714285712)" font-family="sans-serif" font-size="10px" fill="#000" opacity="1">4</text><text text-anchor="end" transform="translate(-7,67.28571428571429)" font-family="sans-serif" font-size="10px" fill="#000" opacity="1">5</text><text text-anchor="end" transform="translate(-7,24.42857142857142)" font-family="sans-serif" font-size="10px" fill="#000" opacity="1">6</text></g><g class="mark-rule role-axis-domain" pointer-events="none"><line transform="translate(0,300)" x2="0" y2="-300" stroke="#888" stroke-width="1" opacity="1"/></g><g class="mark-text role-axis-title" pointer-events="none"><text text-anchor="middle" transform="translate(-16.5615234375,150) rotate(-90) translate(0,-2)" font-family="sans-serif" font-size="11px" font-weight="bold" fill="#000" opacity="1">Youtube Shorts View Count</text></g></g><path class="foreground" aria-hidden="true" d="" pointer-events="none" display="none"/></g></g><g class="mark-symbol role-mark marks" clip-path="url(#clip14)" role="graphics-object" aria-roledescription="symbol mark container"><path aria-label="Instagram Reels View Count: 0.643902439024; Youtube Shorts View Count: −0.127686472819" role="graphics-symbol" aria-roledescription="circle" transform="translate(35.22648083623694,284.0437059779664)" d="M3.873,0A3.873,3.873,0,1,1,-3.873,0A3.873,3.873,0,1,1,3.873,0" fill="#6495ED" stroke-width="2" opacity="0.7"/><path aria-label="Instagram Reels View Count: 0.256910569106; Youtube Shorts View Count: 0" role="graphics-symbol" aria-roledescription="circle" transform="translate(26.933797909407666,278.57142857142856)" d="M3.873,0A3.873,3.873,0,1,1,-3.873,0A3.873,3.873,0,1,1,3.873,0" fill="#6495ED" stroke-width="2" opacity="0.7"/><path aria-label="Instagram Reels View Count: −0.164227642276; Youtube Shorts View Count: −0.113780025284" role="graphics-symbol" aria-roledescription="circle" transform="translate(17.909407665505228,283.4477153693336)" d="M3.873,0A3.873,3.873,0,1,1,-3.873,0A3.873,3.873,0,1,1,3.873,0" fill="#6495ED" stroke-width="2" opacity="0.7"/><path aria-label="Instagram Reels View Count: 0.510569105691; Youtube Shorts View Count: 2.13021491783" role="graphics-symbol" aria-roledescription="circle" transform="translate(32.36933797909408,187.2765035217627)" d="M3.873,0A3.873,3.873,0,1,1,-3.873,0A3.873,3.873,0,1,1,3.873,0" fill="#6495ED" stroke-width="2" opacity="0.7"/><path aria-label="Instagram Reels View Count: 0.775609756098; Youtube Shorts View Count: −0.155499367889" role="graphics-symbol" aria-roledescription="circle" transform="translate(38.048780487804876,285.23568719523206)" d="M3.873,0A3.873,3.873,0,1,1,-3.873,0A3.873,3.873,0,1,1,3.873,0" fill="#6495ED" stroke-width="2" opacity="0.7"/><path aria-label="Instagram Reels View Count: 0.146341463415; Youtube Shorts View Count: −0.252844500632" role="graphics-symbol" aria-roledescription="circle" transform="translate(24.564459930313586,289.4076214556619)" d="M3.873,0A3.873,3.873,0,1,1,-3.873,0A3.873,3.873,0,1,1,3.873,0" fill="#6495ED" stroke-width="2" opacity="0.7"/><path aria-label="Instagram Reels View Count: 0.993495934959; Youtube Shorts View Count: 2.85840707965" role="graphics-symbol" aria-roledescription="circle" transform="translate(42.71777003484321,156.06826801517067)" d="M3.873,0A3.873,3.873,0,1,1,-3.873,0A3.873,3.873,0,1,1,3.873,0" fill="#6495ED" stroke-width="2" opacity="0.7"/><path aria-label="Instagram Reels View Count: 0.873170731707; Youtube Shorts View Count: −0.251580278129" role="graphics-symbol" aria-roledescription="circle" transform="translate(40.13937282229965,289.35344049124075)" d="M3.873,0A3.873,3.873,0,1,1,-3.873,0A3.873,3.873,0,1,1,3.873,0" fill="#6495ED" stroke-width="2" opacity="0.7"/><path aria-label="Instagram Reels View Count: −0.30406504065; Youtube Shorts View Count: 6.45385587863" role="graphics-symbol" aria-roledescription="circle" transform="translate(14.912891986062718,1.9776052013725787)" d="M3.873,0A3.873,3.873,0,1,1,-3.873,0A3.873,3.873,0,1,1,3.873,0" fill="#6495ED" stroke-width="2" opacity="0.7"/><path aria-label="Instagram Reels View Count: −0.170731707317; Youtube Shorts View Count: 0.993678887484" role="graphics-symbol" aria-roledescription="circle" transform="translate(17.770034843205575,235.98519053639154)" d="M3.873,0A3.873,3.873,0,1,1,-3.873,0A3.873,3.873,0,1,1,3.873,0" fill="#6495ED" stroke-width="2" opacity="0.7"/><path aria-label="Instagram Reels View Count: −0.289430894309; Youtube Shorts View Count: −0.176991150442" role="graphics-symbol" aria-roledescription="circle" transform="translate(15.226480836236934,286.1567635903919)" d="M3.873,0A3.873,3.873,0,1,1,-3.873,0A3.873,3.873,0,1,1,3.873,0" fill="#6495ED" stroke-width="2" opacity="0.7"/><path aria-label="Instagram Reels View Count: −0.282926829268; Youtube Shorts View Count: 0.764854614412" role="graphics-symbol" aria-roledescription="circle" transform="translate(15.365853658536585,245.79194509662275)" d="M3.873,0A3.873,3.873,0,1,1,-3.873,0A3.873,3.873,0,1,1,3.873,0" fill="#6495ED" stroke-width="2" opacity="0.7"/><path aria-label="Instagram Reels View Count: −0.291056910569; Youtube Shorts View Count: 0.0493046776233" role="graphics-symbol" aria-roledescription="circle" transform="translate(15.191637630662022,276.45837095900305)" d="M3.873,0A3.873,3.873,0,1,1,-3.873,0A3.873,3.873,0,1,1,3.873,0" fill="#6495ED" stroke-width="2" opacity="0.7"/><path aria-label="Instagram Reels View Count: −0.29918699187; Youtube Shorts View Count: −0.273072060683" role="graphics-symbol" aria-roledescription="circle" transform="translate(15.017421602787456,290.2745168864006)" d="M3.873,0A3.873,3.873,0,1,1,-3.873,0A3.873,3.873,0,1,1,3.873,0" fill="#6495ED" stroke-width="2" opacity="0.7"/><path aria-label="Instagram Reels View Count: −0.318699186992; Youtube Shorts View Count: 2.15170670038" role="graphics-symbol" aria-roledescription="circle" transform="translate(14.599303135888501,186.35542712660285)" d="M3.873,0A3.873,3.873,0,1,1,-3.873,0A3.873,3.873,0,1,1,3.873,0" fill="#6495ED" stroke-width="2" opacity="0.7"/><path aria-label="Instagram Reels View Count: 1.17235772358; Youtube Shorts View Count: 0.537294563843" role="graphics-symbol" aria-roledescription="circle" transform="translate(46.55052264808362,255.54451869243275)" d="M3.873,0A3.873,3.873,0,1,1,-3.873,0A3.873,3.873,0,1,1,3.873,0" fill="#6495ED" stroke-width="2" opacity="0.7"/><path aria-label="Instagram Reels View Count: 0.152845528455; Youtube Shorts View Count: 0.0265486725664" role="graphics-symbol" aria-roledescription="circle" transform="translate(24.703832752613238,277.43362831858406)" d="M3.873,0A3.873,3.873,0,1,1,-3.873,0A3.873,3.873,0,1,1,3.873,0" fill="#6495ED" stroke-width="2" opacity="0.7"/><path aria-label="Instagram Reels View Count: 12.9983739837; Youtube Shorts View Count: 0.1201011378" role="graphics-symbol" aria-roledescription="circle" transform="translate(299.96515679442507,273.42423695141775)" d="M3.873,0A3.873,3.873,0,1,1,-3.873,0A3.873,3.873,0,1,1,3.873,0" fill="#6495ED" stroke-width="2" opacity="0.7"/><path aria-label="Instagram Reels View Count: −0.323577235772; Youtube Shorts View Count: −0.226295828066" role="graphics-symbol" aria-roledescription="circle" transform="translate(14.494773519163765,288.2698212028174)" d="M3.873,0A3.873,3.873,0,1,1,-3.873,0A3.873,3.873,0,1,1,3.873,0" fill="#6495ED" stroke-width="2" opacity="0.7"/><path aria-label="Instagram Reels View Count: 0.951219512195; Youtube Shorts View Count: −0.260429835651" role="graphics-symbol" aria-roledescription="circle" transform="translate(41.81184668989547,289.73270724218895)" d="M3.873,0A3.873,3.873,0,1,1,-3.873,0A3.873,3.873,0,1,1,3.873,0" fill="#6495ED" stroke-width="2" opacity="0.7"/><path aria-label="Instagram Reels View Count: −0.0130081300813; Youtube Shorts View Count: −0.249051833123" role="graphics-symbol" aria-roledescription="circle" transform="translate(21.149825783972123,289.2450785623984)" d="M3.873,0A3.873,3.873,0,1,1,-3.873,0A3.873,3.873,0,1,1,3.873,0" fill="#6495ED" stroke-width="2" opacity="0.7"/><path aria-label="Instagram Reels View Count: 0.830894308943; Youtube Shorts View Count: −0.279393173198" role="graphics-symbol" aria-roledescription="circle" transform="translate(39.23344947735192,290.5454217085064)" d="M3.873,0A3.873,3.873,0,1,1,-3.873,0A3.873,3.873,0,1,1,3.873,0" fill="#6495ED" stroke-width="2" opacity="0.7"/><path aria-label="Instagram Reels View Count: −0.0829268292683; Youtube Shorts View Count: 3.54235145386" role="graphics-symbol" aria-roledescription="circle" transform="translate(19.651567944250875,126.75636626331948)" d="M3.873,0A3.873,3.873,0,1,1,-3.873,0A3.873,3.873,0,1,1,3.873,0" fill="#6495ED" stroke-width="2" opacity="0.7"/><path aria-label="Instagram Reels View Count: −0.343089430894; Youtube Shorts View Count: −0.237673830594" role="graphics-symbol" aria-roledescription="circle" transform="translate(14.076655052264808,288.75744988260794)" d="M3.873,0A3.873,3.873,0,1,1,-3.873,0A3.873,3.873,0,1,1,3.873,0" fill="#6495ED" stroke-width="2" opacity="0.7"/><path aria-label="Instagram Reels View Count: −0.20487804878; Youtube Shorts View Count: −0.259165613148" role="graphics-symbol" aria-roledescription="circle" transform="translate(17.038327526132406,289.67852627776773)" d="M3.873,0A3.873,3.873,0,1,1,-3.873,0A3.873,3.873,0,1,1,3.873,0" fill="#6495ED" stroke-width="2" opacity="0.7"/><path aria-label="Instagram Reels View Count: 0; Youtube Shorts View Count: 2.86219974716" role="graphics-symbol" aria-roledescription="circle" transform="translate(21.428571428571427,155.90572512190718)" d="M3.873,0A3.873,3.873,0,1,1,-3.873,0A3.873,3.873,0,1,1,3.873,0" fill="#6495ED" stroke-width="2" opacity="0.7"/><path aria-label="Instagram Reels View Count: 0.959349593496; Youtube Shorts View Count: −0.261694058154" role="graphics-symbol" aria-roledescription="circle" transform="translate(41.98606271777004,289.7868882066101)" d="M3.873,0A3.873,3.873,0,1,1,-3.873,0A3.873,3.873,0,1,1,3.873,0" fill="#6495ED" stroke-width="2" opacity="0.7"/><path aria-label="Instagram Reels View Count: 0.962601626016; Youtube Shorts View Count: −0.160556257901" role="graphics-symbol" aria-roledescription="circle" transform="translate(42.055749128919864,285.4524110529168)" d="M3.873,0A3.873,3.873,0,1,1,-3.873,0A3.873,3.873,0,1,1,3.873,0" fill="#6495ED" stroke-width="2" opacity="0.7"/><path aria-label="Instagram Reels View Count: −0.019512195122; Youtube Shorts View Count: −0.170670037927" role="graphics-symbol" aria-roledescription="circle" transform="translate(21.010452961672474,285.8858587682861)" d="M3.873,0A3.873,3.873,0,1,1,-3.873,0A3.873,3.873,0,1,1,3.873,0" fill="#6495ED" stroke-width="2" opacity="0.7"/><path aria-label="Instagram Reels View Count: 0.069918699187; Youtube Shorts View Count: −0.269279393173" role="graphics-symbol" aria-roledescription="circle" transform="translate(22.926829268292682,290.1119739931371)" d="M3.873,0A3.873,3.873,0,1,1,-3.873,0A3.873,3.873,0,1,1,3.873,0" fill="#6495ED" stroke-width="2" opacity="0.7"/><path aria-label="Instagram Reels View Count: −0.318699186992; Youtube Shorts View Count: 0.748419721871" role="graphics-symbol" aria-roledescription="circle" transform="translate(14.599303135888501,246.4962976340979)" d="M3.873,0A3.873,3.873,0,1,1,-3.873,0A3.873,3.873,0,1,1,3.873,0" fill="#6495ED" stroke-width="2" opacity="0.7"/><path aria-label="Instagram Reels View Count: 0.19674796748; Youtube Shorts View Count: 0.0834386852086" role="graphics-symbol" aria-roledescription="circle" transform="translate(25.644599303135887,274.99548491963156)" d="M3.873,0A3.873,3.873,0,1,1,-3.873,0A3.873,3.873,0,1,1,3.873,0" fill="#6495ED" stroke-width="2" opacity="0.7"/><path aria-label="Instagram Reels View Count: −0.318699186992; Youtube Shorts View Count: 2.9190897598" role="graphics-symbol" aria-roledescription="circle" transform="translate(14.599303135888501,153.46758172295466)" d="M3.873,0A3.873,3.873,0,1,1,-3.873,0A3.873,3.873,0,1,1,3.873,0" fill="#6495ED" stroke-width="2" opacity="0.7"/><path aria-label="Instagram Reels View Count: −0.336585365854; Youtube Shorts View Count: 0.651074589128" role="graphics-symbol" aria-roledescription="circle" transform="translate(14.216027874564459,250.66823189452774)" d="M3.873,0A3.873,3.873,0,1,1,-3.873,0A3.873,3.873,0,1,1,3.873,0" fill="#6495ED" stroke-width="2" opacity="0.7"/><path aria-label="Instagram Reels View Count: 0.365853658537; Youtube Shorts View Count: 0.434892541087" role="graphics-symbol" aria-roledescription="circle" transform="translate(29.268292682926827,259.93317681054725)" d="M3.873,0A3.873,3.873,0,1,1,-3.873,0A3.873,3.873,0,1,1,3.873,0" fill="#6495ED" stroke-width="2" opacity="0.7"/></g><g class="mark-group role-title"><g transform="translate(150,-17)"><path class="background" aria-hidden="true" d="M0,0h0v0h0Z" pointer-events="none"/><g><g class="mark-text role-title-text" role="graphics-symbol" aria-roledescription="title" aria-label="Title text 'View counts on Youtube against Instagram'" pointer-events="none"><text text-anchor="middle" transform="translate(0,10)" font-family="sans-serif" font-size="13px" font-weight="bold" fill="#000" opacity="1">View counts on Youtube against Instagram</text></g></g><path class="foreground" aria-hidden="true" d="" pointer-events="none" display="none"/></g></g></g><path class="foreground" aria-hidden="true" d="" display="none"/></g></g></g><defs><clipPath id="clip14"><rect x="0" y="0" width="300" height="300"/></clipPath></defs></svg>