<svg xmlns="http://www.w3.org/2000/svg" xmlns:xlink="http://www.w3.org/1999/xlink" version="1.1" class="marks" width="361" height="364" viewBox="0 0 361 364"><rect width="361" height="364" fill="white"/><g fill="none" stroke-miterlimit="10" transform="translate(41,27)"><g class="mark-group role-frame root" role="graphics-object" aria-roledescription="group mark container"><g transform="translate(0,0)"><path class="background" aria-hidden="true" d="M0.5,0.5h300v300h-300Z" stroke="#ddd"/><g><g class="mark-group role-axis" aria-hidden="true"><g transform="translate(0.5,300.5)"><path class="background" aria-hidden="true" d="M0,0h0v0h0Z" pointer-events="none"/><g><g class="mark-rule role-axis-grid" pointer-events="none"><line transform="translate(0,-300)" x2="0" y2="300" stroke="#ddd" stroke-width="1" opacity="1"/><line transform="translate(30,-300)" x2="0" y2="300" stroke="#ddd" stroke-width="1" opacity="1"/><line transform="translate(60,-300)" x2="0" y2="300" stroke="#ddd" stroke-width="1" opacity="1"/><line transform="translate(90,-300)" x2="0" y2="300" stroke="#ddd" stroke-width="1" opacity="1"/><line transform="translate(120,-300)" x2="0" y2="300" stroke="#ddd" stroke-width="1" opacity="1"/><line transform="translate(150,-300)" x2="0" y2="300" stroke="#ddd" stroke-width="1" opacity="1"/><line transform="translate(180,-300)" x2="0" y2="300" stroke="#ddd" stroke-width="1" opacity="1"/><line transform="translate(210,-300)" x2="0" y2="300" stroke="#ddd" stroke-width="1" opacity="1"/><line transform="translate(240,-300)" x2="0" y2="300" stroke="#ddd" stroke-width="1" opacity="1"/><line transform="translate(270,-300)" x2="0" y2="300" stroke="#ddd" stroke-width="1" opacity="1"/><line transform="translate(300,-300)" x2="0" y2="300" stroke="#ddd" stroke-width="1" opacity="1"/></g></g><path class="foreground" aria-hidden="true" d="" pointer-events="none" display="none"/></g></g><g class="mark-group role-axis" aria-hidden="true"><g transform="translate(0.5,0.5)"><path class="background" aria-hidden="true" d="M0,0h0v0h0Z" pointer-events="none"/><g><g class="mark-rule role-axis-grid" pointer-events="none"><line transform="translate(0,300)" x2="300" y2="0" stroke="#ddd" stroke-width="1" opacity="1"/><line transform="translate(0,270)" x2="300" y2="0" stroke="#ddd" stroke-width="1" opacity="1"/><line transform="translate(0,240)" x2="300" y2="0" stroke="#ddd" stroke-width="1" opacity="1"/><line transform="translate(0,210)" x2="300" y2="0" stroke="#ddd" stroke-width="1" opacity="1"/><line transform="translate(0,180)" x2="300" y2="0" stroke="#ddd" stroke-width="1" opacity="1"/><line transform="translate(0,150)" x2="300" y2="0" stroke="#ddd" stroke-width="1" opacity="1"/><line transform="translate(0,120)" x2="300" y2="0" stroke="#ddd" stroke-width="1" opacity="1"/><line transform="translate(0,90)" x2="300" y2="0" stroke="#ddd" stroke-width="1" opacity="1"/><line transform="translate(0,60)" x2="300" y2="0" stroke="#ddd" stroke-width="1" opacity="1"/><line transform="translate(0,30)" x2="300" y2="0" stroke="#ddd" stroke-width="1" opacity="1"/><line transform="translate(0,0)" x2="300" y2="0" stroke="#ddd" stroke-width="1" opacity="1"/></g></g><path class="foreground" aria-hidden="true" d="" pointer-events="none" display="none"/></g></g><g class="mark-group role-axis" role="graphics-symbol" aria-roledescription="axis" aria-label="X-axis titled 'Instagram Reels View Count' for a linear scale with values from 0.0 to 1.0"><g transform="translate(0.5,300.5)"><path class="background" aria-hidden="true" d="M0,0h0v0h0Z" pointer-events="none"/><g><g class="mark-rule role-axis-tick" pointer-events="none"><line transform="translate(0,0)" x2="0" y2="5" stroke="#888" stroke-width="1" opacity="1"/><line transform="translate(30,0)" x2="0" y2="5" stroke="#888" stroke-width="1" opacity="1"/><line transform="translate(60,0)" x2="0" y2="5" stroke="#888" stroke-width="1" opacity="1"/><line transform="translate(90,0)" x2="0" y2="5" stroke="#888" stroke-width="1" opacity="1"/><line transform="translate(120,0)" x2="0" y2="5" stroke="#888" stroke-width="1" opacity="1"/><line transform="translate(150,0)" x2="0" y2="5" stroke="#888" stroke-width="1" opacity="1"/><line transform="translate(180,0)" x2="0" y2="5" stroke="#888" stroke-width="1" opacity="1"/><line transform="translate(210,0)" x2="0" y2="5" stroke="#888" stroke-width="1" opacity="1"/><line transform="translate(240,0)" x2="0" y2="5" stroke="#888" stroke-width="1" opacity="1"/><line transform="translate(270,0)" x2="0" y2="5" stroke="#888" stroke-width="1" opacity="1"/><line transform="translate(300,0)" x2="0" y2="5" stroke="#888" stroke-width="1" opacity="1"/></g><g class="mark-text role-axis-label" pointer-events="none"><text text-anchor="start" transform="translate(0,15)" font-family="sans-serif" font-size="10px" fill="#000" opacity="1">0.0</text><text text-anchor="middle" transform="translate(30,15)" font-family="sans-serif" font-size="10px" fill="#000" opacity="1">0.1</text><text text-anchor="middle" transform="translate(60,15)" font-family="sans-serif" font-size="10px" fill="#000" opacity="1">0.2</text><text text-anchor="middle" transform="translate(90,15)" font-family="sans-serif" font-size="10px" fill="#000" opacity="1">0.3</text><text text-anchor="middle" transform="translate(120,15)" font-family="sans-serif" font-size="10px" fill="#000" opacity="1">0.4</text><text text-anchor="middle" transform="translate(150,15)" font-family="sans-serif" font-size="10px" fill="#000" opacity="1">0.5</text><text text-anchor="middle" transform="translate(180,15)" font-family="sans-serif" font-size="10px" fill="#000" opacity="1">0.6</text><text text-anchor="middle" transform="translate(210,15)" font-family="sans-serif" font-size="10px" fill="#000" opacity="1">0.7</text><text text-anchor="middle" transform="translate(240,15)" font-family="sans-serif" font-size="10px" fill="#000" opacity="1">0.8</text><text text-anchor="middle" transform="translate(270,15)" font-family="sans-serif" font-size="10px" fill="#000" opacity="1">0.9</text><text text-anchor="end" transform="translate(300,15)" font-family="sans-serif" font-size="10px" fill="#000" opacity="1">1.0</text></g><g class="mark-rule role-axis-domain" pointer-events="none"><line transform="translate(0,0)" x2="300" y2="0" stroke="#888" stroke-width="1" opacity="1"/></g><g class="mark-text role-axis-title" pointer-events="none"><text text-anchor="middle" transform="translate(150,30)" font-family="sans-serif" font-size="11px" font-weight="bold" fill="#000" opacity="1">Instagram Reels View Count</text></g></g><path class="foreground" aria-hidden="true" d="" pointer-events="none" display="none"/></g></g><g class="mark-group role-axis" role="graphics-symbol" aria-roledescription="axis" aria-label="Y-axis titled 'Youtube Shorts View Count' for a linear scale with values from 0.0 to 1.0"><g transform="translate(0.5,0.5)"><path class="background" aria-hidden="true" d="M0,0h0v0h0Z" pointer-events="none"/><g><g class="mark-rule role-axis-tick" pointer-events="none"><line transform="translate(0,300)" x2="-5" y2="0" stroke="#888" stroke-width="1" opacity="1"/><line transform="translate(0,270)" x2="-5" y2="0" stroke="#888" stroke-width="1" opacity="1"/><line transform="translate(0,240)" x2="-5" y2="0" stroke="#888" stroke-width="1" opacity="1"/><line transform="translate(0,210)" x2="-5" y2="0" stroke="#888" stroke-width="1" opacity="1"/><line transform="translate(0,180)" x2="-5" y2="0" stroke="#888" stroke-width="1" opacity="1"/><line transform="translate(0,150)" x2="-5" y2="0" stroke="#888" stroke-width="1" opacity="1"/><line transform="translate(0,120)" x2="-5" y2="0" stroke="#888" stroke-width="1" opacity="1"/><line transform="translate(0,90)" x2="-5" y2="0" stroke="#888" stroke-width="1" opacity="1"/><line transform="translate(0,60)" x2="-5" y2="0" stroke="#888" stroke-width="1" opacity="1"/><line transform="translate(0,30)" x2="-5" y2="0" stroke="#888" stroke-width="1" opacity="1"/><line transform="translate(0,0)" x2="-5" y2="0" stroke="#888" stroke-width="1" opacity="1"/></g><g class="mark-text role-axis-label" pointer-events="none"><text text-anchor="end" transform="translate(-7,303)" font-family="sans-serif" font-size="10px" fill="#000" opacity="1">0.0</text><text text-anchor="end" transform="translate(-7,273)" font-family="sans-serif" font-size="10px" fill="#000" opacity="1">0.1</text><text text-anchor="end" transform="translate(-7,243)" font-family="sans-serif" font-size="10px" fill="#000" opacity="1">0.2</text><text text-anchor="end" transform="translate(-7,213)" font-family="sans-serif" font-size="10px" fill="#000" opacity="1">0.3</text><text text-anchor="end" transform="translate(-7,183)" font-family="sans-serif" font-size="10px" fill="#000" opacity="1">0.4</text><text text-anchor="end" transform="translate(-7,153)" font-family="sans-serif" font-size="10px" fill="#000" opacity="1">0.5</text><text text-anchor="end" transform="translate(-7,123)" font-family="sans-serif" font-size="10px" fill="#000" opacity="1">0.6</text><text text-anchor="end" transform="translate(-7,93.00000000000001)" font-family="sans-serif" font-size="10px" fill="#000" opacity="1">0.7</text><text text-anchor="end" transform="translate(-7,62.999999999999986)" font-family="sans-serif" font-size="10px" fill="#000" opacity="1">0.8</text><text text-anchor="end" transform="translate(-7,32.99999999999999)" font-family="sans-serif" font-size="10px" fill="#000" opacity="1">0.9</text><text text-anchor="end" transform="translate(-7,3)" font-family="sans-serif" font-size="10px" fill="#000" opacity="1">1.0</text></g><g class="mark-rule role-axis-domain" pointer-events="none"><line transform="translate(0,300)" x2="0" y2="-300" stroke="#888" stroke-width="1" opacity="1"/></g><g class="mark-text role-axis-title" pointer-events="none"><text text-anchor="middle" transform="translate(-24.9013671875,150) rotate(-90) translate(0,-2)" font-family="sans-serif" font-size="11px" font-weight="bold" fill="#000" opacity="1">Youtube Shorts View Count</text></g></g><path class="foreground" aria-hidden="true" d="" pointer-events="none" display="none"/></g></g><g class="mark-symbol role-mark marks" clip-path="url(#clip13)" role="graphics-object" aria-roledescription="symbol mark container"><path aria-label="Instagram Reels View Count: 0.0739792809263; Youtube Shorts View Count: 0.0225309800976" role="graphics-symbol" aria-roledescription="circle" transform="translate(22.193784277879338,293.2407059707097)" d="M3.873,0A3.873,3.873,0,1,1,-3.873,0A3.873,3.873,0,1,1,3.873,0" fill="#3F00FF" stroke-width="2" opacity="0.7"/><path aria-label="Instagram Reels View Count: 0.0449725776965; Youtube Shorts View Count: 0.0414945550131" role="graphics-symbol" aria-roledescription="circle" transform="translate(13.491773308957951,287.5516334960571)" d="M3.873,0A3.873,3.873,0,1,1,-3.873,0A3.873,3.873,0,1,1,3.873,0" fill="#3F00FF" stroke-width="2" opacity="0.7"/><path aria-label="Instagram Reels View Count: 0.0134064594759; Youtube Shorts View Count: 0.0245963199399" role="graphics-symbol" aria-roledescription="circle" transform="translate(4.021937842778793,292.62110401802477)" d="M3.873,0A3.873,3.873,0,1,1,-3.873,0A3.873,3.873,0,1,1,3.873,0" fill="#3F00FF" stroke-width="2" opacity="0.7"/><path aria-label="Instagram Reels View Count: 0.0639853747715; Youtube Shorts View Count: 0.357867067217" role="graphics-symbol" aria-roledescription="circle" transform="translate(19.19561243144424,192.63987983477278)" d="M3.873,0A3.873,3.873,0,1,1,-3.873,0A3.873,3.873,0,1,1,3.873,0" fill="#3F00FF" stroke-width="2" opacity="0.7"/><path aria-label="Instagram Reels View Count: 0.0838513101767; Youtube Shorts View Count: 0.0184003004131" role="graphics-symbol" aria-roledescription="circle" transform="translate(25.155393053016454,294.4799098760796)" d="M3.873,0A3.873,3.873,0,1,1,-3.873,0A3.873,3.873,0,1,1,3.873,0" fill="#3F00FF" stroke-width="2" opacity="0.7"/><path aria-label="Instagram Reels View Count: 0.0366849482023; Youtube Shorts View Count: 0.00394292151709" role="graphics-symbol" aria-roledescription="circle" transform="translate(11.005484460694698,298.8171235448742)" d="M3.873,0A3.873,3.873,0,1,1,-3.873,0A3.873,3.873,0,1,1,3.873,0" fill="#3F00FF" stroke-width="2" opacity="0.7"/><path aria-label="Instagram Reels View Count: 0.100182815356; Youtube Shorts View Count: 0.466015771686" role="graphics-symbol" aria-roledescription="circle" transform="translate(30.054844606946983,160.1952684941795)" d="M3.873,0A3.873,3.873,0,1,1,-3.873,0A3.873,3.873,0,1,1,3.873,0" fill="#3F00FF" stroke-width="2" opacity="0.7"/><path aria-label="Instagram Reels View Count: 0.0911639244363; Youtube Shorts View Count: 0.00413067968457" role="graphics-symbol" aria-roledescription="circle" transform="translate(27.34917733089579,298.7607960946301)" d="M3.873,0A3.873,3.873,0,1,1,-3.873,0A3.873,3.873,0,1,1,3.873,0" fill="#3F00FF" stroke-width="2" opacity="0.7"/><path aria-label="Instagram Reels View Count: 0.00292504570384; Youtube Shorts View Count: 1" role="graphics-symbol" aria-roledescription="circle" transform="translate(0.8775137111517365,0)" d="M3.873,0A3.873,3.873,0,1,1,-3.873,0A3.873,3.873,0,1,1,3.873,0" fill="#3F00FF" stroke-width="2" opacity="0.7"/><path aria-label="Instagram Reels View Count: 0.0129189518586; Youtube Shorts View Count: 0.189072474653" role="graphics-symbol" aria-roledescription="circle" transform="translate(3.8756855575868365,243.27825760420578)" d="M3.873,0A3.873,3.873,0,1,1,-3.873,0A3.873,3.873,0,1,1,3.873,0" fill="#3F00FF" stroke-width="2" opacity="0.7"/><path aria-label="Instagram Reels View Count: 0.00402193784278; Youtube Shorts View Count: 0.0152084115659" role="graphics-symbol" aria-roledescription="circle" transform="translate(1.206581352833638,295.43747653022905)" d="M3.873,0A3.873,3.873,0,1,1,-3.873,0A3.873,3.873,0,1,1,3.873,0" fill="#3F00FF" stroke-width="2" opacity="0.7"/><path aria-label="Instagram Reels View Count: 0.00450944546009; Youtube Shorts View Count: 0.155088246339" role="graphics-symbol" aria-roledescription="circle" transform="translate(1.352833638025594,253.47352609838526)" d="M3.873,0A3.873,3.873,0,1,1,-3.873,0A3.873,3.873,0,1,1,3.873,0" fill="#3F00FF" stroke-width="2" opacity="0.7"/><path aria-label="Instagram Reels View Count: 0.00390006093845; Youtube Shorts View Count: 0.0488171235449" role="graphics-symbol" aria-roledescription="circle" transform="translate(1.1700182815356488,285.35486293653776)" d="M3.873,0A3.873,3.873,0,1,1,-3.873,0A3.873,3.873,0,1,1,3.873,0" fill="#3F00FF" stroke-width="2" opacity="0.7"/><path aria-label="Instagram Reels View Count: 0.00329067641682; Youtube Shorts View Count: 0.000938790837401" role="graphics-symbol" aria-roledescription="circle" transform="translate(0.9872029250457038,299.71836274877955)" d="M3.873,0A3.873,3.873,0,1,1,-3.873,0A3.873,3.873,0,1,1,3.873,0" fill="#3F00FF" stroke-width="2" opacity="0.7"/><path aria-label="Instagram Reels View Count: 0.0018281535649; Youtube Shorts View Count: 0.361058956065" role="graphics-symbol" aria-roledescription="circle" transform="translate(0.5484460694698353,191.6823131806234)" d="M3.873,0A3.873,3.873,0,1,1,-3.873,0A3.873,3.873,0,1,1,3.873,0" fill="#3F00FF" stroke-width="2" opacity="0.7"/><path aria-label="Instagram Reels View Count: 0.113589274832; Youtube Shorts View Count: 0.121291776192" role="graphics-symbol" aria-roledescription="circle" transform="translate(34.076782449725776,263.61246714232067)" d="M3.873,0A3.873,3.873,0,1,1,-3.873,0A3.873,3.873,0,1,1,3.873,0" fill="#3F00FF" stroke-width="2" opacity="0.7"/><path aria-label="Instagram Reels View Count: 0.0371724558196; Youtube Shorts View Count: 0.0454374765302" role="graphics-symbol" aria-roledescription="circle" transform="translate(11.151736745886653,286.36875704093126)" d="M3.873,0A3.873,3.873,0,1,1,-3.873,0A3.873,3.873,0,1,1,3.873,0" fill="#3F00FF" stroke-width="2" opacity="0.7"/><path aria-label="Instagram Reels View Count: 1; Youtube Shorts View Count: 0.0593315809238" role="graphics-symbol" aria-roledescription="circle" transform="translate(300,282.2005257228689)" d="M3.873,0A3.873,3.873,0,1,1,-3.873,0A3.873,3.873,0,1,1,3.873,0" fill="#3F00FF" stroke-width="2" opacity="0.7"/><path aria-label="Instagram Reels View Count: 0.00146252285192; Youtube Shorts View Count: 0.00788584303417" role="graphics-symbol" aria-roledescription="circle" transform="translate(0.43875685557586824,297.63424708974844)" d="M3.873,0A3.873,3.873,0,1,1,-3.873,0A3.873,3.873,0,1,1,3.873,0" fill="#3F00FF" stroke-width="2" opacity="0.7"/><path aria-label="Instagram Reels View Count: 0.097014015844; Youtube Shorts View Count: 0.0028163725122" role="graphics-symbol" aria-roledescription="circle" transform="translate(29.10420475319927,299.1550882463387)" d="M3.873,0A3.873,3.873,0,1,1,-3.873,0A3.873,3.873,0,1,1,3.873,0" fill="#3F00FF" stroke-width="2" opacity="0.7"/><path aria-label="Instagram Reels View Count: 0.0247410115783; Youtube Shorts View Count: 0.00450619601953" role="graphics-symbol" aria-roledescription="circle" transform="translate(7.422303473491772,298.64814119414194)" d="M3.873,0A3.873,3.873,0,1,1,-3.873,0A3.873,3.873,0,1,1,3.873,0" fill="#3F00FF" stroke-width="2" opacity="0.7"/><path aria-label="Instagram Reels View Count: 0.0879951249238; Youtube Shorts View Count: 0" role="graphics-symbol" aria-roledescription="circle" transform="translate(26.39853747714808,300)" d="M3.873,0A3.873,3.873,0,1,1,-3.873,0A3.873,3.873,0,1,1,3.873,0" fill="#3F00FF" stroke-width="2" opacity="0.7"/><path aria-label="Instagram Reels View Count: 0.0195003046923; Youtube Shorts View Count: 0.567592940293" role="graphics-symbol" aria-roledescription="circle" transform="translate(5.850091407678244,129.72211791212916)" d="M3.873,0A3.873,3.873,0,1,1,-3.873,0A3.873,3.873,0,1,1,3.873,0" fill="#3F00FF" stroke-width="2" opacity="0.7"/><path aria-label="Instagram Reels View Count: 0; Youtube Shorts View Count: 0.00619601952685" role="graphics-symbol" aria-roledescription="circle" transform="translate(0,298.14119414194516)" d="M3.873,0A3.873,3.873,0,1,1,-3.873,0A3.873,3.873,0,1,1,3.873,0" fill="#3F00FF" stroke-width="2" opacity="0.7"/><path aria-label="Instagram Reels View Count: 0.0103595368678; Youtube Shorts View Count: 0.00300413067968" role="graphics-symbol" aria-roledescription="circle" transform="translate(3.1078610603290673,299.09876079609467)" d="M3.873,0A3.873,3.873,0,1,1,-3.873,0A3.873,3.873,0,1,1,3.873,0" fill="#3F00FF" stroke-width="2" opacity="0.7"/><path aria-label="Instagram Reels View Count: 0.0257160268129; Youtube Shorts View Count: 0.466579046189" role="graphics-symbol" aria-roledescription="circle" transform="translate(7.714808043875685,160.02628614344727)" d="M3.873,0A3.873,3.873,0,1,1,-3.873,0A3.873,3.873,0,1,1,3.873,0" fill="#3F00FF" stroke-width="2" opacity="0.7"/><path aria-label="Instagram Reels View Count: 0.0976234003656; Youtube Shorts View Count: 0.00262861434472" role="graphics-symbol" aria-roledescription="circle" transform="translate(29.287020109689212,299.21141569658283)" d="M3.873,0A3.873,3.873,0,1,1,-3.873,0A3.873,3.873,0,1,1,3.873,0" fill="#3F00FF" stroke-width="2" opacity="0.7"/><path aria-label="Instagram Reels View Count: 0.0978671541743; Youtube Shorts View Count: 0.0176492677431" role="graphics-symbol" aria-roledescription="circle" transform="translate(29.360146252285187,294.70521967705594)" d="M3.873,0A3.873,3.873,0,1,1,-3.873,0A3.873,3.873,0,1,1,3.873,0" fill="#3F00FF" stroke-width="2" opacity="0.7"/><path aria-label="Instagram Reels View Count: 0.024253503961; Youtube Shorts View Count: 0.0161472024033" role="graphics-symbol" aria-roledescription="circle" transform="translate(7.2760511882998165,295.1558392790086)" d="M3.873,0A3.873,3.873,0,1,1,-3.873,0A3.873,3.873,0,1,1,3.873,0" fill="#3F00FF" stroke-width="2" opacity="0.7"/><path aria-label="Instagram Reels View Count: 0.030956733699; Youtube Shorts View Count: 0.00150206533984" role="graphics-symbol" aria-roledescription="circle" transform="translate(9.287020109689214,299.54938039804733)" d="M3.873,0A3.873,3.873,0,1,1,-3.873,0A3.873,3.873,0,1,1,3.873,0" fill="#3F00FF" stroke-width="2" opacity="0.7"/><path aria-label="Instagram Reels View Count: 0.0018281535649; Youtube Shorts View Count: 0.152647390161" role="graphics-symbol" aria-roledescription="circle" transform="translate(0.5484460694698353,254.2057829515584)" d="M3.873,0A3.873,3.873,0,1,1,-3.873,0A3.873,3.873,0,1,1,3.873,0" fill="#3F00FF" stroke-width="2" opacity="0.7"/><path aria-label="Instagram Reels View Count: 0.0404631322364; Youtube Shorts View Count: 0.0538865940668" role="graphics-symbol" aria-roledescription="circle" transform="translate(12.138939670932357,283.8340217799474)" d="M3.873,0A3.873,3.873,0,1,1,-3.873,0A3.873,3.873,0,1,1,3.873,0" fill="#3F00FF" stroke-width="2" opacity="0.7"/><path aria-label="Instagram Reels View Count: 0.0018281535649; Youtube Shorts View Count: 0.475028163725" role="graphics-symbol" aria-roledescription="circle" transform="translate(0.5484460694698353,157.4915508824634)" d="M3.873,0A3.873,3.873,0,1,1,-3.873,0A3.873,3.873,0,1,1,3.873,0" fill="#3F00FF" stroke-width="2" opacity="0.7"/><path aria-label="Instagram Reels View Count: 0.000487507617307; Youtube Shorts View Count: 0.138190011265" role="graphics-symbol" aria-roledescription="circle" transform="translate(0.146252285191956,258.542996620353)" d="M3.873,0A3.873,3.873,0,1,1,-3.873,0A3.873,3.873,0,1,1,3.873,0" fill="#3F00FF" stroke-width="2" opacity="0.7"/><path aria-label="Instagram Reels View Count: 0.0531383302864; Youtube Shorts View Count: 0.106083364626" role="graphics-symbol" aria-roledescription="circle" transform="translate(15.941499085923216,268.1749906120916)" d="M3.873,0A3.873,3.873,0,1,1,-3.873,0A3.873,3.873,0,1,1,3.873,0" fill="#3F00FF" stroke-width="2" opacity="0.7"/></g><g class="mark-group role-title"><g transform="translate(150,-22)"><path class="background" aria-hidden="true" d="M0,0h0v0h0Z" pointer-events="none"/><g><g class="mark-text role-title-text" role="graphics-symbol" aria-roledescription="title" aria-label="Title text 'View counts on Youtube against Instagram (Scaled II)'" pointer-events="none"><text text-anchor="middle" transform="translate(0,10)" font-family="sans-serif" font-size="13px" font-weight="bold" fill="#000" opacity="1">View counts on Youtube against Instagram (Scaled II)</text></g></g><path class="foreground" aria-hidden="true" d="" pointer-events="none" display="none"/></g></g></g><path class="foreground" aria-hidden="true" d="" display="none"/></g></g></g><defs><clipPath id="clip13"><rect x="0" y="0" width="300" height="300"/></clipPath></defs></svg>