<svg xmlns="http://www.w3.org/2000/svg" xmlns:xlink="http://www.w3.org/1999/xlink" version="1.1" class="marks" width="350" height="364" viewBox="0 0 350 364"><rect width="350" height="364" fill="white"/><g fill="none" stroke-miterlimit="10" transform="translate(44,27)"><g class="mark-group role-frame root" role="graphics-object" aria-roledescription="group mark container"><g transform="translate(0,0)"><path class="background" aria-hidden="true" d="M0.5,0.5h300v300h-300Z" stroke="#ddd"/><g><g class="mark-group role-axis" aria-hidden="true"><g transform="translate(0.5,300.5)"><path class="background" aria-hidden="true" d="M0,0h0v0h0Z" pointer-events="none"/><g><g class="mark-rule role-axis-grid" pointer-events="none"><line transform="translate(0,-300)" x2="0" y2="300" stroke="#ddd" stroke-width="1" opacity="1"/><line transform="translate(27,-300)" x2="0" y2="300" stroke="#ddd" stroke-width="1" opacity="1"/><line transform="translate(55,-300)" x2="0" y2="300" stroke="#ddd" stroke-width="1" opacity="1"/><line transform="translate(82,-300)" x2="0" y2="300" stroke="#ddd" stroke-width="1" opacity="1"/><line transform="translate(109,-300)" x2="0" y2="300" stroke="#ddd" stroke-width="1" opacity="1"/><line transform="translate(136,-300)" x2="0" y2="300" stroke="#ddd" stroke-width="1" opacity="1"/><line transform="translate(164,-300)" x2="0" y2="300" stroke="#ddd" stroke-width="1" opacity="1"/><line transform="translate(191,-300)" x2="0" y2="300" stroke="#ddd" stroke-width="1" opacity="1"/><line transform="translate(218,-300)" x2="0" y2="300" stroke="#ddd" stroke-width="1" opacity="1"/><line transform="translate(245,-300)" x2="0" y2="300" stroke="#ddd" stroke-width="1" opacity="1"/><line transform="translate(273,-300)" x2="0" y2="300" stroke="#ddd" stroke-width="1" opacity="1"/><line transform="translate(300,-300)" x2="0" y2="300" stroke="#ddd" stroke-width="1" opacity="1"/></g></g><path class="foreground" aria-hidden="true" d="" pointer-events="none" display="none"/></g></g><g class="mark-group role-axis" aria-hidden="true"><g transform="translate(0.5,0.5)"><path class="background" aria-hidden="true" d="M0,0h0v0h0Z" pointer-events="none"/><g><g class="mark-rule role-axis-grid" pointer-events="none"><line transform="translate(0,300)" x2="300" y2="0" stroke="#ddd" stroke-width="1" opacity="1"/><line transform="translate(0,273)" x2="300" y2="0" stroke="#ddd" stroke-width="1" opacity="1"/><line transform="translate(0,245)" x2="300" y2="0" stroke="#ddd" stroke-width="1" opacity="1"/><line transform="translate(0,218)" x2="300" y2="0" stroke="#ddd" stroke-width="1" opacity="1"/><line transform="translate(0,191)" x2="300" y2="0" stroke="#ddd" stroke-width="1" opacity="1"/><line transform="translate(0,164)" x2="300" y2="0" stroke="#ddd" stroke-width="1" opacity="1"/><line transform="translate(0,136)" x2="300" y2="0" stroke="#ddd" stroke-width="1" opacity="1"/><line transform="translate(0,109)" x2="300" y2="0" stroke="#ddd" stroke-width="1" opacity="1"/><line transform="translate(0,82)" x2="300" y2="0" stroke="#ddd" stroke-width="1" opacity="1"/><line transform="translate(0,55)" x2="300" y2="0" stroke="#ddd" stroke-width="1" opacity="1"/><line transform="translate(0,27)" x2="300" y2="0" stroke="#ddd" stroke-width="1" opacity="1"/><line transform="translate(0,0)" x2="300" y2="0" stroke="#ddd" stroke-width="1" opacity="1"/></g></g><path class="foreground" aria-hidden="true" d="" pointer-events="none" display="none"/></g></g><g class="mark-group role-axis" role="graphics-symbol" aria-roledescription="axis" aria-label="X-axis titled 'Instagram Reels Like Count' for a linear scale with values from 0 to 1,100"><g transform="translate(0.5,300.5)"><path class="background" aria-hidden="true" d="M0,0h0v0h0Z" pointer-events="none"/><g><g class="mark-rule role-axis-tick" pointer-events="none"><line transform="translate(0,0)" x2="0" y2="5" stroke="#888" stroke-width="1" opacity="1"/><line transform="translate(27,0)" x2="0" y2="5" stroke="#888" stroke-width="1" opacity="1"/><line transform="translate(55,0)" x2="0" y2="5" stroke="#888" stroke-width="1" opacity="1"/><line transform="translate(82,0)" x2="0" y2="5" stroke="#888" stroke-width="1" opacity="1"/><line transform="translate(109,0)" x2="0" y2="5" stroke="#888" stroke-width="1" opacity="1"/><line transform="translate(136,0)" x2="0" y2="5" stroke="#888" stroke-width="1" opacity="1"/><line transform="translate(164,0)" x2="0" y2="5" stroke="#888" stroke-width="1" opacity="1"/><line transform="translate(191,0)" x2="0" y2="5" stroke="#888" stroke-width="1" opacity="1"/><line transform="translate(218,0)" x2="0" y2="5" stroke="#888" stroke-width="1" opacity="1"/><line transform="translate(245,0)" x2="0" y2="5" stroke="#888" stroke-width="1" opacity="1"/><line transform="translate(273,0)" x2="0" y2="5" stroke="#888" stroke-width="1" opacity="1"/><line transform="translate(300,0)" x2="0" y2="5" stroke="#888" stroke-width="1" opacity="1"/></g><g class="mark-text role-axis-label" pointer-events="none"><text text-anchor="start" transform="translate(0,15)" font-family="sans-serif" font-size="10px" fill="#000" opacity="1">0</text><text text-anchor="middle" transform="translate(27.272727272727273,15)" font-family="sans-serif" font-size="10px" fill="#000" opacity="0">100</text><text text-anchor="middle" transform="translate(54.54545454545455,15)" font-family="sans-serif" font-size="10px" fill="#000" opacity="1">200</text><text text-anchor="middle" transform="translate(81.81818181818181,15)" font-family="sans-serif" font-size="10px" fill="#000" opacity="0">300</text><text text-anchor="middle" transform="translate(109.0909090909091,15)" font-family="sans-serif" font-size="10px" fill="#000" opacity="1">400</text><text text-anchor="middle" transform="translate(136.36363636363635,15)" font-family="sans-serif" font-size="10px" fill="#000" opacity="0">500</text><text text-anchor="middle" transform="translate(163.63636363636363,15)" font-family="sans-serif" font-size="10px" fill="#000" opacity="1">600</text><text text-anchor="middle" transform="translate(190.9090909090909,15)" font-family="sans-serif" font-size="10px" fill="#000" opacity="0">700</text><text text-anchor="middle" transform="translate(218.1818181818182,15)" font-family="sans-serif" font-size="10px" fill="#000" opacity="1">800</text><text text-anchor="middle" transform="translate(245.45454545454547,15)" font-family="sans-serif" font-size="10px" fill="#000" opacity="0">900</text><text text-anchor="middle" transform="translate(272.7272727272727,15)" font-family="sans-serif" font-size="10px" fill="#000" opacity="1">1,000</text><text text-anchor="end" transform="translate(300,15)" font-family="sans-serif" font-size="10px" fill="#000" opacity="0">1,100</text></g><g class="mark-rule role-axis-domain" pointer-events="none"><line transform="translate(0,0)" x2="300" y2="0" stroke="#888" stroke-width="1" opacity="1"/></g><g class="mark-text role-axis-title" pointer-events="none"><text text-anchor="middle" transform="translate(150,30)" font-family="sans-serif" font-size="11px" font-weight="bold" fill="#000" opacity="1">Instagram Reels Like Count</text></g></g><path class="foreground" aria-hidden="true" d="" pointer-events="none" display="none"/></g></g><g class="mark-group role-axis" role="graphics-symbol" aria-roledescription="axis" aria-label="Y-axis titled 'Youtube Shorts Like Count' for a linear scale with values from 0 to 220"><g transform="translate(0.5,0.5)"><path class="background" aria-hidden="true" d="M0,0h0v0h0Z" pointer-events="none"/><g><g class="mark-rule role-axis-tick" pointer-events="none"><line transform="translate(0,300)" x2="-5" y2="0" stroke="#888" stroke-width="1" opacity="1"/><line transform="translate(0,273)" x2="-5" y2="0" stroke="#888" stroke-width="1" opacity="1"/><line transform="translate(0,245)" x2="-5" y2="0" stroke="#888" stroke-width="1" opacity="1"/><line transform="translate(0,218)" x2="-5" y2="0" stroke="#888" stroke-width="1" opacity="1"/><line transform="translate(0,191)" x2="-5" y2="0" stroke="#888" stroke-width="1" opacity="1"/><line transform="translate(0,164)" x2="-5" y2="0" stroke="#888" stroke-width="1" opacity="1"/><line transform="translate(0,136)" x2="-5" y2="0" stroke="#888" stroke-width="1" opacity="1"/><line transform="translate(0,109)" x2="-5" y2="0" stroke="#888" stroke-width="1" opacity="1"/><line transform="translate(0,82)" x2="-5" y2="0" stroke="#888" stroke-width="1" opacity="1"/><line transform="translate(0,55)" x2="-5" y2="0" stroke="#888" stroke-width="1" opacity="1"/><line transform="translate(0,27)" x2="-5" y2="0" stroke="#888" stroke-width="1" opacity="1"/><line transform="translate(0,0)" x2="-5" y2="0" stroke="#888" stroke-width="1" opacity="1"/></g><g class="mark-text role-axis-label" pointer-events="none"><text text-anchor="end" transform="translate(-7,303)" font-family="sans-serif" font-size="10px" fill="#000" opacity="1">0</text><text text-anchor="end" transform="translate(-7,275.7272727272727)" font-family="sans-serif" font-size="10px" fill="#000" opacity="1">20</text><text text-anchor="end" transform="translate(-7,248.45454545454544)" font-family="sans-serif" font-size="10px" fill="#000" opacity="1">40</text><text text-anchor="end" transform="translate(-7,221.1818181818182)" font-family="sans-serif" font-size="10px" fill="#000" opacity="1">60</text><text text-anchor="end" transform="translate(-7,193.9090909090909)" font-family="sans-serif" font-size="10px" fill="#000" opacity="1">80</text><text text-anchor="end" transform="translate(-7,166.63636363636363)" font-family="sans-serif" font-size="10px" fill="#000" opacity="1">100</text><text text-anchor="end" transform="translate(-7,139.36363636363637)" font-family="sans-serif" font-size="10px" fill="#000" opacity="1">120</text><text text-anchor="end" transform="translate(-7,112.0909090909091)" font-family="sans-serif" font-size="10px" fill="#000" opacity="1">140</text><text text-anchor="end" transform="translate(-7,84.81818181818181)" font-family="sans-serif" font-size="10px" fill="#000" opacity="1">160</text><text text-anchor="end" transform="translate(-7,57.54545454545453)" font-family="sans-serif" font-size="10px" fill="#000" opacity="1">180</text><text text-anchor="end" transform="translate(-7,30.27272727272728)" font-family="sans-serif" font-size="10px" fill="#000" opacity="1">200</text><text text-anchor="end" transform="translate(-7,3)" font-family="sans-serif" font-size="10px" fill="#000" opacity="1">220</text></g><g class="mark-rule role-axis-domain" pointer-events="none"><line transform="translate(0,300)" x2="0" y2="-300" stroke="#888" stroke-width="1" opacity="1"/></g><g class="mark-text role-axis-title" pointer-events="none"><text text-anchor="middle" transform="translate(-27.6845703125,150) rotate(-90) translate(0,-2)" font-family="sans-serif" font-size="11px" font-weight="bold" fill="#000" opacity="1">Youtube Shorts Like Count</text></g></g><path class="foreground" aria-hidden="true" d="" pointer-events="none" display="none"/></g></g><g class="mark-symbol role-mark marks" clip-path="url(#clip17)" role="graphics-object" aria-roledescription="symbol mark container"><path aria-label="Instagram Reels Like Count: 298; Youtube Shorts Like Count: 10" role="graphics-symbol" aria-roledescription="circle" transform="translate(81.27272727272728,286.3636363636364)" d="M3.873,0A3.873,3.873,0,1,1,-3.873,0A3.873,3.873,0,1,1,3.873,0" fill="#097969" stroke-width="2" opacity="0.7"/><path aria-label="Instagram Reels Like Count: 271; Youtube Shorts Like Count: 15" role="graphics-symbol" aria-roledescription="circle" transform="translate(73.9090909090909,279.54545454545456)" d="M3.873,0A3.873,3.873,0,1,1,-3.873,0A3.873,3.873,0,1,1,3.873,0" fill="#097969" stroke-width="2" opacity="0.7"/><path aria-label="Instagram Reels Like Count: 44; Youtube Shorts Like Count: 18" role="graphics-symbol" aria-roledescription="circle" transform="translate(12,275.45454545454544)" d="M3.873,0A3.873,3.873,0,1,1,-3.873,0A3.873,3.873,0,1,1,3.873,0" fill="#097969" stroke-width="2" opacity="0.7"/><path aria-label="Instagram Reels Like Count: 203; Youtube Shorts Like Count: 156" role="graphics-symbol" aria-roledescription="circle" transform="translate(55.36363636363636,87.27272727272727)" d="M3.873,0A3.873,3.873,0,1,1,-3.873,0A3.873,3.873,0,1,1,3.873,0" fill="#097969" stroke-width="2" opacity="0.7"/><path aria-label="Instagram Reels Like Count: 149; Youtube Shorts Like Count: 11" role="graphics-symbol" aria-roledescription="circle" transform="translate(40.63636363636364,285)" d="M3.873,0A3.873,3.873,0,1,1,-3.873,0A3.873,3.873,0,1,1,3.873,0" fill="#097969" stroke-width="2" opacity="0.7"/><path aria-label="Instagram Reels Like Count: 107; Youtube Shorts Like Count: 2" role="graphics-symbol" aria-roledescription="circle" transform="translate(29.181818181818183,297.2727272727273)" d="M3.873,0A3.873,3.873,0,1,1,-3.873,0A3.873,3.873,0,1,1,3.873,0" fill="#097969" stroke-width="2" opacity="0.7"/><path aria-label="Instagram Reels Like Count: 202; Youtube Shorts Like Count: 91" role="graphics-symbol" aria-roledescription="circle" transform="translate(55.090909090909086,175.90909090909093)" d="M3.873,0A3.873,3.873,0,1,1,-3.873,0A3.873,3.873,0,1,1,3.873,0" fill="#097969" stroke-width="2" opacity="0.7"/><path aria-label="Instagram Reels Like Count: 229; Youtube Shorts Like Count: 0" role="graphics-symbol" aria-roledescription="circle" transform="translate(62.45454545454546,300)" d="M3.873,0A3.873,3.873,0,1,1,-3.873,0A3.873,3.873,0,1,1,3.873,0" fill="#097969" stroke-width="2" opacity="0.7"/><path aria-label="Instagram Reels Like Count: 15; Youtube Shorts Like Count: 207" role="graphics-symbol" aria-roledescription="circle" transform="translate(4.090909090909091,17.727272727272727)" d="M3.873,0A3.873,3.873,0,1,1,-3.873,0A3.873,3.873,0,1,1,3.873,0" fill="#097969" stroke-width="2" opacity="0.7"/><path aria-label="Instagram Reels Like Count: 40; Youtube Shorts Like Count: 35" role="graphics-symbol" aria-roledescription="circle" transform="translate(10.909090909090908,252.27272727272728)" d="M3.873,0A3.873,3.873,0,1,1,-3.873,0A3.873,3.873,0,1,1,3.873,0" fill="#097969" stroke-width="2" opacity="0.7"/><path aria-label="Instagram Reels Like Count: 15; Youtube Shorts Like Count: 5" role="graphics-symbol" aria-roledescription="circle" transform="translate(4.090909090909091,293.1818181818182)" d="M3.873,0A3.873,3.873,0,1,1,-3.873,0A3.873,3.873,0,1,1,3.873,0" fill="#097969" stroke-width="2" opacity="0.7"/><path aria-label="Instagram Reels Like Count: 24; Youtube Shorts Like Count: 20" role="graphics-symbol" aria-roledescription="circle" transform="translate(6.545454545454546,272.7272727272727)" d="M3.873,0A3.873,3.873,0,1,1,-3.873,0A3.873,3.873,0,1,1,3.873,0" fill="#097969" stroke-width="2" opacity="0.7"/><path aria-label="Instagram Reels Like Count: 16; Youtube Shorts Like Count: 10" role="graphics-symbol" aria-roledescription="circle" transform="translate(4.363636363636363,286.3636363636364)" d="M3.873,0A3.873,3.873,0,1,1,-3.873,0A3.873,3.873,0,1,1,3.873,0" fill="#097969" stroke-width="2" opacity="0.7"/><path aria-label="Instagram Reels Like Count: 21; Youtube Shorts Like Count: 1" role="graphics-symbol" aria-roledescription="circle" transform="translate(5.7272727272727275,298.6363636363636)" d="M3.873,0A3.873,3.873,0,1,1,-3.873,0A3.873,3.873,0,1,1,3.873,0" fill="#097969" stroke-width="2" opacity="0.7"/><path aria-label="Instagram Reels Like Count: 12; Youtube Shorts Like Count: 46" role="graphics-symbol" aria-roledescription="circle" transform="translate(3.272727272727273,237.27272727272728)" d="M3.873,0A3.873,3.873,0,1,1,-3.873,0A3.873,3.873,0,1,1,3.873,0" fill="#097969" stroke-width="2" opacity="0.7"/><path aria-label="Instagram Reels Like Count: 178; Youtube Shorts Like Count: 22" role="graphics-symbol" aria-roledescription="circle" transform="translate(48.54545454545454,270)" d="M3.873,0A3.873,3.873,0,1,1,-3.873,0A3.873,3.873,0,1,1,3.873,0" fill="#097969" stroke-width="2" opacity="0.7"/><path aria-label="Instagram Reels Like Count: 70; Youtube Shorts Like Count: 7" role="graphics-symbol" aria-roledescription="circle" transform="translate(19.09090909090909,290.45454545454544)" d="M3.873,0A3.873,3.873,0,1,1,-3.873,0A3.873,3.873,0,1,1,3.873,0" fill="#097969" stroke-width="2" opacity="0.7"/><path aria-label="Instagram Reels Like Count: 1062; Youtube Shorts Like Count: 9" role="graphics-symbol" aria-roledescription="circle" transform="translate(289.6363636363636,287.72727272727275)" d="M3.873,0A3.873,3.873,0,1,1,-3.873,0A3.873,3.873,0,1,1,3.873,0" fill="#097969" stroke-width="2" opacity="0.7"/><path aria-label="Instagram Reels Like Count: 15; Youtube Shorts Like Count: 2" role="graphics-symbol" aria-roledescription="circle" transform="translate(4.090909090909091,297.2727272727273)" d="M3.873,0A3.873,3.873,0,1,1,-3.873,0A3.873,3.873,0,1,1,3.873,0" fill="#097969" stroke-width="2" opacity="0.7"/><path aria-label="Instagram Reels Like Count: 342; Youtube Shorts Like Count: 1" role="graphics-symbol" aria-roledescription="circle" transform="translate(93.27272727272728,298.6363636363636)" d="M3.873,0A3.873,3.873,0,1,1,-3.873,0A3.873,3.873,0,1,1,3.873,0" fill="#097969" stroke-width="2" opacity="0.7"/><path aria-label="Instagram Reels Like Count: 54; Youtube Shorts Like Count: 0" role="graphics-symbol" aria-roledescription="circle" transform="translate(14.727272727272727,300)" d="M3.873,0A3.873,3.873,0,1,1,-3.873,0A3.873,3.873,0,1,1,3.873,0" fill="#097969" stroke-width="2" opacity="0.7"/><path aria-label="Instagram Reels Like Count: 272; Youtube Shorts Like Count: 0" role="graphics-symbol" aria-roledescription="circle" transform="translate(74.18181818181819,300)" d="M3.873,0A3.873,3.873,0,1,1,-3.873,0A3.873,3.873,0,1,1,3.873,0" fill="#097969" stroke-width="2" opacity="0.7"/><path aria-label="Instagram Reels Like Count: 23; Youtube Shorts Like Count: 106" role="graphics-symbol" aria-roledescription="circle" transform="translate(6.2727272727272725,155.45454545454547)" d="M3.873,0A3.873,3.873,0,1,1,-3.873,0A3.873,3.873,0,1,1,3.873,0" fill="#097969" stroke-width="2" opacity="0.7"/><path aria-label="Instagram Reels Like Count: 9; Youtube Shorts Like Count: 1" role="graphics-symbol" aria-roledescription="circle" transform="translate(2.4545454545454546,298.6363636363636)" d="M3.873,0A3.873,3.873,0,1,1,-3.873,0A3.873,3.873,0,1,1,3.873,0" fill="#097969" stroke-width="2" opacity="0.7"/><path aria-label="Instagram Reels Like Count: 50; Youtube Shorts Like Count: 2" role="graphics-symbol" aria-roledescription="circle" transform="translate(13.636363636363637,297.2727272727273)" d="M3.873,0A3.873,3.873,0,1,1,-3.873,0A3.873,3.873,0,1,1,3.873,0" fill="#097969" stroke-width="2" opacity="0.7"/><path aria-label="Instagram Reels Like Count: 53; Youtube Shorts Like Count: 136" role="graphics-symbol" aria-roledescription="circle" transform="translate(14.454545454545453,114.54545454545455)" d="M3.873,0A3.873,3.873,0,1,1,-3.873,0A3.873,3.873,0,1,1,3.873,0" fill="#097969" stroke-width="2" opacity="0.7"/><path aria-label="Instagram Reels Like Count: 169; Youtube Shorts Like Count: 3" role="graphics-symbol" aria-roledescription="circle" transform="translate(46.090909090909086,295.9090909090909)" d="M3.873,0A3.873,3.873,0,1,1,-3.873,0A3.873,3.873,0,1,1,3.873,0" fill="#097969" stroke-width="2" opacity="0.7"/><path aria-label="Instagram Reels Like Count: 222; Youtube Shorts Like Count: 5" role="graphics-symbol" aria-roledescription="circle" transform="translate(60.54545454545455,293.1818181818182)" d="M3.873,0A3.873,3.873,0,1,1,-3.873,0A3.873,3.873,0,1,1,3.873,0" fill="#097969" stroke-width="2" opacity="0.7"/><path aria-label="Instagram Reels Like Count: 47; Youtube Shorts Like Count: 3" role="graphics-symbol" aria-roledescription="circle" transform="translate(12.818181818181817,295.9090909090909)" d="M3.873,0A3.873,3.873,0,1,1,-3.873,0A3.873,3.873,0,1,1,3.873,0" fill="#097969" stroke-width="2" opacity="0.7"/><path aria-label="Instagram Reels Like Count: 54; Youtube Shorts Like Count: 1" role="graphics-symbol" aria-roledescription="circle" transform="translate(14.727272727272727,298.6363636363636)" d="M3.873,0A3.873,3.873,0,1,1,-3.873,0A3.873,3.873,0,1,1,3.873,0" fill="#097969" stroke-width="2" opacity="0.7"/><path aria-label="Instagram Reels Like Count: 15; Youtube Shorts Like Count: 35" role="graphics-symbol" aria-roledescription="circle" transform="translate(4.090909090909091,252.27272727272728)" d="M3.873,0A3.873,3.873,0,1,1,-3.873,0A3.873,3.873,0,1,1,3.873,0" fill="#097969" stroke-width="2" opacity="0.7"/><path aria-label="Instagram Reels Like Count: 102; Youtube Shorts Like Count: 15" role="graphics-symbol" aria-roledescription="circle" transform="translate(27.818181818181817,279.54545454545456)" d="M3.873,0A3.873,3.873,0,1,1,-3.873,0A3.873,3.873,0,1,1,3.873,0" fill="#097969" stroke-width="2" opacity="0.7"/><path aria-label="Instagram Reels Like Count: 14; Youtube Shorts Like Count: 43" role="graphics-symbol" aria-roledescription="circle" transform="translate(3.8181818181818183,241.36363636363637)" d="M3.873,0A3.873,3.873,0,1,1,-3.873,0A3.873,3.873,0,1,1,3.873,0" fill="#097969" stroke-width="2" opacity="0.7"/><path aria-label="Instagram Reels Like Count: 12; Youtube Shorts Like Count: 27" role="graphics-symbol" aria-roledescription="circle" transform="translate(3.272727272727273,263.1818181818182)" d="M3.873,0A3.873,3.873,0,1,1,-3.873,0A3.873,3.873,0,1,1,3.873,0" fill="#097969" stroke-width="2" opacity="0.7"/><path aria-label="Instagram Reels Like Count: 136; Youtube Shorts Like Count: 10" role="graphics-symbol" aria-roledescription="circle" transform="translate(37.09090909090909,286.3636363636364)" d="M3.873,0A3.873,3.873,0,1,1,-3.873,0A3.873,3.873,0,1,1,3.873,0" fill="#097969" stroke-width="2" opacity="0.7"/></g><g class="mark-group role-title"><g transform="translate(150,-22)"><path class="background" aria-hidden="true" d="M0,0h0v0h0Z" pointer-events="none"/><g><g class="mark-text role-title-text" role="graphics-symbol" aria-roledescription="title" aria-label="Title text 'Like counts on Youtube against Instagram'" pointer-events="none"><text text-anchor="middle" transform="translate(0,10)" font-family="sans-serif" font-size="13px" font-weight="bold" fill="#000" opacity="1">Like counts on Youtube against Instagram</text></g></g><path class="foreground" aria-hidden="true" d="" pointer-events="none" display="none"/></g></g></g><path class="foreground" aria-hidden="true" d="" display="none"/></g></g></g><defs><clipPath id="clip17"><rect x="0" y="0" width="300" height="300"/></clipPath></defs></svg>