<svg xmlns="http://www.w3.org/2000/svg" xmlns:xlink="http://www.w3.org/1999/xlink" version="1.1" class="marks" width="359" height="364" viewBox="0 0 359 364"><rect width="359" height="364" fill="white"/><g fill="none" stroke-miterlimit="10" transform="translate(53,27)"><g class="mark-group role-frame root" role="graphics-object" aria-roledescription="group mark container"><g transform="translate(0,0)"><path class="background" aria-hidden="true" d="M0.5,0.5h300v300h-300Z" stroke="#ddd"/><g><g class="mark-group role-axis" aria-hidden="true"><g transform="translate(0.5,300.5)"><path class="background" aria-hidden="true" d="M0,0h0v0h0Z" pointer-events="none"/><g><g class="mark-rule role-axis-grid" pointer-events="none"><line transform="translate(0,-300)" x2="0" y2="300" stroke="#ddd" stroke-width="1" opacity="1"/><line transform="translate(33,-300)" x2="0" y2="300" stroke="#ddd" stroke-width="1" opacity="1"/><line transform="translate(67,-300)" x2="0" y2="300" stroke="#ddd" stroke-width="1" opacity="1"/><line transform="translate(100,-300)" x2="0" y2="300" stroke="#ddd" stroke-width="1" opacity="1"/><line transform="translate(133,-300)" x2="0" y2="300" stroke="#ddd" stroke-width="1" opacity="1"/><line transform="translate(167,-300)" x2="0" y2="300" stroke="#ddd" stroke-width="1" opacity="1"/><line transform="translate(200,-300)" x2="0" y2="300" stroke="#ddd" stroke-width="1" opacity="1"/><line transform="translate(233,-300)" x2="0" y2="300" stroke="#ddd" stroke-width="1" opacity="1"/><line transform="translate(267,-300)" x2="0" y2="300" stroke="#ddd" stroke-width="1" opacity="1"/><line transform="translate(300,-300)" x2="0" y2="300" stroke="#ddd" stroke-width="1" opacity="1"/></g></g><path class="foreground" aria-hidden="true" d="" pointer-events="none" display="none"/></g></g><g class="mark-group role-axis" aria-hidden="true"><g transform="translate(0.5,0.5)"><path class="background" aria-hidden="true" d="M0,0h0v0h0Z" pointer-events="none"/><g><g class="mark-rule role-axis-grid" pointer-events="none"><line transform="translate(0,300)" x2="300" y2="0" stroke="#ddd" stroke-width="1" opacity="1"/><line transform="translate(0,273)" x2="300" y2="0" stroke="#ddd" stroke-width="1" opacity="1"/><line transform="translate(0,245)" x2="300" y2="0" stroke="#ddd" stroke-width="1" opacity="1"/><line transform="translate(0,218)" x2="300" y2="0" stroke="#ddd" stroke-width="1" opacity="1"/><line transform="translate(0,191)" x2="300" y2="0" stroke="#ddd" stroke-width="1" opacity="1"/><line transform="translate(0,164)" x2="300" y2="0" stroke="#ddd" stroke-width="1" opacity="1"/><line transform="translate(0,136)" x2="300" y2="0" stroke="#ddd" stroke-width="1" opacity="1"/><line transform="translate(0,109)" x2="300" y2="0" stroke="#ddd" stroke-width="1" opacity="1"/><line transform="translate(0,82)" x2="300" y2="0" stroke="#ddd" stroke-width="1" opacity="1"/><line transform="translate(0,55)" x2="300" y2="0" stroke="#ddd" stroke-width="1" opacity="1"/><line transform="translate(0,27)" x2="300" y2="0" stroke="#ddd" stroke-width="1" opacity="1"/><line transform="translate(0,0)" x2="300" y2="0" stroke="#ddd" stroke-width="1" opacity="1"/></g></g><path class="foreground" aria-hidden="true" d="" pointer-events="none" display="none"/></g></g><g class="mark-group role-axis" role="graphics-symbol" aria-roledescription="axis" aria-label="X-axis titled 'Instagram Reels View Count' for a linear scale with values from 0 to 9,000"><g transform="translate(0.5,300.5)"><path class="background" aria-hidden="true" d="M0,0h0v0h0Z" pointer-events="none"/><g><g class="mark-rule role-axis-tick" pointer-events="none"><line transform="translate(0,0)" x2="0" y2="5" stroke="#888" stroke-width="1" opacity="1"/><line transform="translate(33,0)" x2="0" y2="5" stroke="#888" stroke-width="1" opacity="1"/><line transform="translate(67,0)" x2="0" y2="5" stroke="#888" stroke-width="1" opacity="1"/><line transform="translate(100,0)" x2="0" y2="5" stroke="#888" stroke-width="1" opacity="1"/><line transform="translate(133,0)" x2="0" y2="5" stroke="#888" stroke-width="1" opacity="1"/><line transform="translate(167,0)" x2="0" y2="5" stroke="#888" stroke-width="1" opacity="1"/><line transform="translate(200,0)" x2="0" y2="5" stroke="#888" stroke-width="1" opacity="1"/><line transform="translate(233,0)" x2="0" y2="5" stroke="#888" stroke-width="1" opacity="1"/><line transform="translate(267,0)" x2="0" y2="5" stroke="#888" stroke-width="1" opacity="1"/><line transform="translate(300,0)" x2="0" y2="5" stroke="#888" stroke-width="1" opacity="1"/></g><g class="mark-text role-axis-label" pointer-events="none"><text text-anchor="start" transform="translate(0,15)" font-family="sans-serif" font-size="10px" fill="#000" opacity="1">0</text><text text-anchor="middle" transform="translate(33.33333333333333,15)" font-family="sans-serif" font-size="10px" fill="#000" opacity="0">1,000</text><text text-anchor="middle" transform="translate(66.66666666666666,15)" font-family="sans-serif" font-size="10px" fill="#000" opacity="1">2,000</text><text text-anchor="middle" transform="translate(100,15)" font-family="sans-serif" font-size="10px" fill="#000" opacity="0">3,000</text><text text-anchor="middle" transform="translate(133.33333333333331,15)" font-family="sans-serif" font-size="10px" fill="#000" opacity="1">4,000</text><text text-anchor="middle" transform="translate(166.66666666666669,15)" font-family="sans-serif" font-size="10px" fill="#000" opacity="0">5,000</text><text text-anchor="middle" transform="translate(200,15)" font-family="sans-serif" font-size="10px" fill="#000" opacity="1">6,000</text><text text-anchor="middle" transform="translate(233.33333333333334,15)" font-family="sans-serif" font-size="10px" fill="#000" opacity="0">7,000</text><text text-anchor="middle" transform="translate(266.66666666666663,15)" font-family="sans-serif" font-size="10px" fill="#000" opacity="1">8,000</text><text text-anchor="end" transform="translate(300,15)" font-family="sans-serif" font-size="10px" fill="#000" opacity="0">9,000</text></g><g class="mark-rule role-axis-domain" pointer-events="none"><line transform="translate(0,0)" x2="300" y2="0" stroke="#888" stroke-width="1" opacity="1"/></g><g class="mark-text role-axis-title" pointer-events="none"><text text-anchor="middle" transform="translate(150,30)" font-family="sans-serif" font-size="11px" font-weight="bold" fill="#000" opacity="1">Instagram Reels View Count</text></g></g><path class="foreground" aria-hidden="true" d="" pointer-events="none" display="none"/></g></g><g class="mark-group role-axis" role="graphics-symbol" aria-roledescription="axis" aria-label="Y-axis titled 'Youtube Shorts View Count' for a linear scale with values from 0 to 5,500"><g transform="translate(0.5,0.5)"><path class="background" aria-hidden="true" d="M0,0h0v0h0Z" pointer-events="none"/><g><g class="mark-rule role-axis-tick" pointer-events="none"><line transform="translate(0,300)" x2="-5" y2="0" stroke="#888" stroke-width="1" opacity="1"/><line transform="translate(0,273)" x2="-5" y2="0" stroke="#888" stroke-width="1" opacity="1"/><line transform="translate(0,245)" x2="-5" y2="0" stroke="#888" stroke-width="1" opacity="1"/><line transform="translate(0,218)" x2="-5" y2="0" stroke="#888" stroke-width="1" opacity="1"/><line transform="translate(0,191)" x2="-5" y2="0" stroke="#888" stroke-width="1" opacity="1"/><line transform="translate(0,164)" x2="-5" y2="0" stroke="#888" stroke-width="1" opacity="1"/><line transform="translate(0,136)" x2="-5" y2="0" stroke="#888" stroke-width="1" opacity="1"/><line transform="translate(0,109)" x2="-5" y2="0" stroke="#888" stroke-width="1" opacity="1"/><line transform="translate(0,82)" x2="-5" y2="0" stroke="#888" stroke-width="1" opacity="1"/><line transform="translate(0,55)" x2="-5" y2="0" stroke="#888" stroke-width="1" opacity="1"/><line transform="translate(0,27)" x2="-5" y2="0" stroke="#888" stroke-width="1" opacity="1"/><line transform="translate(0,0)" x2="-5" y2="0" stroke="#888" stroke-width="1" opacity="1"/></g><g class="mark-text role-axis-label" pointer-events="none"><text text-anchor="end" transform="translate(-7,303)" font-family="sans-serif" font-size="10px" fill="#000" opacity="1">0</text><text text-anchor="end" transform="translate(-7,275.7272727272727)" font-family="sans-serif" font-size="10px" fill="#000" opacity="1">500</text><text text-anchor="end" transform="translate(-7,248.45454545454544)" font-family="sans-serif" font-size="10px" fill="#000" opacity="1">1,000</text><text text-anchor="end" transform="translate(-7,221.1818181818182)" font-family="sans-serif" font-size="10px" fill="#000" opacity="1">1,500</text><text text-anchor="end" transform="translate(-7,193.9090909090909)" font-family="sans-serif" font-size="10px" fill="#000" opacity="1">2,000</text><text text-anchor="end" transform="translate(-7,166.63636363636363)" font-family="sans-serif" font-size="10px" fill="#000" opacity="1">2,500</text><text text-anchor="end" transform="translate(-7,139.36363636363637)" font-family="sans-serif" font-size="10px" fill="#000" opacity="1">3,000</text><text text-anchor="end" transform="translate(-7,112.0909090909091)" font-family="sans-serif" font-size="10px" fill="#000" opacity="1">3,500</text><text text-anchor="end" transform="translate(-7,84.81818181818181)" font-family="sans-serif" font-size="10px" fill="#000" opacity="1">4,000</text><text text-anchor="end" transform="translate(-7,57.54545454545453)" font-family="sans-serif" font-size="10px" fill="#000" opacity="1">4,500</text><text text-anchor="end" transform="translate(-7,30.27272727272728)" font-family="sans-serif" font-size="10px" fill="#000" opacity="1">5,000</text><text text-anchor="end" transform="translate(-7,3)" font-family="sans-serif" font-size="10px" fill="#000" opacity="1">5,500</text></g><g class="mark-rule role-axis-domain" pointer-events="none"><line transform="translate(0,300)" x2="0" y2="-300" stroke="#888" stroke-width="1" opacity="1"/></g><g class="mark-text role-axis-title" pointer-events="none"><text text-anchor="middle" transform="translate(-36.0244140625,150) rotate(-90) translate(0,-2)" font-family="sans-serif" font-size="11px" font-weight="bold" fill="#000" opacity="1">Youtube Shorts View Count</text></g></g><path class="foreground" aria-hidden="true" d="" pointer-events="none" display="none"/></g></g><g class="mark-symbol role-mark marks" clip-path="url(#clip16)" role="graphics-object" aria-roledescription="symbol mark container"><path aria-label="Instagram Reels View Count: 640; Youtube Shorts View Count: 125" role="graphics-symbol" aria-roledescription="circle" transform="translate(21.333333333333332,293.1818181818182)" d="M3.873,0A3.873,3.873,0,1,1,-3.873,0A3.873,3.873,0,1,1,3.873,0" fill="#0F52BA" stroke-width="2" opacity="0.7"/><path aria-label="Instagram Reels View Count: 402; Youtube Shorts View Count: 226" role="graphics-symbol" aria-roledescription="circle" transform="translate(13.4,287.6727272727273)" d="M3.873,0A3.873,3.873,0,1,1,-3.873,0A3.873,3.873,0,1,1,3.873,0" fill="#0F52BA" stroke-width="2" opacity="0.7"/><path aria-label="Instagram Reels View Count: 143; Youtube Shorts View Count: 136" role="graphics-symbol" aria-roledescription="circle" transform="translate(4.766666666666667,292.58181818181816)" d="M3.873,0A3.873,3.873,0,1,1,-3.873,0A3.873,3.873,0,1,1,3.873,0" fill="#0F52BA" stroke-width="2" opacity="0.7"/><path aria-label="Instagram Reels View Count: 558; Youtube Shorts View Count: 1911" role="graphics-symbol" aria-roledescription="circle" transform="translate(18.6,195.76363636363635)" d="M3.873,0A3.873,3.873,0,1,1,-3.873,0A3.873,3.873,0,1,1,3.873,0" fill="#0F52BA" stroke-width="2" opacity="0.7"/><path aria-label="Instagram Reels View Count: 721; Youtube Shorts View Count: 103" role="graphics-symbol" aria-roledescription="circle" transform="translate(24.03333333333333,294.3818181818182)" d="M3.873,0A3.873,3.873,0,1,1,-3.873,0A3.873,3.873,0,1,1,3.873,0" fill="#0F52BA" stroke-width="2" opacity="0.7"/><path aria-label="Instagram Reels View Count: 334; Youtube Shorts View Count: 26" role="graphics-symbol" aria-roledescription="circle" transform="translate(11.133333333333333,298.5818181818182)" d="M3.873,0A3.873,3.873,0,1,1,-3.873,0A3.873,3.873,0,1,1,3.873,0" fill="#0F52BA" stroke-width="2" opacity="0.7"/><path aria-label="Instagram Reels View Count: 855; Youtube Shorts View Count: 2487" role="graphics-symbol" aria-roledescription="circle" transform="translate(28.5,164.34545454545452)" d="M3.873,0A3.873,3.873,0,1,1,-3.873,0A3.873,3.873,0,1,1,3.873,0" fill="#0F52BA" stroke-width="2" opacity="0.7"/><path aria-label="Instagram Reels View Count: 781; Youtube Shorts View Count: 27" role="graphics-symbol" aria-roledescription="circle" transform="translate(26.03333333333333,298.52727272727276)" d="M3.873,0A3.873,3.873,0,1,1,-3.873,0A3.873,3.873,0,1,1,3.873,0" fill="#0F52BA" stroke-width="2" opacity="0.7"/><path aria-label="Instagram Reels View Count: 57; Youtube Shorts View Count: 5331" role="graphics-symbol" aria-roledescription="circle" transform="translate(1.9,9.218181818181815)" d="M3.873,0A3.873,3.873,0,1,1,-3.873,0A3.873,3.873,0,1,1,3.873,0" fill="#0F52BA" stroke-width="2" opacity="0.7"/><path aria-label="Instagram Reels View Count: 139; Youtube Shorts View Count: 1012" role="graphics-symbol" aria-roledescription="circle" transform="translate(4.633333333333334,244.8)" d="M3.873,0A3.873,3.873,0,1,1,-3.873,0A3.873,3.873,0,1,1,3.873,0" fill="#0F52BA" stroke-width="2" opacity="0.7"/><path aria-label="Instagram Reels View Count: 66; Youtube Shorts View Count: 86" role="graphics-symbol" aria-roledescription="circle" transform="translate(2.2,295.3090909090909)" d="M3.873,0A3.873,3.873,0,1,1,-3.873,0A3.873,3.873,0,1,1,3.873,0" fill="#0F52BA" stroke-width="2" opacity="0.7"/><path aria-label="Instagram Reels View Count: 70; Youtube Shorts View Count: 831" role="graphics-symbol" aria-roledescription="circle" transform="translate(2.3333333333333335,254.6727272727273)" d="M3.873,0A3.873,3.873,0,1,1,-3.873,0A3.873,3.873,0,1,1,3.873,0" fill="#0F52BA" stroke-width="2" opacity="0.7"/><path aria-label="Instagram Reels View Count: 65; Youtube Shorts View Count: 265" role="graphics-symbol" aria-roledescription="circle" transform="translate(2.1666666666666665,285.54545454545456)" d="M3.873,0A3.873,3.873,0,1,1,-3.873,0A3.873,3.873,0,1,1,3.873,0" fill="#0F52BA" stroke-width="2" opacity="0.7"/><path aria-label="Instagram Reels View Count: 60; Youtube Shorts View Count: 10" role="graphics-symbol" aria-roledescription="circle" transform="translate(2,299.45454545454544)" d="M3.873,0A3.873,3.873,0,1,1,-3.873,0A3.873,3.873,0,1,1,3.873,0" fill="#0F52BA" stroke-width="2" opacity="0.7"/><path aria-label="Instagram Reels View Count: 48; Youtube Shorts View Count: 1928" role="graphics-symbol" aria-roledescription="circle" transform="translate(1.5999999999999999,194.83636363636364)" d="M3.873,0A3.873,3.873,0,1,1,-3.873,0A3.873,3.873,0,1,1,3.873,0" fill="#0F52BA" stroke-width="2" opacity="0.7"/><path aria-label="Instagram Reels View Count: 965; Youtube Shorts View Count: 651" role="graphics-symbol" aria-roledescription="circle" transform="translate(32.166666666666664,264.4909090909091)" d="M3.873,0A3.873,3.873,0,1,1,-3.873,0A3.873,3.873,0,1,1,3.873,0" fill="#0F52BA" stroke-width="2" opacity="0.7"/><path aria-label="Instagram Reels View Count: 338; Youtube Shorts View Count: 247" role="graphics-symbol" aria-roledescription="circle" transform="translate(11.266666666666667,286.5272727272727)" d="M3.873,0A3.873,3.873,0,1,1,-3.873,0A3.873,3.873,0,1,1,3.873,0" fill="#0F52BA" stroke-width="2" opacity="0.7"/><path aria-label="Instagram Reels View Count: 8238; Youtube Shorts View Count: 321" role="graphics-symbol" aria-roledescription="circle" transform="translate(274.6,282.4909090909091)" d="M3.873,0A3.873,3.873,0,1,1,-3.873,0A3.873,3.873,0,1,1,3.873,0" fill="#0F52BA" stroke-width="2" opacity="0.7"/><path aria-label="Instagram Reels View Count: 45; Youtube Shorts View Count: 47" role="graphics-symbol" aria-roledescription="circle" transform="translate(1.5,297.43636363636364)" d="M3.873,0A3.873,3.873,0,1,1,-3.873,0A3.873,3.873,0,1,1,3.873,0" fill="#0F52BA" stroke-width="2" opacity="0.7"/><path aria-label="Instagram Reels View Count: 829; Youtube Shorts View Count: 20" role="graphics-symbol" aria-roledescription="circle" transform="translate(27.633333333333336,298.9090909090909)" d="M3.873,0A3.873,3.873,0,1,1,-3.873,0A3.873,3.873,0,1,1,3.873,0" fill="#0F52BA" stroke-width="2" opacity="0.7"/><path aria-label="Instagram Reels View Count: 236; Youtube Shorts View Count: 29" role="graphics-symbol" aria-roledescription="circle" transform="translate(7.866666666666667,298.4181818181818)" d="M3.873,0A3.873,3.873,0,1,1,-3.873,0A3.873,3.873,0,1,1,3.873,0" fill="#0F52BA" stroke-width="2" opacity="0.7"/><path aria-label="Instagram Reels View Count: 755; Youtube Shorts View Count: 5" role="graphics-symbol" aria-roledescription="circle" transform="translate(25.166666666666668,299.72727272727275)" d="M3.873,0A3.873,3.873,0,1,1,-3.873,0A3.873,3.873,0,1,1,3.873,0" fill="#0F52BA" stroke-width="2" opacity="0.7"/><path aria-label="Instagram Reels View Count: 193; Youtube Shorts View Count: 3028" role="graphics-symbol" aria-roledescription="circle" transform="translate(6.433333333333333,134.83636363636364)" d="M3.873,0A3.873,3.873,0,1,1,-3.873,0A3.873,3.873,0,1,1,3.873,0" fill="#0F52BA" stroke-width="2" opacity="0.7"/><path aria-label="Instagram Reels View Count: 33; Youtube Shorts View Count: 38" role="graphics-symbol" aria-roledescription="circle" transform="translate(1.1,297.92727272727274)" d="M3.873,0A3.873,3.873,0,1,1,-3.873,0A3.873,3.873,0,1,1,3.873,0" fill="#0F52BA" stroke-width="2" opacity="0.7"/><path aria-label="Instagram Reels View Count: 118; Youtube Shorts View Count: 21" role="graphics-symbol" aria-roledescription="circle" transform="translate(3.9333333333333336,298.8545454545455)" d="M3.873,0A3.873,3.873,0,1,1,-3.873,0A3.873,3.873,0,1,1,3.873,0" fill="#0F52BA" stroke-width="2" opacity="0.7"/><path aria-label="Instagram Reels View Count: 244; Youtube Shorts View Count: 2490" role="graphics-symbol" aria-roledescription="circle" transform="translate(8.133333333333333,164.18181818181822)" d="M3.873,0A3.873,3.873,0,1,1,-3.873,0A3.873,3.873,0,1,1,3.873,0" fill="#0F52BA" stroke-width="2" opacity="0.7"/><path aria-label="Instagram Reels View Count: 834; Youtube Shorts View Count: 19" role="graphics-symbol" aria-roledescription="circle" transform="translate(27.799999999999997,298.96363636363634)" d="M3.873,0A3.873,3.873,0,1,1,-3.873,0A3.873,3.873,0,1,1,3.873,0" fill="#0F52BA" stroke-width="2" opacity="0.7"/><path aria-label="Instagram Reels View Count: 836; Youtube Shorts View Count: 99" role="graphics-symbol" aria-roledescription="circle" transform="translate(27.866666666666664,294.6)" d="M3.873,0A3.873,3.873,0,1,1,-3.873,0A3.873,3.873,0,1,1,3.873,0" fill="#0F52BA" stroke-width="2" opacity="0.7"/><path aria-label="Instagram Reels View Count: 232; Youtube Shorts View Count: 91" role="graphics-symbol" aria-roledescription="circle" transform="translate(7.733333333333333,295.03636363636366)" d="M3.873,0A3.873,3.873,0,1,1,-3.873,0A3.873,3.873,0,1,1,3.873,0" fill="#0F52BA" stroke-width="2" opacity="0.7"/><path aria-label="Instagram Reels View Count: 287; Youtube Shorts View Count: 13" role="graphics-symbol" aria-roledescription="circle" transform="translate(9.566666666666666,299.2909090909091)" d="M3.873,0A3.873,3.873,0,1,1,-3.873,0A3.873,3.873,0,1,1,3.873,0" fill="#0F52BA" stroke-width="2" opacity="0.7"/><path aria-label="Instagram Reels View Count: 48; Youtube Shorts View Count: 818" role="graphics-symbol" aria-roledescription="circle" transform="translate(1.5999999999999999,255.38181818181818)" d="M3.873,0A3.873,3.873,0,1,1,-3.873,0A3.873,3.873,0,1,1,3.873,0" fill="#0F52BA" stroke-width="2" opacity="0.7"/><path aria-label="Instagram Reels View Count: 365; Youtube Shorts View Count: 292" role="graphics-symbol" aria-roledescription="circle" transform="translate(12.166666666666666,284.07272727272726)" d="M3.873,0A3.873,3.873,0,1,1,-3.873,0A3.873,3.873,0,1,1,3.873,0" fill="#0F52BA" stroke-width="2" opacity="0.7"/><path aria-label="Instagram Reels View Count: 48; Youtube Shorts View Count: 2535" role="graphics-symbol" aria-roledescription="circle" transform="translate(1.5999999999999999,161.72727272727272)" d="M3.873,0A3.873,3.873,0,1,1,-3.873,0A3.873,3.873,0,1,1,3.873,0" fill="#0F52BA" stroke-width="2" opacity="0.7"/><path aria-label="Instagram Reels View Count: 37; Youtube Shorts View Count: 741" role="graphics-symbol" aria-roledescription="circle" transform="translate(1.2333333333333334,259.58181818181816)" d="M3.873,0A3.873,3.873,0,1,1,-3.873,0A3.873,3.873,0,1,1,3.873,0" fill="#0F52BA" stroke-width="2" opacity="0.7"/><path aria-label="Instagram Reels View Count: 469; Youtube Shorts View Count: 570" role="graphics-symbol" aria-roledescription="circle" transform="translate(15.633333333333333,268.90909090909093)" d="M3.873,0A3.873,3.873,0,1,1,-3.873,0A3.873,3.873,0,1,1,3.873,0" fill="#0F52BA" stroke-width="2" opacity="0.7"/></g><g class="mark-group role-title"><g transform="translate(150,-22)"><path class="background" aria-hidden="true" d="M0,0h0v0h0Z" pointer-events="none"/><g><g class="mark-text role-title-text" role="graphics-symbol" aria-roledescription="title" aria-label="Title text 'View counts on Youtube against Instagram'" pointer-events="none"><text text-anchor="middle" transform="translate(0,10)" font-family="sans-serif" font-size="13px" font-weight="bold" fill="#000" opacity="1">View counts on Youtube against Instagram</text></g></g><path class="foreground" aria-hidden="true" d="" pointer-events="none" display="none"/></g></g></g><path class="foreground" aria-hidden="true" d="" display="none"/></g></g></g><defs><clipPath id="clip16"><rect x="0" y="0" width="300" height="300"/></clipPath></defs></svg>